<svg version="1.2" xmlns="http://www.w3.org/2000/svg" viewBox="0 0 91 91" width="91" height="91"><defs><clipPath clipPathUnits="userSpaceOnUse" id="cp1"><path d="m-607-333h1191v1684h-1191z"/></clipPath></defs><style>.a{fill:#f78f1f}.b{fill:#fff}</style><g clip-path="url(#cp1)"><path class="a" d="m11.6 0.3c-6.2 0-11.3 5.1-11.3 11.3v68.1c0 6.2 5.1 11.3 11.3 11.3h68c6.3 0 11.4-5.1 11.4-11.3v-68.1c0-6.2-5.1-11.3-11.4-11.3z"/><path fill-rule="evenodd" class="b" d="m31.3 55c1.7-0.3 6.4-0.5 7 1.4 1.2 3.8-4.3 3.6-6.6 3.3-3.3-0.3-3.4-4.2-0.4-4.7zm11.9 0c1.6-0.3 6.3-0.5 6.9 1.4 1.2 3.8-4.3 3.6-6.6 3.3-3.3-0.3-3.4-4.2-0.3-4.7zm11.8 0c1.1-0.2 5-0.2 5.9 0.3 1.5 0.8 1.5 3.1 0.1 4-1.2 0.7-5.8 0.7-7 0-2.1-1-1.4-3.9 1-4.3zm-12.3-7c0.9-0.2 5.3-0.2 6.1 0.1 2.1 0.7 1.9 4-0.5 4.4-0.8 0.1-5 0.1-5.8-0.1-2.2-0.6-2-4 0.2-4.4z"/><path class="b" d="m38.4 26.7h14.4v-3.2c0-0.4 1.3-1.4 1.8-1.5 2.8-0.7 3.1 2.7 2.8 4.7h6c2.9 0 5.5 3.9 5.8 6.5 1 9.1-0.6 19.8 0.1 29.1-0.4 4-3.2 6.6-7.2 6.9-10.8 0.7-22.5-0.6-33.4-0.1-3.8-0.4-6.4-3.1-6.7-6.8 0.6-9.4-0.8-19.7 0-28.9 0.2-2.7 2.9-6.7 5.8-6.7h6c-0.3-2 0.1-5.4 2.9-4.7 0.5 0.1 1.7 1.1 1.7 1.5zm-4.6 4.6h-5.4c-0.7 0-1.8 1.6-1.8 2.3v4.9h38.1v-4.9c0-0.7-1.2-2.3-1.9-2.3h-5.4c0.1 1.8 0.3 4.4-1.9 4.8-0.9 0.1-2.7-0.8-2.7-1.6v-3.2h-14.4v3.2c0 0.8-1.8 1.7-2.6 1.6-2.3-0.4-2-3-2-4.8zm30.9 11.8h-38.1v19.2c0 1 1.6 2.3 2.7 2.3 10.5-0.6 21.8 0.8 32.2 0 1.1-0.1 2.1-0.3 2.7-1.3 0.1-0.1 0.5-1 0.5-1z"/><path fill-rule="evenodd" class="b" d="m37.7 48.4c1.2 1.1 1 3.5-0.8 4-0.9 0.2-4.9 0.3-5.8 0.1-2.6-0.4-2.5-4-0.4-4.5 1.1-0.2 4.5-0.2 5.6-0.1 0.4 0.1 1.1 0.3 1.4 0.5zm23.6 0c1.3 1.1 0.9 3.5-0.8 4-0.8 0.2-4.9 0.2-5.8 0.1-2.6-0.4-2.3-4-0.3-4.5 1-0.2 4.4-0.2 5.6-0.1 0.4 0.1 1 0.3 1.3 0.5z"/></g></svg>