<svg version="1.2" xmlns="http://www.w3.org/2000/svg" viewBox="0 0 91 92" width="91" height="92"><defs><clipPath clipPathUnits="userSpaceOnUse" id="cp1"><path d="m-72-795h1191v1684h-1191z"/></clipPath></defs><style>.a{fill:#f78f1f}.b{fill:#fff}</style><g clip-path="url(#cp1)"><path class="a" d="m11.3 0.3c-6.2 0-11.3 5.1-11.3 11.4v68c0 6.3 5.1 11.3 11.3 11.3h68.1c6.2 0 11.3-5 11.3-11.3v-68c0-6.3-5.1-11.4-11.3-11.4z"/><path class="b" d="m49.3 73.1c-0.2 0.2-0.7 0.5-0.9 0.6-2.2 1.1-4.9 1.7-7.2 2.7-1.5 0.5-3-1.2-3.7-2.4-1.6-2.9-2.6-6.5-4.1-9.4-0.7-1.3-1.5-1-2.7-1.3-0.6-0.2-1.2-0.5-1.7-0.8-0.3-0.2-0.9-1-1.1-1-1.3 0.3-2.6 1.1-4 1.1-3 0-6.7-2.9-7.6-5.8-1-3.1-0.3-7.7 2.8-9.2 1.1-0.5 2.4-1 3.5-1.5 9.6-4.3 20.9-10.5 24.3-21.3 1.1-3.1 1.3-10 5.9-9.9 4.2 0.1 9.4 6.9 11.6 10.1 4.3 6.4 7.7 14.3 9.4 21.8 0.8 3.8 2.1 11.8-0.6 15-2.9 3.5-7.4-0.4-10.2-2-4.9-2.7-9.4-3.6-15-3.4-2 0.1-5.2 0.6-4.8 3.3l3.4 7.8c0.8 1.4 3.1 1.6 3.4 3.4 0.1 0.9-0.1 1.6-0.7 2.2zm18.7-17.4c0.8-2.6 0.4-5.6-0.1-8.2-1.4-7.6-6.5-18.5-12.4-23.7-0.2-0.2-1.6-1.3-1.9-1.2-0.7 2.7-0.4 5.7 0 8.4 1.2 8.1 5.5 17.6 11.7 23.1 0.4 0.3 2.3 1.8 2.7 1.6z"/></g></svg>