<svg version="1.2" xmlns="http://www.w3.org/2000/svg" viewBox="0 0 92 92" width="92" height="92"><defs><clipPath clipPathUnits="userSpaceOnUse" id="cp1"><path d="m-74-367h1191v1684h-1191z"/></clipPath></defs><style>.a{fill:#f78f1f}.b{fill:#fff}</style><g clip-path="url(#cp1)"><path class="a" d="m8.9 0.9c-4.5 0-8.2 3.7-8.2 8.3v74.2c0 4.5 3.7 8.2 8.2 8.2h74.2c4.6 0 8.3-3.7 8.3-8.2v-74.2c0-4.6-3.7-8.3-8.3-8.3z"/><path class="b" d="m73.2 46.5c-0.1-4.4-0.2-8.8 0-13.1v-0.1c-0.7-6-5.6-10.6-11.6-11.1h-0.1c-4.2 0.3-8.7 0.1-13 0-4.7-0.1-9.5-0.3-14.1 0-2.8 0.2-5.8 1.5-8 3.6-2.5 2.3-3.8 5.1-3.8 7.9v5.6h6.1v-5.2c0-2.9 3.1-5.4 5.8-5.7 4.4-0.5 9.3-0.3 14-0.1 4.2 0.2 8.6 0.4 12.7 0.1 3.1 0.2 5.4 2.4 5.9 5.6-0.2 4.2-0.1 8.5 0 12.8 0.2 4.7 0.3 9.5 0 14-0.2 3.3-2.7 5.7-6.2 6-4.6 0.3-9.5 0.1-14.3 0-4-0.1-8.3-0.3-12.3-0.1-2.7-0.1-5.6-3.1-5.6-5.7v-5.2h-6.1v5.6c0 2.8 1.3 5.6 3.8 7.9 2.2 2.1 5.2 3.4 8 3.6q3.6 0.2 7.3 0.2c3.5 0 7-0.1 10.5-0.2 3.6-0.2 7.4-0.3 10.9-0.3h0.1 0.1c5.5-1.1 9.6-5.8 9.9-11.4 0.3-4.8 0.2-9.8 0-14.7z"/><path class="b" d="m47.3 63.8l16.2-16.3-16.2-16.2v10.2h-29.7v12.1h29.7z"/></g></svg>