<svg version="1.2" xmlns="http://www.w3.org/2000/svg" viewBox="0 0 91 91" width="91" height="91"><defs><clipPath clipPathUnits="userSpaceOnUse" id="cp1"><path d="m-607-911h1191v1684h-1191z"/></clipPath></defs><style>.a{fill:#f78f1f}.b{fill:#fff}</style><g clip-path="url(#cp1)"><path class="a" d="m9.5 0.2c-5.1 0-9.2 4.1-9.2 9.2v72.3c0 5.1 4.1 9.2 9.2 9.2h72.3c5.1 0 9.2-4.1 9.2-9.2v-72.3c0-5.1-4.1-9.2-9.2-9.2z"/><path class="b" d="m72.9 17.4h-14.1c-0.3 0-0.4 0.2-0.4 0.4v3.9c0 0.3 0.1 0.5 0.4 0.5h6.1l-10.4 10.9c-1.9-1.9-4.4-3.2-6.9-3.6-4-0.6-8 0.7-10.9 3.6-0.1-0.2-0.4-0.5-0.6-0.7-0.3-0.3-0.5-0.6-0.7-0.8l3.3-3.4q0.1-0.2 0.1-0.3 0-0.2-0.1-0.3l-3.1-3.2c-0.2-0.2-0.4-0.2-0.6 0l-3.3 3.4-5.4-5.6h6.2c0.2 0 0.4-0.2 0.4-0.5v-3.9c0-0.2-0.2-0.4-0.4-0.4h-14.1c-0.2 0-0.4 0.2-0.4 0.4v14.9c0 0.2 0.2 0.4 0.4 0.4h3.7c0.2 0 0.4-0.2 0.4-0.4v-7.2l5.7 6-3.2 3.4c-0.1 0.2-0.1 0.5 0 0.6l3.1 3.3c0.1 0.1 0.4 0.1 0.6 0l3.2-3.4 1.9 1.9c-2 4.5-1.6 9.8 1.1 13.8 1.7 2.5 4.2 4.4 7 5.3q0.2 0 0.5 0.1 0.3 0.1 0.6 0.2v4.9h-6.8c-0.3 0-0.5 0.2-0.5 0.4v4.6q0.1 0.2 0.2 0.3 0.1 0.1 0.3 0.1h6.8v6.3c0 0.2 0.2 0.4 0.4 0.4h4.5c0.2 0 0.4-0.2 0.4-0.4v-6.3h6.8q0.2 0 0.3-0.1 0.1-0.1 0.1-0.3v-4.6c0-0.2-0.2-0.4-0.4-0.4h-6.8v-4.9q0.2-0.1 0.5-0.2 0.2 0 0.4-0.1c3.6-1.1 6.5-3.6 8.1-7 1.7-3.5 1.8-7.6 0.5-11.4q-0.1-0.2-0.2-0.3c0-0.1-0.1-0.3-0.1-0.4l11.3-11.8v7.2c0 0.2 0.2 0.4 0.4 0.4h3.7c0.2 0 0.4-0.2 0.4-0.4v-14.9c0-0.2-0.2-0.4-0.4-0.4zm-34.6 23.1c0.9-2.6 2.9-4.6 5.5-5.3q0.9-0.2 1.9-0.2c1.9 0 3.8 0.8 5.3 2.3 1.9 1.9 2.7 4.6 2.2 7.3-0.4 2.7-2.1 4.9-4.5 6-2.8 1.3-6 0.8-8.3-1.5-2.3-2.2-3.1-5.5-2.1-8.6z"/></g></svg>