<svg version="1.2" xmlns="http://www.w3.org/2000/svg" viewBox="0 0 91 92" width="91" height="92"><defs><clipPath clipPathUnits="userSpaceOnUse" id="cp1"><path d="m-72-361h1191v1684h-1191z"/></clipPath></defs><style>.a{fill:#f78f1f}.b{fill:#fff}</style><g clip-path="url(#cp1)"><path class="a" d="m11.3 0.6c-6.2 0-11.3 5.1-11.3 11.4v68c0 6.3 5.1 11.3 11.3 11.3h68.1c6.2 0 11.3-5 11.3-11.3v-68c0-6.3-5.1-11.4-11.3-11.4z"/><path class="b" d="m39.2 37.7c9.5-0.9 12.6 12.7 3.8 16-11.9 4.4-16-14.8-3.8-16z"/><path fill-rule="evenodd" class="b" d="m48.6 60.1l2.4-2.8c1.7 0.3 10.6-0.4 11.4 0.4 0.9 1.6-0.2 5 0.4 6.5 0.1 0.5 1.1 0.8 1.6 1.2 2.3 2.2 1.2 6.8-2.1 7.3-5.7 0.8-7.2-6.1-2.4-8.4v-3.8l-0.3-0.4zm8.2-29.2c0.1 0 0.3 0.4 0.6-0.2v-3c-1.8-1-3.2-2.5-3-4.7 0.6-5.5 9.5-5 8.5 1.4-0.3 2.3-2.5 2.7-2.7 3.3-0.5 1.4 0.7 5.4-0.8 6.1-0.4 0.1-6.6 0.2-7.1 0.1l-2.2-3c2.2 0 4.4-0.1 6.7 0z"/><path fill-rule="evenodd" class="b" d="m66.5 27.2c0.3 1.9 2.5 3.1 2.5 3.3v8.4h-14.4l0.7 3.1 15.7-0.2c0.5-0.3 0.7-0.6 0.8-1.2 0.4-3-0.3-6.8 0-9.8 1.6-1.1 2.7-1.8 3.3-3.7v-1.5c-1.5-5.5-9.4-4.3-8.6 1.6zm-22.2-3c0-0.1-0.6-1.1-0.8-1.3-1.3-1.2-5.8-1.2-7.3-0.2-1.6 1.1-1.2 3.7-1.3 5.4-1.6 0.2-3.3 0.8-4.6 1.7-3.1-3.7-5.6-3.6-8.5 0.2-2.1 2.8-0.6 4.2 1.5 6.3l-2 4.9c-5.1-0.5-6.1 2-5.5 6.7 0.4 3.2 2.8 2.5 5.3 2.8l2.1 5.1c-3.8 2.9-2.6 5.9 0.8 8.4 2.8 2 4.1-0.3 6.1-2l4.7 1.7c0.5 0.3-0.5 4.1 1.4 5.4 1.5 1 6 1 7.3-0.2 0.2-0.2 0.8-1.2 0.8-1.3v-10.7c-9.4 3.5-19.6-4.1-17-14.3 2-7.6 10-10.1 17-8.2z"/><path class="b" d="m54.1 51.8l0.9-2.7 11.1-0.1c1.2-0.8 1.3-2 2.9-2.6 5.4-2.1 8.3 5.9 3.5 8-2.7 1.1-4.9-0.2-6.1-2.6z"/></g></svg>