<svg version="1.2" xmlns="http://www.w3.org/2000/svg" viewBox="0 0 92 91" width="92" height="91"><defs><clipPath clipPathUnits="userSpaceOnUse" id="cp1"><path d="m-74-914h1191v1684h-1191z"/></clipPath></defs><style>.a{fill:#f78f1f}.b{fill:#fff}</style><g clip-path="url(#cp1)"><path class="a" d="m8.9 0c-4.5 0-8.2 3.7-8.2 8.3v74.2c0 4.5 3.7 8.2 8.2 8.2h74.2c4.6 0 8.3-3.7 8.3-8.2v-74.2c0-4.6-3.7-8.3-8.3-8.3z"/><path class="b" d="m47.1 17l2 0.2c13.1 1.5 23.7 11.9 25.1 25l0.2 2.2c0 0.6 0 1.3 0 1.9 0 1.2-0.2 2.6-0.4 3.8q-0.2 1.2-0.6 2.4l-13.1-10.5v-0.1l6.2-2c-1.3-5-4.4-9.3-8.6-12.1-7.5-5.1-17.4-4.9-24.7 0.4-2.4 1.8-4.4 4-5.8 6.5l-6.2-3.5c0-0.1 0-0.1 0-0.1 0.2-0.3 0.5-0.7 0.6-1 5-7.7 13.7-12.7 22.8-13.1z"/><path class="b" d="m31.8 48.9l-6.3 2c1.9 7.3 7.8 13.1 15 15 9.4 2.6 19.3-1.5 24.2-9.8l6.2 3.5c-4.4 7.5-12.1 12.7-20.7 13.9-14.3 2-27.9-6.9-31.6-20.8-1.3-4.7-1.3-9.6-0.1-14.3z"/><path class="b" d="m60.2 44.4h-10.6v14.2h-7.1v-14.2h-10.6l14.1-14.2z"/></g></svg>