<svg version="1.2" xmlns="http://www.w3.org/2000/svg" viewBox="0 0 91 92" width="91" height="92"><defs><clipPath clipPathUnits="userSpaceOnUse" id="cp1"><path d="m-607-367h1191v1684h-1191z"/></clipPath></defs><style>.a{fill:#f78f1f}.b{fill:#fff}</style><g clip-path="url(#cp1)"><path class="a" d="m11.6 0.9c-6.2 0-11.3 5.1-11.3 11.3v68.1c0 6.2 5.1 11.3 11.3 11.3h68c6.3 0 11.4-5.1 11.4-11.3v-68.1c0-6.2-5.1-11.3-11.4-11.3z"/><path fill-rule="evenodd" class="b" d="m72.3 47.8v21.3c0 0.2-0.4 0.9-0.6 1l-51.6 0.1c-0.2-0.2-1.1-1-1.1-1.1v-21.3c1.7 1.4 3.5 2.1 5.7 2.3 3.2-0.2 6.4-0.3 9.7-0.2 0.2 6 5.1 10.9 11.2 10.9 6 0 10.8-4.6 11.3-10.4q4.7 0 9.3-0.3c2.4-0.2 4.3-0.6 6.1-2.3zm-0.2-4.5c-0.8 2.9-3.1 3.6-5.9 3.8q-4.6 0.3-9.5 0.3c-0.9-5.2-5.5-9.2-11.1-9.2-5.3 0-9.8 3.7-10.9 8.7-4.1-0.1-8.1-0.2-11.9-0.1-1.9-0.7-3.4-2-3.7-4.1-0.3-1.9-0.3-7.2-0.1-9.1 0.1-0.9 0.3-1.5 0.9-2.1h15v-6.1c0-0.1 0.9-0.9 1-0.9h20l0.5 0.5v6l0.6 0.5h14.4c0.1 0 0.7 0.6 0.7 0.8 0.5 1 0.3 9.6 0 11zm-19.6-15.2h-13.7c0.2 1.4-0.5 2.3 0.6 3.4h13.1z"/><path class="b" d="m52.7 47.4c-0.9-3.1-3.7-5.3-7.1-5.3-3.2 0-5.9 2.1-6.9 4.9q-0.5 1.2-0.5 2.5 0 0.2 0 0.4c0.3 3.9 3.5 7 7.4 7 3.8 0 7-2.9 7.4-6.6q0-0.4 0-0.8 0-1.1-0.3-2.1zm-3.7 3.9c0 1.4-0.9 2.5-2.7 2.9v1.5h-1.5v-1.4c-1-0.1-2-0.4-2.6-0.7l0.5-1.8c0.6 0.4 1.5 0.7 2.5 0.7 0.9 0 1.5-0.3 1.5-0.9 0-0.5-0.4-0.9-1.2-1.2q-0.2-0.1-0.4-0.2c-1.7-0.5-2.8-1.3-2.8-2.8q0-0.6 0.3-1.2c0.4-0.7 1.2-1.2 2.3-1.5v-1.4h1.5v1.3c1 0.1 1.7 0.3 2.2 0.5l-0.3 1.3-0.1 0.5c-0.4-0.2-0.9-0.5-1.7-0.5q-0.3-0.1-0.5-0.1-0.1 0-0.2 0c-0.9 0.1-1.1 0.5-1.1 0.9 0 0.5 0.5 0.8 1.8 1.3 1.4 0.5 2.1 1.1 2.4 2q0.1 0.4 0.1 0.8z"/></g></svg>