<svg version="1.2" xmlns="http://www.w3.org/2000/svg" viewBox="0 0 91 91" width="91" height="91"><defs><clipPath clipPathUnits="userSpaceOnUse" id="cp1"><path d="m-72-333h1191v1684h-1191z"/></clipPath></defs><style>.a{fill:#f78f1f}.b{fill:#fff}</style><g clip-path="url(#cp1)"><path class="a" d="m11.3 0.3c-6.2 0-11.3 5.1-11.3 11.3v68.1c0 6.2 5.1 11.3 11.3 11.3h68.1c6.2 0 11.3-5.1 11.3-11.3v-68.1c0-6.2-5.1-11.3-11.3-11.3z"/><path class="b" d="m27.4 46.3l-0.6-5.9c-5.8-0.9-9.7-6.6-8.1-12.4 1.1-3.7 4.4-6.4 8.2-6.9 6.9 0.1 14.1-0.4 20.9-0.1 8.1 0.4 12.6 9.4 7.4 15.8-4 5.1-10.2 3.3-15.9 3.6zm-0.8-17.8c-2.1 0.4-2 3.6 0 3.9 3.2 0.4 3-4.3 0-3.9zm7.1 0c-2.3 0.4-2 4.3 0.8 3.9 2.3-0.4 1.9-4.3-0.8-3.9zm7.1 0c-0.6 0.1-1.3 0.7-1.5 1.3-0.5 1.9 1.6 3.4 3.1 2.2 1.6-1.2 0.5-3.8-1.6-3.5zm9.3 0.6c-1.7-1.8-4.7 0.8-2.9 2.7 1.8 1.9 4.7-0.8 2.9-2.7z"/><path class="b" d="m63.9 64.4l-0.8 6-11.7-5.9c-5.4-0.4-11.3 1.4-15.4-3-4.3-4.6-3.2-12 2.2-15.1 2.5-1.4 4.8-1.3 7.6-1.3 5.4 0 11.4-0.2 16.9 0 3.4 0.2 6.4 1.7 8.2 4.7 3.7 6-0.1 13.7-7 14.6zm-22.7-13.9c-1.4 0.4-1.3 2.4 0.2 2.6h22.9c1.5-0.1 1.5-2.4 0-2.6zm0.3 5.7c-1.7 0.2-1.8 2.5-0.1 2.7h22.8c1.6-0.2 1.6-2.5-0.2-2.7z"/></g></svg>