<svg version="1.2" xmlns="http://www.w3.org/2000/svg" viewBox="0 0 92 92" width="92" height="92"><defs><clipPath clipPathUnits="userSpaceOnUse" id="cp1"><path d="m-606-361h1191v1684h-1191z"/></clipPath></defs><style>.a{fill:#f78f1f}.b{fill:#fff}</style><g clip-path="url(#cp1)"><path class="a" d="m12 0.6c-6.3 0-11.4 5.1-11.4 11.4v68c0 6.3 5.1 11.3 11.4 11.3h68c6.2 0 11.3-5 11.3-11.3v-68c0-6.3-5.1-11.4-11.3-11.4z"/><path fill-rule="evenodd" class="b" d="m68.2 25.3c-0.5-0.5-1-0.6-1.7-0.5-0.5 0.2-3.6 1.7-4 2-0.8 0.5-1.1 1.1-0.7 2l9.6 19.3c0.6 0.5 1 0.6 1.8 0.3 0.9-0.2 4.1-1.7 4.5-2.4 0.2-0.2 0.1-0.5 0.3-0.6v-0.3zm-44-0.7c-0.4 0.3-0.7 0.6-1 1-0.6 0.9-1.1 2.6-1.6 3.6-2.6 5.2-5.2 10.4-7.6 15.7-0.2 0.7 0.1 1.2 0.7 1.6 0.5 0.4 2.9 1.6 3.5 1.9 1.4 0.5 2.1 0.2 2.7-1 3.3-5.9 5.7-12.7 8.9-18.6 0.2-0.6 0.2-1.1-0.1-1.6-0.5-0.8-3.9-1.9-4.8-2.6z"/><path class="b" d="m30.1 33.7l1.4-3h9.5c3.2-1.6 5.8-2.3 9.4-1.8 3.2 0.4 6.6 2.4 10 1.8l8.4 17.6c0.2 0.7-1 2.5-1.2 3.2 0.2 0.7 0.7 1.2 0.9 1.8 1.2 3.2-0.9 6.3-4.3 6.2 0.5 2.8-2.3 5.1-5 4.4-0.3 3.8-4 4.8-7 2.9-1.2 2.3-4 3.2-6.2 1.7-1.1 1.4-2.3 2.8-4.3 2-1.3-0.6-1.9-2.2-1.5-3.6-0.2 0-0.2 0.3-0.3 0.5-1.4 1.1-2.8 1.6-4.3 0.4-1.4-1.1-1.3-2.3-0.8-3.9-2.8 2.6-6.6-0.4-5.1-3.8-2.5 2.4-6.4 0.2-5.5-3.3 0.2-0.7 2.8-3.6 2.8-3.9l-3.5-4.4 1-2.6 0.3 0.2 4.1 5c2.4-0.4 4.1 0.6 4.3 3.1 0 0.4-0.2 0.8-0.1 1.1 0 0.1 0.5 0.6 0.6 0.6 0 0.1 0.9-0.1 1.2 0 1.3 0.1 2.3 1.2 2.7 2.4 0.1 0.3 0 0.7 0.2 1 0.7 1 2.1 0.4 3.1 1 0.4 0.2 1 1 1.1 1.3 0.3 0.5 0.3 1.2 0.5 1.4 0.6 0.9 2.2 1.1 2.9 1.7 0.7 0.5 0.9 1.4 2 1.9 1.2 0.6 3 0.1 2.6-1.4-0.1-0.4-5.1-3.7-5.7-4.4-0.5-1.3 0.5-1.9 1.6-1.4l8.7 6c2 0.5 3.1-1.7 1.7-3.2l-9.1-6.6c-0.8-1 0.2-2.1 1.4-1.7l10.7 7.7c2 0.9 3.5-1.6 2-3l-11.8-8.6c-0.7-1.4 0.6-2.3 1.8-1.5l12.2 8.7c2.5 0.8 4-2.2 2.3-4-5.8-4.5-11.1-10.3-16.9-14.7-1.5-1.2-3.3-1.4-4.9-0.2-1.3 1.1-1.1 2.7-2 4.2-1.4 2.4-5.2 4.5-7.7 2.6-1.7-1.2-0.6-2.1-0.1-3.4 0.6-1.8 0.3-3.4 0.7-5.1 0.3-1.1 0.9-2 1.5-2.9z"/></g></svg>