<?xml version="1.0" encoding="UTF-8"?>
<svg id="Layer_2" data-name="Layer 2" xmlns="http://www.w3.org/2000/svg" viewBox="0 0 781.02 473.57">
  <defs>
    <style>
      .cls-1 {
        fill: #231f20;
      }

      .cls-2 {
        fill: #fff;
      }

      .cls-3 {
        fill: #f79439;
      }

      .cls-4 {
        fill: #537dbf;
        opacity: .15;
      }

      .cls-5 {
        fill: #12bdcd;
      }
    </style>
  </defs>
  <g id="Graphics">
    <g>
      <rect class="cls-3" x="79.31" y="230.11" width="663.26" height="243.46"/>
      <g>
        <path class="cls-5" d="M187.05,197.39h20.73v-50h-18.29v-16.16c10.97-2.13,17.99-4.88,25.3-9.45h19.21v75.61h17.37v21.04h-64.32v-21.04Z"/>
        <path class="cls-5" d="M264.8,203.49c22.86-21.04,40.55-37.19,40.55-50.3,0-8.69-4.88-12.8-11.89-12.8-6.4,0-11.28,4.57-15.85,9.15l-14.02-14.02c10.06-10.67,19.21-15.55,33.53-15.55,19.51,0,33.23,12.5,33.23,31.71,0,15.55-14.63,32.62-27.74,46.03,4.88-.61,11.89-1.22,16.16-1.22h16.16v21.95h-70.12v-14.94Z"/>
        <path class="cls-5" d="M344.98,148.92c0-19.82,10.97-31.4,25.61-31.4s25.61,11.58,25.61,31.4-10.98,31.71-25.61,31.71-25.61-11.89-25.61-31.71ZM378.21,148.92c0-13.41-3.66-17.07-7.62-17.07s-7.62,3.66-7.62,17.07,3.66,17.38,7.62,17.38,7.62-3.96,7.62-17.38ZM427.29,117.52h14.63l-53.05,102.74h-14.63l53.05-102.74ZM419.67,188.55c0-19.82,10.97-31.4,25.61-31.4s25.61,11.58,25.61,31.4-10.98,31.71-25.61,31.71-25.61-11.89-25.61-31.71ZM452.9,188.55c0-13.41-3.66-17.07-7.62-17.07s-7.62,3.66-7.62,17.07,3.66,17.38,7.62,17.38,7.62-3.96,7.62-17.38Z"/>
      </g>
      <g>
        <g id="Circle">
          <path class="cls-4" d="M89.42,203.58c49.38,0,89.42,40.04,89.42,89.42,0,49.38-40.04,89.42-89.42,89.42-49.38,0-89.42-40.04-89.42-89.42,0-49.38,40.04-89.42,89.42-89.42Z"/>
          <path class="cls-3" d="M89.42,218.49c41.15,0,74.52,33.37,74.52,74.52,0,41.15-33.37,74.51-74.52,74.51-41.15,0-74.52-33.36-74.52-74.51,0-41.15,33.37-74.52,74.52-74.52Z"/>
        </g>
        <g>
          <path class="cls-2" d="M70.48,303.62c-.12.53-.18,1.05-.18,1.59,0,4.2,3.42,7.62,7.62,7.62.5,0,1.01-.05,1.55-.15,3.18-.65,5.59-3.25,5.99-6.38.06-.36.08-.73.08-1.09,0-4.2-3.42-7.61-7.62-7.61-.36,0-.73.02-1.01.07-3.22.42-5.81,2.83-6.44,5.95Z"/>
          <path class="cls-2" d="M53.48,291.63c0,20.93,16.99,37.95,37.9,38.02.04,0,.08,0,.12,0,.06,0,.11,0,.17,0,20.85-.09,37.79-17.05,37.85-37.9,0-.04,0-.08,0-.12,0-.02,0-.05,0-.07-.04-20.93-17.08-37.95-38.02-37.95-20.96,0-38.02,17.06-38.02,38.02ZM81.81,259.92c-2.64,3.9-4.72,9.42-6,16.03-6.61,1.28-12.13,3.35-16.03,6,3.22-10.51,11.52-18.81,22.02-22.02ZM101.19,323.35c2.64-3.9,4.72-9.42,5.99-16.03,6.61-1.28,12.13-3.35,16.03-5.99-3.22,10.51-11.52,18.81-22.02,22.02ZM123.23,281.99c-2.05-1.39-4.58-2.64-7.52-3.7,0,.7-.08,1.36-.21,1.99-.16.97-.49,1.9-.92,2.77,6.15,2.33,10.04,5.51,10.09,8.52,0,.02,0,.04,0,.07,0,.01,0,.02,0,.03-.03,3.96-6.41,8.22-16.68,10.51.4-3.33.62-6.86.62-10.55,0-1.1-.04-2.18-.08-3.26-.58.2-1.17.37-1.79.48-.64.11-1.25.16-1.88.16-.4,0-.79-.02-1.18-.07.03.89.07,1.78.07,2.69,0,4.11-.3,7.94-.8,11.45-3.51.5-7.34.8-11.45.8-.94,0-1.88-.04-2.81-.07.06.45.1.91.1,1.38,0,.57-.04,1.1-.12,1.61-.08.64-.24,1.25-.43,1.85,1.09.04,2.17.08,3.27.08,3.69,0,7.22-.22,10.55-.62-2.29,10.26-6.54,16.63-10.5,16.68-.02,0-.03,0-.05,0-.04,0-.07,0-.11,0-3.02-.09-6.13-3.86-8.44-9.98-.88.45-1.82.81-2.82,1.02-.68.13-1.29.19-1.91.21,1.04,2.86,2.24,5.3,3.58,7.3-10.49-3.22-18.79-11.51-22.01-22.01,2,1.34,4.44,2.54,7.3,3.58.02-.68.09-1.34.24-2.01.19-.97.54-1.87.98-2.73-6.19-2.34-9.97-5.49-9.97-8.55,0-3.97,6.38-8.24,16.67-10.54-.4,3.33-.62,6.86-.62,10.54,0,1.11.04,2.21.08,3.31.66-.22,1.33-.4,2.03-.49.45-.08,1.04-.1,1.43-.1.47,0,.93.04,1.38.1-.03-.94-.07-1.87-.07-2.82,0-4.11.3-7.94.8-11.45,3.51-.5,7.34-.8,11.45-.8.86,0,1.72.04,2.59.06-.05-.42-.08-.85-.08-1.29,0-.51.04-1.05.12-1.62.1-.67.28-1.31.49-1.94-1.04-.04-2.08-.08-3.12-.08-3.69,0-7.22.22-10.54.62,2.3-10.29,6.58-16.67,10.54-16.67,3.06,0,6.21,3.78,8.55,9.96.96-.47,1.99-.82,3.09-.99.43-.08,1.06-.14,1.67-.14-1.04-2.89-2.25-5.36-3.6-7.38,10.52,3.22,18.82,11.54,22.02,22.07Z"/>
          <path class="cls-2" d="M97.33,277c-.05.37-.09.76-.09,1.15,0,4.2,3.42,7.62,7.62,7.62.44,0,.87-.04,1.32-.11,3.16-.55,5.64-3.04,6.15-6.07.1-.45.15-.92.15-1.43,0-4.2-3.42-7.62-7.62-7.62-.44,0-.88.04-1.22.11-3.28.52-5.81,3.07-6.31,6.36Z"/>
        </g>
      </g>
      <g>
        <path class="cls-3" d="M618.45,95.42c-10.59-4.87-23.97-10.68-27.56-10.68-2.86,0-12.12,3.59-27.53,10.68-1.58.73-2.6,2.31-2.6,4.06v29c0,17.13,25.5,28.32,28.4,29.54.56.23,1.14.35,1.73.35s1.17-.12,1.72-.35c.15-.06,3.82-1.6,8.41-4.31,9.14-5.32,20.02-14.02,20.02-25.24v-29c0-1.74-1.01-3.33-2.6-4.06Z"/>
        <path class="cls-3" d="M601.83,192.25v-31.61c-3.27,1.78-5.83,2.92-6.65,3.27-1.01.42-2,.63-2.99.75v23.94h-93.37v-65.2h55.5v-9.64h-60.33c-2.66,0-4.82,2.16-4.82,4.82v73.71l-18.66,36.47c-.77,1.5-.7,3.28.18,4.71.88,1.43,2.43,2.31,4.11,2.31h141.42c1.68,0,3.24-.87,4.11-2.31.88-1.43.94-3.21.18-4.71l-18.68-36.52Z"/>
      </g>
      <g>
        <path class="cls-5" d="M780.35,207.15l-64.82-136.57c7.14-3.14,12.16-10.26,12.16-18.55,0-11.17-9.09-20.26-20.26-20.26s-20.26,9.09-20.26,20.26c0,8.29,5.01,15.41,12.15,18.55l-64.82,136.57c-1.64,3.46-.17,7.59,3.29,9.23,3.46,1.65,7.59.17,9.23-3.29l12.32-25.95,48.09-39.32,48.08,39.31,12.32,25.96c1.19,2.49,3.67,3.96,6.26,3.96,1,0,2.01-.21,2.97-.67,3.45-1.64,4.92-5.77,3.29-9.23ZM673.21,157.91l13.01-27.42,10.26,8.39-23.27,19.03ZM692.34,117.6l15.08-31.78,15.08,31.78-15.08,12.33-15.09-12.33ZM718.37,138.88l10.26-8.39,13.01,27.41-23.27-19.02Z"/>
        <path class="cls-5" d="M674.83,84.63l9.8-9.8c-12.57-12.57-12.57-33.03,0-45.6l-9.8-9.8c-17.98,17.98-17.97,47.22,0,65.2Z"/>
        <path class="cls-5" d="M740.03,84.63c17.97-17.97,17.97-47.22,0-65.2l-9.8,9.8c12.57,12.57,12.57,33.03,0,45.6l9.8,9.8Z"/>
        <path class="cls-5" d="M665.18,94.28c-23.29-23.29-23.29-61.19,0-84.48l-9.8-9.8c-28.69,28.7-28.69,75.38,0,104.07l9.8-9.8Z"/>
        <path class="cls-5" d="M749.67,94.28l9.8,9.8c28.69-28.69,28.69-75.38,0-104.07l-9.8,9.8c23.29,23.29,23.29,61.19,0,84.48Z"/>
      </g>
      <g>
        <path class="cls-1" d="M190.26,270.2h6.14v34.6h-6.14v-34.6Z"/>
        <path class="cls-1" d="M204.65,278.81h4.99l.47,3.51h.17c2.33-2.26,4.97-4.15,8.53-4.15,5.56,0,8,3.77,8,10.33v16.29h-6.09v-15.51c0-4.27-1.23-5.88-4.04-5.88-2.29,0-3.79,1.12-5.92,3.24v18.16h-6.09v-25.99Z"/>
        <path class="cls-1" d="M231.82,279.09l3.81-.28h10.86v4.85h-14.66v-4.57ZM235.31,276.12c0-5.39,2.48-9.33,8.61-9.33,1.88,0,3.6.44,4.76.91l-1.16,4.55c-.93-.4-1.93-.61-2.81-.61-2.16,0-3.3,1.37-3.3,4.38v28.78h-6.1v-28.67Z"/>
        <path class="cls-1" d="M248.81,291.82c0-8.65,5.88-13.65,12.36-13.65s12.36,4.99,12.36,13.65-5.88,13.61-12.36,13.61-12.36-4.99-12.36-13.61ZM267.26,291.82c0-5.21-2.29-8.68-6.09-8.68s-6.09,3.47-6.09,8.68,2.29,8.63,6.09,8.63,6.09-3.43,6.09-8.63Z"/>
        <path class="cls-1" d="M279.57,278.81h4.99l.47,4.63h.17c1.85-3.39,4.6-5.27,7.38-5.27,1.32,0,2.16.17,2.94.53l-1.06,5.29c-.91-.25-1.59-.42-2.67-.42-2.07,0-4.57,1.42-6.14,5.38v15.85h-6.09v-25.99Z"/>
        <path class="cls-1" d="M299.3,278.81h4.99l.46,3.54h.17c2.2-2.3,4.72-4.18,7.98-4.18,3.81,0,5.98,1.74,7.17,4.66,2.49-2.65,5.06-4.66,8.36-4.66,5.48,0,8.02,3.77,8.02,10.33v16.29h-6.09v-15.51c0-4.27-1.27-5.88-4-5.88-1.65,0-3.43,1.06-5.44,3.24v18.16h-6.1v-15.51c0-4.27-1.27-5.88-4-5.88-1.61,0-3.43,1.06-5.44,3.24v18.16h-6.09v-25.99Z"/>
        <path class="cls-1" d="M342.5,297.81c0-5.56,4.61-8.46,15.28-9.61-.08-2.79-1.21-5.12-4.72-5.12-2.58,0-5.02,1.16-7.3,2.56l-2.24-4.06c2.86-1.8,6.54-3.41,10.66-3.41,6.5,0,9.69,4,9.69,11.24v15.38h-4.99l-.47-2.88h-.17c-2.33,1.99-4.99,3.51-8.06,3.51-4.55,0-7.68-3.09-7.68-7.62ZM357.78,297.83v-5.84c-7.05.89-9.4,2.73-9.4,5.35,0,2.3,1.57,3.3,3.75,3.3s3.72-1.04,5.65-2.81Z"/>
        <path class="cls-1" d="M371.27,296.03v-12.38h-3.7v-4.57l4.02-.28.72-7.09h5.06v7.09h6.62v4.85h-6.62v12.37c0,3.06,1.18,4.56,3.68,4.56.89,0,1.95-.3,2.71-.59l1.04,4.49c-1.42.47-3.23.95-5.31.95-5.99,0-8.21-3.79-8.21-9.4Z"/>
        <path class="cls-1" d="M388.86,270.77c0-2.07,1.5-3.45,3.66-3.45s3.66,1.38,3.66,3.45-1.5,3.49-3.66,3.49-3.66-1.38-3.66-3.49ZM389.45,278.81h6.09v25.99h-6.09v-25.99Z"/>
        <path class="cls-1" d="M401.6,291.82c0-8.65,5.88-13.65,12.36-13.65s12.36,4.99,12.36,13.65-5.88,13.61-12.36,13.61-12.36-4.99-12.36-13.61ZM420.06,291.82c0-5.21-2.29-8.68-6.09-8.68s-6.09,3.47-6.09,8.68,2.29,8.63,6.09,8.63,6.09-3.43,6.09-8.63Z"/>
        <path class="cls-1" d="M432.36,278.81h4.99l.47,3.51h.17c2.33-2.26,4.97-4.15,8.53-4.15,5.57,0,8,3.77,8,10.33v16.29h-6.09v-15.51c0-4.27-1.23-5.88-4.04-5.88-2.29,0-3.79,1.12-5.92,3.24v18.16h-6.09v-25.99Z"/>
        <path class="cls-1" d="M470.54,297.81c0-5.56,4.61-8.46,15.28-9.61-.08-2.79-1.21-5.12-4.72-5.12-2.58,0-5.01,1.16-7.3,2.56l-2.24-4.06c2.86-1.8,6.54-3.41,10.67-3.41,6.5,0,9.69,4,9.69,11.24v15.38h-4.99l-.47-2.88h-.17c-2.33,1.99-4.99,3.51-8.06,3.51-4.55,0-7.68-3.09-7.68-7.62ZM485.82,297.83v-5.84c-7.05.89-9.39,2.73-9.39,5.35,0,2.3,1.57,3.3,3.75,3.3s3.72-1.04,5.65-2.81Z"/>
        <path class="cls-1" d="M499.24,278.81h4.99l.47,3.51h.17c2.33-2.26,4.97-4.15,8.53-4.15,5.56,0,8,3.77,8,10.33v16.29h-6.09v-15.51c0-4.27-1.23-5.88-4.04-5.88-2.29,0-3.79,1.12-5.92,3.24v18.16h-6.09v-25.99Z"/>
        <path class="cls-1" d="M527.28,291.82c0-8.46,5.31-13.65,11-13.65,2.94,0,4.8,1.1,6.81,2.86l-.23-4.19v-9.42h6.09v37.37h-4.99l-.47-2.81h-.17c-1.92,1.93-4.59,3.45-7.38,3.45-6.48,0-10.67-5.04-10.67-13.61ZM544.86,297.47v-12.1c-1.78-1.59-3.53-2.16-5.29-2.16-3.3,0-6.03,3.13-6.03,8.55s2.16,8.63,5.9,8.63c2.01,0,3.7-.89,5.42-2.92Z"/>
        <path class="cls-1" d="M188.44,351.1c0-11.32,7.09-18.05,15.85-18.05,4.34,0,7.79,2.07,9.97,4.38l-3.28,3.96c-1.78-1.78-3.85-3-6.56-3-5.63,0-9.67,4.76-9.67,12.53s3.72,12.68,9.52,12.68c3.07,0,5.44-1.42,7.38-3.56l3.28,3.85c-2.8,3.26-6.41,5.04-10.9,5.04-8.7,0-15.6-6.37-15.6-17.82Z"/>
        <path class="cls-1" d="M218.49,355.31c0-8.65,5.88-13.65,12.36-13.65s12.36,4.99,12.36,13.65-5.88,13.61-12.36,13.61-12.36-4.99-12.36-13.61ZM236.94,355.31c0-5.21-2.29-8.68-6.09-8.68s-6.09,3.47-6.09,8.68,2.29,8.63,6.09,8.63,6.09-3.43,6.09-8.63Z"/>
        <path class="cls-1" d="M249.25,342.3h4.99l.47,3.54h.17c2.2-2.3,4.72-4.18,7.98-4.18,3.81,0,5.98,1.73,7.17,4.66,2.49-2.65,5.06-4.66,8.36-4.66,5.48,0,8.02,3.77,8.02,10.33v16.29h-6.09v-15.51c0-4.27-1.27-5.88-4-5.88-1.65,0-3.43,1.06-5.44,3.24v18.16h-6.09v-15.51c0-4.27-1.27-5.88-4-5.88-1.61,0-3.43,1.06-5.44,3.24v18.16h-6.09v-25.99Z"/>
        <path class="cls-1" d="M293.85,342.3h4.99l.47,3.54h.17c2.2-2.3,4.72-4.18,7.98-4.18,3.81,0,5.98,1.73,7.17,4.66,2.49-2.65,5.06-4.66,8.36-4.66,5.48,0,8.02,3.77,8.02,10.33v16.29h-6.09v-15.51c0-4.27-1.27-5.88-4-5.88-1.65,0-3.43,1.06-5.44,3.24v18.16h-6.09v-15.51c0-4.27-1.27-5.88-4-5.88-1.61,0-3.43,1.06-5.44,3.24v18.16h-6.09v-25.99Z"/>
        <path class="cls-1" d="M338.16,358.59v-16.29h6.09v15.51c0,4.27,1.23,5.88,4.04,5.88,2.29,0,3.79-1.06,5.76-3.6v-17.8h6.09v25.99h-4.99l-.46-3.83h-.17c-2.29,2.71-4.8,4.46-8.36,4.46-5.57,0-8-3.77-8-10.33Z"/>
        <path class="cls-1" d="M367.87,342.3h4.99l.47,3.51h.17c2.33-2.26,4.97-4.15,8.53-4.15,5.56,0,8,3.77,8,10.33v16.29h-6.09v-15.51c0-4.27-1.23-5.88-4.04-5.88-2.29,0-3.79,1.12-5.92,3.24v18.16h-6.09v-25.99Z"/>
        <path class="cls-1" d="M396.27,334.26c0-2.07,1.5-3.45,3.66-3.45s3.66,1.38,3.66,3.45-1.5,3.49-3.66,3.49-3.66-1.38-3.66-3.49ZM396.86,342.3h6.09v25.99h-6.09v-25.99Z"/>
        <path class="cls-1" d="M409.01,355.31c0-8.65,6.12-13.65,13.04-13.65,3.3,0,5.71,1.27,7.6,2.92l-2.96,3.96c-1.38-1.21-2.69-1.9-4.32-1.9-4.19,0-7.09,3.47-7.09,8.68s2.86,8.63,6.9,8.63c2.03,0,3.89-.99,5.38-2.24l2.48,4.02c-2.43,2.16-5.52,3.2-8.49,3.2-7.09,0-12.53-4.99-12.53-13.61Z"/>
        <path class="cls-1" d="M433.24,361.3c0-5.56,4.61-8.46,15.28-9.61-.08-2.79-1.21-5.12-4.72-5.12-2.58,0-5.02,1.16-7.3,2.56l-2.24-4.06c2.86-1.8,6.54-3.41,10.66-3.41,6.5,0,9.69,4,9.69,11.24v15.38h-4.99l-.47-2.88h-.17c-2.33,1.99-4.99,3.51-8.06,3.51-4.55,0-7.68-3.09-7.68-7.62ZM448.52,361.32v-5.84c-7.05.89-9.4,2.73-9.4,5.35,0,2.3,1.57,3.3,3.75,3.3s3.72-1.04,5.65-2.81Z"/>
        <path class="cls-1" d="M462,359.52v-12.38h-3.7v-4.57l4.02-.27.72-7.09h5.06v7.09h6.62v4.85h-6.62v12.37c0,3.06,1.18,4.56,3.68,4.56.89,0,1.95-.3,2.71-.59l1.04,4.49c-1.42.47-3.23.95-5.31.95-5.99,0-8.21-3.79-8.21-9.4Z"/>
        <path class="cls-1" d="M479.6,334.26c0-2.07,1.5-3.45,3.66-3.45s3.66,1.38,3.66,3.45-1.5,3.49-3.66,3.49-3.66-1.38-3.66-3.49ZM480.19,342.3h6.09v25.99h-6.09v-25.99Z"/>
        <path class="cls-1" d="M492.34,355.31c0-8.65,5.88-13.65,12.36-13.65s12.36,4.99,12.36,13.65-5.88,13.61-12.36,13.61-12.36-4.99-12.36-13.61ZM510.79,355.31c0-5.21-2.29-8.68-6.09-8.68s-6.09,3.47-6.09,8.68,2.29,8.63,6.09,8.63,6.09-3.43,6.09-8.63Z"/>
        <path class="cls-1" d="M523.1,342.3h4.99l.47,3.51h.17c2.33-2.26,4.97-4.15,8.53-4.15,5.56,0,8,3.77,8,10.33v16.29h-6.09v-15.51c0-4.27-1.23-5.88-4.04-5.88-2.29,0-3.79,1.12-5.92,3.24v18.16h-6.09v-25.99Z"/>
        <path class="cls-1" d="M197.24,402.34h-9.99v-5.16h26.11v5.16h-9.99v29.43h-6.14v-29.43Z"/>
        <path class="cls-1" d="M213.15,418.8c0-8.44,5.86-13.65,11.98-13.65,7.03,0,10.73,5.08,10.73,12.34,0,1.16-.13,2.33-.27,2.96h-16.49c.51,4.61,3.47,7.24,7.66,7.24,2.22,0,4.13-.7,6.03-1.88l2.07,3.79c-2.48,1.67-5.61,2.81-8.91,2.81-7.17,0-12.8-5.04-12.8-13.61ZM230.58,416.31c0-4-1.78-6.43-5.33-6.43-3.03,0-5.69,2.26-6.22,6.43h11.55Z"/>
        <path class="cls-1" d="M239.97,418.8c0-8.65,6.12-13.65,13.04-13.65,3.3,0,5.71,1.27,7.6,2.92l-2.96,3.96c-1.38-1.21-2.69-1.9-4.32-1.9-4.19,0-7.09,3.47-7.09,8.68s2.86,8.63,6.9,8.63c2.03,0,3.89-.99,5.38-2.24l2.48,4.02c-2.43,2.16-5.52,3.2-8.49,3.2-7.09,0-12.53-4.99-12.53-13.61Z"/>
        <path class="cls-1" d="M265.49,394.41h6.09v9.67l-.25,5.02c2.18-2.05,4.76-3.94,8.32-3.94,5.56,0,8,3.77,8,10.33v16.29h-6.09v-15.51c0-4.27-1.23-5.88-4.04-5.88-2.29,0-3.79,1.12-5.92,3.24v18.16h-6.09v-37.37Z"/>
        <path class="cls-1" d="M295.02,405.79h4.99l.47,3.51h.17c2.33-2.26,4.97-4.15,8.53-4.15,5.56,0,8,3.77,8,10.33v16.29h-6.09v-15.51c0-4.27-1.23-5.88-4.04-5.88-2.29,0-3.79,1.12-5.92,3.24v18.16h-6.09v-25.99Z"/>
        <path class="cls-1" d="M322.93,418.8c0-8.65,5.88-13.65,12.36-13.65s12.36,4.99,12.36,13.65-5.88,13.61-12.36,13.61-12.36-4.99-12.36-13.61ZM341.38,418.8c0-5.21-2.29-8.68-6.09-8.68s-6.09,3.47-6.09,8.68,2.29,8.63,6.09,8.63,6.09-3.43,6.09-8.63Z"/>
        <path class="cls-1" d="M353.69,425.09v-30.68h6.09v31c0,1.5.68,2.03,1.31,2.03.28,0,.49,0,.95-.11l.76,4.55c-.74.3-1.76.53-3.22.53-4.32,0-5.9-2.79-5.9-7.32Z"/>
        <path class="cls-1" d="M366.31,418.8c0-8.65,5.88-13.65,12.36-13.65s12.36,4.99,12.36,13.65-5.88,13.61-12.36,13.61-12.36-4.99-12.36-13.61ZM384.77,418.8c0-5.21-2.29-8.68-6.09-8.68s-6.1,3.47-6.1,8.68,2.29,8.63,6.1,8.63,6.09-3.43,6.09-8.63Z"/>
        <path class="cls-1" d="M395.3,436.49c0-2.19,1.35-4.1,3.75-5.54v-.21c-1.33-.87-2.35-2.24-2.35-4.34s1.38-3.79,2.88-4.85v-.21c-1.78-1.31-3.43-3.79-3.43-6.86,0-5.97,4.82-9.33,10.26-9.33,1.44,0,2.79.25,3.85.63h9.29v4.53h-4.74c.85.97,1.48,2.58,1.48,4.36,0,5.78-4.38,8.87-9.88,8.87-1.1,0-2.35-.23-3.51-.69-.78.67-1.27,1.32-1.27,2.49,0,1.46,1.06,2.35,4.21,2.35h4.62c6.21,0,9.51,1.93,9.51,6.41,0,5.12-5.38,9.16-13.86,9.16-6.2,0-10.81-2.22-10.81-6.77ZM414.09,435.1c0-2.01-1.61-2.6-4.58-2.6h-3.57c-1.4,0-2.52-.11-3.51-.36-1.4,1.06-2.01,2.22-2.01,3.43,0,2.37,2.54,3.75,6.62,3.75s7.05-1.97,7.05-4.21ZM410.91,414.49c0-3.26-1.97-5.12-4.51-5.12s-4.51,1.84-4.51,5.12,2.01,5.23,4.51,5.23,4.51-1.93,4.51-5.23Z"/>
        <path class="cls-1" d="M424.63,397.75c0-2.07,1.5-3.45,3.66-3.45s3.66,1.38,3.66,3.45-1.5,3.49-3.66,3.49-3.66-1.38-3.66-3.49ZM425.22,405.79h6.09v25.99h-6.09v-25.99Z"/>
        <path class="cls-1" d="M437.37,418.8c0-8.44,5.86-13.65,11.98-13.65,7.03,0,10.73,5.08,10.73,12.34,0,1.16-.13,2.33-.27,2.96h-16.49c.51,4.61,3.47,7.24,7.66,7.24,2.22,0,4.13-.7,6.03-1.88l2.07,3.79c-2.48,1.67-5.61,2.81-8.91,2.81-7.17,0-12.8-5.04-12.8-13.61ZM454.81,416.31c0-4-1.78-6.43-5.33-6.43-3.03,0-5.69,2.26-6.22,6.43h11.55Z"/>
        <path class="cls-1" d="M463.33,428.79l2.84-3.87c2.31,1.8,4.54,2.9,7.17,2.9,2.83,0,4.17-1.33,4.17-3.11,0-2.18-2.81-3.15-5.59-4.21-3.41-1.28-7.15-3.24-7.15-7.58s3.64-7.77,9.46-7.77c3.62,0,6.52,1.47,8.63,3.11l-2.79,3.75c-1.82-1.33-3.65-2.26-5.69-2.26-2.61,0-3.85,1.25-3.85,2.88,0,2.05,2.48,2.84,5.29,3.87,3.51,1.31,7.45,3,7.45,7.85,0,4.47-3.53,8.06-10.09,8.06-3.55,0-7.3-1.52-9.84-3.62Z"/>
        <path class="cls-1" d="M498.21,417.07c0-9.31,2.58-16.93,6.98-24.1l3.81,1.65c-3.98,6.79-5.82,14.69-5.82,22.45s1.84,15.66,5.82,22.45l-3.81,1.65c-4.4-7.17-6.98-14.79-6.98-24.1Z"/>
        <path class="cls-1" d="M515.69,397.18h6.14v34.6h-6.14v-34.6Z"/>
        <path class="cls-1" d="M528.79,414.59c0-11.32,7.09-18.05,15.85-18.05,4.34,0,7.79,2.07,9.97,4.38l-3.28,3.96c-1.78-1.78-3.85-3-6.56-3-5.63,0-9.67,4.76-9.67,12.53s3.72,12.68,9.52,12.68c3.07,0,5.44-1.42,7.38-3.56l3.28,3.85c-2.8,3.26-6.41,5.04-10.9,5.04-8.7,0-15.6-6.37-15.6-17.82Z"/>
        <path class="cls-1" d="M567.28,402.34h-9.99v-5.16h26.11v5.16h-9.99v29.43h-6.14v-29.43Z"/>
        <path class="cls-1" d="M587.07,439.52c3.98-6.79,5.82-14.69,5.82-22.45s-1.84-15.66-5.82-22.45l3.81-1.65c4.4,7.17,6.98,14.79,6.98,24.1s-2.58,16.93-6.98,24.1l-3.81-1.65Z"/>
      </g>
    </g>
  </g>
</svg>