<?xml version="1.0" encoding="UTF-8"?>
<svg id="Layer_2" data-name="Layer 2" xmlns="http://www.w3.org/2000/svg" viewBox="0 0 662.64 433.24">
  <defs>
    <style>
      .cls-1 {
        fill: #fff;
      }

      .cls-2 {
        fill: #0a484d;
      }

      .cls-3 {
        fill: #154d55;
      }

      .cls-4 {
        fill: #f16024;
      }
    </style>
  </defs>
  <g id="Text_Only" data-name="Text Only">
    <g>
      <rect class="cls-4" x="13.78" y="265.98" width="648.86" height="167.26"/>
      <g>
        <path class="cls-4" d="M101.25,203.49h35.75v-94.62h-30.63v-23.49c17.54-3.33,29.12-7.79,40.57-14.88h27.92v133h30.62v30.55h-104.23v-30.55Z"/>
        <path class="cls-4" d="M230.68,212.34c41.62-39.35,70.95-67.28,70.95-90.7,0-15.81-8.78-24.54-23.17-24.54-11.63,0-20.88,8-29.05,16.64l-20.52-20.43c16.09-17.22,31.36-25.91,54.75-25.91,32.24,0,54.24,20.58,54.24,52.12,0,27.54-25.72,56.88-52.49,84.58,8.43-.94,19.81-1.88,27.39-1.88h32.92v31.83h-115.02v-21.7Z"/>
        <path class="cls-4" d="M365.51,116.15c0-33.57,17.64-53.05,41.9-53.05s41.91,19.49,41.91,53.05-17.64,53.57-41.91,53.57-41.9-19.91-41.9-53.57ZM422.92,116.15c0-23.84-7-31.92-15.51-31.92s-15.5,8.08-15.5,31.92,6.99,32.45,15.5,32.45,15.51-8.6,15.51-32.45ZM503.85,63.1h21.82l-90.62,174.03h-21.82l90.62-174.03ZM489.33,183.57c0-33.57,17.64-53.05,41.91-53.05s41.91,19.48,41.91,53.05-17.64,53.56-41.91,53.56-41.91-19.91-41.91-53.56ZM546.75,183.57c0-23.85-6.99-31.93-15.5-31.93s-15.5,8.08-15.5,31.93,6.99,32.44,15.5,32.44,15.5-8.6,15.5-32.44Z"/>
      </g>
      <g>
        <path class="cls-4" d="M574.41,143.68h14.78c2.52,0,4.9-1.23,6.36-3.28l3-4.21s0,0,0,0c.77.33,1.63.51,2.52.51,3.53,0,6.41-2.88,6.41-6.41s-2.88-6.41-6.41-6.41-6.41,2.88-6.41,6.41c0,1.62.6,3.08,1.59,4.22l-3.02,4.25c-.93,1.3-2.43,2.08-4.03,2.08h-14.78c-.79,0-1.42.64-1.42,1.42s.64,1.42,1.42,1.42Z"/>
        <path class="cls-4" d="M589.19,161.91h-4.48c-.79,0-1.42.64-1.42,1.42s.64,1.42,1.42,1.42h4.48c2.52,0,4.9-1.23,6.35-3.28l3-4.21s0,0,0,0c.77.33,1.63.51,2.52.51,3.53,0,6.41-2.88,6.41-6.41s-2.88-6.4-6.41-6.4-6.41,2.87-6.41,6.4c0,1.62.6,3.08,1.59,4.22l-3.02,4.24c-.92,1.3-2.43,2.08-4.03,2.08Z"/>
        <path class="cls-3" d="M601.07,229.71c-.89,0-1.74.18-2.52.52,0,0,0,0,0,0l-3-4.22c-1.46-2.05-3.83-3.28-6.36-3.28h-15c-.79,0-1.42.64-1.42,1.42s.64,1.42,1.42,1.42h15c1.6,0,3.11.78,4.04,2.08l3.03,4.25c-.99,1.13-1.59,2.6-1.59,4.21,0,3.53,2.88,6.41,6.41,6.41s6.41-2.88,6.41-6.41-2.88-6.41-6.41-6.41Z"/>
        <path class="cls-3" d="M601.07,208.63c-.89,0-1.74.18-2.52.52,0,0,0,0,0,0l-3-4.21c-1.45-2.05-3.83-3.28-6.35-3.28h-4.57c-.79,0-1.42.64-1.42,1.42s.64,1.42,1.42,1.42h4.57c1.6,0,3.11.78,4.03,2.08l3.02,4.24c-.99,1.13-1.59,2.6-1.59,4.21,0,3.53,2.88,6.41,6.41,6.41s6.41-2.88,6.41-6.41-2.88-6.41-6.41-6.41Z"/>
        <path class="cls-4" d="M611.39,173.28c-5.66,0-10.34,4.24-11.05,9.71,0,0,0,0,0,0h-12.82c-.79,0-1.42.64-1.42,1.42s.64,1.42,1.42,1.42h12.82s0,0,0,0c.7,5.47,5.39,9.71,11.05,9.71,6.15,0,11.14-5,11.14-11.14s-5-11.13-11.14-11.13Z"/>
        <path class="cls-4" d="M21.46,77.38c.9,0,1.75-.19,2.52-.51l3,4.22c1.46,2.05,3.84,3.27,6.35,3.27h14.76c.79,0,1.42-.64,1.42-1.42s-.64-1.42-1.42-1.42h-14.76c-1.6,0-3.11-.78-4.03-2.08l-3.02-4.24c.98-1.13,1.59-2.6,1.59-4.22,0-3.53-2.88-6.41-6.41-6.41s-6.4,2.88-6.4,6.41,2.87,6.41,6.4,6.41Z"/>
        <path class="cls-4" d="M21.46,98.46c.9,0,1.75-.19,2.52-.51l3,4.21c1.46,2.05,3.84,3.28,6.36,3.28h4.45c.79,0,1.42-.64,1.42-1.42s-.64-1.42-1.42-1.42h-4.45c-1.6,0-3.11-.78-4.04-2.08l-3.02-4.24c.98-1.13,1.59-2.6,1.59-4.22,0-3.53-2.88-6.4-6.41-6.4s-6.4,2.87-6.4,6.4,2.87,6.41,6.4,6.41Z"/>
        <path class="cls-3" d="M48.34,163.4h-15c-2.51,0-4.89,1.22-6.36,3.28l-3,4.22s0,0,0,0c-.77-.34-1.63-.52-2.52-.52-3.53,0-6.4,2.88-6.4,6.41s2.87,6.41,6.4,6.41,6.41-2.88,6.41-6.41c0-1.61-.6-3.09-1.59-4.21,0,0,0,0,0,0l3.02-4.24c.93-1.3,2.44-2.08,4.04-2.08h15c.79,0,1.42-.64,1.42-1.42s-.64-1.42-1.42-1.42Z"/>
        <path class="cls-3" d="M37.89,142.33h-4.55c-2.52,0-4.89,1.23-6.36,3.28l-3,4.21c-.77-.34-1.63-.52-2.52-.52-3.53,0-6.4,2.88-6.4,6.41s2.87,6.41,6.4,6.41,6.41-2.88,6.41-6.41c0-1.61-.6-3.09-1.59-4.21l3.02-4.25c.92-1.3,2.43-2.08,4.03-2.08h4.55c.79,0,1.42-.63,1.42-1.42s-.63-1.42-1.42-1.42Z"/>
        <path class="cls-4" d="M22.19,126.52s0,0,0,0h12.8c.79,0,1.42-.64,1.42-1.42s-.64-1.42-1.42-1.42h-12.8s0,0,0,0c-.7-5.47-5.39-9.71-11.05-9.71-6.14,0-11.14,5-11.14,11.13s5,11.14,11.14,11.14c5.66,0,10.34-4.24,11.05-9.71Z"/>
        <g>
          <path class="cls-4" d="M115.65,207.23c0-.79-.63-1.42-1.42-1.42h-18.8c-.78,0-1.42.63-1.42,1.42s.64,1.42,1.42,1.42h18.8c.79,0,1.42-.64,1.42-1.42Z"/>
          <path class="cls-3" d="M104.77,153.8c-16.3,0-29.55-13.26-29.55-29.55,0-13.14,8.62-24.29,20.5-28.12v-19.56l8.66-1.64c5.61-1.07,10.59-2.26,15.17-3.66-4.68-1.28-9.56-1.97-14.55-1.98h-.16c-14.78,0-28.67,5.76-39.12,16.23-10.36,10.39-16.08,24.19-16.12,38.86v.27s0,.05,0,.07c.04,14.71,5.8,28.55,16.22,38.95,1.96,1.95,4.09,3.78,6.32,5.41,1.88,1.38,3.47,3.07,4.71,4.97h49.5v-29.68c-5.4,5.78-13.06,9.43-21.58,9.43Z"/>
          <path class="cls-3" d="M88.62,194.1c-.79,0-1.43-.63-1.43-1.42s.64-1.42,1.43-1.42h32.43c.78,0,1.42.64,1.42,1.42,0,.06-.03.11-.03.17h3.91v-15.95h-47.97c1.03,2.34,1.58,4.89,1.57,7.47l-.06,19.48c-.02,6.43,2.46,12.48,7,17.02,1.15,1.16,2.39,2.18,3.71,3.06v-29.83h-1.98Z"/>
        </g>
      </g>
      <path class="cls-4" d="M104.59,120.35c0-2.26-1.53-3.48-3.71-3.48-2.03,0-3.52,1.05-5.03,2.55l-4.47-4.08c2.6-2.95,6.22-5.01,10.51-5.01,5.93,0,10.45,2.93,10.45,9.45s-8.28,8.88-7.63,15.4h-7.09c-1.12-7.56,6.96-10.66,6.96-14.83ZM96.28,143.5c0-2.89,2.08-5.11,4.89-5.11s4.89,2.23,4.89,5.11-2.08,5.09-4.89,5.09-4.89-2.23-4.89-5.09Z"/>
      <g>
        <path class="cls-2" d="M52.38,319.46c0-2.53.49-4.79,1.48-6.76s2.4-3.5,4.24-4.56c1.84-1.06,4.01-1.59,6.49-1.59,3.8,0,6.79,1.18,8.98,3.53,2.19,2.35,3.28,5.55,3.28,9.6v.28c0,3.95-1.1,7.09-3.29,9.41-2.2,2.32-5.17,3.48-8.92,3.48s-6.51-1.08-8.7-3.25c-2.19-2.16-3.37-5.1-3.54-8.8l-.02-1.34ZM60.28,319.96c0,2.34.37,4.06,1.1,5.16.73,1.09,1.82,1.64,3.26,1.64,2.81,0,4.25-2.16,4.31-6.49v-.8c0-4.55-1.45-6.82-4.36-6.82-2.64,0-4.07,1.96-4.29,5.88l-.02,1.43Z"/>
        <path class="cls-2" d="M82.07,332.38v-19.88h-3.68v-5.48h3.68v-2.02c0-2.89.85-5.13,2.55-6.73,1.7-1.59,4.09-2.39,7.17-2.39,1.12,0,2.36.16,3.7.49l.02,5.81c-.48-.14-1.13-.21-1.95-.21-2.39,0-3.59,1.03-3.59,3.09v1.95h4.95v5.48h-4.95v19.88h-7.92Z"/>
        <path class="cls-2" d="M125.01,314.17l-2.6-.19c-2.48,0-4.08.78-4.78,2.34v16.05h-7.9v-25.36h7.41l.26,3.26c1.33-2.48,3.18-3.73,5.55-3.73.84,0,1.58.09,2.2.28l-.14,7.34Z"/>
        <path class="cls-2" d="M139.68,332.85c-3.89,0-7.04-1.16-9.45-3.48-2.41-2.32-3.61-5.34-3.61-9.06v-.66c0-2.59.48-4.88,1.44-6.87s2.36-3.52,4.21-4.61c1.84-1.09,4.03-1.63,6.56-1.63,3.56,0,6.38,1.11,8.44,3.32s3.09,5.29,3.09,9.25v3.07h-15.7c.28,1.42.9,2.54,1.85,3.35.95.81,2.19,1.22,3.7,1.22,2.5,0,4.45-.88,5.86-2.62l3.61,4.27c-.98,1.36-2.38,2.44-4.18,3.25s-3.75,1.21-5.82,1.21ZM138.79,312.64c-2.31,0-3.69,1.53-4.12,4.59h7.97v-.61c.03-1.27-.29-2.25-.96-2.94-.67-.7-1.63-1.04-2.88-1.04Z"/>
        <path class="cls-2" d="M166.82,325.25c0-.67-.35-1.21-1.05-1.62s-2.04-.83-4.01-1.27-3.59-1.01-4.88-1.72c-1.28-.71-2.26-1.57-2.93-2.59-.67-1.02-1.01-2.18-1.01-3.49,0-2.33.96-4.25,2.88-5.75s4.44-2.26,7.55-2.26c3.34,0,6.03.76,8.06,2.27,2.03,1.52,3.05,3.51,3.05,5.98h-7.92c0-2.03-1.07-3.05-3.21-3.05-.83,0-1.52.23-2.09.69s-.84,1.04-.84,1.72.34,1.27,1.03,1.71c.69.44,1.78.8,3.29,1.08,1.51.28,2.83.62,3.97,1.01,3.81,1.31,5.72,3.66,5.72,7.05,0,2.31-1.03,4.2-3.08,5.65-2.05,1.45-4.72,2.18-7.98,2.18-2.17,0-4.11-.39-5.81-1.17-1.7-.78-3.03-1.84-3.98-3.19-.95-1.34-1.43-2.76-1.43-4.24h7.38c.03,1.17.42,2.03,1.17,2.57s1.71.81,2.88.81c1.08,0,1.89-.22,2.43-.66s.81-1.01.81-1.71Z"/>
        <path class="cls-2" d="M201.67,319.89c0,3.94-.89,7.08-2.66,9.43-1.77,2.35-4.17,3.53-7.18,3.53-2.33,0-4.24-.85-5.74-2.55v11.84h-7.9v-35.11h7.38l.23,2.34c1.52-1.88,3.51-2.81,5.98-2.81,3.12,0,5.55,1.15,7.29,3.46s2.6,5.47,2.6,9.5v.38ZM193.78,319.39c0-4.5-1.31-6.75-3.94-6.75-1.88,0-3.13.67-3.75,2.02v9.98c.69,1.41,1.95,2.11,3.8,2.11,2.52,0,3.81-2.17,3.89-6.52v-.84Z"/>
        <path class="cls-2" d="M204.16,319.46c0-2.53.49-4.79,1.48-6.76s2.4-3.5,4.24-4.56c1.84-1.06,4.01-1.59,6.49-1.59,3.8,0,6.79,1.18,8.98,3.53,2.19,2.35,3.28,5.55,3.28,9.6v.28c0,3.95-1.1,7.09-3.29,9.41-2.2,2.32-5.17,3.48-8.92,3.48s-6.51-1.08-8.7-3.25c-2.19-2.16-3.37-5.1-3.54-8.8l-.02-1.34ZM212.06,319.96c0,2.34.37,4.06,1.1,5.16.73,1.09,1.82,1.64,3.26,1.64,2.81,0,4.25-2.16,4.31-6.49v-.8c0-4.55-1.45-6.82-4.36-6.82-2.64,0-4.07,1.96-4.29,5.88l-.02,1.43Z"/>
        <path class="cls-2" d="M239.36,307.02l.26,2.98c1.75-2.3,4.16-3.45,7.24-3.45,2.64,0,4.61.79,5.92,2.37,1.3,1.58,1.98,3.95,2.03,7.12v16.34h-7.92v-16.01c0-1.28-.26-2.22-.77-2.82s-1.45-.9-2.81-.9c-1.55,0-2.7.61-3.45,1.83v17.91h-7.9v-25.36h7.41Z"/>
        <path class="cls-2" d="M258.18,319.51c0-4.02.87-7.18,2.6-9.49s4.16-3.47,7.27-3.47c2.27,0,4.17.89,5.72,2.67v-12.84h7.92v36h-7.1l-.4-2.72c-1.63,2.12-3.69,3.19-6.19,3.19-3.02,0-5.41-1.16-7.17-3.47-1.77-2.31-2.65-5.6-2.65-9.87ZM266.08,320c0,4.5,1.31,6.75,3.94,6.75,1.75,0,3-.73,3.75-2.2v-9.66c-.72-1.5-1.95-2.25-3.7-2.25-2.44,0-3.76,1.97-3.96,5.91l-.02,1.45Z"/>
        <path class="cls-2" d="M298.45,332.85c-3.89,0-7.04-1.16-9.45-3.48-2.41-2.32-3.61-5.34-3.61-9.06v-.66c0-2.59.48-4.88,1.44-6.87s2.36-3.52,4.21-4.61c1.84-1.09,4.03-1.63,6.56-1.63,3.56,0,6.38,1.11,8.44,3.32s3.09,5.29,3.09,9.25v3.07h-15.7c.28,1.42.9,2.54,1.85,3.35.95.81,2.19,1.22,3.7,1.22,2.5,0,4.45-.88,5.86-2.62l3.61,4.27c-.98,1.36-2.38,2.44-4.18,3.25s-3.75,1.21-5.82,1.21ZM297.56,312.64c-2.31,0-3.69,1.53-4.12,4.59h7.97v-.61c.03-1.27-.29-2.25-.96-2.94-.67-.7-1.63-1.04-2.88-1.04Z"/>
        <path class="cls-2" d="M319.56,307.02l.26,2.98c1.75-2.3,4.16-3.45,7.24-3.45,2.64,0,4.61.79,5.92,2.37,1.3,1.58,1.98,3.95,2.03,7.12v16.34h-7.92v-16.01c0-1.28-.26-2.22-.77-2.82s-1.45-.9-2.81-.9c-1.55,0-2.7.61-3.45,1.83v17.91h-7.9v-25.36h7.41Z"/>
        <path class="cls-2" d="M348.58,300.71v6.3h4.17v5.48h-4.17v11.6c0,.95.17,1.62.52,1.99.34.38,1.02.56,2.04.56.78,0,1.44-.05,1.97-.14v5.65c-1.42.45-2.91.68-4.45.68-2.72,0-4.73-.64-6.02-1.92-1.3-1.28-1.95-3.23-1.95-5.84v-12.59h-3.23v-5.48h3.23v-6.3h7.9Z"/>
        <path class="cls-2" d="M369.13,325.25c0-.67-.35-1.21-1.05-1.62s-2.04-.83-4.01-1.27-3.59-1.01-4.88-1.72c-1.28-.71-2.26-1.57-2.93-2.59-.67-1.02-1.01-2.18-1.01-3.49,0-2.33.96-4.25,2.88-5.75s4.44-2.26,7.55-2.26c3.34,0,6.03.76,8.06,2.27,2.03,1.52,3.05,3.51,3.05,5.98h-7.92c0-2.03-1.07-3.05-3.21-3.05-.83,0-1.52.23-2.09.69s-.84,1.04-.84,1.72.34,1.27,1.03,1.71c.69.44,1.78.8,3.29,1.08,1.51.28,2.83.62,3.97,1.01,3.81,1.31,5.72,3.66,5.72,7.05,0,2.31-1.03,4.2-3.08,5.65-2.06,1.45-4.72,2.18-7.98,2.18-2.17,0-4.11-.39-5.81-1.17-1.7-.78-3.03-1.84-3.98-3.19-.95-1.34-1.43-2.76-1.43-4.24h7.38c.03,1.17.42,2.03,1.17,2.57s1.71.81,2.88.81c1.08,0,1.89-.22,2.43-.66s.81-1.01.81-1.71Z"/>
        <path class="cls-2" d="M402.51,322.98l4.01-15.96h8.32l-8.27,25.36h-8.06l-8.27-25.36h8.34l3.94,15.96Z"/>
        <path class="cls-2" d="M417.13,300.48c0-1.12.41-2.05,1.22-2.77.81-.72,1.87-1.08,3.16-1.08s2.35.36,3.16,1.08c.81.72,1.22,1.64,1.22,2.77s-.41,2.05-1.22,2.77c-.81.72-1.87,1.08-3.16,1.08s-2.35-.36-3.16-1.08c-.81-.72-1.22-1.64-1.22-2.77ZM425.53,332.38h-7.92v-25.36h7.92v25.36Z"/>
        <path class="cls-2" d="M442.66,332.85c-3.89,0-7.04-1.16-9.45-3.48-2.41-2.32-3.61-5.34-3.61-9.06v-.66c0-2.59.48-4.88,1.44-6.87s2.36-3.52,4.21-4.61c1.84-1.09,4.03-1.63,6.56-1.63,3.56,0,6.38,1.11,8.44,3.32s3.09,5.29,3.09,9.25v3.07h-15.7c.28,1.42.9,2.54,1.85,3.35.95.81,2.19,1.22,3.7,1.22,2.5,0,4.45-.88,5.86-2.62l3.61,4.27c-.98,1.36-2.38,2.44-4.18,3.25s-3.75,1.21-5.82,1.21ZM441.77,312.64c-2.31,0-3.69,1.53-4.12,4.59h7.97v-.61c.03-1.27-.29-2.25-.96-2.94-.67-.7-1.63-1.04-2.88-1.04Z"/>
        <path class="cls-2" d="M478.42,321.97l2.55-14.95h7.57l-5.98,25.36h-6.68l-4.2-15.05-4.22,15.05h-6.68l-5.98-25.36h7.57l2.51,15.3,4.03-15.3h5.51l3.98,14.95Z"/>
        <path class="cls-1" d="M80.53,368.53h-10.24v27.77h-8.23v-27.77h-10.05v-6.35h28.52v6.35Z"/>
        <path class="cls-1" d="M97.61,387.02l6.8-24.84h9.19l-11.48,34.12h-9l-11.39-34.12h9.12l6.77,24.84Z"/>
        <path class="cls-1" d="M137.24,381.82h-12.94v8.16h15.28v6.33h-23.51v-34.12h23.55v6.35h-15.33v7.2h12.94v6.09Z"/>
        <path class="cls-1" d="M170.2,368.53h-10.24v27.77h-8.23v-27.77h-10.05v-6.35h28.52v6.35Z"/>
        <path class="cls-1" d="M198.13,396.3c-.28-.52-.53-1.27-.75-2.27-1.45,1.83-3.48,2.74-6.09,2.74-2.39,0-4.42-.72-6.09-2.17-1.67-1.45-2.51-3.26-2.51-5.45,0-2.75,1.02-4.83,3.05-6.23,2.03-1.41,4.98-2.11,8.86-2.11h2.44v-1.34c0-2.34-1.01-3.51-3.02-3.51-1.88,0-2.81.93-2.81,2.78h-7.9c0-2.45,1.04-4.44,3.13-5.97s4.75-2.29,7.98-2.29,5.79.79,7.66,2.37,2.84,3.74,2.88,6.49v11.23c.03,2.33.39,4.11,1.08,5.34v.4h-7.9ZM193.19,391.15c.98,0,1.8-.21,2.45-.63.65-.42,1.11-.9,1.39-1.43v-4.05h-2.3c-2.75,0-4.12,1.23-4.12,3.7,0,.72.24,1.3.73,1.75.48.45,1.1.67,1.85.67Z"/>
        <path class="cls-1" d="M222.6,389.18c0-.67-.35-1.21-1.05-1.62s-2.04-.83-4.01-1.27-3.59-1.01-4.88-1.72c-1.28-.71-2.26-1.57-2.93-2.59-.67-1.02-1.01-2.18-1.01-3.49,0-2.33.96-4.25,2.88-5.75s4.44-2.26,7.55-2.26c3.34,0,6.03.76,8.06,2.27,2.03,1.52,3.05,3.51,3.05,5.98h-7.92c0-2.03-1.07-3.05-3.21-3.05-.83,0-1.52.23-2.09.69s-.84,1.04-.84,1.72.34,1.27,1.03,1.71c.69.44,1.78.8,3.29,1.08,1.51.28,2.83.62,3.97,1.01,3.81,1.31,5.72,3.66,5.72,7.05,0,2.31-1.03,4.2-3.08,5.65-2.05,1.45-4.72,2.18-7.98,2.18-2.17,0-4.11-.39-5.81-1.17-1.7-.78-3.03-1.84-3.98-3.19-.95-1.34-1.43-2.76-1.43-4.24h7.38c.03,1.17.42,2.03,1.17,2.57s1.71.81,2.88.81c1.08,0,1.89-.22,2.43-.66s.81-1.01.81-1.71Z"/>
        <path class="cls-1" d="M245.81,364.41c0-1.12.41-2.05,1.22-2.77.81-.72,1.87-1.08,3.16-1.08s2.35.36,3.16,1.08c.81.72,1.22,1.64,1.22,2.77s-.41,2.05-1.22,2.77c-.81.72-1.87,1.08-3.16,1.08s-2.35-.36-3.16-1.08c-.81-.72-1.22-1.64-1.22-2.77ZM254.2,396.3h-7.92v-25.36h7.92v25.36Z"/>
        <path class="cls-1" d="M274.4,378.09l-2.6-.19c-2.48,0-4.08.78-4.78,2.34v16.05h-7.9v-25.36h7.41l.26,3.26c1.33-2.48,3.18-3.73,5.55-3.73.84,0,1.58.09,2.2.28l-.14,7.34Z"/>
        <path class="cls-1" d="M292.59,378.09l-2.6-.19c-2.48,0-4.08.78-4.78,2.34v16.05h-7.9v-25.36h7.41l.26,3.26c1.33-2.48,3.18-3.73,5.55-3.73.84,0,1.58.09,2.2.28l-.14,7.34Z"/>
        <path class="cls-1" d="M307.26,396.77c-3.89,0-7.04-1.16-9.45-3.48-2.41-2.32-3.61-5.34-3.61-9.06v-.66c0-2.59.48-4.88,1.44-6.87s2.36-3.52,4.21-4.61c1.84-1.09,4.03-1.63,6.56-1.63,3.56,0,6.38,1.11,8.44,3.32s3.09,5.29,3.09,9.25v3.07h-15.7c.28,1.42.9,2.54,1.85,3.35.95.81,2.19,1.22,3.7,1.22,2.5,0,4.45-.88,5.86-2.62l3.61,4.27c-.98,1.36-2.38,2.44-4.18,3.25s-3.75,1.21-5.82,1.21ZM306.37,376.57c-2.31,0-3.69,1.53-4.12,4.59h7.97v-.61c.03-1.27-.29-2.25-.96-2.94-.67-.7-1.63-1.04-2.88-1.04Z"/>
        <path class="cls-1" d="M329.46,396.3h-7.92v-36h7.92v36Z"/>
        <path class="cls-1" d="M346.59,396.77c-3.89,0-7.04-1.16-9.45-3.48-2.41-2.32-3.61-5.34-3.61-9.06v-.66c0-2.59.48-4.88,1.44-6.87s2.36-3.52,4.21-4.61c1.84-1.09,4.03-1.63,6.56-1.63,3.56,0,6.38,1.11,8.44,3.32s3.09,5.29,3.09,9.25v3.07h-15.7c.28,1.42.9,2.54,1.85,3.35.95.81,2.19,1.22,3.7,1.22,2.5,0,4.45-.88,5.86-2.62l3.61,4.27c-.98,1.36-2.38,2.44-4.18,3.25s-3.75,1.21-5.82,1.21ZM345.7,376.57c-2.31,0-3.69,1.53-4.12,4.59h7.97v-.61c.03-1.27-.29-2.25-.96-2.94-.67-.7-1.63-1.04-2.88-1.04Z"/>
        <path class="cls-1" d="M370.26,386.91l4.01-15.96h8.32l-8.27,25.36h-8.06l-8.27-25.36h8.34l3.94,15.96Z"/>
        <path class="cls-1" d="M398.88,396.3c-.28-.52-.53-1.27-.75-2.27-1.45,1.83-3.48,2.74-6.09,2.74-2.39,0-4.42-.72-6.09-2.17-1.67-1.45-2.51-3.26-2.51-5.45,0-2.75,1.02-4.83,3.05-6.23,2.03-1.41,4.98-2.11,8.86-2.11h2.44v-1.34c0-2.34-1.01-3.51-3.02-3.51-1.88,0-2.81.93-2.81,2.78h-7.9c0-2.45,1.04-4.44,3.13-5.97s4.75-2.29,7.98-2.29,5.79.79,7.66,2.37,2.84,3.74,2.88,6.49v11.23c.03,2.33.39,4.11,1.08,5.34v.4h-7.9ZM393.93,391.15c.98,0,1.8-.21,2.45-.63.65-.42,1.11-.9,1.39-1.43v-4.05h-2.3c-2.75,0-4.12,1.23-4.12,3.7,0,.72.24,1.3.73,1.75.48.45,1.1.67,1.85.67Z"/>
        <path class="cls-1" d="M417.32,370.95l.26,2.98c1.75-2.3,4.16-3.45,7.24-3.45,2.64,0,4.61.79,5.92,2.37,1.3,1.58,1.98,3.95,2.03,7.12v16.34h-7.92v-16.01c0-1.28-.26-2.22-.77-2.82s-1.45-.9-2.81-.9c-1.55,0-2.7.61-3.45,1.83v17.91h-7.9v-25.36h7.41Z"/>
        <path class="cls-1" d="M446.34,364.64v6.3h4.17v5.48h-4.17v11.6c0,.95.17,1.62.52,1.99.34.38,1.02.56,2.04.56.78,0,1.44-.05,1.97-.14v5.65c-1.42.45-2.91.68-4.45.68-2.72,0-4.73-.64-6.02-1.92-1.3-1.28-1.95-3.23-1.95-5.84v-12.59h-3.23v-5.48h3.23v-6.3h7.9Z"/>
        <path class="cls-1" d="M458.5,388.64c1.25,0,2.29.37,3.12,1.11.83.74,1.24,1.69,1.24,2.85s-.41,2.11-1.24,2.85c-.83.74-1.87,1.11-3.12,1.11s-2.31-.38-3.13-1.12-1.23-1.7-1.23-2.84.41-2.09,1.23-2.84,1.86-1.12,3.13-1.12Z"/>
      </g>
      <g>
        <path class="cls-2" d="M100.29,25.1c0-13.81,7.6-22.2,18.44-22.2s18.43,8.41,18.43,22.2-7.6,22.51-18.43,22.51-18.44-8.7-18.44-22.51ZM131.49,25.1c0-10.75-5.06-17.37-12.77-17.37s-12.77,6.63-12.77,17.37,5.06,17.69,12.77,17.69,12.77-6.94,12.77-17.69Z"/>
        <path class="cls-2" d="M145.92,14.87h4.46l.46,4.61h.18c3.05-3,6.33-5.4,10.72-5.4,6.73,0,9.75,4.34,9.75,12.49v20.24h-5.41v-19.54c0-5.95-1.8-8.5-6.03-8.5-3.27,0-5.53,1.67-8.73,4.91v23.13h-5.41V14.87Z"/>
        <path class="cls-2" d="M181.41,40.41V0h5.41v40.8c0,1.65.72,2.31,1.51,2.31.31,0,.57,0,1.18-.13l.73,4.13c-.77.28-1.69.5-3.11.5-4.05,0-5.72-2.59-5.72-7.2Z"/>
        <path class="cls-2" d="M194.96,59.93l1.06-4.31c.63.21,1.61.48,2.43.48,3.6,0,5.88-2.89,7.2-6.86l.73-2.36-12.82-32.01h5.57l6.52,17.69c1,2.77,2.08,6.05,3.11,9h.26c.91-2.91,1.81-6.18,2.68-9l5.7-17.69h5.3l-12.04,34.58c-2.26,6.34-5.56,11.14-11.96,11.14-1.49,0-2.72-.26-3.75-.66Z"/>
      </g>
    </g>
  </g>
</svg>