<?xml version="1.0" encoding="UTF-8"?>
<svg id="Layer_2" data-name="Layer 2" xmlns="http://www.w3.org/2000/svg" viewBox="0 0 792.79 275.42">
  <defs>
    <style>
      .cls-1 {
        fill: #231f20;
      }

      .cls-2 {
        fill: #f79439;
      }

      .cls-3 {
        fill: #12bdcd;
      }
    </style>
  </defs>
  <g id="Graphics">
    <g>
      <path class="cls-2" d="M690.71,194.72c-1.03.33-2.12.5-3.21.5s-2.18-.17-3.22-.5c-8.71-2.77-16.43-6.12-23.26-9.84H1.26v90.55s0,0,0,0h738.12s0,0,0,0v-90.55h-25.4c-6.84,3.73-14.56,7.07-23.27,9.85Z"/>
      <g>
        <path class="cls-1" d="M36.89,229.96c0,2.5-.46,4.71-1.39,6.63s-2.24,3.4-3.95,4.44-3.65,1.56-5.83,1.56-4.11-.5-5.8-1.5-3-2.43-3.95-4.3-1.44-4-1.49-6.42v-1.44c0-2.51.46-4.72,1.38-6.64s2.24-3.4,3.96-4.44,3.67-1.56,5.86-1.56,4.1.52,5.8,1.55,3.02,2.5,3.96,4.4,1.42,4.09,1.43,6.55v1.18ZM30.61,228.89c0-2.54-.42-4.47-1.27-5.79s-2.07-1.98-3.65-1.98c-3.09,0-4.73,2.32-4.9,6.96l-.02,1.88c0,2.51.42,4.44,1.25,5.78s2.07,2.02,3.71,2.02,2.76-.66,3.6-1.99,1.27-3.23,1.28-5.71v-1.18Z"/>
        <path class="cls-1" d="M46.95,218.48v4.73h3.13v4.11h-3.13v8.7c0,.71.13,1.21.39,1.49s.77.42,1.53.42c.59,0,1.08-.04,1.48-.11v4.24c-1.07.34-2.18.51-3.34.51-2.04,0-3.54-.48-4.52-1.44s-1.46-2.42-1.46-4.38v-9.44h-2.43v-4.11h2.43v-4.73h5.92Z"/>
        <path class="cls-1" d="M58.45,225.25c1.27-1.59,2.88-2.39,4.85-2.39,2.1,0,3.68.62,4.75,1.86,1.07,1.24,1.61,3.08,1.63,5.5v12.01h-5.94v-11.87c0-1.01-.21-1.75-.62-2.22-.41-.47-1.11-.71-2.09-.71-1.22,0-2.08.39-2.58,1.16v13.64h-5.92v-27h5.92v10.02Z"/>
        <path class="cls-1" d="M82.44,242.58c-2.92,0-5.28-.87-7.08-2.61-1.81-1.74-2.71-4-2.71-6.79v-.49c0-1.95.36-3.66,1.08-5.15s1.77-2.64,3.16-3.45c1.38-.81,3.02-1.22,4.92-1.22,2.67,0,4.78.83,6.33,2.49s2.32,3.97,2.32,6.93v2.3h-11.78c.21,1.07.67,1.9,1.39,2.51.71.61,1.64.91,2.78.91,1.87,0,3.34-.66,4.39-1.97l2.71,3.2c-.74,1.02-1.78,1.83-3.14,2.43s-2.81.91-4.37.91ZM81.77,227.43c-1.73,0-2.77,1.15-3.09,3.45h5.98v-.46c.02-.95-.22-1.68-.72-2.21-.5-.52-1.23-.78-2.16-.78Z"/>
        <path class="cls-1" d="M104.59,228.57l-1.95-.14c-1.86,0-3.06.59-3.59,1.76v12.04h-5.92v-19.02h5.55l.19,2.44c1-1.86,2.38-2.79,4.17-2.79.63,0,1.18.07,1.65.21l-.11,5.5Z"/>
        <path class="cls-1" d="M121.79,223.21l.19,2.23c1.35-1.72,3.16-2.58,5.43-2.58,2.4,0,4.03.96,4.87,2.87,1.29-1.91,3.15-2.87,5.59-2.87,3.86,0,5.84,2.33,5.94,7v12.38h-5.94v-12.01c0-.97-.16-1.68-.49-2.13-.33-.45-.93-.67-1.79-.67-1.17,0-2.05.52-2.62,1.56l.02.25v12.99h-5.94v-11.97c0-1-.16-1.72-.47-2.16s-.92-.67-1.81-.67c-1.14,0-2,.52-2.6,1.56v13.24h-5.92v-19.02h5.55Z"/>
        <path class="cls-1" d="M146.71,232.54c0-1.9.37-3.59,1.11-5.07s1.8-2.62,3.18-3.42,3.01-1.2,4.87-1.2c2.85,0,5.09.88,6.73,2.65s2.46,4.16,2.46,7.2v.21c0,2.96-.82,5.32-2.47,7.06s-3.88,2.61-6.69,2.61-4.88-.81-6.52-2.43-2.53-3.82-2.65-6.6l-.02-1ZM152.63,232.91c0,1.76.28,3.05.83,3.87s1.37,1.23,2.44,1.23c2.11,0,3.19-1.62,3.23-4.87v-.6c0-3.41-1.09-5.12-3.27-5.12-1.98,0-3.05,1.47-3.22,4.41l-.02,1.07Z"/>
        <path class="cls-1" d="M174.82,218.48v4.73h3.13v4.11h-3.13v8.7c0,.71.13,1.21.39,1.49s.77.42,1.53.42c.59,0,1.08-.04,1.48-.11v4.24c-1.07.34-2.18.51-3.34.51-2.04,0-3.54-.48-4.52-1.44s-1.46-2.42-1.46-4.38v-9.44h-2.43v-4.11h2.43v-4.73h5.92Z"/>
        <path class="cls-1" d="M180.49,218.3c0-.84.3-1.54.91-2.07s1.4-.81,2.37-.81,1.76.27,2.37.81.91,1.23.91,2.07-.3,1.54-.91,2.07-1.4.81-2.37.81-1.76-.27-2.37-.81-.91-1.23-.91-2.07ZM186.78,242.23h-5.94v-19.02h5.94v19.02Z"/>
        <path class="cls-1" d="M198.26,235.18l3.01-11.97h6.24l-6.21,19.02h-6.05l-6.21-19.02h6.26l2.95,11.97Z"/>
        <path class="cls-1" d="M219.98,242.23c-.21-.39-.4-.96-.56-1.71-1.09,1.37-2.61,2.06-4.57,2.06-1.79,0-3.32-.54-4.57-1.63-1.25-1.08-1.88-2.45-1.88-4.09,0-2.06.76-3.62,2.29-4.68,1.52-1.05,3.74-1.58,6.64-1.58h1.83v-1.01c0-1.75-.76-2.63-2.27-2.63-1.41,0-2.11.7-2.11,2.08h-5.92c0-1.84.78-3.33,2.35-4.48,1.56-1.15,3.56-1.72,5.99-1.72s4.34.59,5.75,1.78,2.13,2.81,2.16,4.87v8.42c.02,1.75.29,3.08.81,4.01v.3h-5.92ZM216.27,238.36c.74,0,1.35-.16,1.84-.47.49-.32.83-.67,1.05-1.07v-3.04h-1.72c-2.06,0-3.09.93-3.09,2.78,0,.54.18.98.54,1.31.36.33.83.5,1.39.5Z"/>
        <path class="cls-1" d="M235.52,218.48v4.73h3.13v4.11h-3.13v8.7c0,.71.13,1.21.39,1.49.26.28.77.42,1.53.42.59,0,1.08-.04,1.48-.11v4.24c-1.07.34-2.18.51-3.34.51-2.04,0-3.54-.48-4.52-1.44-.97-.96-1.46-2.42-1.46-4.38v-9.44h-2.43v-4.11h2.43v-4.73h5.92Z"/>
        <path class="cls-1" d="M239.96,232.54c0-1.9.37-3.59,1.11-5.07s1.8-2.62,3.18-3.42c1.38-.8,3.01-1.2,4.87-1.2,2.85,0,5.09.88,6.73,2.65,1.64,1.76,2.46,4.16,2.46,7.2v.21c0,2.96-.82,5.32-2.47,7.06-1.65,1.74-3.88,2.61-6.69,2.61s-4.88-.81-6.52-2.43c-1.64-1.62-2.53-3.82-2.65-6.6l-.02-1ZM245.88,232.91c0,1.76.27,3.05.83,3.87.55.82,1.36,1.23,2.44,1.23,2.11,0,3.19-1.62,3.23-4.87v-.6c0-3.41-1.09-5.12-3.27-5.12-1.98,0-3.05,1.47-3.22,4.41l-.02,1.07Z"/>
        <path class="cls-1" d="M272.68,228.57l-1.95-.14c-1.86,0-3.06.59-3.59,1.76v12.04h-5.92v-19.02h5.55l.19,2.44c1-1.86,2.38-2.79,4.17-2.79.63,0,1.18.07,1.65.21l-.11,5.5Z"/>
        <path class="cls-1" d="M285.02,236.88c0-.5-.26-.91-.79-1.21s-1.53-.62-3.01-.95-2.7-.76-3.66-1.29-1.69-1.18-2.2-1.94-.76-1.63-.76-2.62c0-1.75.72-3.18,2.16-4.32s3.33-1.7,5.66-1.7c2.51,0,4.52.57,6.05,1.71s2.29,2.63,2.29,4.48h-5.94c0-1.52-.8-2.29-2.41-2.29-.62,0-1.14.17-1.56.52s-.63.78-.63,1.29.26.96.77,1.28,1.34.6,2.47.81,2.12.46,2.98.76c2.86.98,4.29,2.75,4.29,5.29,0,1.73-.77,3.15-2.31,4.24s-3.54,1.63-5.99,1.63c-1.63,0-3.08-.29-4.36-.88s-2.27-1.38-2.99-2.39-1.07-2.07-1.07-3.18h5.54c.02.88.32,1.52.88,1.92s1.28.61,2.16.61c.81,0,1.42-.16,1.82-.49s.61-.76.61-1.28Z"/>
      </g>
      <g>
        <path class="cls-2" d="M0,143.99l10.12-13.87c5.8,5.53,12.83,9.59,20.78,9.59,9.26,0,15.42-4.04,15.42-11.33,0-8.33-4.86-13.46-25.49-13.46v-15.56c17.04,0,22.4-5.18,22.4-12.7,0-6.67-4.25-10.45-11.7-10.45-6.75,0-11.86,3.06-17.73,8.29l-11.11-13.38c8.73-7.5,18.28-12.14,29.82-12.14,19.7,0,32.72,9.35,32.72,26.03,0,9.77-5.6,16.77-15.81,21.07v.6c10.96,3.13,18.91,10.86,18.91,23.12,0,17.66-16.19,27.62-35.27,27.62-15.36,0-26.11-5.45-33.07-13.44Z"/>
        <path class="cls-2" d="M86.75,137.92h20.73v-54.88h-17.77v-13.62c10.18-1.93,16.89-4.52,23.53-8.63h16.19v77.13h17.76v17.72h-60.45v-17.72Z"/>
        <path class="cls-2" d="M159.78,87.27c0-19.47,10.23-30.77,24.3-30.77s24.3,11.3,24.3,30.77-10.23,31.07-24.3,31.07-24.3-11.55-24.3-31.07ZM193.08,87.27c0-13.83-4.06-18.52-8.99-18.52s-8.99,4.69-8.99,18.52,4.06,18.82,8.99,18.82,8.99-4.99,8.99-18.82ZM240.02,56.5h12.65l-52.56,100.93h-12.66l52.56-100.93ZM231.6,126.36c0-19.47,10.23-30.77,24.3-30.77s24.3,11.3,24.3,30.77-10.23,31.07-24.3,31.07-24.3-11.55-24.3-31.07ZM264.9,126.36c0-13.83-4.06-18.52-8.99-18.52s-8.99,4.69-8.99,18.52,4.06,18.82,8.99,18.82,8.99-4.99,8.99-18.82Z"/>
        <path class="cls-2" d="M321.81,110.05h36.69v15.56h-36.69v-15.56Z"/>
        <path class="cls-2" d="M399.41,107.79c0-32.28,13.55-48.8,33.93-48.8s33.93,16.64,33.93,48.8-13.55,49.64-33.93,49.64-33.93-17.36-33.93-49.64ZM446.5,107.79c0-25.88-5.76-31.82-13.16-31.82s-13.16,5.93-13.16,31.82,5.76,32.66,13.16,32.66,13.16-6.78,13.16-32.66Z"/>
        <path class="cls-2" d="M477.33,87.27c0-19.47,10.23-30.77,24.3-30.77s24.3,11.3,24.3,30.77-10.23,31.07-24.3,31.07-24.3-11.55-24.3-31.07ZM510.63,87.27c0-13.83-4.06-18.52-8.99-18.52s-8.99,4.69-8.99,18.52,4.06,18.82,8.99,18.82,8.99-4.99,8.99-18.82ZM557.57,56.5h12.66l-52.56,100.93h-12.65l52.56-100.93ZM549.15,126.36c0-19.47,10.23-30.77,24.3-30.77s24.3,11.3,24.3,30.77-10.23,31.07-24.3,31.07-24.3-11.55-24.3-31.07ZM582.45,126.36c0-13.83-4.06-18.52-8.99-18.52s-8.99,4.69-8.99,18.52,4.06,18.82,8.99,18.82,8.99-4.99,8.99-18.82Z"/>
      </g>
      <path class="cls-2" d="M762.74,100.68l-2.18-56.84c-.12-2.59-2.23-4.59-4.83-4.59h-.08c-.32,0-.63,0-.96,0-33.6,0-56.93-28.48-63.32-37.27-.45-.62-1.04-1.12-1.7-1.46-.67-.35-1.41-.53-2.18-.53-1.53,0-2.98.75-3.87,1.98-3.86,5.31-14.14,18.1-29.16,27.17.41,1.71.7,3.46.83,5.23.07.89.11,1.78.11,2.67,0,18.45-15.03,33.46-33.5,33.46-1.2,0-2.39-.06-3.56-.19-1.68-.18-3.32-.48-4.91-.89l-1.19,31.26v.1c0,.67.1,16.59,9.25,35.56,8.43,17.48,26.45,40.87,64.5,52.98.48.15.99.23,1.49.23s1-.08,1.49-.23c38.05-12.11,56.08-35.5,64.51-52.98,9.15-18.97,9.25-34.89,9.25-35.56,0-.04,0-.07,0-.1ZM688.57,40.93c10.96,0,19.88,8.92,19.88,19.89s-8.92,19.88-19.88,19.88-19.89-8.92-19.89-19.88,8.92-19.89,19.89-19.89ZM729.26,153.45c-1.4,1.53-3.39,2.41-5.47,2.41h-70.8c-2.08,0-4.07-.88-5.47-2.41-1.39-1.52-2.08-3.58-1.9-5.63.91-9.93,3.1-29.76,3.3-31.56.07-7.08,4.96-14.07,14.54-20.76,6.99-4.89,15.3-7.47,24.05-7.47h1.75c8.75,0,17.07,2.58,24.05,7.47,9.58,6.69,14.48,13.68,14.54,20.76.2,1.8,2.4,21.63,3.3,31.56.19,2.05-.5,4.11-1.89,5.63Z"/>
      <path class="cls-2" d="M790.61,53.93c-.11-2.57-2.31-4.65-4.9-4.59-4.08.06-8.2-.29-12.24-1.06-1.34-.26-2.63.62-2.88,1.96-.26,1.34.62,2.63,1.96,2.88,4.34.83,8.76,1.21,13.15,1.15l2.17,56.63c-.01.88-.35,16.05-8.86,33.59-11.67,24.05-32.35,40.94-61.45,50.21-4.04-1.29-7.97-2.74-11.69-4.34-1.25-.54-2.7.05-3.24,1.3-.54,1.25.05,2.7,1.3,3.24,3.87,1.65,7.95,3.17,12.13,4.5.48.15.99.23,1.49.23s1.01-.08,1.49-.23c38.05-12.12,56.08-35.5,64.51-52.98,9.14-18.97,9.25-34.9,9.25-35.56,0-.03,0-.06,0-.09l-2.18-56.84Z"/>
      <path class="cls-3" d="M616.57,65.08c1.73.33,3.52.5,5.34.5,15.75,0,28.57-12.8,28.57-28.53,0-1.15-.07-2.27-.2-3.4-.02-.21-.05-.42-.08-.62-.99-6.97-4.51-13.34-10.01-17.91-4.65-3.9-10.26-6.16-16.26-6.56h-.25c-.62-.06-1.2-.09-1.76-.09-.61,0-1.18,0-1.67.07-.07.01-.15.02-.22.02-5.92.35-11.52,2.58-16.2,6.46-6.64,5.44-10.44,13.46-10.44,22.02,0,13.82,9.88,25.38,22.95,27.98.08.02.16.03.24.05ZM605.38,35.1c.96-.97,2.53-.97,3.49,0l9.82,9.81,19.26-19.26c.96-.96,2.52-.96,3.49,0,.96.96.96,2.52,0,3.49l-21.01,21.01c-.48.48-1.11.72-1.74.72s-1.26-.24-1.74-.72l-11.56-11.56c-.96-.96-.96-2.52,0-3.48Z"/>
    </g>
  </g>
</svg>