<?xml version="1.0" encoding="UTF-8"?>
<svg id="Layer_2" data-name="Layer 2" xmlns="http://www.w3.org/2000/svg" viewBox="0 0 1279.13 884.56">
  <defs>
    <style>
      .cls-1 {
        fill: #010101;
      }

      .cls-2 {
        fill: #231f20;
      }

      .cls-3 {
        fill: #f79439;
      }

      .cls-4 {
        fill: #12bdcd;
      }
    </style>
  </defs>
  <g id="Graphics">
    <g>
      <rect class="cls-3" y="759.78" width="696.79" height="124.78"/>
      <g>
        <path class="cls-3" d="M95.3,734.98c-15.98,0-31.85-2.13-47.61-6.4-15.76-4.27-29.11-10.34-40.05-18.22l20.68-40.71c8.75,6.35,18.93,11.38,30.53,15.1,11.6,3.72,23.31,5.58,35.13,5.58,13.35,0,23.85-2.63,31.52-7.88,7.66-5.25,11.49-12.48,11.49-21.67s-3.4-15.65-10.18-20.68c-6.79-5.03-17.73-7.55-32.83-7.55h-24.29v-35.13l64.02-72.56,5.9,19.04H19.13v-42.68h160.88v34.47l-63.7,72.56-26.92-15.43h15.43c28.24,0,49.57,6.35,64.02,19.04,14.44,12.7,21.67,29.01,21.67,48.92,0,12.92-3.4,25.01-10.18,36.28-6.79,11.28-17.19,20.41-31.19,27.41-14.01,7-31.96,10.51-53.84,10.51Z"/>
        <path class="cls-3" d="M216.2,731.04v-34.47l88.64-83.72c7.01-6.35,12.15-12.04,15.43-17.07,3.28-5.03,5.53-9.63,6.73-13.79,1.2-4.15,1.8-7.99,1.8-11.49,0-9.19-3.12-16.25-9.36-21.18-6.24-4.92-15.38-7.39-27.41-7.39-9.63,0-18.55,1.86-26.76,5.58-8.21,3.72-15.16,9.52-20.85,17.4l-38.74-24.95c8.75-13.13,21.02-23.53,36.78-31.19,15.76-7.66,33.92-11.49,54.5-11.49,17.07,0,32.01,2.79,44.81,8.37,12.8,5.58,22.76,13.41,29.88,23.47,7.11,10.07,10.67,22.11,10.67,36.11,0,7.44-.94,14.83-2.79,22.16-1.86,7.34-5.58,15.05-11.16,23.15-5.58,8.1-13.74,17.19-24.46,27.25l-73.55,69.27-10.18-19.37h129.69v43.34h-173.68Z"/>
      </g>
      <g>
        <path class="cls-2" d="M38.64,803.75h10.24v14.41h11.55v-14.41h10.24v38.69h-10.24v-15.36h-11.55v15.36h-10.24v-38.69Z"/>
        <path class="cls-2" d="M76.86,827.56c0-9.88,7.14-15.6,14.76-15.6s14.76,5.71,14.76,15.6-7.14,15.6-14.76,15.6-14.76-5.71-14.76-15.6ZM95.9,827.56c0-4.52-1.19-7.38-4.29-7.38s-4.29,2.86-4.29,7.38,1.19,7.38,4.29,7.38,4.29-2.86,4.29-7.38Z"/>
        <path class="cls-2" d="M109.35,838.99l4.52-6.31c2.74,2.02,5.18,2.98,7.26,2.98s2.98-.59,2.98-1.79c0-1.55-2.74-2.26-5.71-3.45-3.45-1.37-7.38-3.93-7.38-8.81,0-5.83,4.76-9.64,11.79-9.64,4.88,0,8.33,1.96,10.95,3.93l-4.52,6.07c-2.14-1.55-4.23-2.5-6.07-2.5-1.73,0-2.62.48-2.62,1.67,0,1.55,2.5,2.14,5.48,3.21,3.57,1.31,7.62,3.57,7.62,8.93s-4.41,9.88-12.74,9.88c-3.81,0-8.45-1.67-11.55-4.17Z"/>
        <path class="cls-2" d="M138.64,812.68h8.33l.71,2.74h.24c2.2-2.02,5.12-3.45,8.09-3.45,7.02,0,11.55,5.95,11.55,15.12,0,10.24-6.07,16.07-12.38,16.07-2.5,0-4.76-1.07-6.67-2.98l.36,4.52v8.21h-10.24v-40.24ZM157.09,827.2c0-4.88-1.43-6.9-4.17-6.9-1.55,0-2.74.59-4.05,2.14v10.95c1.19,1.07,2.5,1.43,3.81,1.43,2.38,0,4.41-1.9,4.41-7.62Z"/>
        <path class="cls-2" d="M172.68,803.87c0-3.09,2.26-5.12,5.59-5.12s5.6,2.02,5.6,5.12-2.26,5.12-5.6,5.12-5.59-2.02-5.59-5.12ZM173.16,812.68h10.24v29.76h-10.24v-29.76Z"/>
        <path class="cls-2" d="M191.61,831.01v-10.36h-3.93v-7.62l4.52-.36,1.19-7.74h8.45v7.74h6.79v7.98h-6.79v10.18c0,3.27,1.67,4.35,3.57,4.35.95,0,1.91-.24,2.62-.48l1.55,7.38c-1.55.48-3.75,1.07-7.02,1.07-7.74,0-10.95-4.88-10.95-12.14Z"/>
        <path class="cls-2" d="M211.73,833.99c0-6.19,4.76-9.64,16.19-10.83-.24-2.14-1.55-3.09-4.17-3.09-2.14,0-4.41.83-7.5,2.5l-3.57-6.67c4.17-2.5,8.45-3.93,13.1-3.93,7.74,0,12.38,4.17,12.38,13.93v16.55h-8.33l-.71-2.86h-.24c-2.38,2.14-5,3.57-8.21,3.57-5.6,0-8.93-4.29-8.93-9.17ZM227.92,833.27v-4.05c-4.88.71-6.43,2.26-6.43,3.93,0,1.37.95,2.14,2.74,2.14,1.67,0,2.62-.83,3.69-2.02Z"/>
        <path class="cls-2" d="M243.64,831.96v-30.95h10.24v31.31c0,2.02.95,2.62,1.67,2.62.36,0,.59,0,1.07-.12l1.19,7.5c-1.07.48-2.74.83-5,.83-6.91,0-9.17-4.52-9.17-11.19Z"/>
        <path class="cls-2" d="M260.9,803.87c0-3.09,2.26-5.12,5.6-5.12s5.59,2.02,5.59,5.12-2.26,5.12-5.59,5.12-5.6-2.02-5.6-5.12ZM261.37,812.68h10.24v29.76h-10.24v-29.76Z"/>
        <path class="cls-2" d="M279.82,831.01v-10.36h-3.93v-7.62l4.52-.36,1.19-7.74h8.45v7.74h6.79v7.98h-6.79v10.18c0,3.27,1.67,4.35,3.57,4.35.95,0,1.91-.24,2.62-.48l1.55,7.38c-1.55.48-3.75,1.07-7.02,1.07-7.74,0-10.95-4.88-10.95-12.14Z"/>
        <path class="cls-2" d="M302.2,853.03l1.79-7.74c.54.12,1.31.36,1.9.36,2.74,0,4.05-1.19,4.64-2.98l.36-1.31-11.31-28.69h10.24l3.57,11.43c.83,2.74,1.43,5.48,2.14,8.45h.24c.6-2.86,1.19-5.6,1.9-8.45l2.98-11.43h9.76l-10,29.29c-3.09,8.04-6.31,11.67-13.69,11.67-2.02,0-3.21-.24-4.52-.59Z"/>
        <path class="cls-2" d="M341.73,833.99c0-6.19,4.76-9.64,16.19-10.83-.24-2.14-1.55-3.09-4.17-3.09-2.14,0-4.41.83-7.5,2.5l-3.57-6.67c4.17-2.5,8.45-3.93,13.1-3.93,7.74,0,12.38,4.17,12.38,13.93v16.55h-8.33l-.71-2.86h-.24c-2.38,2.14-5,3.57-8.21,3.57-5.6,0-8.93-4.29-8.93-9.17ZM357.92,833.27v-4.05c-4.88.71-6.43,2.26-6.43,3.93,0,1.37.95,2.14,2.74,2.14,1.67,0,2.62-.83,3.69-2.02Z"/>
        <path class="cls-2" d="M374.82,812.68h8.33l.71,3.57h.24c2.38-2.26,5.36-4.29,9.4-4.29,6.55,0,9.29,4.76,9.29,12.14v18.33h-10.24v-17.02c0-3.81-.95-4.76-2.98-4.76-1.91,0-2.98.83-4.52,2.26v19.52h-10.24v-29.76Z"/>
        <path class="cls-2" d="M408.15,827.56c0-9.76,6.07-15.6,12.14-15.6,3.21,0,5.12,1.19,6.9,2.98l-.36-4.29v-9.64h10.24v41.43h-8.33l-.71-2.74h-.24c-2.02,2.02-4.88,3.45-7.5,3.45-7.38,0-12.14-5.95-12.14-15.6ZM426.84,832.68v-10.95c-1.19-1.07-2.74-1.43-4.05-1.43-2.14,0-4.17,1.9-4.17,7.14s1.67,7.38,4.41,7.38c1.55,0,2.74-.48,3.81-2.14Z"/>
        <path class="cls-2" d="M462.91,812.32h-10.24v-8.57h30.71v8.57h-10.24v30.12h-10.24v-30.12Z"/>
        <path class="cls-2" d="M481.96,827.56c0-9.88,7.14-15.6,14.76-15.6s14.76,5.71,14.76,15.6-7.14,15.6-14.76,15.6-14.76-5.71-14.76-15.6ZM501.01,827.56c0-4.52-1.19-7.38-4.29-7.38s-4.29,2.86-4.29,7.38,1.19,7.38,4.29,7.38,4.29-2.86,4.29-7.38Z"/>
        <path class="cls-2" d="M516.6,831.01v-18.33h10.24v17.02c0,3.81.95,4.76,2.98,4.76,1.91,0,2.98-.71,4.29-2.62v-19.17h10.24v29.76h-8.33l-.71-3.93h-.24c-2.38,2.86-5.12,4.64-9.17,4.64-6.55,0-9.29-4.76-9.29-12.14Z"/>
        <path class="cls-2" d="M551.24,812.68h8.33l.71,5.12h.24c2.2-4.05,5.54-5.83,8.45-5.83,1.84,0,2.86.24,3.69.6l-1.67,8.81c-1.07-.24-2.02-.48-3.33-.48-2.14,0-4.76,1.31-6.19,5v16.55h-10.24v-29.76Z"/>
        <path class="cls-2" d="M570.88,803.87c0-3.09,2.26-5.12,5.6-5.12s5.59,2.02,5.59,5.12-2.26,5.12-5.59,5.12-5.6-2.02-5.6-5.12ZM571.36,812.68h10.24v29.76h-10.24v-29.76Z"/>
        <path class="cls-2" d="M586.12,838.99l4.52-6.31c2.74,2.02,5.18,2.98,7.26,2.98s2.98-.59,2.98-1.79c0-1.55-2.74-2.26-5.71-3.45-3.45-1.37-7.38-3.93-7.38-8.81,0-5.83,4.76-9.64,11.79-9.64,4.88,0,8.33,1.96,10.95,3.93l-4.52,6.07c-2.14-1.55-4.23-2.5-6.07-2.5-1.73,0-2.62.48-2.62,1.67,0,1.55,2.5,2.14,5.48,3.21,3.57,1.31,7.62,3.57,7.62,8.93s-4.41,9.88-12.74,9.88c-3.81,0-8.45-1.67-11.55-4.17Z"/>
        <path class="cls-2" d="M615.41,812.68h8.33l.71,3.63h.24c2.38-2.32,4.88-4.35,8.93-4.35s6.61,1.67,8.21,4.76c2.44-2.5,5.12-4.76,9.17-4.76,6.55,0,9.41,4.76,9.41,12.14v18.33h-10.24v-17.02c0-3.81-.95-4.76-2.98-4.76-1.19,0-2.62.71-4.17,2.26v19.52h-10.24v-17.02c0-3.81-.95-4.76-2.98-4.76-1.19,0-2.62.71-4.17,2.26v19.52h-10.24v-29.76Z"/>
      </g>
      <g>
        <path class="cls-2" d="M734.81,797.2l3.54-15.36h4.87l-6.06,22.24h-4.11l-4.77-15.27-4.69,15.27h-4.11l-6.08-22.24h4.87l3.6,15.19,4.56-15.19h3.76l4.62,15.36Z"/>
        <path class="cls-2" d="M759.85,804.09c-.14-.26-.25-.57-.34-.92-.09-.36-.17-.74-.24-1.15-.33.34-.7.67-1.1.97-.4.3-.85.57-1.34.79-.49.23-1.01.4-1.58.54-.57.13-1.17.2-1.82.2-1.11,0-2.13-.17-3.06-.5-.93-.34-1.73-.8-2.4-1.4-.67-.6-1.19-1.3-1.56-2.11-.38-.81-.57-1.69-.57-2.63,0-1.19.23-2.25.68-3.17s1.11-1.69,1.97-2.3c.86-.62,1.92-1.09,3.18-1.41s2.68-.48,4.29-.48h3.15v-1.46c0-1.15-.32-2.07-.97-2.76-.64-.69-1.62-1.04-2.94-1.04-.59,0-1.12.08-1.6.24-.48.16-.89.37-1.22.64-.34.27-.6.59-.78.96-.19.37-.28.77-.28,1.19h-5c0-.88.22-1.72.65-2.54s1.04-1.54,1.84-2.18c.79-.64,1.76-1.15,2.89-1.53,1.13-.38,2.39-.58,3.79-.58,1.25,0,2.4.16,3.45.48,1.05.32,1.97.8,2.73,1.44.77.64,1.36,1.43,1.79,2.38.42.95.64,2.07.64,3.34v9.87c0,2,.28,3.6.84,4.79v.35h-5.1ZM754.36,800.49c.58,0,1.11-.08,1.61-.23.5-.15.95-.35,1.36-.6s.76-.53,1.06-.85c.3-.32.54-.65.72-.98v-4.19h-2.69c-1.85,0-3.24.32-4.17.97-.93.64-1.4,1.56-1.4,2.73,0,.45.07.87.23,1.25.15.38.38.72.68,1,.3.28.67.5,1.1.66s.94.24,1.51.24Z"/>
        <path class="cls-2" d="M781.8,798.04c0-.36-.06-.69-.18-1-.12-.31-.35-.6-.69-.86-.34-.27-.83-.52-1.45-.75-.62-.23-1.44-.45-2.44-.66-1.19-.25-2.28-.55-3.26-.92s-1.82-.82-2.52-1.35c-.7-.53-1.24-1.15-1.63-1.86-.39-.71-.59-1.53-.59-2.47s.2-1.76.6-2.58c.4-.82.97-1.53,1.72-2.15s1.65-1.11,2.71-1.47c1.06-.36,2.25-.54,3.57-.54,1.38,0,2.63.18,3.73.54s2.04.86,2.81,1.5c.77.64,1.35,1.39,1.76,2.25.4.86.61,1.79.61,2.79h-5c0-.42-.08-.84-.25-1.24s-.41-.76-.74-1.08c-.33-.32-.74-.57-1.22-.75-.49-.19-1.05-.28-1.7-.28s-1.18.08-1.64.24c-.47.16-.85.36-1.16.62-.31.25-.54.55-.69.88s-.23.69-.23,1.06.07.7.21.99c.14.29.38.55.73.78.35.23.82.45,1.41.65.59.2,1.33.39,2.22.59,1.29.27,2.44.6,3.46.97,1.02.37,1.88.82,2.59,1.36.71.53,1.24,1.16,1.61,1.89s.55,1.59.55,2.59-.21,1.89-.64,2.71c-.43.82-1.03,1.53-1.82,2.13-.79.6-1.74,1.06-2.85,1.39-1.11.33-2.34.49-3.7.49-1.52,0-2.87-.22-4.04-.65s-2.15-1-2.95-1.7-1.39-1.49-1.8-2.37-.61-1.79-.61-2.7h4.85c.04.68.2,1.26.47,1.73s.62.84,1.05,1.13c.42.29.9.5,1.44.63.53.13,1.08.2,1.64.2,1.32,0,2.32-.25,3-.75.68-.5,1.03-1.15,1.03-1.96Z"/>
        <path class="cls-2" d="M807.8,776.44v5.41h3.93v3.7h-3.93v12.42c0,.51.05.92.17,1.23.11.32.27.56.47.73.21.17.45.29.73.35s.59.09.94.09.67-.02,1-.07c.32-.05.57-.09.75-.13v3.86c-.4.11-.86.22-1.39.32-.53.1-1.16.15-1.9.15-.82,0-1.59-.11-2.29-.33-.71-.22-1.31-.58-1.83-1.07-.51-.49-.92-1.14-1.2-1.93-.29-.79-.43-1.77-.43-2.92v-12.7h-3.66v-3.7h3.66v-5.41h4.99Z"/>
        <path class="cls-2" d="M820.47,784.27c.77-.89,1.67-1.59,2.71-2.09,1.04-.5,2.2-.75,3.47-.75,1.08,0,2.07.15,2.96.45.89.3,1.65.79,2.28,1.45.63.67,1.12,1.53,1.46,2.59.34,1.06.51,2.35.51,3.85v14.31h-5v-14.35c0-1.53-.33-2.62-1-3.26-.67-.64-1.64-.96-2.93-.96-1.04,0-1.94.24-2.68.72-.75.48-1.35,1.13-1.8,1.95v15.89h-5v-31.57h5v11.76Z"/>
        <path class="cls-2" d="M848.71,804.5c-1.64,0-3.12-.28-4.44-.82-1.32-.55-2.43-1.3-3.35-2.26-.92-.96-1.62-2.1-2.12-3.41s-.74-2.73-.74-4.25v-.82c0-1.75.26-3.34.78-4.76s1.23-2.62,2.14-3.62c.9-.99,1.97-1.76,3.2-2.3s2.55-.81,3.96-.81c1.62,0,3.02.27,4.21.81,1.19.54,2.18,1.3,2.96,2.27.78.97,1.36,2.13,1.75,3.47.38,1.34.58,2.82.58,4.42v2.14h-14.53c.07.86.25,1.66.54,2.38.29.73.7,1.35,1.2,1.88.51.53,1.11.94,1.8,1.24s1.48.45,2.35.45c1.23,0,2.3-.25,3.22-.74.91-.49,1.7-1.17,2.37-2.04l2.69,2.57c-.36.53-.8,1.05-1.33,1.55-.53.5-1.14.95-1.85,1.34-.71.39-1.5.71-2.39.95s-1.89.36-3,.36ZM848.11,785.44c-1.37,0-2.48.48-3.32,1.44-.84.96-1.38,2.3-1.61,4.01h9.52v-.37c-.04-.66-.15-1.29-.32-1.9-.17-.61-.44-1.15-.79-1.62-.36-.47-.82-.85-1.39-1.13-.57-.28-1.26-.42-2.09-.42Z"/>
        <path class="cls-3" d="M876.69,781.84l.14,2.32c.74-.86,1.64-1.54,2.7-2.01,1.06-.48,2.3-.72,3.71-.72s2.57.27,3.64.81,1.89,1.41,2.47,2.6c.74-1.04,1.68-1.87,2.81-2.49,1.13-.62,2.47-.93,4.02-.93,1.15,0,2.18.15,3.08.46s1.67.79,2.29,1.46c.62.67,1.1,1.52,1.44,2.56.33,1.04.5,2.3.5,3.76v14.41h-4.99v-14.43c0-.82-.09-1.5-.28-2.03-.19-.53-.45-.95-.8-1.26-.35-.31-.77-.53-1.25-.66-.49-.12-1.04-.18-1.65-.18-1.14,0-2.07.31-2.79.92-.72.61-1.22,1.41-1.51,2.39,0,.07,0,.14.01.22,0,.08,0,.15,0,.22v14.82h-5v-14.37c0-.78-.09-1.44-.28-1.97-.18-.53-.45-.97-.8-1.29-.35-.33-.77-.56-1.26-.71-.49-.14-1.05-.22-1.67-.22-1.07,0-1.95.22-2.64.66-.69.44-1.23,1.03-1.61,1.79v16.12h-5v-22.24h4.71Z"/>
        <path class="cls-3" d="M907.69,792.76c0-1.62.24-3.11.71-4.49.47-1.38,1.15-2.57,2.04-3.59.88-1.01,1.96-1.81,3.24-2.38,1.27-.58,2.72-.86,4.34-.86s3.09.29,4.38.86c1.29.58,2.38,1.37,3.26,2.38.88,1.01,1.56,2.21,2.02,3.59.47,1.38.7,2.88.7,4.49v.43c0,1.62-.23,3.12-.7,4.5-.47,1.38-1.14,2.58-2.02,3.59-.88,1.01-1.97,1.8-3.25,2.36s-2.73.85-4.35.85-3.09-.29-4.37-.85-2.36-1.36-3.25-2.36c-.88-1.01-1.56-2.2-2.04-3.59-.47-1.38-.71-2.88-.71-4.5v-.43ZM912.68,793.19c0,1,.1,1.95.31,2.84.21.89.53,1.67.97,2.33.44.67,1,1.19,1.68,1.57.68.38,1.48.58,2.42.58s1.72-.19,2.4-.58c.68-.38,1.23-.91,1.66-1.57.43-.66.75-1.44.97-2.33.21-.89.32-1.84.32-2.84v-.43c0-.99-.11-1.92-.32-2.81-.21-.88-.54-1.66-.98-2.32-.44-.66-1-1.2-1.68-1.59-.68-.4-1.48-.6-2.42-.6s-1.73.2-2.39.6-1.22.93-1.66,1.59c-.44.67-.76,1.44-.97,2.32s-.31,1.82-.31,2.81v.43Z"/>
        <path class="cls-3" d="M945.06,798.04c0-.36-.06-.69-.17-1-.12-.31-.35-.6-.69-.86-.34-.27-.83-.52-1.45-.75-.62-.23-1.44-.45-2.44-.66-1.19-.25-2.28-.55-3.26-.92-.98-.37-1.82-.82-2.52-1.35-.7-.53-1.24-1.15-1.63-1.86-.39-.71-.59-1.53-.59-2.47s.2-1.76.6-2.58c.4-.82.97-1.53,1.72-2.15.75-.62,1.65-1.11,2.71-1.47s2.25-.54,3.57-.54c1.38,0,2.63.18,3.73.54s2.04.86,2.81,1.5c.77.64,1.35,1.39,1.76,2.25.4.86.61,1.79.61,2.79h-4.99c0-.42-.08-.84-.25-1.24-.17-.4-.41-.76-.74-1.08s-.74-.57-1.22-.75c-.49-.19-1.05-.28-1.7-.28s-1.18.08-1.64.24c-.47.16-.85.36-1.16.62-.31.25-.54.55-.69.88-.15.34-.23.69-.23,1.06s.07.7.21.99c.14.29.38.55.73.78.35.23.82.45,1.41.65.59.2,1.33.39,2.22.59,1.29.27,2.44.6,3.46.97,1.02.37,1.88.82,2.59,1.36.71.53,1.24,1.16,1.61,1.89.37.73.55,1.59.55,2.59s-.21,1.89-.64,2.71-1.03,1.53-1.82,2.13c-.79.6-1.74,1.06-2.85,1.39-1.11.33-2.34.49-3.7.49-1.52,0-2.87-.22-4.04-.65s-2.16-1-2.95-1.7-1.39-1.49-1.8-2.37-.61-1.79-.61-2.7h4.85c.04.68.2,1.26.47,1.73.27.47.62.84,1.05,1.13.42.29.9.5,1.44.63.54.13,1.08.2,1.64.2,1.32,0,2.32-.25,3-.75.68-.5,1.03-1.15,1.03-1.96Z"/>
        <path class="cls-3" d="M960.58,776.44v5.41h3.93v3.7h-3.93v12.42c0,.51.05.92.16,1.23s.27.56.47.73c.21.17.45.29.73.35s.59.09.94.09.67-.02,1-.07.57-.09.75-.13v3.86c-.4.11-.86.22-1.39.32-.53.1-1.16.15-1.9.15-.82,0-1.59-.11-2.29-.33-.71-.22-1.32-.58-1.83-1.07-.51-.49-.91-1.14-1.2-1.93s-.43-1.77-.43-2.92v-12.7h-3.66v-3.7h3.66v-5.41h5Z"/>
        <path class="cls-3" d="M998.28,793.19c0,1.62-.19,3.12-.56,4.5-.38,1.38-.93,2.58-1.67,3.59-.73,1.01-1.64,1.8-2.71,2.36s-2.31.85-3.69.85c-1.28,0-2.39-.21-3.35-.62s-1.79-1.01-2.51-1.79v10.54h-4.99v-30.79h4.6l.21,2.26c.71-.86,1.56-1.52,2.54-1.98.98-.46,2.13-.69,3.44-.69,1.41,0,2.66.27,3.74.82,1.08.55,1.99,1.32,2.72,2.31.73.99,1.29,2.19,1.67,3.58.38,1.39.56,2.93.56,4.61v.43ZM993.3,792.76c0-1-.1-1.94-.3-2.82s-.5-1.64-.92-2.3c-.41-.66-.94-1.17-1.58-1.55-.64-.38-1.42-.57-2.32-.57-1.1,0-2,.23-2.71.68-.71.45-1.27,1.07-1.69,1.85v9.87c.41.78.97,1.41,1.68,1.88.71.47,1.63.71,2.76.71.91,0,1.67-.2,2.31-.59s1.16-.92,1.57-1.58c.41-.66.71-1.44.9-2.33.19-.89.29-1.83.29-2.82v-.43Z"/>
        <path class="cls-3" d="M1014.14,786.41c-.33-.05-.66-.1-1-.12s-.68-.04-1.04-.04c-1.21,0-2.19.23-2.94.7-.75.47-1.32,1.11-1.69,1.93v15.21h-5v-22.24h4.77l.12,2.49c.56-.9,1.26-1.61,2.09-2.13.83-.51,1.8-.77,2.93-.77.29,0,.61.03.98.09s.63.13.79.2l-.02,4.69Z"/>
        <path class="cls-3" d="M1026.7,804.5c-1.64,0-3.12-.28-4.44-.82-1.31-.55-2.43-1.3-3.35-2.26-.92-.96-1.62-2.1-2.12-3.41-.49-1.32-.74-2.73-.74-4.25v-.82c0-1.75.26-3.34.78-4.76.52-1.42,1.23-2.62,2.14-3.62.9-.99,1.97-1.76,3.2-2.3s2.54-.81,3.96-.81c1.62,0,3.02.27,4.21.81s2.18,1.3,2.96,2.27,1.36,2.13,1.75,3.47.58,2.82.58,4.42v2.14h-14.53c.07.86.25,1.66.54,2.38.29.73.7,1.35,1.2,1.88.51.53,1.11.94,1.8,1.24.69.3,1.48.45,2.35.45,1.23,0,2.3-.25,3.22-.74.91-.49,1.7-1.17,2.37-2.04l2.69,2.57c-.36.53-.8,1.05-1.33,1.55-.53.5-1.14.95-1.85,1.34-.71.39-1.5.71-2.39.95s-1.89.36-3,.36ZM1026.11,785.44c-1.37,0-2.48.48-3.32,1.44-.84.96-1.38,2.3-1.61,4.01h9.52v-.37c-.04-.66-.15-1.29-.32-1.9-.17-.61-.44-1.15-.79-1.62-.36-.47-.82-.85-1.39-1.13-.57-.28-1.26-.42-2.09-.42Z"/>
        <path class="cls-3" d="M1047.07,797.75l4.71-15.91h5.16l-7.71,22.24h-4.34l-7.77-22.24h5.18l4.77,15.91Z"/>
        <path class="cls-3" d="M1073.04,804.09c-.14-.26-.25-.57-.34-.92-.09-.36-.17-.74-.24-1.15-.33.34-.7.67-1.1.97s-.85.57-1.34.79c-.49.23-1.01.4-1.58.54-.57.13-1.18.2-1.82.2-1.11,0-2.13-.17-3.06-.5s-1.73-.8-2.39-1.4c-.67-.6-1.19-1.3-1.56-2.11s-.56-1.69-.56-2.63c0-1.19.23-2.25.68-3.17s1.11-1.69,1.97-2.3c.86-.62,1.92-1.09,3.18-1.41s2.68-.48,4.29-.48h3.14v-1.46c0-1.15-.32-2.07-.97-2.76-.64-.69-1.62-1.04-2.94-1.04-.59,0-1.12.08-1.6.24-.48.16-.89.37-1.22.64-.34.27-.6.59-.78.96-.18.37-.28.77-.28,1.19h-4.99c0-.88.21-1.72.65-2.54s1.04-1.54,1.84-2.18c.79-.64,1.76-1.15,2.89-1.53s2.39-.58,3.79-.58c1.25,0,2.4.16,3.45.48,1.05.32,1.97.8,2.73,1.44.77.64,1.36,1.43,1.79,2.38.43.95.64,2.07.64,3.34v9.87c0,2,.28,3.6.84,4.79v.35h-5.1ZM1067.55,800.49c.58,0,1.11-.08,1.61-.23.5-.15.95-.35,1.36-.6.4-.25.76-.53,1.06-.85.3-.32.54-.65.72-.98v-4.19h-2.69c-1.85,0-3.24.32-4.17.97s-1.4,1.56-1.4,2.73c0,.45.08.87.23,1.25.15.38.38.72.68,1,.3.28.67.5,1.1.66s.94.24,1.51.24Z"/>
        <path class="cls-3" d="M1087.84,804.09h-5v-31.57h5v31.57Z"/>
        <path class="cls-3" d="M1103.07,804.5c-1.64,0-3.12-.28-4.44-.82-1.32-.55-2.43-1.3-3.35-2.26-.92-.96-1.62-2.1-2.12-3.41s-.74-2.73-.74-4.25v-.82c0-1.75.26-3.34.78-4.76s1.23-2.62,2.14-3.62c.9-.99,1.97-1.76,3.2-2.3s2.55-.81,3.96-.81c1.62,0,3.02.27,4.21.81,1.19.54,2.18,1.3,2.96,2.27.78.97,1.36,2.13,1.75,3.47.38,1.34.58,2.82.58,4.42v2.14h-14.53c.07.86.25,1.66.54,2.38.29.73.7,1.35,1.2,1.88.51.53,1.11.94,1.8,1.24s1.48.45,2.35.45c1.23,0,2.3-.25,3.22-.74.91-.49,1.7-1.17,2.37-2.04l2.69,2.57c-.36.53-.8,1.05-1.33,1.55-.53.5-1.14.95-1.85,1.34-.71.39-1.5.71-2.39.95s-1.89.36-3,.36ZM1102.47,785.44c-1.37,0-2.48.48-3.32,1.44-.84.96-1.38,2.3-1.61,4.01h9.52v-.37c-.04-.66-.15-1.29-.32-1.9-.17-.61-.44-1.15-.79-1.62-.36-.47-.82-.85-1.39-1.13-.57-.28-1.26-.42-2.09-.42Z"/>
        <path class="cls-3" d="M1120.5,781.84l.14,2.57c.78-.95,1.72-1.68,2.82-2.2,1.1-.52,2.31-.78,3.66-.78,1.07,0,2.04.15,2.91.44.87.29,1.61.77,2.23,1.43.62.66,1.09,1.51,1.43,2.57.33,1.06.5,2.34.5,3.84v14.37h-5v-14.41c0-.77-.09-1.42-.26-1.94s-.42-.96-.75-1.29c-.33-.33-.74-.56-1.22-.71-.49-.14-1.04-.22-1.68-.22-1.03,0-1.92.25-2.68.74-.76.49-1.37,1.16-1.82,1.99v15.83h-5v-22.24h4.71Z"/>
        <path class="cls-3" d="M1145.54,776.44v5.41h3.93v3.7h-3.93v12.42c0,.51.05.92.16,1.23s.27.56.47.73c.21.17.45.29.73.35s.59.09.94.09.67-.02,1-.07.57-.09.75-.13v3.86c-.4.11-.86.22-1.39.32-.53.1-1.16.15-1.9.15-.82,0-1.59-.11-2.29-.33-.71-.22-1.32-.58-1.83-1.07-.51-.49-.91-1.14-1.2-1.93s-.43-1.77-.43-2.92v-12.7h-3.66v-3.7h3.66v-5.41h5Z"/>
        <path class="cls-3" d="M1176.23,798.04c0-.36-.06-.69-.17-1-.12-.31-.35-.6-.69-.86-.34-.27-.83-.52-1.45-.75-.62-.23-1.44-.45-2.44-.66-1.19-.25-2.28-.55-3.26-.92-.98-.37-1.82-.82-2.52-1.35-.7-.53-1.24-1.15-1.63-1.86-.39-.71-.59-1.53-.59-2.47s.2-1.76.6-2.58.97-1.53,1.72-2.15c.75-.62,1.65-1.11,2.71-1.47,1.06-.36,2.25-.54,3.57-.54,1.38,0,2.63.18,3.73.54,1.1.36,2.04.86,2.81,1.5.77.64,1.35,1.39,1.76,2.25s.61,1.79.61,2.79h-5c0-.42-.08-.84-.25-1.24-.17-.4-.41-.76-.74-1.08-.33-.32-.74-.57-1.22-.75-.49-.19-1.05-.28-1.7-.28s-1.18.08-1.64.24c-.46.16-.85.36-1.16.62-.31.25-.54.55-.69.88s-.23.69-.23,1.06.07.7.21.99c.14.29.38.55.73.78.35.23.82.45,1.41.65.59.2,1.33.39,2.22.59,1.29.27,2.44.6,3.46.97,1.02.37,1.88.82,2.59,1.36.71.53,1.24,1.16,1.61,1.89s.55,1.59.55,2.59-.21,1.89-.64,2.71c-.42.82-1.03,1.53-1.82,2.13-.79.6-1.74,1.06-2.85,1.39-1.11.33-2.34.49-3.7.49-1.52,0-2.87-.22-4.04-.65s-2.16-1-2.95-1.7c-.79-.7-1.39-1.49-1.8-2.37s-.61-1.79-.61-2.7h4.85c.04.68.2,1.26.47,1.73.27.47.62.84,1.05,1.13.42.29.9.5,1.44.63.53.13,1.08.2,1.64.2,1.32,0,2.32-.25,3-.75.69-.5,1.03-1.15,1.03-1.96Z"/>
        <path class="cls-3" d="M1195.28,804.5c-1.64,0-3.12-.28-4.44-.82-1.31-.55-2.43-1.3-3.35-2.26-.92-.96-1.62-2.1-2.12-3.41-.49-1.32-.74-2.73-.74-4.25v-.82c0-1.75.26-3.34.78-4.76.52-1.42,1.23-2.62,2.14-3.62.9-.99,1.97-1.76,3.2-2.3s2.54-.81,3.96-.81c1.62,0,3.02.27,4.21.81s2.18,1.3,2.96,2.27,1.36,2.13,1.75,3.47.58,2.82.58,4.42v2.14h-14.53c.07.86.25,1.66.54,2.38.29.73.7,1.35,1.2,1.88.51.53,1.11.94,1.8,1.24.69.3,1.48.45,2.35.45,1.23,0,2.3-.25,3.22-.74.91-.49,1.7-1.17,2.37-2.04l2.69,2.57c-.36.53-.8,1.05-1.33,1.55-.53.5-1.14.95-1.85,1.34-.71.39-1.5.71-2.39.95s-1.89.36-3,.36ZM1194.69,785.44c-1.37,0-2.48.48-3.32,1.44-.84.96-1.38,2.3-1.61,4.01h9.52v-.37c-.04-.66-.15-1.29-.32-1.9-.17-.61-.44-1.15-.79-1.62-.36-.47-.82-.85-1.39-1.13-.57-.28-1.26-.42-2.09-.42Z"/>
        <path class="cls-3" d="M1217.21,800.51c.6,0,1.17-.09,1.7-.28.53-.19.99-.45,1.38-.78s.71-.74.95-1.2c.24-.46.37-.97.4-1.52h4.71c-.04,1.07-.3,2.08-.79,3.02-.49.95-1.14,1.77-1.95,2.48-.82.71-1.76,1.26-2.85,1.66-1.08.4-2.24.61-3.47.61-1.71,0-3.2-.29-4.47-.88-1.27-.59-2.32-1.39-3.17-2.4-.84-1.01-1.47-2.2-1.88-3.56s-.62-2.79-.62-4.32v-.72c0-1.52.21-2.96.62-4.32s1.04-2.55,1.88-3.57,1.89-1.83,3.16-2.42c1.26-.59,2.75-.88,4.46-.88,1.34,0,2.57.21,3.67.62s2.05.99,2.84,1.73c.79.74,1.41,1.62,1.85,2.65.45,1.03.69,2.16.73,3.39h-4.71c-.03-.59-.15-1.15-.36-1.69-.21-.53-.51-1-.88-1.4s-.83-.71-1.37-.95-1.14-.35-1.81-.35c-1.01,0-1.85.21-2.51.63-.66.42-1.18.96-1.56,1.63-.38.67-.65,1.44-.79,2.3-.14.86-.21,1.73-.21,2.61v.72c0,.9.07,1.79.21,2.64.14.86.41,1.62.79,2.29.38.67.9,1.21,1.55,1.62.65.41,1.49.62,2.52.62Z"/>
        <path class="cls-3" d="M1236.37,776.44v5.41h3.93v3.7h-3.93v12.42c0,.51.05.92.16,1.23s.27.56.47.73c.21.17.45.29.73.35s.59.09.94.09.67-.02,1-.07.57-.09.75-.13v3.86c-.4.11-.86.22-1.39.32-.53.1-1.16.15-1.9.15-.82,0-1.59-.11-2.29-.33-.71-.22-1.32-.58-1.83-1.07-.51-.49-.91-1.14-1.2-1.93s-.43-1.77-.43-2.92v-12.7h-3.66v-3.7h3.66v-5.41h5Z"/>
        <path class="cls-3" d="M1242.56,792.76c0-1.62.24-3.11.71-4.49.47-1.38,1.15-2.57,2.04-3.59.88-1.01,1.96-1.81,3.24-2.38,1.27-.58,2.72-.86,4.34-.86s3.09.29,4.38.86c1.29.58,2.38,1.37,3.26,2.38.88,1.01,1.56,2.21,2.02,3.59.47,1.38.7,2.88.7,4.49v.43c0,1.62-.23,3.12-.7,4.5-.47,1.38-1.14,2.58-2.02,3.59-.88,1.01-1.97,1.8-3.25,2.36s-2.73.85-4.35.85-3.09-.29-4.37-.85-2.36-1.36-3.25-2.36c-.88-1.01-1.56-2.2-2.04-3.59-.47-1.38-.71-2.88-.71-4.5v-.43ZM1247.56,793.19c0,1,.1,1.95.31,2.84.21.89.53,1.67.97,2.33.44.67,1,1.19,1.68,1.57.68.38,1.48.58,2.42.58s1.72-.19,2.4-.58c.68-.38,1.23-.91,1.66-1.57.43-.66.75-1.44.97-2.33.21-.89.32-1.84.32-2.84v-.43c0-.99-.11-1.92-.32-2.81-.21-.88-.54-1.66-.98-2.32-.44-.66-1-1.2-1.68-1.59-.68-.4-1.48-.6-2.42-.6s-1.73.2-2.39.6-1.22.93-1.66,1.59c-.44.67-.76,1.44-.97,2.32s-.31,1.82-.31,2.81v.43Z"/>
        <path class="cls-3" d="M1279.11,786.41c-.33-.05-.66-.1-1-.12s-.68-.04-1.04-.04c-1.21,0-2.19.23-2.94.7-.75.47-1.32,1.11-1.69,1.93v15.21h-5v-22.24h4.77l.12,2.49c.56-.9,1.26-1.61,2.09-2.13s1.81-.77,2.93-.77c.29,0,.61.03.98.09s.63.13.79.2l-.02,4.69Z"/>
        <path class="cls-2" d="M728.56,854.6c-.14-.26-.25-.57-.34-.92-.09-.36-.17-.74-.24-1.15-.33.34-.7.67-1.1.97-.4.3-.85.57-1.34.79s-1.01.4-1.58.53c-.57.13-1.18.2-1.82.2-1.11,0-2.13-.17-3.06-.5-.93-.33-1.73-.8-2.39-1.4-.67-.6-1.19-1.3-1.56-2.11s-.56-1.69-.56-2.63c0-1.19.23-2.25.68-3.17s1.11-1.69,1.97-2.3c.86-.62,1.92-1.09,3.18-1.41,1.25-.32,2.68-.48,4.29-.48h3.14v-1.46c0-1.15-.32-2.07-.97-2.76-.64-.69-1.62-1.04-2.94-1.04-.59,0-1.12.08-1.6.24-.48.16-.89.37-1.22.64-.34.27-.6.59-.78.96-.18.37-.28.77-.28,1.19h-4.99c0-.88.21-1.72.65-2.54s1.04-1.54,1.84-2.18c.79-.64,1.76-1.15,2.89-1.53,1.13-.38,2.39-.58,3.79-.58,1.25,0,2.4.16,3.45.48,1.05.32,1.97.8,2.73,1.44.77.64,1.36,1.43,1.79,2.38.43.95.64,2.07.64,3.34v9.87c0,2,.28,3.6.84,4.79v.35h-5.1ZM723.07,851.01c.58,0,1.11-.08,1.61-.23.5-.15.95-.35,1.36-.6.4-.25.76-.53,1.06-.85.3-.32.54-.65.72-.98v-4.19h-2.69c-1.85,0-3.24.32-4.17.97-.93.64-1.4,1.55-1.4,2.73,0,.45.08.87.23,1.25s.38.72.68,1c.3.28.67.5,1.1.66.43.16.94.24,1.51.24Z"/>
        <path class="cls-2" d="M742.75,832.36l.14,2.32c.74-.86,1.64-1.53,2.7-2.01s2.3-.72,3.71-.72,2.57.27,3.64.81c1.07.54,1.89,1.41,2.47,2.6.74-1.04,1.68-1.87,2.81-2.49,1.13-.62,2.47-.92,4.02-.92,1.15,0,2.18.15,3.08.46.9.31,1.67.8,2.29,1.46.62.67,1.1,1.52,1.44,2.56s.5,2.29.5,3.76v14.41h-5v-14.43c0-.82-.09-1.5-.28-2.03-.18-.53-.45-.95-.8-1.26s-.77-.53-1.25-.66c-.49-.12-1.04-.18-1.65-.18-1.14,0-2.07.3-2.79.91-.72.61-1.22,1.41-1.51,2.4,0,.07,0,.14.01.22s.01.15.01.22v14.82h-5v-14.37c0-.78-.09-1.44-.28-1.97s-.45-.97-.8-1.29c-.35-.33-.77-.57-1.27-.71-.49-.14-1.05-.22-1.66-.22-1.07,0-1.95.22-2.64.66-.69.44-1.23,1.03-1.61,1.79v16.12h-4.99v-22.24h4.71Z"/>
        <path class="cls-2" d="M773.74,843.28c0-1.62.24-3.11.71-4.49s1.15-2.57,2.04-3.59,1.96-1.81,3.24-2.38,2.72-.86,4.34-.86,3.09.29,4.38.86,2.38,1.37,3.26,2.38c.88,1.01,1.56,2.21,2.03,3.59.46,1.38.7,2.88.7,4.49v.43c0,1.62-.23,3.12-.7,4.5-.47,1.38-1.14,2.58-2.03,3.59-.88,1.01-1.97,1.79-3.25,2.36-1.28.57-2.73.85-4.35.85s-3.09-.28-4.37-.85c-1.28-.57-2.36-1.36-3.25-2.36s-1.56-2.2-2.04-3.59-.71-2.88-.71-4.5v-.43ZM778.74,843.71c0,1,.1,1.95.31,2.84.21.89.53,1.67.97,2.33.44.67,1,1.19,1.68,1.57.68.38,1.48.58,2.41.58s1.72-.19,2.4-.58,1.23-.91,1.67-1.57.75-1.44.97-2.33.32-1.84.32-2.84v-.43c0-.99-.11-1.92-.32-2.81s-.54-1.66-.98-2.32c-.44-.66-1-1.2-1.68-1.59s-1.48-.6-2.42-.6-1.73.2-2.39.6c-.66.4-1.22.93-1.65,1.59-.44.67-.76,1.44-.97,2.32-.21.88-.31,1.82-.31,2.81v.43Z"/>
        <path class="cls-2" d="M803.28,832.36l.14,2.57c.78-.95,1.72-1.68,2.82-2.2s2.32-.78,3.66-.78c1.07,0,2.04.15,2.91.44.87.29,1.61.77,2.23,1.43.62.66,1.09,1.51,1.43,2.57.33,1.05.5,2.34.5,3.84v14.37h-4.99v-14.41c0-.77-.09-1.42-.26-1.94-.17-.53-.42-.96-.75-1.28-.33-.33-.74-.57-1.22-.71s-1.04-.22-1.68-.22c-1.03,0-1.92.25-2.68.74-.76.49-1.37,1.16-1.82,1.99v15.83h-4.99v-22.24h4.71Z"/>
        <path class="cls-2" d="M821.19,843.32c0-1.69.21-3.23.62-4.62s1-2.6,1.78-3.6c.77-1,1.71-1.78,2.81-2.32s2.33-.82,3.7-.82,2.5.23,3.47.69,1.81,1.11,2.51,1.96l.23-2.24h4.5v21.62c0,1.49-.25,2.82-.74,3.99-.49,1.17-1.18,2.14-2.06,2.94-.88.79-1.95,1.4-3.19,1.82s-2.6.63-4.08.63c-.62,0-1.3-.07-2.05-.2-.75-.13-1.52-.34-2.28-.64-.77-.29-1.5-.68-2.2-1.14-.7-.47-1.29-1.04-1.79-1.71l2.36-3c.82.97,1.72,1.67,2.68,2.1s1.96.64,2.99.64c1.66,0,2.97-.45,3.93-1.35s1.44-2.22,1.44-3.96v-1.5c-.7.78-1.52,1.38-2.47,1.79s-2.04.62-3.29.62c-1.36,0-2.58-.28-3.67-.85-1.09-.57-2.02-1.35-2.79-2.35-.77-1-1.37-2.19-1.78-3.57-.41-1.38-.62-2.87-.62-4.49v-.43ZM826.16,843.75c0,.99.1,1.92.3,2.79.2.87.51,1.63.94,2.29.42.66.96,1.18,1.6,1.55s1.42.56,2.32.56c1.12,0,2.04-.24,2.75-.71.71-.47,1.29-1.1,1.73-1.88v-9.78c-.44-.78-1.02-1.4-1.74-1.85-.72-.45-1.62-.68-2.7-.68-.91,0-1.69.19-2.34.58-.66.38-1.2.9-1.61,1.56-.42.66-.73,1.43-.94,2.31s-.31,1.83-.31,2.83v.43Z"/>
        <path class="cls-2" d="M858.39,848.56c0-.36-.06-.69-.17-1-.12-.31-.35-.6-.69-.86-.34-.27-.83-.52-1.45-.75-.62-.23-1.44-.45-2.44-.66-1.19-.25-2.28-.55-3.26-.92-.98-.37-1.82-.82-2.52-1.35-.7-.53-1.24-1.15-1.63-1.86-.39-.71-.59-1.53-.59-2.47s.2-1.76.6-2.58c.4-.82.97-1.53,1.72-2.15.75-.62,1.65-1.11,2.71-1.47,1.06-.36,2.25-.54,3.57-.54,1.38,0,2.63.18,3.73.54,1.1.36,2.04.86,2.81,1.5.77.64,1.35,1.39,1.76,2.25s.61,1.8.61,2.8h-5c0-.42-.08-.84-.25-1.24-.17-.4-.41-.76-.74-1.08-.33-.31-.74-.56-1.22-.75-.49-.18-1.05-.28-1.7-.28s-1.18.08-1.64.24c-.46.16-.85.36-1.16.62-.31.25-.54.55-.69.88s-.23.69-.23,1.06.07.7.21.99c.14.29.38.55.73.78s.82.45,1.41.65c.59.2,1.33.39,2.22.59,1.29.27,2.44.6,3.46.97,1.02.37,1.88.82,2.59,1.36.71.54,1.24,1.17,1.61,1.89s.55,1.59.55,2.59-.21,1.89-.64,2.71c-.42.82-1.03,1.53-1.82,2.13-.79.6-1.74,1.06-2.85,1.39-1.11.33-2.34.49-3.7.49-1.52,0-2.87-.22-4.04-.65s-2.16-1-2.95-1.7c-.79-.7-1.39-1.49-1.8-2.37-.4-.88-.61-1.79-.61-2.7h4.85c.04.68.2,1.26.47,1.73.27.47.62.84,1.05,1.13.42.29.9.5,1.44.63.53.13,1.08.2,1.64.2,1.32,0,2.32-.25,3-.75.69-.5,1.03-1.15,1.03-1.96Z"/>
        <path class="cls-2" d="M873.91,826.96v5.41h3.93v3.7h-3.93v12.42c0,.51.05.92.17,1.23.11.31.27.56.47.73s.45.29.73.35c.28.06.59.09.94.09s.67-.02,1-.07c.32-.05.57-.09.75-.13v3.86c-.4.11-.86.22-1.39.32-.53.1-1.16.15-1.9.15-.82,0-1.59-.11-2.29-.33-.71-.22-1.31-.58-1.83-1.07-.51-.49-.92-1.14-1.2-1.93-.29-.79-.43-1.77-.43-2.92v-12.7h-3.66v-3.7h3.66v-5.41h4.99Z"/>
        <path class="cls-2" d="M903.78,836.93c-.33-.05-.66-.1-1-.12s-.68-.04-1.04-.04c-1.21,0-2.19.23-2.94.7-.75.47-1.32,1.11-1.69,1.93v15.21h-5v-22.24h4.77l.12,2.49c.56-.9,1.26-1.61,2.09-2.13s1.81-.77,2.93-.77c.29,0,.61.03.98.09.36.06.63.13.79.2l-.02,4.69Z"/>
        <path class="cls-2" d="M916.34,855.02c-1.64,0-3.12-.27-4.44-.82-1.32-.55-2.43-1.3-3.35-2.26s-1.62-2.1-2.12-3.41c-.49-1.32-.74-2.73-.74-4.25v-.82c0-1.75.26-3.34.78-4.76.52-1.42,1.23-2.62,2.14-3.62.9-.99,1.97-1.76,3.2-2.3,1.23-.54,2.55-.81,3.96-.81,1.62,0,3.02.27,4.21.81,1.19.54,2.18,1.3,2.96,2.27.78.97,1.36,2.13,1.75,3.47.38,1.34.58,2.82.58,4.42v2.14h-14.53c.07.86.25,1.66.54,2.38.29.73.7,1.35,1.2,1.88s1.11.94,1.8,1.24c.69.3,1.48.45,2.35.45,1.23,0,2.31-.25,3.22-.74s1.7-1.17,2.37-2.04l2.69,2.57c-.36.54-.8,1.05-1.33,1.55-.53.5-1.14.95-1.85,1.34-.71.39-1.5.71-2.39.95-.89.24-1.89.36-3,.36ZM915.74,835.96c-1.37,0-2.48.48-3.32,1.44-.84.96-1.38,2.3-1.61,4.01h9.52v-.37c-.04-.66-.15-1.29-.32-1.9-.17-.61-.44-1.15-.79-1.62s-.82-.85-1.39-1.13c-.57-.28-1.26-.42-2.09-.42Z"/>
        <path class="cls-2" d="M941.6,848.56c0-.36-.06-.69-.18-1-.12-.31-.35-.6-.69-.86-.34-.27-.83-.52-1.45-.75-.62-.23-1.44-.45-2.44-.66-1.19-.25-2.28-.55-3.26-.92s-1.82-.82-2.52-1.35-1.24-1.15-1.63-1.86c-.39-.71-.59-1.53-.59-2.47s.2-1.76.6-2.58c.4-.82.97-1.53,1.72-2.15.75-.62,1.65-1.11,2.71-1.47,1.06-.36,2.25-.54,3.57-.54,1.38,0,2.63.18,3.73.54s2.04.86,2.81,1.5c.77.64,1.35,1.39,1.76,2.25.4.86.61,1.8.61,2.8h-5c0-.42-.08-.84-.25-1.24s-.41-.76-.74-1.08c-.33-.31-.74-.56-1.22-.75-.49-.18-1.05-.28-1.7-.28s-1.18.08-1.64.24c-.47.16-.85.36-1.16.62-.31.25-.54.55-.69.88s-.23.69-.23,1.06.07.7.21.99.38.55.73.78c.35.23.82.45,1.41.65.59.2,1.33.39,2.22.59,1.29.27,2.44.6,3.46.97,1.02.37,1.88.82,2.59,1.36.71.54,1.24,1.17,1.61,1.89s.55,1.59.55,2.59-.21,1.89-.64,2.71c-.43.82-1.03,1.53-1.82,2.13-.79.6-1.74,1.06-2.85,1.39-1.11.33-2.34.49-3.7.49-1.52,0-2.87-.22-4.04-.65s-2.15-1-2.95-1.7c-.79-.7-1.39-1.49-1.8-2.37-.4-.88-.61-1.79-.61-2.7h4.85c.04.68.2,1.26.47,1.73s.62.84,1.05,1.13c.42.29.9.5,1.44.63.53.13,1.08.2,1.64.2,1.32,0,2.32-.25,3-.75.68-.5,1.03-1.15,1.03-1.96Z"/>
        <path class="cls-2" d="M970.34,843.71c0,1.62-.19,3.12-.56,4.5-.38,1.38-.93,2.58-1.67,3.59-.73,1.01-1.64,1.79-2.71,2.36-1.08.57-2.31.85-3.69.85-1.28,0-2.39-.21-3.35-.62s-1.79-1.01-2.51-1.79v10.54h-4.99v-30.79h4.6l.21,2.26c.71-.86,1.56-1.53,2.54-1.98.98-.46,2.13-.69,3.44-.69,1.41,0,2.66.27,3.74.82,1.08.55,1.99,1.32,2.72,2.31.73.99,1.29,2.19,1.67,3.58.38,1.39.56,2.93.56,4.61v.43ZM965.36,843.28c0-1-.1-1.94-.3-2.82s-.5-1.64-.92-2.3c-.41-.66-.94-1.17-1.58-1.55-.64-.38-1.42-.57-2.32-.57-1.1,0-2,.23-2.71.68-.71.45-1.27,1.07-1.69,1.85v9.87c.41.78.97,1.41,1.68,1.88.71.47,1.63.71,2.76.71.91,0,1.67-.2,2.31-.59s1.16-.92,1.57-1.58c.41-.66.71-1.44.9-2.33.19-.89.29-1.83.29-2.82v-.43Z"/>
        <path class="cls-2" d="M973.63,843.28c0-1.62.24-3.11.71-4.49s1.15-2.57,2.04-3.59,1.96-1.81,3.24-2.38,2.72-.86,4.34-.86,3.09.29,4.38.86,2.38,1.37,3.26,2.38c.88,1.01,1.56,2.21,2.03,3.59.46,1.38.7,2.88.7,4.49v.43c0,1.62-.23,3.12-.7,4.5-.47,1.38-1.14,2.58-2.03,3.59-.88,1.01-1.97,1.79-3.25,2.36-1.28.57-2.73.85-4.35.85s-3.09-.28-4.37-.85c-1.28-.57-2.36-1.36-3.25-2.36s-1.56-2.2-2.04-3.59-.71-2.88-.71-4.5v-.43ZM978.62,843.71c0,1,.1,1.95.31,2.84.21.89.53,1.67.97,2.33.44.67,1,1.19,1.68,1.57.68.38,1.48.58,2.41.58s1.72-.19,2.4-.58,1.23-.91,1.67-1.57.75-1.44.97-2.33.32-1.84.32-2.84v-.43c0-.99-.11-1.92-.32-2.81s-.54-1.66-.98-2.32c-.44-.66-1-1.2-1.68-1.59s-1.48-.6-2.42-.6-1.73.2-2.39.6c-.66.4-1.22.93-1.65,1.59-.44.67-.76,1.44-.97,2.32-.21.88-.31,1.82-.31,2.81v.43Z"/>
        <path class="cls-2" d="M1003.17,832.36l.14,2.57c.78-.95,1.72-1.68,2.82-2.2s2.32-.78,3.66-.78c1.07,0,2.04.15,2.91.44.87.29,1.61.77,2.23,1.43.62.66,1.09,1.51,1.43,2.57.33,1.05.5,2.34.5,3.84v14.37h-4.99v-14.41c0-.77-.09-1.42-.26-1.94-.17-.53-.42-.96-.75-1.28-.33-.33-.74-.57-1.22-.71s-1.04-.22-1.68-.22c-1.03,0-1.92.25-2.68.74-.76.49-1.37,1.16-1.82,1.99v15.83h-4.99v-22.24h4.71Z"/>
        <path class="cls-2" d="M1021.01,843.32c0-1.69.2-3.23.61-4.62.4-1.4.99-2.6,1.75-3.6.76-1,1.68-1.78,2.77-2.32,1.08-.55,2.3-.82,3.66-.82,1.23,0,2.32.21,3.26.64.94.42,1.76,1.03,2.46,1.83v-11.39h5v31.57h-4.52l-.25-2.3c-.71.86-1.56,1.53-2.54,2-.98.47-2.13.71-3.44.71s-2.55-.28-3.63-.85c-1.08-.57-1.99-1.35-2.74-2.35-.75-1-1.34-2.19-1.75-3.57-.41-1.38-.62-2.87-.62-4.49v-.43ZM1026.01,843.75c0,.99.09,1.92.28,2.79.18.87.48,1.63.88,2.29.4.66.92,1.18,1.55,1.55.63.38,1.4.56,2.3.56,1.12,0,2.04-.25,2.76-.75.72-.5,1.29-1.16,1.72-1.98v-9.5c-.42-.82-1-1.47-1.73-1.95-.73-.48-1.63-.72-2.71-.72-.9,0-1.68.19-2.31.58-.64.38-1.16.9-1.56,1.56-.4.66-.7,1.43-.89,2.31s-.29,1.83-.29,2.83v.43Z"/>
        <path class="cls-2" d="M1055.5,855.02c-1.64,0-3.12-.27-4.44-.82-1.31-.55-2.43-1.3-3.35-2.26-.92-.96-1.62-2.1-2.12-3.41-.49-1.32-.74-2.73-.74-4.25v-.82c0-1.75.26-3.34.78-4.76.52-1.42,1.23-2.62,2.14-3.62.9-.99,1.97-1.76,3.2-2.3,1.23-.54,2.54-.81,3.96-.81,1.62,0,3.02.27,4.21.81,1.19.54,2.18,1.3,2.96,2.27.78.97,1.36,2.13,1.75,3.47.38,1.34.58,2.82.58,4.42v2.14h-14.53c.07.86.25,1.66.54,2.38s.7,1.35,1.2,1.88c.51.53,1.11.94,1.8,1.24.69.3,1.48.45,2.35.45,1.23,0,2.3-.25,3.22-.74.91-.49,1.7-1.17,2.37-2.04l2.69,2.57c-.36.54-.8,1.05-1.33,1.55-.53.5-1.14.95-1.85,1.34-.71.39-1.5.71-2.39.95-.89.24-1.89.36-3,.36ZM1054.91,835.96c-1.37,0-2.48.48-3.32,1.44-.84.96-1.38,2.3-1.61,4.01h9.52v-.37c-.04-.66-.15-1.29-.32-1.9s-.44-1.15-.79-1.62c-.36-.47-.82-.85-1.39-1.13-.57-.28-1.26-.42-2.09-.42Z"/>
        <path class="cls-2" d="M1072.93,832.36l.14,2.57c.78-.95,1.72-1.68,2.82-2.2,1.1-.52,2.32-.78,3.66-.78,1.07,0,2.04.15,2.91.44s1.61.77,2.23,1.43c.62.66,1.09,1.51,1.43,2.57.34,1.05.5,2.34.5,3.84v14.37h-5v-14.41c0-.77-.09-1.42-.26-1.94-.17-.53-.42-.96-.75-1.28s-.74-.57-1.22-.71-1.04-.22-1.67-.22c-1.03,0-1.92.25-2.68.74-.76.49-1.37,1.16-1.82,1.99v15.83h-5v-22.24h4.71Z"/>
        <path class="cls-2" d="M1097.97,826.96v5.41h3.93v3.7h-3.93v12.42c0,.51.05.92.17,1.23.11.31.27.56.47.73s.45.29.73.35c.28.06.59.09.94.09s.67-.02,1-.07c.32-.05.57-.09.75-.13v3.86c-.4.11-.86.22-1.39.32-.53.1-1.16.15-1.9.15-.82,0-1.59-.11-2.29-.33-.71-.22-1.31-.58-1.83-1.07-.51-.49-.92-1.14-1.2-1.93-.29-.79-.43-1.77-.43-2.92v-12.7h-3.66v-3.7h3.66v-5.41h4.99Z"/>
        <path class="cls-2" d="M1118.18,848.56c0-.36-.06-.69-.17-1s-.35-.6-.69-.86c-.34-.27-.83-.52-1.45-.75-.62-.23-1.44-.45-2.44-.66-1.19-.25-2.28-.55-3.26-.92-.98-.37-1.82-.82-2.52-1.35-.7-.53-1.24-1.15-1.63-1.86-.39-.71-.59-1.53-.59-2.47s.2-1.76.6-2.58c.4-.82.97-1.53,1.72-2.15.75-.62,1.65-1.11,2.71-1.47s2.25-.54,3.57-.54c1.38,0,2.63.18,3.73.54s2.04.86,2.81,1.5c.77.64,1.35,1.39,1.76,2.25.4.86.61,1.8.61,2.8h-4.99c0-.42-.08-.84-.25-1.24-.17-.4-.41-.76-.74-1.08-.33-.31-.74-.56-1.22-.75-.49-.18-1.05-.28-1.7-.28s-1.18.08-1.64.24c-.47.16-.85.36-1.16.62-.31.25-.54.55-.69.88-.15.34-.23.69-.23,1.06s.07.7.21.99.38.55.73.78.82.45,1.41.65c.59.2,1.33.39,2.22.59,1.29.27,2.44.6,3.46.97,1.02.37,1.88.82,2.59,1.36.71.54,1.24,1.17,1.61,1.89.37.73.55,1.59.55,2.59s-.21,1.89-.64,2.71-1.03,1.53-1.82,2.13c-.79.6-1.74,1.06-2.85,1.39s-2.34.49-3.7.49c-1.52,0-2.87-.22-4.04-.65s-2.16-1-2.95-1.7c-.79-.7-1.39-1.49-1.8-2.37-.4-.88-.61-1.79-.61-2.7h4.85c.04.68.2,1.26.47,1.73.27.47.62.84,1.05,1.13s.9.5,1.44.63c.54.13,1.08.2,1.64.2,1.32,0,2.32-.25,3-.75.68-.5,1.03-1.15,1.03-1.96Z"/>
        <path class="cls-2" d="M1127.65,852.12c0-.79.25-1.46.76-1.98.51-.53,1.22-.79,2.14-.79s1.65.26,2.16.79c.51.53.76,1.19.76,1.98s-.25,1.43-.76,1.94c-.51.51-1.23.77-2.16.77-.45,0-.86-.07-1.22-.21s-.67-.33-.92-.58c-.25-.25-.43-.53-.56-.86-.13-.33-.2-.69-.2-1.07Z"/>
      </g>
      <path class="cls-3" d="M465.59,623.11c-11.4,0-21.61-2.42-30.64-7.26-9.03-4.84-16.18-11.98-21.45-21.45-5.27-9.46-7.9-20.86-7.9-34.19s2.63-24.68,7.9-34.03c5.27-9.35,12.42-16.5,21.45-21.45,9.03-4.94,19.24-7.42,30.64-7.42s21.61,2.47,30.64,7.42c9.03,4.95,16.18,12.1,21.45,21.45,5.27,9.35,7.91,20.7,7.91,34.03s-2.64,24.73-7.91,34.19c-5.27,9.46-12.42,16.61-21.45,21.45-9.04,4.84-19.25,7.26-30.64,7.26ZM443.97,726.32l154.19-225.79h54.51l-154.18,225.79h-54.52ZM465.59,588.27c3.65,0,6.94-1.99,9.84-5.97,2.9-3.98,4.35-11.34,4.35-22.1s-1.45-18.11-4.35-22.1c-2.9-3.98-6.18-5.97-9.84-5.97-3.44,0-6.67,1.99-9.68,5.97-3.01,3.98-4.51,11.35-4.51,22.1s1.5,18.12,4.51,22.1c3.01,3.98,6.23,5.97,9.68,5.97ZM631.06,729.55c-11.4,0-21.61-2.42-30.64-7.26-9.04-4.84-16.19-11.98-21.45-21.45-5.27-9.46-7.9-20.86-7.9-34.19s2.63-24.68,7.9-34.03c5.27-9.35,12.42-16.5,21.45-21.45,9.03-4.94,19.24-7.42,30.64-7.42s21.61,2.48,30.64,7.42c9.04,4.95,16.18,12.1,21.45,21.45,5.27,9.35,7.9,20.7,7.9,34.03s-2.64,24.73-7.9,34.19c-5.27,9.47-12.42,16.61-21.45,21.45-9.03,4.84-19.25,7.26-30.64,7.26ZM631.06,694.71c3.65,0,6.94-1.99,9.84-5.97,2.9-3.98,4.35-11.34,4.35-22.09s-1.45-18.11-4.35-22.1c-2.9-3.98-6.18-5.97-9.84-5.97-3.44,0-6.67,1.99-9.68,5.97-3.01,3.98-4.51,11.35-4.51,22.1s1.5,18.12,4.51,22.09c3.01,3.98,6.24,5.97,9.68,5.97Z"/>
      <g>
        <rect class="cls-4" x="4.75" y="457.36" width="399.49" height="15.77"/>
        <g>
          <rect class="cls-4" x="193.54" y="284.95" width="21.91" height="43.82"/>
          <rect class="cls-4" x="178.8" y="273.15" width="51.4" height="16.01"/>
        </g>
        <path class="cls-3" d="M361.36,451.45c-8.7-78.94-75.6-140.35-156.86-140.35s-148.16,61.41-156.86,140.35h313.72Z"/>
      </g>
      <g>
        <g>
          <path class="cls-4" d="M681.69,342.72h41.2v-35.46h-13.95c-4.49,0-8.13-3.64-8.13-8.13s3.64-8.13,8.13-8.13h36.04v-32.88h-326.6v215.79h248.14v-116.03c0-8.36,6.8-15.17,15.17-15.17Z"/>
          <path class="cls-3" d="M663.82,105.38c0-13.54-11.01-24.55-24.55-24.55h-115.19c-13.54,0-24.55,11.01-24.55,24.55v64.78h164.29v-64.78Z"/>
          <path class="cls-3" d="M418.38,241.86h326.6v-55.44h-72.99s-.02,0-.04,0-.02,0-.04,0h-180.48s-.02,0-.04,0-.02,0-.04,0h-72.99v55.44Z"/>
          <path class="cls-4" d="M1095.72,215.19h-111.45c-13.06,0-26.02,1.93-38.52,5.74l-142.07,43.3c-5.2,1.59-9.42,5.36-11.56,10.36-2.15,5-1.98,10.65.45,15.52,3.39,6.79,10.75,10.85,18.3,10.1l154.42-15.27c.27-.03.53-.04.8-.04,1.98,0,3.9.72,5.4,2.05,1.7,1.5,2.69,3.65,2.73,5.91l5.39,258.63c.08,4.2,3.5,7.6,7.63,7.6h34.18v-141.82c0-4.49,3.64-8.13,8.13-8.13s8.13,3.64,8.13,8.13v141.82h34.18c4.13,0,7.55-3.4,7.62-7.59l3.55-170.35c-.19-.68-.29-1.4-.29-2.15,0-.86.13-1.69.38-2.47l1.74-83.67c.09-4.43,3.71-7.96,8.13-7.96.06,0,.11,0,.17,0,4.49.09,8.05,3.81,7.96,8.3l-1.61,77.39c12.34-1.84,21.83-12.51,21.83-25.35v-104.43c0-14.13-11.5-25.63-25.63-25.63Z"/>
          <path class="cls-3" d="M582,64.57c17.8,0,32.28-14.48,32.28-32.28S599.8,0,582,0s-32.28,14.48-32.28,32.28,14.48,32.28,32.28,32.28Z"/>
          <path class="cls-3" d="M682.78,587.35h147.6v-228.37h-147.6v228.37ZM774.43,421.48c0-4.49,3.64-8.13,8.13-8.13s8.13,3.64,8.13,8.13v110.35c0,4.49-3.64,8.13-8.13,8.13s-8.13-3.64-8.13-8.13v-110.35ZM722.42,421.48c0-4.49,3.64-8.13,8.13-8.13s8.13,3.64,8.13,8.13v110.35c0,4.49-3.64,8.13-8.13,8.13s-8.13-3.64-8.13-8.13v-110.35Z"/>
          <rect class="cls-1" x="739.15" y="307.26" width="34.87" height="35.46"/>
          <path class="cls-4" d="M1029.54,192.5c22.17,0,40.2-18.03,40.2-40.2s-18.03-40.2-40.2-40.2-40.2,18.03-40.2,40.2,18.03,40.2,40.2,40.2Z"/>
        </g>
        <g>
          <path class="cls-1" d="M711.55,618.4c-6.93,0-12.54-5.61-12.54-12.54v-19.76c0-6.93,5.62-12.54,12.54-12.54s12.54,5.61,12.54,12.54v19.76c0,6.93-5.61,12.54-12.54,12.54Z"/>
          <path class="cls-1" d="M801.62,618.4c-6.93,0-12.54-5.61-12.54-12.54v-19.76c0-6.93,5.62-12.54,12.54-12.54s12.54,5.61,12.54,12.54v19.76c0,6.93-5.61,12.54-12.54,12.54Z"/>
        </g>
      </g>
    </g>
  </g>
</svg>