<?xml version="1.0" encoding="UTF-8"?>
<svg id="Layer_2" data-name="Layer 2" xmlns="http://www.w3.org/2000/svg" viewBox="0 0 735.54 237.12">
  <defs>
    <style>
      .cls-1 {
        fill: #231f20;
      }

      .cls-2 {
        fill: #f79439;
      }

      .cls-3 {
        fill: #12bdcd;
      }
    </style>
  </defs>
  <g id="Graphics">
    <g>
      <g>
        <path class="cls-3" d="M179.65,177.41c0,10.57-6.88,19.56-16.4,22.74h20.77l25.72-53.58h-106.63v6.87s52.56,0,52.56,0c13.22,0,23.98,10.76,23.98,23.98Z"/>
        <path class="cls-3" d="M254.76,146.57l-39.67,82.66c-1.55,3.23-3.92,5.92-6.78,7.89h527.24s0,0,0,0v-90.55H254.76Z"/>
      </g>
      <path class="cls-2" d="M173.98,177.41c0,10.11-8.19,18.31-18.31,18.31h-77.2c-5.96,0-11.54-2.9-14.97-7.77l-34.01-48.32c-5.82-8.27-3.83-19.69,4.43-25.51,8.27-5.82,19.69-3.83,25.51,4.44l28.54,40.55h67.7c10.11,0,18.31,8.2,18.31,18.31Z"/>
      <g>
        <path class="cls-1" d="M370.07,205.35h-6.15v-25.59h6.15v25.59Z"/>
        <path class="cls-1" d="M379.78,186.33l.19,2.23c1.31-1.72,3.12-2.58,5.43-2.58,1.98,0,3.46.59,4.44,1.78s1.49,2.96,1.52,5.34v12.25h-5.94v-12.01c0-.96-.19-1.67-.58-2.12s-1.09-.68-2.11-.68c-1.16,0-2.02.46-2.58,1.37v13.43h-5.92v-19.02h5.55Z"/>
        <path class="cls-1" d="M394.14,195.69c0-3.01.65-5.38,1.95-7.12s3.12-2.6,5.45-2.6c1.7,0,3.13.67,4.29,2v-9.63h5.94v27h-5.33l-.3-2.04c-1.22,1.59-2.77,2.39-4.64,2.39-2.26,0-4.06-.87-5.38-2.6-1.32-1.73-1.99-4.2-1.99-7.4ZM400.07,196.06c0,3.38.98,5.06,2.95,5.06,1.31,0,2.25-.55,2.81-1.65v-7.24c-.54-1.12-1.47-1.69-2.78-1.69-1.83,0-2.82,1.48-2.97,4.43l-.02,1.09Z"/>
        <path class="cls-1" d="M426.72,203.29c-1.25,1.61-2.95,2.41-5.08,2.41s-3.67-.61-4.74-1.82-1.61-2.96-1.61-5.23v-12.32h5.92v12.36c0,1.63.79,2.44,2.37,2.44,1.36,0,2.33-.49,2.9-1.46v-13.34h5.96v19.02h-5.55l-.18-2.06Z"/>
        <path class="cls-1" d="M445.91,200c0-.5-.26-.91-.79-1.21s-1.53-.62-3.01-.95-2.7-.76-3.66-1.29c-.96-.53-1.69-1.18-2.2-1.94-.5-.76-.76-1.63-.76-2.62,0-1.75.72-3.18,2.16-4.32s3.33-1.7,5.66-1.7c2.51,0,4.52.57,6.05,1.71,1.52,1.14,2.29,2.63,2.29,4.48h-5.94c0-1.52-.8-2.29-2.41-2.29-.62,0-1.14.17-1.56.52s-.63.78-.63,1.29.26.96.77,1.28c.52.33,1.34.6,2.47.81,1.13.21,2.12.46,2.98.76,2.86.98,4.29,2.75,4.29,5.29,0,1.73-.77,3.15-2.31,4.24-1.54,1.09-3.54,1.63-5.99,1.63-1.63,0-3.08-.29-4.36-.88-1.28-.59-2.27-1.38-2.99-2.39-.71-1.01-1.07-2.07-1.07-3.18h5.54c.02.88.32,1.52.88,1.92s1.28.61,2.16.61c.81,0,1.42-.16,1.82-.49s.61-.76.61-1.28Z"/>
        <path class="cls-1" d="M461.54,181.6v4.73h3.13v4.11h-3.13v8.7c0,.71.13,1.21.39,1.49.26.28.77.42,1.53.42.59,0,1.08-.04,1.48-.11v4.24c-1.07.34-2.18.51-3.34.51-2.04,0-3.54-.48-4.52-1.44-.97-.96-1.46-2.42-1.46-4.38v-9.44h-2.43v-4.11h2.43v-4.73h5.92Z"/>
        <path class="cls-1" d="M478.75,191.69l-1.95-.14c-1.86,0-3.06.59-3.59,1.76v12.04h-5.92v-19.02h5.55l.19,2.44c1-1.86,2.38-2.79,4.17-2.79.63,0,1.18.07,1.65.21l-.11,5.5Z"/>
        <path class="cls-1" d="M481.1,181.42c0-.84.3-1.54.91-2.07s1.4-.81,2.37-.81,1.76.27,2.37.81.91,1.23.91,2.07-.3,1.54-.91,2.07-1.4.81-2.37.81-1.76-.27-2.37-.81-.91-1.23-.91-2.07ZM487.39,205.35h-5.94v-19.02h5.94v19.02Z"/>
        <path class="cls-1" d="M502,205.35c-.21-.39-.4-.96-.56-1.71-1.09,1.37-2.61,2.06-4.57,2.06-1.79,0-3.32-.54-4.57-1.63s-1.88-2.45-1.88-4.09c0-2.06.76-3.62,2.29-4.68s3.74-1.58,6.64-1.58h1.83v-1.01c0-1.75-.76-2.63-2.27-2.63-1.41,0-2.11.7-2.11,2.08h-5.92c0-1.84.78-3.33,2.35-4.48,1.56-1.15,3.56-1.72,5.99-1.72s4.34.59,5.75,1.78,2.13,2.81,2.16,4.87v8.42c.02,1.75.29,3.08.81,4.01v.3h-5.92ZM498.3,201.48c.74,0,1.35-.16,1.84-.47s.83-.67,1.05-1.07v-3.04h-1.72c-2.06,0-3.09.93-3.09,2.78,0,.54.18.98.54,1.31s.83.5,1.39.5Z"/>
        <path class="cls-1" d="M516.9,205.35h-5.94v-27h5.94v27Z"/>
        <path class="cls-1" d="M546.16,194.48h-9.7v6.12h11.46v4.75h-17.63v-25.59h17.67v4.76h-11.5v5.4h9.7v4.57Z"/>
        <path class="cls-1" d="M558.12,191.56l2.76-5.24h6.15l-5.01,9.26,5.26,9.76h-6.19l-2.99-5.62-2.94,5.62h-6.22l5.27-9.76-4.99-9.26h6.22l2.67,5.24Z"/>
        <path class="cls-1" d="M586.85,195.98c0,2.95-.67,5.31-2,7.08-1.33,1.76-3.13,2.65-5.39,2.65-1.75,0-3.18-.64-4.31-1.92v8.88h-5.92v-26.33h5.54l.18,1.76c1.14-1.41,2.63-2.11,4.48-2.11,2.34,0,4.17.86,5.47,2.59s1.95,4.1,1.95,7.13v.28ZM580.92,195.61c0-3.38-.98-5.06-2.95-5.06-1.41,0-2.34.5-2.81,1.51v7.49c.52,1.05,1.46,1.58,2.85,1.58,1.89,0,2.86-1.63,2.92-4.89v-.63Z"/>
        <path class="cls-1" d="M598.91,205.7c-2.92,0-5.28-.87-7.08-2.61-1.8-1.74-2.71-4-2.71-6.79v-.49c0-1.95.36-3.66,1.08-5.15s1.77-2.64,3.16-3.45c1.38-.81,3.02-1.22,4.92-1.22,2.67,0,4.78.83,6.33,2.49s2.32,3.97,2.32,6.93v2.3h-11.78c.21,1.07.67,1.9,1.39,2.51.71.61,1.64.91,2.78.91,1.87,0,3.34-.66,4.39-1.97l2.71,3.2c-.74,1.02-1.78,1.83-3.14,2.43s-2.81.91-4.37.91ZM598.24,190.54c-1.73,0-2.77,1.15-3.09,3.45h5.98v-.46c.02-.95-.22-1.68-.72-2.21-.5-.52-1.22-.78-2.16-.78Z"/>
        <path class="cls-1" d="M621.07,191.69l-1.95-.14c-1.86,0-3.06.59-3.59,1.76v12.04h-5.92v-19.02h5.55l.19,2.44c1-1.86,2.38-2.79,4.17-2.79.63,0,1.18.07,1.65.21l-.11,5.5Z"/>
        <path class="cls-1" d="M623.41,181.42c0-.84.3-1.54.91-2.07s1.4-.81,2.37-.81,1.76.27,2.37.81.91,1.23.91,2.07-.3,1.54-.91,2.07-1.4.81-2.37.81-1.76-.27-2.37-.81-.91-1.23-.91-2.07ZM629.7,205.35h-5.94v-19.02h5.94v19.02Z"/>
        <path class="cls-1" d="M642.81,205.7c-2.92,0-5.28-.87-7.08-2.61s-2.71-4-2.71-6.79v-.49c0-1.95.36-3.66,1.08-5.15s1.77-2.64,3.16-3.45,3.02-1.22,4.92-1.22c2.67,0,4.78.83,6.33,2.49s2.32,3.97,2.32,6.93v2.3h-11.78c.21,1.07.67,1.9,1.39,2.51s1.64.91,2.78.91c1.88,0,3.34-.66,4.39-1.97l2.71,3.2c-.74,1.02-1.78,1.83-3.14,2.43s-2.81.91-4.37.91ZM642.14,190.54c-1.73,0-2.77,1.15-3.09,3.45h5.98v-.46c.02-.95-.22-1.68-.72-2.21s-1.22-.78-2.16-.78Z"/>
        <path class="cls-1" d="M658.9,186.33l.19,2.23c1.31-1.72,3.12-2.58,5.43-2.58,1.98,0,3.46.59,4.44,1.78s1.49,2.96,1.52,5.34v12.25h-5.94v-12.01c0-.96-.19-1.67-.58-2.12s-1.09-.68-2.11-.68c-1.16,0-2.02.46-2.58,1.37v13.43h-5.92v-19.02h5.55Z"/>
        <path class="cls-1" d="M682.05,201.13c.83,0,1.48-.23,1.93-.68s.68-1.08.67-1.89h5.55c0,2.09-.75,3.8-2.24,5.13s-3.42,2-5.77,2c-2.77,0-4.95-.87-6.54-2.6s-2.39-4.14-2.39-7.21v-.25c0-1.92.35-3.62,1.06-5.09s1.73-2.6,3.07-3.39,2.92-1.19,4.75-1.19c2.47,0,4.44.69,5.89,2.06s2.18,3.23,2.18,5.57h-5.55c0-.98-.24-1.74-.72-2.27s-1.12-.79-1.93-.79c-1.54,0-2.43.98-2.69,2.94-.08.62-.12,1.48-.12,2.57,0,1.91.23,3.23.69,3.97s1.18,1.11,2.18,1.11Z"/>
        <path class="cls-1" d="M702.17,205.7c-2.92,0-5.28-.87-7.08-2.61s-2.71-4-2.71-6.79v-.49c0-1.95.36-3.66,1.08-5.15s1.77-2.64,3.16-3.45,3.02-1.22,4.92-1.22c2.67,0,4.78.83,6.33,2.49s2.32,3.97,2.32,6.93v2.3h-11.78c.21,1.07.67,1.9,1.39,2.51s1.64.91,2.78.91c1.88,0,3.34-.66,4.39-1.97l2.71,3.2c-.74,1.02-1.78,1.83-3.14,2.43s-2.81.91-4.37.91ZM701.5,190.54c-1.73,0-2.77,1.15-3.09,3.45h5.98v-.46c.02-.95-.22-1.68-.72-2.21s-1.22-.78-2.16-.78Z"/>
      </g>
      <path class="cls-2" d="M95.45,90.56c-25.01,0-45.28-20.27-45.28-45.28S70.45,0,95.45,0s45.28,20.27,45.28,45.28-20.27,45.28-45.28,45.28Z"/>
      <path class="cls-3" d="M97.44,234.71H.04l-.04-103.08c0-24.06,19.51-43.57,43.57-43.57h10.31c24.06,0,43.57,19.51,43.57,43.57v18.8h-4.98l-25.95-36.86c-8.58-12.19-25.4-15.11-37.59-6.54-12.18,8.58-15.11,25.41-6.53,37.59l34.01,48.32c5.05,7.18,13.28,11.45,22.06,11.45h18.97v30.32Z"/>
      <path class="cls-2" d="M196.79,235.07h-74.57c-8.08,0-14.62-6.55-14.62-14.62s6.55-14.62,14.62-14.62h65.37l40.35-84.07c3.49-7.28,12.23-10.35,19.51-6.86,7.28,3.5,10.35,12.23,6.85,19.51l-44.34,92.37c-2.43,5.07-7.56,8.29-13.18,8.29Z"/>
      <g>
        <path class="cls-3" d="M427.03,110.17l10.09-13.83c5.78,5.52,12.79,9.56,20.72,9.56,9.23,0,15.37-4.03,15.37-11.29,0-8.3-4.85-13.41-25.41-13.41v-15.51c16.99,0,22.33-5.16,22.33-12.66,0-6.65-4.24-10.42-11.66-10.42-6.72,0-11.82,3.05-17.67,8.27l-11.07-13.34c8.71-7.48,18.22-12.1,29.73-12.1,19.64,0,32.62,9.32,32.62,25.94,0,9.74-5.59,16.72-15.76,21v.6c10.93,3.12,18.85,10.83,18.85,23.05,0,17.6-16.13,27.53-35.16,27.53-15.31,0-26.03-5.43-32.97-13.4Z"/>
        <path class="cls-3" d="M506.53,110.27l9.85-13.83c5.66,5.22,12.37,9.46,20.42,9.46,9.67,0,15.88-5.13,15.88-14.83s-6.09-14.62-14.85-14.62c-5.48,0-8.34,1.21-13.99,4.83l-9.76-6.31,2.59-47.75h53.62v18.4h-34.73l-1.56,17.73c3.59-1.53,6.62-2.17,10.51-2.17,16.32,0,30.11,9.23,30.11,29.34s-16.24,33.04-34.68,33.04c-15.43,0-25.98-5.87-33.4-13.29Z"/>
        <path class="cls-3" d="M586.31,53.63c0-19.41,10.2-30.67,24.23-30.67s24.23,11.26,24.23,30.67-10.2,30.97-24.23,30.97-24.23-11.51-24.23-30.97ZM619.5,53.63c0-13.78-4.05-18.46-8.96-18.46s-8.96,4.67-8.96,18.46,4.05,18.76,8.96,18.76,8.96-4.97,8.96-18.76ZM666.29,22.96h12.62l-52.39,100.61h-12.62l52.39-100.61ZM657.9,92.6c0-19.41,10.2-30.67,24.23-30.67s24.23,11.26,24.23,30.67-10.2,30.97-24.23,30.97-24.23-11.51-24.23-30.97ZM691.09,92.6c0-13.78-4.05-18.46-8.96-18.46s-8.96,4.67-8.96,18.46,4.05,18.76,8.96,18.76,8.96-4.97,8.96-18.76Z"/>
      </g>
    </g>
  </g>
</svg>