<?xml version="1.0" encoding="UTF-8"?>
<svg id="Layer_2" data-name="Layer 2" xmlns="http://www.w3.org/2000/svg" viewBox="0 0 738.12 319.15">
  <defs>
    <style>
      .cls-1 {
        fill: #231f20;
      }

      .cls-2 {
        fill: #f79439;
      }

      .cls-3 {
        fill: #12bdcd;
      }
    </style>
  </defs>
  <g id="Graphics">
    <g>
      <g>
        <path class="cls-2" d="M560.71,302.31c-.23-2.35-.16-4.11.22-5.54.36-1.35,1.25-3.14,4.03-8.6,6.46-12.7,19.91-39.11,21.51-55.97.23-2.41,1.16-5.4,3.74-8.4H0s0,0,0,0v90.55s0,0,0,0h565.23c-2.46-3.44-4.08-7.54-4.52-12.04Z"/>
        <path class="cls-2" d="M697.3,223.8c2.58,3,3.51,5.99,3.74,8.4,1.61,16.86,15.05,43.27,21.51,55.97,2.78,5.46,3.68,7.25,4.03,8.6.38,1.43.45,3.19.22,5.54-.44,4.5-2.07,8.59-4.52,12.04h15.85s0,0,0,0v-90.55h-40.83Z"/>
      </g>
      <g>
        <path class="cls-1" d="M41.98,270.96h-9.95v10.2h-6.17v-25.59h17.12v4.76h-10.95v5.89h9.95v4.75Z"/>
        <path class="cls-1" d="M45.49,257.23c0-.84.3-1.54.91-2.07.61-.54,1.4-.81,2.37-.81s1.76.27,2.37.81c.61.54.91,1.23.91,2.07s-.31,1.54-.91,2.07c-.61.54-1.4.81-2.37.81s-1.76-.27-2.37-.81c-.61-.54-.91-1.23-.91-2.07ZM51.78,281.15h-5.94v-19.02h5.94v19.02Z"/>
        <path class="cls-1" d="M61.12,262.13l.19,2.23c1.31-1.72,3.12-2.58,5.43-2.58,1.98,0,3.46.59,4.44,1.78.98,1.18,1.49,2.96,1.52,5.34v12.25h-5.94v-12.01c0-.96-.19-1.67-.58-2.12s-1.09-.68-2.11-.68c-1.16,0-2.02.46-2.58,1.37v13.43h-5.92v-19.02h5.55Z"/>
        <path class="cls-1" d="M86.95,281.15c-.21-.39-.4-.96-.56-1.71-1.09,1.37-2.61,2.06-4.57,2.06-1.79,0-3.32-.54-4.57-1.63-1.25-1.08-1.88-2.45-1.88-4.09,0-2.06.76-3.62,2.29-4.68,1.52-1.05,3.74-1.58,6.64-1.58h1.83v-1.01c0-1.75-.76-2.63-2.27-2.63-1.41,0-2.11.7-2.11,2.08h-5.92c0-1.84.78-3.33,2.35-4.48,1.56-1.15,3.56-1.72,5.99-1.72s4.34.59,5.75,1.78,2.13,2.81,2.16,4.87v8.42c.02,1.75.29,3.08.81,4.01v.3h-5.92ZM83.24,277.28c.74,0,1.35-.16,1.84-.47.49-.32.83-.67,1.05-1.07v-3.04h-1.72c-2.06,0-3.09.93-3.09,2.78,0,.54.18.98.54,1.31.36.33.83.5,1.39.5Z"/>
        <path class="cls-1" d="M101.04,262.13l.19,2.23c1.31-1.72,3.12-2.58,5.43-2.58,1.98,0,3.46.59,4.44,1.78s1.49,2.96,1.52,5.34v12.25h-5.94v-12.01c0-.96-.19-1.67-.58-2.12s-1.09-.68-2.11-.68c-1.16,0-2.02.46-2.58,1.37v13.43h-5.92v-19.02h5.55Z"/>
        <path class="cls-1" d="M124.19,276.93c.83,0,1.48-.23,1.93-.68s.68-1.08.67-1.89h5.55c0,2.09-.75,3.8-2.24,5.13s-3.42,2-5.77,2c-2.77,0-4.95-.87-6.54-2.6s-2.39-4.14-2.39-7.21v-.25c0-1.92.35-3.62,1.06-5.09s1.73-2.6,3.07-3.39,2.92-1.19,4.75-1.19c2.47,0,4.44.69,5.89,2.06s2.18,3.23,2.18,5.57h-5.55c0-.98-.24-1.74-.72-2.27s-1.12-.79-1.93-.79c-1.54,0-2.43.98-2.69,2.94-.08.62-.12,1.48-.12,2.57,0,1.91.23,3.23.69,3.97s1.18,1.11,2.18,1.11Z"/>
        <path class="cls-1" d="M135.06,257.23c0-.84.3-1.54.91-2.07s1.4-.81,2.37-.81,1.76.27,2.37.81.91,1.23.91,2.07-.3,1.54-.91,2.07-1.4.81-2.37.81-1.76-.27-2.37-.81-.91-1.23-.91-2.07ZM141.35,281.15h-5.94v-19.02h5.94v19.02Z"/>
        <path class="cls-1" d="M155.97,281.15c-.21-.39-.4-.96-.56-1.71-1.09,1.37-2.61,2.06-4.57,2.06-1.79,0-3.32-.54-4.57-1.63s-1.88-2.45-1.88-4.09c0-2.06.76-3.62,2.29-4.68s3.74-1.58,6.64-1.58h1.83v-1.01c0-1.75-.76-2.63-2.27-2.63-1.41,0-2.11.7-2.11,2.08h-5.92c0-1.84.78-3.33,2.35-4.48,1.56-1.15,3.56-1.72,5.99-1.72s4.34.59,5.75,1.78,2.13,2.81,2.16,4.87v8.42c.02,1.75.29,3.08.81,4.01v.3h-5.92ZM152.26,277.28c.74,0,1.35-.16,1.84-.47s.83-.67,1.05-1.07v-3.04h-1.72c-2.06,0-3.09.93-3.09,2.78,0,.54.18.98.54,1.31s.83.5,1.39.5Z"/>
        <path class="cls-1" d="M170.86,281.15h-5.94v-27h5.94v27Z"/>
        <path class="cls-1" d="M197.45,274.35c0-.9-.32-1.61-.96-2.11s-1.76-1.03-3.37-1.56-2.92-1.06-3.94-1.56c-3.32-1.63-4.97-3.87-4.97-6.71,0-1.42.41-2.67,1.24-3.75s2-1.93,3.51-2.53,3.21-.91,5.1-.91,3.49.33,4.95.98,2.59,1.59,3.4,2.8,1.21,2.6,1.21,4.16h-6.15c0-1.04-.32-1.85-.96-2.43s-1.5-.86-2.59-.86-1.97.24-2.61.73-.96,1.1-.96,1.85c0,.66.35,1.25,1.05,1.78s1.94,1.08,3.71,1.65,3.22,1.18,4.36,1.84c2.77,1.59,4.15,3.79,4.15,6.59,0,2.24-.84,4-2.53,5.27s-4,1.92-6.94,1.92c-2.07,0-3.95-.37-5.63-1.12s-2.95-1.76-3.8-3.06-1.27-2.79-1.27-4.47h6.19c0,1.37.35,2.38,1.06,3.03s1.86.98,3.45.98c1.02,0,1.83-.22,2.42-.66s.89-1.06.89-1.85Z"/>
        <path class="cls-1" d="M213.66,257.4v4.73h3.13v4.11h-3.13v8.7c0,.71.13,1.21.39,1.49s.77.42,1.53.42c.59,0,1.08-.04,1.48-.11v4.24c-1.07.34-2.18.51-3.34.51-2.04,0-3.54-.48-4.52-1.44s-1.46-2.42-1.46-4.38v-9.44h-2.43v-4.11h2.43v-4.73h5.92Z"/>
        <path class="cls-1" d="M230.09,281.15c-.21-.39-.4-.96-.56-1.71-1.09,1.37-2.61,2.06-4.57,2.06-1.79,0-3.32-.54-4.57-1.63-1.25-1.08-1.88-2.45-1.88-4.09,0-2.06.76-3.62,2.29-4.68,1.52-1.05,3.74-1.58,6.64-1.58h1.83v-1.01c0-1.75-.76-2.63-2.27-2.63-1.41,0-2.11.7-2.11,2.08h-5.92c0-1.84.78-3.33,2.35-4.48,1.56-1.15,3.56-1.72,5.99-1.72s4.34.59,5.75,1.78,2.13,2.81,2.16,4.87v8.42c.02,1.75.29,3.08.81,4.01v.3h-5.92ZM226.38,277.28c.74,0,1.35-.16,1.84-.47.49-.32.83-.67,1.05-1.07v-3.04h-1.72c-2.06,0-3.09.93-3.09,2.78,0,.54.18.98.54,1.31.36.33.83.5,1.39.5Z"/>
        <path class="cls-1" d="M256.39,271.8c0,3.12-.65,5.51-1.93,7.19-1.29,1.68-3.11,2.51-5.45,2.51-1.93,0-3.49-.77-4.68-2.3l-.25,1.95h-5.31v-27h5.92v9.51c1.1-1.25,2.52-1.88,4.27-1.88,2.37,0,4.19.85,5.48,2.55,1.29,1.7,1.93,4.09,1.93,7.17v.3ZM250.45,271.42c0-1.82-.24-3.13-.73-3.9-.49-.78-1.23-1.17-2.24-1.17-1.34,0-2.26.51-2.78,1.53v7.55c.5,1.01,1.44,1.51,2.81,1.51s2.28-.68,2.65-2.04c.19-.67.28-1.83.28-3.47Z"/>
        <path class="cls-1" d="M259.21,257.23c0-.84.3-1.54.91-2.07.61-.54,1.4-.81,2.37-.81s1.76.27,2.37.81c.61.54.91,1.23.91,2.07s-.31,1.54-.91,2.07c-.61.54-1.4.81-2.37.81s-1.76-.27-2.37-.81c-.61-.54-.91-1.23-.91-2.07ZM265.5,281.15h-5.94v-19.02h5.94v19.02Z"/>
        <path class="cls-1" d="M275.65,281.15h-5.94v-27h5.94v27Z"/>
        <path class="cls-1" d="M279.51,257.23c0-.84.3-1.54.91-2.07.61-.54,1.4-.81,2.37-.81s1.76.27,2.37.81c.61.54.91,1.23.91,2.07s-.31,1.54-.91,2.07c-.61.54-1.4.81-2.37.81s-1.76-.27-2.37-.81c-.61-.54-.91-1.23-.91-2.07ZM285.8,281.15h-5.94v-19.02h5.94v19.02Z"/>
        <path class="cls-1" d="M296.6,257.4v4.73h3.13v4.11h-3.13v8.7c0,.71.13,1.21.39,1.49s.77.42,1.53.42c.59,0,1.08-.04,1.48-.11v4.24c-1.07.34-2.18.51-3.34.51-2.04,0-3.54-.48-4.52-1.44s-1.46-2.42-1.46-4.38v-9.44h-2.43v-4.11h2.43v-4.73h5.92Z"/>
        <path class="cls-1" d="M309.91,272.85l3.16-10.72h6.35l-7.75,22.2-.33.81c-1.1,2.46-3.05,3.69-5.84,3.69-.77,0-1.59-.12-2.44-.35v-4.22h.77c.83,0,1.47-.12,1.91-.36.44-.24.76-.67.98-1.29l.47-1.27-6.61-19.21h6.33l3.01,10.72Z"/>
      </g>
      <path class="cls-3" d="M615.08,196.23c-2.63,0-4.78,2.05-4.94,4.65-9.14,2.59-16.07,10.65-16.67,20.54,0,.15-.02.29-.02.44.25-.2.51-.41.77-.6,3.27-2.45,7.73-4.54,13.26-6.22,9.74-2.95,22.62-4.58,36.27-4.58s26.53,1.63,36.27,4.58c5.53,1.68,9.99,3.77,13.26,6.22.43.32.84.66,1.23.99h.24c-.01-.28-.03-.56-.04-.83-.62-9.98-7.68-18.09-16.95-20.6-.19-2.56-2.32-4.58-4.93-4.58h-13.19l-3.34-5.2c.99-1.23,1.58-2.8,1.58-4.5,0-3.99-3.23-7.22-7.22-7.22-3.25,0-5.99,2.14-6.9,5.09-.91-2.95-3.66-5.09-6.9-5.09-3.99,0-7.22,3.23-7.22,7.22,0,1.7.59,3.26,1.58,4.5l-3.34,5.2h-12.78ZM643.75,188.66c.91,2.95,3.65,5.09,6.9,5.09.49,0,.96-.05,1.42-.14l4.1,6.38h-24.84l4.1-6.38c.46.09.93.14,1.42.14,3.25,0,5.99-2.14,6.9-5.09Z"/>
      <path class="cls-2" d="M721.1,298.22c-.95-3.59-23.49-42.16-25.71-65.49-.41-4.29-4.09-7.78-9.82-10.49-19.74-9.33-63.91-9.33-83.65,0-5.73,2.71-9.41,6.21-9.82,10.49-2.22,23.32-24.76,61.9-25.71,65.49-.2.76-.2,2.01-.05,3.53.98,9.89,9.35,17.4,19.29,17.4h116.23c9.94,0,18.31-7.51,19.29-17.4.15-1.52.15-2.77-.05-3.53Z"/>
      <g>
        <path class="cls-3" d="M577.14,140.41c0,18.76,15.26,34.03,34.03,34.03,18.76,0,34.03-15.27,34.03-34.03,0-18.76-15.26-34.03-34.03-34.03-18.76,0-34.03,15.26-34.03,34.03Z"/>
        <path class="cls-2" d="M581.41,140.41c0-16.41,13.35-29.76,29.76-29.76,16.41,0,29.76,13.35,29.76,29.76,0,16.41-13.35,29.76-29.76,29.76-16.41,0-29.76-13.35-29.76-29.76Z"/>
        <path class="cls-2" d="M610.27,142.06v6.61c-.88-.11-1.52-.32-1.92-.61-.7-.52-1.05-1.41-1.05-2.69,0-.97.33-1.73.99-2.3.39-.33,1.05-.66,1.99-1.01Z"/>
        <path class="cls-2" d="M614.8,133.85c0,.95-.35,1.7-1.06,2.25-.39.3-1,.59-1.83.84v-5.93c.98.02,1.71.28,2.18.79.47.5.71,1.19.71,2.05Z"/>
        <path class="cls-3" d="M538.33,10.55c18.63,2.11,56.6,6.33,60.82,11.95,4.22,5.62,26.37,30.23,26.72,35.51s8.79,40.43,7.03,48.16c-1.76,7.73-15.82-6.68-18.63-10.55-2.81-3.87-5.27-25.66-7.38-29.18-2.11-3.52-24.26-16.52-24.26-12.66,0,3.87-2.11,12.66,1.76,16.17,3.87,3.52,22.15,24.61,20.74,29.18-1.41,4.57-9.49,11.25-16.87,5.27-7.38-5.98-21.8-22.5-31.29-25.31-9.49-2.81-27.77-18.98-34.1-34.45l-22.85-8.09,15.47-36.56s4.22,8.44,22.85,10.55Z"/>
      </g>
      <g>
        <path class="cls-2" d="M20.86,178.97l10.09-13.83c5.78,5.52,12.79,9.56,20.72,9.56,9.23,0,15.37-4.03,15.37-11.29,0-8.3-4.85-13.41-25.41-13.41v-15.51c16.99,0,22.33-5.16,22.33-12.66,0-6.65-4.24-10.42-11.66-10.42-6.72,0-11.82,3.05-17.67,8.27l-11.07-13.34c8.71-7.48,18.22-12.1,29.73-12.1,19.64,0,32.62,9.32,32.62,25.94,0,9.74-5.59,16.72-15.76,21v.6c10.93,3.12,18.85,10.83,18.85,23.05,0,17.6-16.13,27.53-35.16,27.53-15.31,0-26.03-5.43-32.97-13.4Z"/>
        <path class="cls-2" d="M103.18,166.41c0-11.38,7.23-18.46,16.17-23.22v-.6c-7.34-5.45-12.72-12.35-12.72-22.23,0-16.1,12.68-26.12,30.25-26.12s28.75,10.23,28.75,25.94c0,9-5.88,16.32-12.35,20.67v.6c9.02,4.94,16.31,12.17,16.31,24.73,0,14.93-13.4,26.19-33.44,26.19-18.87,0-32.97-10.58-32.97-25.96ZM149.24,165.44c0-8.37-8.07-11.52-19.95-16.49-4.17,3.75-7.25,9.14-7.25,15.01,0,8.28,6.62,13.2,14.59,13.2,7.18,0,12.61-3.83,12.61-11.71ZM147.86,121.66c0-7.34-4.25-12.2-11.47-12.2-5.79,0-10.52,3.62-10.52,10.91,0,7.67,6.58,11.36,16.2,15.2,3.73-4.4,5.79-8.95,5.79-13.9Z"/>
        <path class="cls-2" d="M180.13,122.43c0-19.41,10.2-30.67,24.23-30.67s24.23,11.26,24.23,30.67-10.2,30.97-24.23,30.97-24.23-11.51-24.23-30.97ZM213.32,122.43c0-13.78-4.05-18.46-8.96-18.46s-8.96,4.67-8.96,18.46,4.05,18.76,8.96,18.76,8.96-4.97,8.96-18.76ZM260.11,91.76h12.62l-52.39,100.61h-12.62l52.39-100.61ZM251.72,161.4c0-19.41,10.2-30.67,24.23-30.67s24.23,11.26,24.23,30.67-10.2,30.97-24.23,30.97-24.23-11.51-24.23-30.97ZM284.91,161.4c0-13.78-4.05-18.46-8.96-18.46s-8.96,4.67-8.96,18.46,4.05,18.76,8.96,18.76,8.96-4.97,8.96-18.76Z"/>
      </g>
      <g>
        <path class="cls-2" d="M406.4,122.08l2.2,17.88h-13.09v85.79h141.62v-39.69l13.3-1.64-9.73-78.89-134.3,16.56ZM530.83,164.15h-129.02v-17.89h129.02v17.89ZM530.83,219.45h-129.02v-40.01h129.02v40.01Z"/>
        <path class="cls-2" d="M510.08,191.67c-3.54,0-6.63,1.92-8.3,4.78-1.67-2.86-4.75-4.78-8.3-4.78-5.31,0-9.61,4.3-9.61,9.61s4.3,9.61,9.61,9.61c3.54,0,6.63-1.92,8.3-4.78,1.67,2.86,4.75,4.78,8.3,4.78,5.31,0,9.61-4.3,9.61-9.61s-4.3-9.61-9.61-9.61Z"/>
        <polygon class="cls-2" points="444.55 197.46 454.88 197.46 454.88 196.19 454.88 193.97 415.26 193.97 408 193.97 408 197.46 415.69 197.46 444.55 197.46"/>
        <rect class="cls-2" x="408" y="201.83" width="54.38" height="3.49"/>
      </g>
    </g>
  </g>
</svg>