<svg version="1.2" xmlns="http://www.w3.org/2000/svg" viewBox="0 0 393 83" width="393" height="83"><defs><clipPath clipPathUnits="userSpaceOnUse" id="cp1"><path d="m-1575-1019h2381v1684h-2381z"/></clipPath></defs><style>.a{fill:#fcc23e}.b{fill:#fff}.c{fill:#f6f6f6}</style><g clip-path="url(#cp1)"><path fill-rule="evenodd" class="a" d="m25.8 62.3l-25.5-17.9 25.5-17.9zm335-46c0-0.7 0.5-1.3 1.2-1.3h2.9c0.7 0 1.2 0.6 1.2 1.3 0 0.6-0.5 1.2-1.2 1.2h-2.9c-0.7 0-1.2-0.6-1.2-1.2z"/><path fill-rule="evenodd" class="a" d="m367.2 27.7l2-2c0.5-0.5 0.5-1.3 0-1.8-0.5-0.5-1.2-0.5-1.7 0l-2 2.1c-0.5 0.4-0.5 1.2 0 1.7 0.4 0.5 1.2 0.4 1.7 0zm0.4-18.9c0.4 0.5 1.2 0.5 1.7 0 0.4-0.5 0.4-1.2 0-1.7l-2.1-2c-0.4-0.5-1.2-0.5-1.7 0-0.5 0.4-0.5 1.2 0 1.7zm9.3-3.1c0.7 0 1.2-0.6 1.2-1.2v-2.9c0-0.7-0.5-1.2-1.2-1.2-0.7 0-1.2 0.5-1.2 1.2v2.9c0 0.6 0.5 1.2 1.2 1.2z"/><path fill-rule="evenodd" class="a" d="m378 31.2v-2.9c0-0.7-0.6-1.2-1.3-1.2-0.6 0-1.2 0.5-1.2 1.2v2.9c0 0.7 0.6 1.2 1.2 1.2 0.7 0 1.3-0.5 1.3-1.2zm8.1-22.3l2-2c0.5-0.5 0.5-1.3 0-1.8-0.4-0.5-1.2-0.5-1.7 0l-2 2.1c-0.5 0.4-0.5 1.2 0 1.7 0.5 0.4 1.2 0.5 1.7 0z"/><path fill-rule="evenodd" class="a" d="m384.3 24c-0.5 0.5-0.5 1.2 0 1.7l2 2.1c0.5 0.4 1.3 0.4 1.8 0 0.4-0.5 0.4-1.3 0-1.8l-2.1-2c-0.4-0.5-1.2-0.5-1.7 0zm-38.7 54.6h-7.8c0.2-6-0.7-5.9 1.4-6.7 1.1-0.4 2.9-1.1 2.9-3.6 0-0.7-0.6-1.2-1.2-1.2-0.7 0-1.3 0.5-1.3 1.2 0 1.1-0.7 1-1.8 1.5v-3.9c2.5-0.6 4.4-2.8 4.4-5.5 0-2.7-3.9-8.2-4.7-9.3-0.4-0.7-1.5-0.7-2 0-0.7 1.1-4.6 6.6-4.6 9.3 0 2.7 1.9 4.9 4.4 5.5v7c-1.4-0.6-1.9-0.5-1.9-1.5 0-0.7-0.5-1.3-1.2-1.3-0.7 0-1.2 0.6-1.2 1.3 0 2.5 1.8 3.2 2.9 3.6 1.9 0.7 1.3 0.9 1.4 3.6h-11.6c0.2-6-0.7-5.9 1.4-6.7 1.1-0.4 2.9-1.1 2.9-3.6 0-0.7-0.5-1.2-1.2-1.2-0.7 0-1.2 0.5-1.2 1.2 0 0.7-0.2 0.9-1.3 1.3q-0.3 0.1-0.6 0.2v-3.9c2.5-0.6 4.4-2.8 4.4-5.5 0-2.7-3.9-8.2-4.6-9.3-0.5-0.7-1.6-0.7-2 0-0.8 1.1-4.7 6.6-4.7 9.3 0 2.7 1.9 4.9 4.4 5.5v7c-1.4-0.6-1.8-0.5-1.8-1.5 0-0.7-0.6-1.3-1.3-1.3-0.6 0-1.2 0.6-1.2 1.3 0 2.5 1.8 3.2 2.9 3.6 1.1 0.4 1.4 0.6 1.4 1.6v2h-7.8c-0.7 0-1.2 0.5-1.2 1.2 0 0.6 0.5 1.2 1.2 1.2h32.2c0.7 0 1.2-0.6 1.2-1.2 0-0.7-0.5-1.2-1.2-1.2z"/><path fill-rule="evenodd" class="a" d="m313.6 45.5c0.2 0 19.7-2.9 39.1 5v-2.1c-0.9-0.3-1.6-0.7-2.2-1.4-18.9-6.6-36.4-4-37.3-3.9-0.6 0.1-1.1 0.7-1 1.4 0.1 0.7 0.7 1.1 1.4 1zm50.9 24.6c0-4.2-3.4-7.6-7.6-7.6-4.2 0-7.6 3.4-7.6 7.6 0 4.2 3.4 7.6 7.6 7.6 4.2 0 7.6-3.4 7.6-7.6z"/><path fill-rule="evenodd" class="a" d="m366.5 70.1c0 5.3-4.3 9.6-9.6 9.6-5.3 0-9.6-4.3-9.6-9.6 0-5.4 4.3-9.6 9.6-9.6 5.3 0 9.6 4.2 9.6 9.6zm-5.3 0c0-2.4-2-4.3-4.3-4.3-2.4 0-4.3 1.9-4.3 4.3 0 2.3 1.9 4.2 4.3 4.2 2.3 0 4.3-1.9 4.3-4.2zm22.2 9.8c-3.4 0-6.2-2.8-6.2-6.2 0-3.5 2.8-6.3 6.2-6.3 3.5 0 6.3 2.8 6.3 6.3 0 3.4-2.8 6.2-6.3 6.2z"/><path class="a" d="m356.9 67.1c-1.6 0-2.9 1.3-2.9 3 0 1.6 1.3 2.9 2.9 2.9 1.6 0 2.9-1.3 2.9-2.9 0-1.7-1.3-3-2.9-3z"/><path fill-rule="evenodd" class="a" d="m391.6 15.2h-2.9c-0.7 0-1.2 0.6-1.2 1.3 0 0.6 0.5 1.2 1.2 1.2h2.9c0.6 0 1.2-0.6 1.2-1.2 0-0.7-0.6-1.3-1.2-1.3zm-14.8 9.5c4.6 0 8.3-3.7 8.3-8.3 0-4.6-3.7-8.3-8.3-8.3-4.6 0-8.3 3.7-8.3 8.3 0 4.6 3.7 8.3 8.3 8.3z"/><path fill-rule="evenodd" class="a" d="m348.9 43.9v-15.2h-28v11.4q1-0.1 2.1-0.1c2 0 4.2 0.1 6.6 0.3v-5.1c0-0.7 0.5-1.3 1.2-1.3h8.2c0.7 0 1.2 0.6 1.2 1.3v6.5c2.9 0.6 5.8 1.3 8.7 2.2zm-32.8-17.7h37.6c0.5 0 0.9-0.2 1.1-0.7 0.2-0.5 0.1-1-0.3-1.3l-18.7-18.8c-0.5-0.5-1.3-0.5-1.8 0l-18.7 18.8c-0.4 0.3-0.5 0.8-0.3 1.3 0.2 0.5 0.6 0.7 1.1 0.7z"/><path class="a" d="m383.4 66.4c1.8 0 3.5 0.6 4.7 1.7v-3.9-0.3c0-3.5-3.5-3.6-3.6-3.7-6-0.9-12.7-2-13.1-1.9 0 0.1-7.7 3.3-7.6 3.3 2.7 2.2 4 5.3 4 8.5q0 1-0.2 2h8.7c0.7-3.3 3.6-5.7 7.1-5.7z"/><path class="a" d="m382.2 44.1c0-1.3-1-2.3-2.2-2.3h-26.1c-1.3 0-2.3 1.1-2.2 2.4 0.1 1.1 1.1 1.9 2.3 1.9h1.1v10.4h-4.4c-0.4 0-0.7 0.3-0.7 0.7 0 0.4 0.3 0.7 0.7 0.7h4.4v1.4c2.7-0.4 5.2 0.1 7.4 1.4l2.1-0.9c-1.9-1.6-4.1-2.7-6.6-3.1v-10.6h8.3l2.5 11.9c1.2-0.4 2.3-1.2 3.1-1l-2.7-10.9h10.8c1.2 0 2.1-0.8 2.2-2z"/><path fill-rule="evenodd" class="a" d="m380.6 52.8c0.4 0 0.7-0.3 0.7-0.6v-2.6c0-0.4-0.3-0.7-0.7-0.7h-1.3c-1.9 0-3.4 1.5-3.4 3.4v3.9h-0.1c-0.9 0-0.6 1.1-0.7 1.3l5.3 0.8v-1.4c0-0.4-0.3-0.7-0.6-0.7v-3.4zm-66.3-2.7h-0.1q-0.4 0.1-0.8 0.1c-2.9 0-5.4-2.1-5.9-4.9v-0.1c-0.4-3.2 1.8-6.2 4.9-6.7 0.3 0 1.6-0.2 3.8-0.4v-7.2h-0.1c-2.4 0-4.5-1.4-5.5-3.6v-0.1c-0.9-2.2-0.4-4.7 1.3-6.3l13.4-13.5h-293.1c-5.1 0-9.3 2.8-9.3 6.2v62.5c0 3.4 4.2 6.2 9.3 6.2h275.8c-0.3-0.8-0.5-1.6-0.5-2.5 0-3 2.2-5.5 5.1-5.9-0.3-0.9-0.4-1.7-0.4-2.5 0-1.9 0.8-3.5 2.2-4.6-1.5-1.8-2.3-4-2.3-6.4 0-1 0-3.8 4.5-10.5-1.4 0.1-2.2 0.2-2.3 0.2z"/><path fill-rule="evenodd" class="b" d="m200.6 51.9l3.1-4.3c1.6 1.4 3.4 2.4 5.2 2.4 2.2 0 3.6-0.8 3.6-2.4 0-1.9-1-3-6.2-3v-4.8c4.2 0 5.4-1.1 5.4-2.9 0-1.5-0.9-2.3-2.6-2.3-1.6 0-2.8 0.7-4.4 2.1l-3.5-4.2c2.5-2 5.1-3.2 8.2-3.2 5.6 0 9.2 2.5 9.2 7.1q0 3.6-4.1 5.4v0.2c2.9 0.9 4.9 2.9 4.9 6.1 0 4.7-4.5 7.4-9.8 7.4-4.1 0-7.1-1.4-9-3.6zm22.4-3.4c0-2.9 1.7-4.7 4.1-5.9v-0.2c-2-1.5-3.3-3.3-3.3-6 0-4.4 3.5-7.1 8.4-7.1 4.7 0 7.9 2.7 7.9 7 0 2.3-1.5 4.1-3.2 5.3v0.1c2.4 1.3 4.3 3.3 4.3 6.7 0 4-3.7 7.1-9.2 7.1-5.2 0-9-2.8-9-7zm11.9-0.4c0-1.8-1.8-2.5-4.8-3.8-0.7 0.9-1.3 2.2-1.3 3.4 0 2 1.6 3.1 3.3 3.1 1.5 0 2.8-0.8 2.8-2.7zm-0.3-11.3c0-1.8-1-2.8-2.6-2.8-1.2 0-2.3 0.7-2.3 2.4 0 1.7 1.4 2.6 3.8 3.5 0.7-1 1.1-2 1.1-3.1zm9.1 0c0-5.1 2.8-8.2 6.6-8.2 3.9 0 6.7 3.1 6.7 8.2 0 5.2-2.8 8.3-6.7 8.3-3.8 0-6.6-3.1-6.6-8.3zm8.6 0c0-3.5-0.9-4.4-2-4.4-1 0-1.9 0.9-1.9 4.4 0 3.5 0.9 4.6 1.9 4.6 1.1 0 2-1.1 2-4.6zm12.8-8.2h3.9l-13.9 26.9h-3.8zm-2 18.5c0-5.2 2.9-8.2 6.7-8.2 3.8 0 6.7 3 6.7 8.2 0 5.2-2.9 8.3-6.7 8.3-3.8 0-6.7-3.1-6.7-8.3zm8.7 0c0-3.5-1-4.5-2-4.5-1 0-2 1-2 4.5 0 3.5 1 4.5 2 4.5 1 0 2-1 2-4.5z"/><path fill-rule="evenodd" class="c" d="m45 33.7h-1.8v5h-3.4v-14h5.5q2.5 0 3.9 1.1 1.5 1.1 1.5 3.1 0 1.5-0.6 2.4-0.6 1-1.9 1.6l2.9 5.7v0.1h-3.6zm-1.8-2.6h2.1q1 0 1.5-0.5 0.5-0.5 0.5-1.4 0-0.9-0.5-1.5-0.5-0.5-1.5-0.5h-2.1zm15.6 6.5q-1 1.3-2.7 1.3-1.8 0-2.6-1-0.9-1-0.9-2.9v-6.7h3.2v6.7q0 1.4 1.3 1.4 1.1 0 1.6-0.8v-7.3h3.3v10.4h-3.1zm11.4-6.4h-1.1q-1.5 0-2 0.9v6.6h-3.2v-10.4h3l0.1 1.3q0.8-1.5 2.3-1.5 0.5 0 0.9 0.1zm6.9 7.5q-0.2-0.3-0.3-0.9-0.9 1.1-2.5 1.1-1.5 0-2.5-0.9-1.1-0.9-1.1-2.2 0-1.7 1.3-2.6 1.2-0.9 3.6-0.9h1v-0.5q0-1.5-1.2-1.5-1.2 0-1.2 1.2h-3.2q0-1.5 1.3-2.5 1.2-0.9 3.2-0.9 2 0 3.2 1 1.2 0.9 1.2 2.6v4.6q0 1.5 0.4 2.2v0.2zm-2-2.1q0.6 0 1-0.3 0.4-0.2 0.6-0.6v-1.6h-1q-1.7 0-1.7 1.5 0 0.4 0.3 0.7 0.3 0.3 0.8 0.3zm10.2 2.1h-3.3v-14.8h3.3zm-37.4 20.4h-4.7l-0.8 2.6h-3.6l5.2-14h3.1l5.2 14h-3.6zm-3.8-2.6h3l-1.5-4.8z"/><path fill-rule="evenodd" class="c" d="m57.6 59.4q0.7 0 1.1-0.4 0.4-0.3 0.4-1h3q0 1.7-1.2 2.8-1.3 1.1-3.2 1.1-2.3 0-3.6-1.4-1.3-1.4-1.3-4v-0.1q0-1.6 0.6-2.8 0.6-1.2 1.7-1.8 1.1-0.7 2.6-0.7 2 0 3.2 1.1 1.2 1.2 1.2 3.1h-3q0-0.8-0.4-1.2-0.4-0.5-1.1-0.5-1.3 0-1.5 1.6 0 0.5 0 1.4 0 1.6 0.3 2.2 0.4 0.6 1.2 0.6zm10.4 0q0.7 0 1-0.4 0.4-0.3 0.4-1h3.1q0 1.7-1.3 2.8-1.2 1.1-3.1 1.1-2.3 0-3.6-1.4-1.3-1.4-1.3-4v-0.1q0-1.6 0.5-2.8 0.6-1.2 1.7-1.8 1.1-0.7 2.6-0.7 2.1 0 3.3 1.1 1.2 1.2 1.2 3.1h-3.1q0-0.8-0.4-1.2-0.4-0.5-1-0.5-1.3 0-1.5 1.6-0.1 0.5-0.1 1.4 0 1.6 0.4 2.2 0.4 0.6 1.2 0.6zm11 2.5q-2.4 0-3.9-1.4-1.5-1.4-1.5-3.7v-0.3q0-1.6 0.6-2.8 0.6-1.2 1.7-1.9 1.2-0.7 2.7-0.7 2.2 0 3.5 1.4 1.3 1.3 1.3 3.8v1.2h-6.5q0.2 0.9 0.8 1.4 0.6 0.5 1.5 0.5 1.5 0 2.4-1.1l1.5 1.8q-0.6 0.8-1.7 1.3-1.1 0.5-2.4 0.5zm-0.4-8.3q-1.4 0-1.7 1.9h3.3v-0.2q0-0.8-0.4-1.3-0.4-0.4-1.2-0.4zm11.6 5.2q0-0.4-0.4-0.7-0.4-0.2-1.6-0.5-1.3-0.3-2.1-0.7-0.7-0.4-1.2-1.1-0.4-0.6-0.4-1.4 0-1.4 1.2-2.4 1.2-0.9 3.1-0.9 2.1 0 3.3 0.9 1.3 1 1.3 2.5h-3.3q0-1.2-1.3-1.2-0.5 0-0.8 0.2-0.4 0.3-0.4 0.7 0 0.5 0.4 0.7 0.5 0.3 1.4 0.5 0.9 0.2 1.6 0.4 2.4 0.8 2.4 2.9 0 1.4-1.3 2.3-1.3 0.9-3.3 0.9-1.3 0-2.4-0.5-1-0.4-1.6-1.3-0.6-0.8-0.6-1.7h3q0.1 0.7 0.5 1 0.5 0.4 1.2 0.4 0.7 0 1-0.3 0.3-0.3 0.3-0.7zm10.2 0q0-0.4-0.4-0.7-0.4-0.2-1.6-0.5-1.2-0.3-2-0.7-0.8-0.4-1.2-1.1-0.5-0.6-0.5-1.4 0-1.4 1.2-2.4 1.2-0.9 3.1-0.9 2.1 0 3.3 0.9 1.3 1 1.3 2.5h-3.3q0-1.2-1.3-1.2-0.5 0-0.8 0.2-0.4 0.3-0.4 0.7 0 0.5 0.4 0.7 0.5 0.3 1.4 0.5 0.9 0.2 1.6 0.4 2.4 0.8 2.4 2.9 0 1.4-1.3 2.3-1.3 0.9-3.3 0.9-1.3 0-2.4-0.5-1-0.4-1.6-1.3-0.6-0.8-0.6-1.7h3q0.1 0.7 0.5 1 0.5 0.4 1.2 0.4 0.7 0 1-0.3 0.3-0.3 0.3-0.7zm4.8-10.2q0-0.7 0.5-1.1 0.5-0.5 1.3-0.5 0.8 0 1.3 0.5 0.5 0.4 0.5 1.1 0 0.7-0.5 1.2-0.5 0.4-1.3 0.4-0.8 0-1.3-0.4-0.5-0.5-0.5-1.2zm3.4 13.1h-3.2v-10.4h3.2zm11.8-5.1q0 2.5-1.1 3.9-1 1.4-2.9 1.4-1.6 0-2.6-1.3l-0.1 1.1h-3v-14.8h3.3v5.2q0.9-1 2.3-1 2 0 3 1.4 1.1 1.4 1.1 3.9zm-3.3-0.2q0-1.5-0.4-2.1-0.4-0.7-1.2-0.7-1.1 0-1.5 0.9v4.1q0.4 0.8 1.5 0.8 1.2 0 1.5-1.1 0.1-0.5 0.1-1.9zm4.8-7.8q0-0.7 0.5-1.1 0.5-0.5 1.3-0.5 0.8 0 1.3 0.5 0.5 0.4 0.5 1.1 0 0.7-0.5 1.2-0.5 0.4-1.3 0.4-0.8 0-1.3-0.4-0.5-0.5-0.5-1.2zm3.5 13.1h-3.3v-10.4h3.3zm5.5 0h-3.3v-14.8h3.3zm2.1-13.1q0-0.7 0.5-1.2 0.5-0.4 1.3-0.4 0.8 0 1.3 0.4 0.5 0.5 0.5 1.2 0 0.7-0.5 1.1-0.5 0.5-1.3 0.5-0.8 0-1.3-0.5-0.5-0.4-0.5-1.1zm3.4 13.1h-3.2v-10.4h3.2zm5.9-13.1v2.6h1.7v2.3h-1.7v4.8q0 0.6 0.2 0.8 0.2 0.2 0.9 0.2 0.4 0 0.8 0v2.3q-0.9 0.3-1.9 0.3-1.6 0-2.4-0.8-0.8-0.8-0.8-2.4v-5.2h-1.4v-2.3h1.4v-2.6zm7.2 8.5l1.8-5.9h3.4l-4.2 12.2-0.2 0.5q-0.9 2-3.2 2-0.6 0-1.3-0.2v-2.3h0.4q0.7 0 1-0.2 0.4-0.2 0.6-0.7l0.2-0.7-3.6-10.6h3.5z"/></g></svg>