<svg version="1.2" xmlns="http://www.w3.org/2000/svg" viewBox="0 0 294 74" width="294" height="74"><defs><clipPath clipPathUnits="userSpaceOnUse" id="cp1"><path d="m-1178.24-756.32h1781.2v1259.79h-1781.2z"/></clipPath></defs><style>tspan{white-space:pre}.a{fill:#fcc23e}.b{font-size: 50px;fill: #ffffff;font-weight: 900;font-family: "Roboto-Black", "Roboto"}.c{font-size: 22px;fill: #ffffff;font-weight: 900;font-family: "Roboto-Black", "Roboto"}</style><g clip-path="url(#cp1)"><path fill-rule="evenodd" class="a" d="m269.9 18.2c0-0.5 0.4-1 0.9-1h2.2c0.5 0 0.9 0.5 0.9 1 0 0.4-0.4 0.9-0.9 0.9h-2.2c-0.5 0-0.9-0.5-0.9-0.9z"/><path fill-rule="evenodd" class="a" d="m273.4 26.7c-0.3-0.4-0.3-1 0-1.3l1.5-1.5c0.4-0.4 0.9-0.4 1.3 0 0.4 0.3 0.4 0.9 0 1.3l-1.5 1.5c-0.4 0.3-1 0.4-1.3 0zm0-15.6c-0.3-0.4-0.3-1 0-1.3 0.4-0.4 1-0.4 1.3 0l1.6 1.5c0.3 0.4 0.3 0.9 0 1.3-0.4 0.3-1 0.3-1.3 0zm7.6-1.8v-2.1c0-0.5 0.4-0.9 0.9-0.9 0.6 0 0.9 0.4 0.9 0.9v2.1c0 0.5-0.3 0.9-0.9 0.9-0.5 0-0.9-0.4-0.9-0.9z"/><path fill-rule="evenodd" class="a" d="m281.8 30.2c-0.4 0-0.9-0.4-0.9-0.9v-2.1c0-0.6 0.5-0.9 0.9-0.9 0.5 0 1 0.3 1 0.9v2.1c0 0.5-0.5 0.9-1 0.9zm5.8-17.6c-0.4-0.3-0.4-0.9 0-1.2l1.5-1.6c0.3-0.4 0.9-0.4 1.2 0 0.4 0.4 0.4 1 0 1.3l-1.5 1.5c-0.3 0.4-0.9 0.3-1.2 0z"/><path fill-rule="evenodd" class="a" d="m287.5 23.9c-0.4 0.4-0.4 0.9 0 1.3l1.5 1.6c0.4 0.3 1 0.3 1.3 0 0.3-0.4 0.3-1 0-1.4l-1.5-1.5c-0.3-0.3-0.9-0.3-1.3 0zm-29 40.9h-5.8c0.2-4.5-0.5-4.4 1.1-5 0.8-0.3 2.1-0.9 2.1-2.7 0-0.5-0.4-0.9-0.9-0.9-0.5 0-0.9 0.4-0.9 0.9 0 0.8-0.6 0.7-1.4 1.1v-2.9c1.9-0.5 3.3-2.1 3.3-4.1 0-2.1-2.9-6.2-3.5-7-0.3-0.5-1.1-0.5-1.5 0-0.5 0.8-3.5 4.9-3.5 7 0 2 1.5 3.6 3.3 4.1v5.2c-1-0.4-1.4-0.4-1.4-1.1 0-0.5-0.4-1-0.9-1-0.5 0-0.9 0.5-0.9 1 0 1.9 1.4 2.4 2.2 2.7 1.4 0.5 1 0.7 1 2.7h-8.6c0.1-4.5-0.6-4.4 1-5 0.8-0.3 2.2-0.9 2.2-2.7 0-0.5-0.4-0.9-0.9-0.9-0.5 0-0.9 0.4-0.9 0.9 0 0.5-0.2 0.7-1 1q-0.2 0-0.4 0.1v-2.9c1.8-0.5 3.2-2.1 3.2-4.1 0-2.1-2.9-6.2-3.4-7-0.4-0.5-1.2-0.5-1.5 0-0.6 0.8-3.5 4.9-3.5 7 0 2 1.4 3.6 3.3 4.1v5.2c-1.1-0.4-1.4-0.4-1.4-1.1 0-0.5-0.4-1-0.9-1-0.5 0-0.9 0.5-0.9 1 0 1.9 1.3 2.4 2.1 2.7 0.9 0.3 1.1 0.4 1.1 1.2v1.5h-5.8c-0.6 0-0.9 0.4-0.9 0.9 0 0.4 0.3 0.9 0.9 0.9h24c0.6 0 0.9-0.5 0.9-0.9 0-0.5-0.3-0.9-0.9-0.9z"/><path fill-rule="evenodd" class="a" d="m234.6 40c0.2 0 14.7-2.1 29.3 3.8v-1.6c-0.7-0.2-1.2-0.5-1.7-1.1-14.1-4.9-27.2-2.9-27.9-2.9-0.4 0.1-0.8 0.6-0.7 1.1 0 0.5 0.5 0.8 1 0.7zm38.1 18.4c0-3.1-2.6-5.7-5.7-5.7-3.1 0-5.7 2.6-5.7 5.7 0 3.2 2.6 5.7 5.7 5.7 3.1 0 5.7-2.5 5.7-5.7z"/><path fill-rule="evenodd" class="a" d="m274.2 58.4c0 4-3.2 7.2-7.2 7.2-4 0-7.2-3.2-7.2-7.2 0-4 3.2-7.2 7.2-7.2 4 0 7.2 3.2 7.2 7.2zm-4 0c0-1.8-1.5-3.2-3.2-3.2-1.8 0-3.2 1.4-3.2 3.2 0 1.7 1.4 3.2 3.2 3.2 1.7 0 3.2-1.5 3.2-3.2zm16.6 7.4c-2.5 0-4.6-2.1-4.6-4.7 0-2.6 2.1-4.7 4.6-4.7 2.6 0 4.7 2.1 4.7 4.7 0 2.6-2.1 4.7-4.7 4.7z"/><path class="a" d="m267 56.2c-1.2 0-2.2 1-2.2 2.2 0 1.2 1 2.2 2.2 2.2 1.2 0 2.2-1 2.2-2.2 0-1.2-1-2.2-2.2-2.2z"/><path fill-rule="evenodd" class="a" d="m293 17.4h-2.2c-0.5 0-0.9 0.4-0.9 0.9 0 0.5 0.4 0.9 0.9 0.9h2.2c0.4 0 0.9-0.4 0.9-0.9 0-0.5-0.5-0.9-0.9-0.9zm-11.1 7.1c3.4 0 6.2-2.8 6.2-6.2 0-3.5-2.8-6.3-6.2-6.3-3.5 0-6.2 2.8-6.2 6.3 0 3.4 2.7 6.2 6.2 6.2z"/><path fill-rule="evenodd" class="a" d="m261 38.8v-11.3h-20.9v8.5q0.7-0.1 1.5-0.1 2.3 0 5 0.2v-3.8c0-0.5 0.3-1 0.9-1h6.1c0.5 0 0.9 0.5 0.9 1v4.9c2.2 0.4 4.3 1 6.5 1.6zm-24.5-13.2h28.1c0.4 0 0.7-0.2 0.8-0.5 0.2-0.4 0.1-0.8-0.2-1l-14-14.1c-0.4-0.3-1-0.3-1.3 0l-14 14.1c-0.3 0.2-0.4 0.6-0.3 1 0.2 0.3 0.5 0.5 0.9 0.5z"/><path class="a" d="m286.8 55.7c1.4 0 2.6 0.4 3.5 1.2v-2.9-0.2c0-2.6-2.6-2.7-2.7-2.8-4.4-0.7-9.5-1.5-9.8-1.4 0 0.1-5.7 2.5-5.6 2.5 2 1.6 2.9 3.9 2.9 6.3q0 0.8-0.1 1.5h6.5c0.5-2.4 2.7-4.2 5.3-4.2z"/><path class="a" d="m285.9 39c0-1-0.7-1.7-1.6-1.7h-19.6c-0.9 0-1.7 0.8-1.6 1.8 0.1 0.8 0.8 1.4 1.7 1.4h0.8v7.8h-3.2c-0.3 0-0.6 0.2-0.6 0.5 0 0.3 0.3 0.5 0.6 0.5h3.2v1c2.1-0.3 3.9 0.1 5.6 1.1l1.6-0.7c-1.5-1.2-3.1-2-5-2.3v-7.9h6.2l1.9 8.9c0.9-0.3 1.7-0.9 2.3-0.8l-2-8.1h8.1c0.9 0 1.5-0.6 1.6-1.5z"/><path fill-rule="evenodd" class="a" d="m284.7 45.5c0.3 0 0.5-0.2 0.5-0.5v-1.9c0-0.3-0.2-0.5-0.5-0.5h-0.9c-1.5 0-2.6 1.1-2.6 2.5v2.9h-0.1c-0.6 0-0.4 0.9-0.5 1l4 0.6v-1c0-0.3-0.3-0.6-0.5-0.6v-2.5zm-49.6-2q-0.3 0-0.6 0c-2.2 0-4.1-1.5-4.5-3.6v-0.1c-0.3-2.4 1.4-4.6 3.7-5 0.2 0 1.2-0.2 2.8-0.3v-5.4c-1.8 0-3.4-1-4.1-2.7v-0.1c-0.7-1.6-0.3-3.5 0.9-4.7l10.1-10.1h-219.3c-3.8 0-7 2.1-7 4.7v46.7c0 2.6 3.2 4.7 7 4.7h206.3c-0.2-0.6-0.4-1.2-0.4-1.9 0-2.3 1.7-4.1 3.9-4.4-0.3-0.7-0.3-1.3-0.3-1.9 0-1.4 0.6-2.6 1.6-3.4-1.1-1.4-1.7-3-1.7-4.8 0-0.8 0-2.9 3.3-7.9-1 0.1-1.6 0.2-1.7 0.2z"/><text style="transform:matrix(1,0,0,1,23,56)" ><tspan x="0" y="0" class="b">3</tspan><tspan  y="0" class="b">8</tspan><tspan  y="0" class="b">%
</tspan></text><text style="transform:matrix(1,0,0,1,126,31)" ><tspan x="0" y="0" class="c">L</tspan><tspan  y="0" class="c">i</tspan><tspan  y="0" class="c">v</tspan><tspan  y="0" class="c">e</tspan><tspan  y="0" class="c"> </tspan><tspan  y="0" class="c">T</tspan><tspan  y="0" class="c">o</tspan><tspan  y="0" class="c">o</tspan><tspan  y="0" class="c">
</tspan><tspan x="0" y="26.4" class="c">F</tspan><tspan  y="26.4" class="c">a</tspan><tspan  y="26.4" class="c">r</tspan><tspan  y="26.4" class="c"> </tspan><tspan  y="26.4" class="c">A</tspan><tspan  y="26.4" class="c">w</tspan><tspan  y="26.4" class="c">a</tspan><tspan  y="26.4" class="c">y</tspan><tspan  y="26.4" class="c">
</tspan></text></g></svg>