<?xml version="1.0" encoding="UTF-8"?>
<svg id="Layer_2" data-name="Layer 2" xmlns="http://www.w3.org/2000/svg" viewBox="0 0 738.12 329.18">
  <defs>
    <style>
      .cls-1 {
        fill: #231f20;
      }

      .cls-2 {
        fill: #49b2c7;
      }

      .cls-3 {
        fill: #f79439;
      }

      .cls-3, .cls-4 {
        fill-rule: evenodd;
      }

      .cls-4, .cls-5 {
        fill: #12bdcd;
      }
    </style>
  </defs>
  <g id="Graphics">
    <g>
      <path class="cls-5" d="M44.87,322.3c-3.27-.65-6.15-2.53-8.31-5.42l-.14-.19-.13-.2c-1.82-2.92-2.45-6.41-1.77-9.82l2.78-14.22-4.47-.91c-12.01-2.35-19.92-6.8-24.16-13.59-3.66-5.87-4.32-13.25-1.98-21.95,1.39-5.34,3.2-11.06,5.75-16.75-.17-.19-.32-.4-.45-.61H0v90.55s0,0,0,0h79.24l-34.37-6.87Z"/>
      <path class="cls-5" d="M228.55,238.63c-.93,3.84-2.87,7.53-5.76,10.74-1.04,1.25-2.12,2.54-3.47,3.89l-12.66,13.48c-14.86,15.08-28.74,22.41-42.44,22.41-5.57,0-11.08-1.26-16.36-3.74l-.13-.06c-.77-.39-1.48-.89-2.46-1.59-2.43-1.73-6.5-4.63-10.52-4.63-1.05,0-4.03,0-7.63,4.42.54,5.08-.69,10.02-3.52,13.87-1.87,2.54-5.12,5.55-10.52,6.96l-3.55,17.42-.07.25c-.88,2.92-2.49,5.4-4.61,7.14h633.26s0,0,0,0v-90.55H228.55Z"/>
      <g>
        <path class="cls-1" d="M437.28,290.6c0-.9-.32-1.61-.96-2.11-.64-.5-1.76-1.03-3.37-1.56-1.61-.54-2.92-1.06-3.94-1.56-3.32-1.63-4.97-3.87-4.97-6.71,0-1.42.41-2.67,1.24-3.75s2-1.93,3.51-2.53,3.21-.91,5.1-.91,3.49.33,4.95.98,2.59,1.59,3.4,2.8,1.21,2.6,1.21,4.16h-6.15c0-1.04-.32-1.85-.96-2.43-.64-.57-1.5-.86-2.59-.86s-1.97.24-2.61.73c-.64.49-.96,1.1-.96,1.85,0,.66.35,1.25,1.05,1.78s1.94,1.08,3.71,1.65c1.77.57,3.22,1.18,4.36,1.84,2.77,1.59,4.15,3.79,4.15,6.59,0,2.24-.84,4-2.53,5.27s-4,1.92-6.94,1.92c-2.07,0-3.95-.37-5.63-1.12-1.68-.74-2.95-1.76-3.8-3.06-.85-1.29-1.27-2.79-1.27-4.47h6.19c0,1.37.35,2.38,1.06,3.03.71.65,1.86.98,3.45.98,1.02,0,1.83-.22,2.42-.66.59-.44.89-1.06.89-1.85Z"/>
        <path class="cls-1" d="M455.8,297.76c-2.92,0-5.28-.87-7.08-2.61-1.8-1.74-2.71-4-2.71-6.79v-.49c0-1.95.36-3.66,1.08-5.15s1.77-2.64,3.16-3.45c1.38-.81,3.02-1.22,4.92-1.22,2.67,0,4.78.83,6.33,2.49s2.32,3.97,2.32,6.93v2.3h-11.78c.21,1.07.67,1.9,1.39,2.51.71.61,1.64.91,2.78.91,1.87,0,3.34-.66,4.39-1.97l2.71,3.2c-.74,1.02-1.78,1.83-3.14,2.43s-2.81.91-4.37.91ZM455.13,282.6c-1.73,0-2.77,1.15-3.09,3.45h5.98v-.46c.02-.95-.22-1.68-.72-2.21-.5-.52-1.22-.78-2.16-.78Z"/>
        <path class="cls-1" d="M471.89,278.39l.19,2.23c1.31-1.72,3.12-2.58,5.43-2.58,1.98,0,3.46.59,4.44,1.78s1.49,2.96,1.52,5.34v12.25h-5.94v-12.01c0-.96-.19-1.67-.58-2.12s-1.09-.68-2.11-.68c-1.16,0-2.02.46-2.58,1.37v13.43h-5.92v-19.02h5.55Z"/>
        <path class="cls-1" d="M496.96,292.06c0-.5-.26-.91-.79-1.21s-1.53-.62-3.01-.95-2.7-.76-3.66-1.29-1.69-1.18-2.2-1.94-.76-1.63-.76-2.62c0-1.75.72-3.18,2.16-4.32s3.33-1.7,5.66-1.7c2.51,0,4.52.57,6.05,1.71s2.29,2.63,2.29,4.48h-5.94c0-1.52-.8-2.29-2.41-2.29-.62,0-1.14.17-1.56.52s-.63.78-.63,1.29.26.96.77,1.28,1.34.6,2.47.81,2.12.46,2.98.76c2.86.98,4.29,2.75,4.29,5.29,0,1.73-.77,3.15-2.31,4.24s-3.54,1.63-5.99,1.63c-1.63,0-3.08-.29-4.36-.88s-2.27-1.38-2.99-2.39-1.07-2.07-1.07-3.18h5.54c.02.88.32,1.52.88,1.92s1.28.61,2.16.61c.81,0,1.42-.16,1.82-.49s.61-.76.61-1.28Z"/>
        <path class="cls-1" d="M514.9,297.76c-2.92,0-5.28-.87-7.08-2.61-1.81-1.74-2.71-4-2.71-6.79v-.49c0-1.95.36-3.66,1.08-5.15s1.77-2.64,3.16-3.45c1.38-.81,3.02-1.22,4.92-1.22,2.67,0,4.78.83,6.33,2.49s2.32,3.97,2.32,6.93v2.3h-11.78c.21,1.07.67,1.9,1.39,2.51.71.61,1.64.91,2.78.91,1.87,0,3.34-.66,4.39-1.97l2.71,3.2c-.74,1.02-1.78,1.83-3.14,2.43s-2.81.91-4.37.91ZM514.23,282.6c-1.73,0-2.77,1.15-3.09,3.45h5.98v-.46c.02-.95-.22-1.68-.72-2.21-.5-.52-1.23-.78-2.16-.78Z"/>
        <path class="cls-1" d="M534.02,287.72c0-1.9.37-3.59,1.11-5.07s1.8-2.62,3.18-3.42c1.38-.8,3.01-1.2,4.87-1.2,2.85,0,5.09.88,6.73,2.65,1.64,1.76,2.46,4.16,2.46,7.2v.21c0,2.96-.82,5.32-2.47,7.06-1.65,1.74-3.88,2.61-6.69,2.61s-4.88-.81-6.52-2.43c-1.64-1.62-2.53-3.82-2.65-6.6l-.02-1ZM539.94,288.09c0,1.76.27,3.05.83,3.87.55.82,1.36,1.23,2.44,1.23,2.11,0,3.19-1.62,3.23-4.87v-.6c0-3.41-1.09-5.12-3.27-5.12-1.98,0-3.05,1.47-3.22,4.41l-.02,1.07Z"/>
        <path class="cls-1" d="M556.54,297.41v-14.91h-2.76v-4.11h2.76v-1.51c0-2.17.64-3.85,1.92-5.04,1.28-1.2,3.07-1.79,5.38-1.79.84,0,1.77.12,2.78.37l.02,4.36c-.36-.11-.85-.16-1.46-.16-1.79,0-2.69.77-2.69,2.32v1.46h3.71v4.11h-3.71v14.91h-5.94Z"/>
        <path class="cls-1" d="M584.18,288.72v8.68h-6.17v-25.59h10.21c1.96,0,3.69.36,5.19,1.08,1.51.72,2.67,1.75,3.5,3.08s1.24,2.84,1.24,4.53c0,2.5-.89,4.49-2.68,5.99-1.79,1.49-4.24,2.24-7.36,2.24h-3.94ZM584.18,283.96h4.04c1.2,0,2.11-.3,2.73-.9.63-.6.94-1.44.94-2.53,0-1.2-.32-2.15-.97-2.87-.64-.71-1.52-1.08-2.64-1.09h-4.11v7.38Z"/>
        <path class="cls-1" d="M612.75,295.35c-1.25,1.61-2.95,2.41-5.08,2.41s-3.67-.61-4.74-1.82-1.61-2.96-1.61-5.23v-12.32h5.92v12.36c0,1.63.79,2.44,2.37,2.44,1.36,0,2.33-.49,2.9-1.46v-13.34h5.96v19.02h-5.55l-.18-2.06Z"/>
        <path class="cls-1" d="M633.49,283.75l-1.95-.14c-1.86,0-3.06.59-3.59,1.76v12.04h-5.92v-19.02h5.55l.19,2.44c1-1.86,2.38-2.79,4.17-2.79.63,0,1.18.07,1.65.21l-.11,5.5Z"/>
        <path class="cls-1" d="M653.53,288.04c0,2.95-.67,5.31-2,7.08s-3.13,2.65-5.39,2.65c-1.75,0-3.18-.64-4.31-1.92v8.88h-5.92v-26.33h5.54l.18,1.76c1.14-1.41,2.63-2.11,4.48-2.11,2.34,0,4.17.86,5.47,2.59s1.95,4.1,1.95,7.13v.28ZM647.61,287.67c0-3.38-.98-5.06-2.95-5.06-1.41,0-2.34.5-2.81,1.51v7.49c.52,1.05,1.46,1.58,2.85,1.58,1.89,0,2.86-1.63,2.92-4.89v-.63Z"/>
        <path class="cls-1" d="M655.65,287.72c0-1.9.37-3.59,1.11-5.07s1.8-2.62,3.18-3.42,3.01-1.2,4.87-1.2c2.85,0,5.09.88,6.73,2.65s2.46,4.16,2.46,7.2v.21c0,2.96-.82,5.32-2.47,7.06s-3.88,2.61-6.69,2.61-4.88-.81-6.52-2.43-2.53-3.82-2.65-6.6l-.02-1ZM661.57,288.09c0,1.76.28,3.05.83,3.87s1.37,1.23,2.44,1.23c2.11,0,3.19-1.62,3.23-4.87v-.6c0-3.41-1.09-5.12-3.27-5.12-1.98,0-3.05,1.47-3.22,4.41l-.02,1.07Z"/>
        <path class="cls-1" d="M686.82,292.06c0-.5-.26-.91-.79-1.21s-1.53-.62-3.01-.95-2.7-.76-3.66-1.29-1.69-1.18-2.2-1.94-.76-1.63-.76-2.62c0-1.75.72-3.18,2.16-4.32s3.33-1.7,5.66-1.7c2.51,0,4.52.57,6.05,1.71s2.29,2.63,2.29,4.48h-5.94c0-1.52-.8-2.29-2.41-2.29-.62,0-1.14.17-1.56.52s-.63.78-.63,1.29.26.96.77,1.28,1.34.6,2.47.81,2.12.46,2.98.76c2.86.98,4.29,2.75,4.29,5.29,0,1.73-.77,3.15-2.31,4.24s-3.54,1.63-5.99,1.63c-1.63,0-3.08-.29-4.36-.88s-2.27-1.38-2.99-2.39-1.07-2.07-1.07-3.18h5.54c.02.88.32,1.52.88,1.92s1.28.61,2.16.61c.81,0,1.42-.16,1.82-.49s.61-.76.61-1.28Z"/>
        <path class="cls-1" d="M704.75,297.76c-2.92,0-5.28-.87-7.08-2.61s-2.71-4-2.71-6.79v-.49c0-1.95.36-3.66,1.08-5.15s1.77-2.64,3.16-3.45,3.02-1.22,4.92-1.22c2.67,0,4.78.83,6.33,2.49s2.32,3.97,2.32,6.93v2.3h-11.78c.21,1.07.67,1.9,1.39,2.51s1.64.91,2.78.91c1.88,0,3.34-.66,4.39-1.97l2.71,3.2c-.74,1.02-1.78,1.83-3.14,2.43s-2.81.91-4.37.91ZM704.09,282.6c-1.73,0-2.77,1.15-3.09,3.45h5.98v-.46c.02-.95-.22-1.68-.72-2.21s-1.22-.78-2.16-.78Z"/>
      </g>
      <g>
        <path class="cls-5" d="M433.57,193.36l10.09-13.83c5.78,5.52,12.79,9.56,20.72,9.56,9.23,0,15.37-4.03,15.37-11.29,0-8.3-4.85-13.41-25.41-13.41v-15.51c16.99,0,22.33-5.16,22.33-12.66,0-6.65-4.24-10.42-11.66-10.42-6.72,0-11.82,3.05-17.67,8.27l-11.07-13.34c8.71-7.48,18.22-12.1,29.73-12.1,19.64,0,32.62,9.32,32.62,25.94,0,9.74-5.59,16.72-15.76,21v.6c10.93,3.12,18.85,10.83,18.85,23.05,0,17.6-16.13,27.53-35.16,27.53-15.31,0-26.03-5.43-32.97-13.4Z"/>
        <path class="cls-5" d="M515.89,180.8c0-11.38,7.23-18.46,16.17-23.22v-.6c-7.34-5.45-12.72-12.35-12.72-22.23,0-16.1,12.68-26.12,30.25-26.12s28.75,10.23,28.75,25.94c0,9-5.88,16.32-12.35,20.67v.6c9.02,4.94,16.31,12.17,16.31,24.73,0,14.93-13.4,26.19-33.44,26.19-18.87,0-32.97-10.58-32.97-25.96ZM561.95,179.83c0-8.37-8.07-11.52-19.95-16.49-4.17,3.75-7.25,9.14-7.25,15.01,0,8.28,6.62,13.2,14.59,13.2,7.18,0,12.61-3.83,12.61-11.71ZM560.57,136.05c0-7.34-4.25-12.2-11.47-12.2-5.79,0-10.52,3.62-10.52,10.91,0,7.67,6.58,11.36,16.2,15.2,3.73-4.4,5.79-8.95,5.79-13.9Z"/>
        <path class="cls-5" d="M592.85,136.81c0-19.41,10.2-30.67,24.23-30.67s24.23,11.26,24.23,30.67-10.2,30.97-24.23,30.97-24.23-11.51-24.23-30.97ZM626.04,136.81c0-13.78-4.05-18.46-8.96-18.46s-8.96,4.67-8.96,18.46,4.05,18.76,8.96,18.76,8.96-4.97,8.96-18.76ZM672.82,106.14h12.62l-52.39,100.61h-12.62l52.39-100.61ZM664.44,175.79c0-19.41,10.2-30.67,24.23-30.67s24.23,11.26,24.23,30.67-10.2,30.97-24.23,30.97-24.23-11.51-24.23-30.97ZM697.63,175.79c0-13.78-4.05-18.46-8.96-18.46s-8.96,4.67-8.96,18.46,4.05,18.76,8.96,18.76,8.96-4.97,8.96-18.76Z"/>
      </g>
      <path class="cls-3" d="M213.33,74.77c14.7-29.4,46.01-11.53,46.01,11.53s-18.25,39.67-46.01,55c-27.88-15.34-46.01-32.06-46.01-55s31.18-40.94,46.01-11.53h0Z"/>
      <path class="cls-2" d="M216,32.19c0,1.52-1.27,2.66-2.66,2.66-1.52,0-2.79-1.14-2.79-2.66V2.66c0-1.52,1.27-2.66,2.79-2.66,1.39,0,2.66,1.14,2.66,2.66v29.53ZM191.79,35.87c.51,1.39-.13,2.91-1.39,3.55-1.39.51-3.04-.13-3.55-1.52l-5.58-13.69c-.63-1.27.13-2.91,1.39-3.42,1.39-.63,2.91.13,3.55,1.39l5.58,13.69ZM156.05,68.44c1.39.63,2.03,2.15,1.52,3.55-.63,1.39-2.15,2.03-3.55,1.39l-13.56-5.7c-1.39-.51-2.03-2.03-1.52-3.42.63-1.39,2.15-2.03,3.55-1.52l13.56,5.7ZM153.9,116.85c1.27-.63,2.91,0,3.42,1.39.63,1.39-.13,2.91-1.39,3.55l-13.69,5.58c-1.39.51-2.91-.13-3.55-1.52-.51-1.39.13-2.91,1.52-3.42l13.69-5.58ZM186.47,152.46c.51-1.27,2.15-1.9,3.42-1.39,1.39.63,2.03,2.15,1.52,3.55l-5.7,13.56c-.63,1.39-2.15,2.03-3.55,1.39-1.39-.51-2.03-2.03-1.39-3.42l5.7-13.69ZM234.75,154.74c-.51-1.39.13-2.91,1.52-3.55,1.27-.51,2.91.13,3.42,1.52l5.58,13.69c.63,1.27,0,2.91-1.39,3.42-1.39.63-2.91-.13-3.55-1.39l-5.58-13.69ZM270.49,122.17c-1.39-.63-2.03-2.15-1.39-3.55.51-1.39,2.03-2.03,3.42-1.39l13.69,5.7c1.27.51,1.9,2.15,1.39,3.42-.51,1.39-2.15,2.03-3.55,1.52l-13.56-5.7ZM272.65,73.76c-1.27.63-2.91,0-3.42-1.39-.63-1.39.13-2.91,1.39-3.55l13.69-5.58c1.39-.51,2.91.13,3.55,1.52.51,1.39-.13,2.91-1.52,3.42l-13.69,5.58ZM240.08,38.15c-.51,1.27-2.15,1.9-3.42,1.39-1.39-.51-2.03-2.15-1.52-3.55l5.7-13.56c.63-1.39,2.15-2.03,3.55-1.39,1.39.51,2.03,2.03,1.39,3.42l-5.7,13.69ZM170.5,48.79c1.14,1.01,1.14,2.66,0,3.8-1.01,1.01-2.66,1.01-3.8,0l-20.78-20.91c-1.14-1.01-1.14-2.79,0-3.8,1.01-1.01,2.66-1.01,3.8,0l20.78,20.91ZM150.09,92.64c1.52,0,2.79,1.14,2.79,2.66s-1.27,2.66-2.79,2.66h-29.4c-1.52,0-2.79-1.14-2.79-2.66s1.27-2.66,2.79-2.66h29.4ZM166.7,138.02c1.14-1.01,2.79-1.01,3.8,0,1.14,1.14,1.14,2.79,0,3.8l-20.78,20.91c-1.14,1.01-2.79,1.01-3.8,0-1.14-1.01-1.14-2.79,0-3.8l20.78-20.91ZM210.55,158.42c0-1.52,1.27-2.66,2.79-2.66,1.39,0,2.66,1.14,2.66,2.66v29.53c0,1.52-1.27,2.66-2.66,2.66-1.52,0-2.79-1.14-2.79-2.66v-29.53ZM256.04,141.82c-1.01-1.01-1.01-2.66,0-3.8,1.01-1.01,2.66-1.01,3.8,0l20.78,20.91c1.14,1.01,1.14,2.79,0,3.8-1.01,1.01-2.66,1.01-3.8,0l-20.78-20.91ZM276.45,97.97c-1.52,0-2.79-1.14-2.79-2.66s1.27-2.66,2.79-2.66h29.4c1.52,0,2.79,1.14,2.79,2.66s-1.27,2.66-2.79,2.66h-29.4ZM259.85,52.6c-1.14,1.01-2.79,1.01-3.8,0-1.01-1.14-1.01-2.79,0-3.8l20.78-20.91c1.14-1.01,2.79-1.01,3.8,0,1.14,1.01,1.14,2.79,0,3.8l-20.78,20.91Z"/>
      <path class="cls-4" d="M121.15,282.12c11.81-17.52,26.28-3.26,29.13-1.83,19.96,9.37,38.5-3.46,52.35-17.52l12.63-13.44c1.22-1.22,2.24-2.44,3.26-3.67,14.46-15.89-5.3-39.11-21.39-20.57-16.3,18.74-25.46,24.85-31.98,24.24-6.31-.41-15.28-11.41-25.87-23.83-17.72-20.57-40.33-20.57-55.4-20.57-50.11,0-64.98,26.68-71.7,52.55-4.28,15.89,3.06,24.85,21.8,28.52l9.98,2.04-3.87,19.76c-.41,2.04,0,4.07,1.02,5.7,1.22,1.63,2.85,2.85,4.89,3.26l48.89,9.78c2.04.41,4.07,0,5.7-1.22,1.63-1.02,2.85-2.85,3.46-4.89l4.28-20.98c10.8-.81,14.67-9.37,12.83-17.31h0ZM51.49,289.45l49.09,9.37-4.07,20.17h0l-48.89-9.78h-.2l4.07-19.76ZM53.73,258.69l4.89-24.85c.41-2.24,2.44-3.67,4.68-3.06l48.68,9.57c2.24.41,3.46,2.65,3.06,4.68l-4.89,25.26-56.42-11.61Z"/>
      <path class="cls-4" d="M81.43,192.9c17.52,0,31.57-14.26,31.57-31.78s-14.05-31.57-31.57-31.57-31.57,14.26-31.57,31.57,14.05,31.78,31.57,31.78h0Z"/>
    </g>
  </g>
</svg>