<?xml version="1.0" encoding="UTF-8"?>
<svg id="Layer_2" data-name="Layer 2" xmlns="http://www.w3.org/2000/svg" viewBox="0 0 452.12 402.83">
  <defs>
    <style>
      .cls-1 {
        fill: #231f20;
      }

      .cls-2 {
        fill: #f79439;
      }

      .cls-3 {
        fill: #12bdcd;
      }
    </style>
  </defs>
  <g id="Graphics">
    <g>
      <g>
        <path class="cls-1" d="M13.9,212.86c0-1.9.37-3.59,1.11-5.07s1.8-2.62,3.18-3.42,3.01-1.2,4.87-1.2c2.85,0,5.09.88,6.73,2.65s2.46,4.16,2.46,7.2v.21c0,2.96-.82,5.32-2.47,7.06s-3.88,2.61-6.69,2.61-4.88-.81-6.52-2.43-2.53-3.82-2.65-6.6l-.02-1ZM19.83,213.23c0,1.76.28,3.05.83,3.87s1.37,1.23,2.44,1.23c2.11,0,3.19-1.62,3.23-4.87v-.6c0-3.41-1.09-5.12-3.27-5.12-1.98,0-3.05,1.47-3.22,4.41l-.02,1.07Z"/>
        <path class="cls-1" d="M36.42,222.54v-14.91h-2.76v-4.11h2.76v-1.51c0-2.17.64-3.85,1.92-5.04s3.07-1.79,5.38-1.79c.84,0,1.77.12,2.78.37l.02,4.36c-.36-.11-.85-.16-1.46-.16-1.79,0-2.69.77-2.69,2.32v1.46h3.71v4.11h-3.71v14.91h-5.94Z"/>
        <path class="cls-1" d="M69.13,208.88l-1.95-.14c-1.86,0-3.06.59-3.59,1.76v12.04h-5.92v-19.02h5.55l.19,2.44c1-1.86,2.38-2.79,4.17-2.79.63,0,1.18.07,1.65.21l-.11,5.5Z"/>
        <path class="cls-1" d="M80.39,222.89c-2.92,0-5.28-.87-7.08-2.61s-2.71-4-2.71-6.79v-.49c0-1.95.36-3.66,1.08-5.15s1.77-2.64,3.16-3.45,3.02-1.22,4.92-1.22c2.67,0,4.78.83,6.33,2.49s2.32,3.97,2.32,6.93v2.3h-11.78c.21,1.07.67,1.9,1.39,2.51s1.64.91,2.78.91c1.88,0,3.34-.66,4.39-1.97l2.71,3.2c-.74,1.02-1.78,1.83-3.14,2.43s-2.81.91-4.37.91ZM79.72,207.74c-1.73,0-2.77,1.15-3.09,3.45h5.98v-.46c.02-.95-.22-1.68-.72-2.21s-1.22-.78-2.16-.78Z"/>
        <path class="cls-1" d="M101,217.2c0-.5-.26-.91-.79-1.21s-1.53-.62-3.01-.95-2.7-.76-3.66-1.29-1.69-1.18-2.2-1.94-.76-1.63-.76-2.62c0-1.75.72-3.18,2.16-4.32s3.33-1.7,5.66-1.7c2.51,0,4.52.57,6.05,1.71s2.29,2.63,2.29,4.48h-5.94c0-1.52-.8-2.29-2.41-2.29-.62,0-1.14.17-1.56.52s-.63.78-.63,1.29.26.96.77,1.28,1.34.6,2.47.81,2.12.46,2.98.76c2.86.98,4.29,2.75,4.29,5.29,0,1.73-.77,3.15-2.31,4.24s-3.54,1.63-5.99,1.63c-1.63,0-3.08-.29-4.36-.88s-2.27-1.38-2.99-2.39-1.07-2.07-1.07-3.18h5.54c.02.88.32,1.52.88,1.92s1.28.61,2.16.61c.81,0,1.42-.16,1.82-.49s.61-.76.61-1.28Z"/>
        <path class="cls-1" d="M127.39,213.17c0,2.95-.67,5.31-2,7.08s-3.13,2.65-5.39,2.65c-1.75,0-3.18-.64-4.31-1.92v8.88h-5.92v-26.33h5.54l.18,1.76c1.14-1.41,2.63-2.11,4.48-2.11,2.34,0,4.17.86,5.47,2.59s1.95,4.1,1.95,7.13v.28ZM121.46,212.8c0-3.38-.98-5.06-2.95-5.06-1.41,0-2.34.5-2.81,1.51v7.49c.52,1.05,1.46,1.58,2.85,1.58,1.89,0,2.86-1.63,2.92-4.89v-.63Z"/>
        <path class="cls-1" d="M129.5,212.86c0-1.9.37-3.59,1.11-5.07s1.8-2.62,3.18-3.42,3.01-1.2,4.87-1.2c2.85,0,5.09.88,6.73,2.65s2.46,4.16,2.46,7.2v.21c0,2.96-.82,5.32-2.47,7.06s-3.88,2.61-6.69,2.61-4.88-.81-6.52-2.43-2.53-3.82-2.65-6.6l-.02-1ZM135.42,213.23c0,1.76.28,3.05.83,3.87s1.37,1.23,2.44,1.23c2.11,0,3.19-1.62,3.23-4.87v-.6c0-3.41-1.09-5.12-3.27-5.12-1.98,0-3.05,1.47-3.22,4.41l-.02,1.07Z"/>
        <path class="cls-1" d="M156.16,203.52l.19,2.23c1.31-1.72,3.12-2.58,5.43-2.58,1.98,0,3.46.59,4.44,1.78s1.49,2.96,1.52,5.34v12.25h-5.94v-12.01c0-.96-.19-1.67-.58-2.12s-1.09-.68-2.11-.68c-1.16,0-2.02.46-2.58,1.37v13.43h-5.92v-19.02h5.55Z"/>
        <path class="cls-1" d="M170.52,212.89c0-3.01.65-5.38,1.95-7.12s3.12-2.6,5.45-2.6c1.7,0,3.13.67,4.29,2v-9.63h5.94v27h-5.33l-.3-2.04c-1.22,1.59-2.77,2.39-4.64,2.39-2.26,0-4.05-.87-5.38-2.6s-1.99-4.2-1.99-7.4ZM176.45,213.26c0,3.38.98,5.06,2.95,5.06,1.31,0,2.25-.55,2.81-1.65v-7.24c-.54-1.12-1.46-1.69-2.78-1.69-1.83,0-2.82,1.48-2.97,4.43l-.02,1.09Z"/>
        <path class="cls-1" d="M200.97,222.89c-2.92,0-5.28-.87-7.08-2.61s-2.71-4-2.71-6.79v-.49c0-1.95.36-3.66,1.08-5.15s1.77-2.64,3.16-3.45,3.02-1.22,4.92-1.22c2.67,0,4.78.83,6.33,2.49s2.32,3.97,2.32,6.93v2.3h-11.78c.21,1.07.67,1.9,1.39,2.51s1.64.91,2.78.91c1.88,0,3.34-.66,4.39-1.97l2.71,3.2c-.74,1.02-1.78,1.83-3.14,2.43s-2.81.91-4.37.91ZM200.31,207.74c-1.73,0-2.77,1.15-3.09,3.45h5.98v-.46c.02-.95-.22-1.68-.72-2.21s-1.22-.78-2.16-.78Z"/>
        <path class="cls-1" d="M217.06,203.52l.19,2.23c1.31-1.72,3.12-2.58,5.43-2.58,1.98,0,3.46.59,4.44,1.78s1.49,2.96,1.52,5.34v12.25h-5.94v-12.01c0-.96-.19-1.67-.58-2.12s-1.09-.68-2.11-.68c-1.16,0-2.02.46-2.58,1.37v13.43h-5.92v-19.02h5.55Z"/>
        <path class="cls-1" d="M239.08,198.79v4.73h3.13v4.11h-3.13v8.7c0,.71.13,1.21.39,1.49s.77.42,1.53.42c.59,0,1.08-.04,1.48-.11v4.24c-1.07.34-2.18.51-3.34.51-2.04,0-3.54-.48-4.52-1.44s-1.46-2.42-1.46-4.38v-9.44h-2.43v-4.11h2.43v-4.73h5.92Z"/>
        <path class="cls-1" d="M254.75,217.2c0-.5-.26-.91-.79-1.21s-1.53-.62-3.01-.95-2.7-.76-3.66-1.29-1.69-1.18-2.2-1.94-.76-1.63-.76-2.62c0-1.75.72-3.18,2.16-4.32s3.33-1.7,5.66-1.7c2.51,0,4.52.57,6.05,1.71s2.29,2.63,2.29,4.48h-5.94c0-1.52-.8-2.29-2.41-2.29-.62,0-1.14.17-1.56.52s-.63.78-.63,1.29.26.96.77,1.28,1.34.6,2.47.81,2.12.46,2.98.76c2.86.98,4.29,2.75,4.29,5.29,0,1.73-.77,3.15-2.31,4.24s-3.54,1.63-5.99,1.63c-1.63,0-3.08-.29-4.36-.88s-2.27-1.38-2.99-2.39-1.07-2.07-1.07-3.18h5.54c.02.88.32,1.52.88,1.92s1.28.61,2.16.61c.81,0,1.42-.16,1.82-.49s.61-.76.61-1.28Z"/>
        <path class="cls-1" d="M289.12,214.74l1.92-11.21h5.68l-4.48,19.02h-5.01l-3.15-11.29-3.16,11.29h-5.01l-4.48-19.02h5.68l1.88,11.48,3.02-11.48h4.13l2.99,11.21Z"/>
        <path class="cls-1" d="M308.29,222.89c-2.92,0-5.28-.87-7.08-2.61s-2.71-4-2.71-6.79v-.49c0-1.95.36-3.66,1.08-5.15s1.77-2.64,3.16-3.45,3.02-1.22,4.92-1.22c2.67,0,4.78.83,6.33,2.49s2.32,3.97,2.32,6.93v2.3h-11.78c.21,1.07.67,1.9,1.39,2.51s1.64.91,2.78.91c1.88,0,3.34-.66,4.39-1.97l2.71,3.2c-.74,1.02-1.78,1.83-3.14,2.43s-2.81.91-4.37.91ZM307.62,207.74c-1.73,0-2.77,1.15-3.09,3.45h5.98v-.46c.02-.95-.22-1.68-.72-2.21s-1.22-.78-2.16-.78Z"/>
        <path class="cls-1" d="M330.44,208.88l-1.95-.14c-1.86,0-3.06.59-3.59,1.76v12.04h-5.92v-19.02h5.55l.19,2.44c1-1.86,2.38-2.79,4.17-2.79.63,0,1.18.07,1.65.21l-.11,5.5Z"/>
        <path class="cls-1" d="M341.7,222.89c-2.92,0-5.28-.87-7.08-2.61s-2.71-4-2.71-6.79v-.49c0-1.95.36-3.66,1.08-5.15s1.77-2.64,3.16-3.45,3.02-1.22,4.92-1.22c2.67,0,4.78.83,6.33,2.49s2.32,3.97,2.32,6.93v2.3h-11.78c.21,1.07.67,1.9,1.39,2.51s1.64.91,2.78.91c1.88,0,3.34-.66,4.39-1.97l2.71,3.2c-.74,1.02-1.78,1.83-3.14,2.43s-2.81.91-4.37.91ZM341.03,207.74c-1.73,0-2.77,1.15-3.09,3.45h5.98v-.46c.02-.95-.22-1.68-.72-2.21s-1.22-.78-2.16-.78Z"/>
        <path class="cls-3" d="M14.6,241.82c0-.84.3-1.54.91-2.07s1.4-.81,2.37-.81,1.76.27,2.37.81.91,1.23.91,2.07-.3,1.54-.91,2.07-1.4.81-2.37.81-1.76-.27-2.37-.81-.91-1.23-.91-2.07ZM20.9,265.74h-5.94v-19.02h5.94v19.02Z"/>
        <path class="cls-3" d="M30.24,246.72l.19,2.23c1.31-1.72,3.12-2.58,5.43-2.58,1.98,0,3.46.59,4.44,1.78s1.49,2.96,1.52,5.34v12.25h-5.94v-12.01c0-.96-.19-1.67-.58-2.12s-1.09-.68-2.11-.68c-1.16,0-2.02.46-2.58,1.37v13.43h-5.92v-19.02h5.55Z"/>
        <path class="cls-3" d="M46.66,265.74v-14.91h-2.76v-4.11h2.76v-1.51c0-2.17.64-3.85,1.92-5.04s3.07-1.79,5.38-1.79c.84,0,1.77.12,2.78.37l.02,4.36c-.36-.11-.85-.16-1.46-.16-1.79,0-2.69.77-2.69,2.32v1.46h3.71v4.11h-3.71v14.91h-5.94Z"/>
        <path class="cls-3" d="M64.9,265.74h-5.94v-27h5.94v27Z"/>
        <path class="cls-3" d="M80.12,263.69c-1.25,1.61-2.95,2.41-5.08,2.41s-3.67-.61-4.74-1.82-1.61-2.96-1.61-5.23v-12.32h5.92v12.36c0,1.63.79,2.44,2.37,2.44,1.36,0,2.33-.49,2.9-1.46v-13.34h5.96v19.02h-5.55l-.18-2.06Z"/>
        <path class="cls-3" d="M98.55,266.09c-2.92,0-5.28-.87-7.08-2.61s-2.71-4-2.71-6.79v-.49c0-1.95.36-3.66,1.08-5.15s1.77-2.64,3.16-3.45,3.02-1.22,4.92-1.22c2.67,0,4.78.83,6.33,2.49s2.32,3.97,2.32,6.93v2.3h-11.78c.21,1.07.67,1.9,1.39,2.51s1.64.91,2.78.91c1.88,0,3.34-.66,4.39-1.97l2.71,3.2c-.74,1.02-1.78,1.83-3.14,2.43-1.35.6-2.81.91-4.37.91ZM97.88,250.94c-1.73,0-2.77,1.15-3.09,3.45h5.98v-.46c.02-.95-.22-1.68-.72-2.21s-1.22-.78-2.16-.78Z"/>
        <path class="cls-3" d="M114.64,246.72l.19,2.23c1.31-1.72,3.12-2.58,5.43-2.58,1.98,0,3.46.59,4.44,1.78s1.49,2.96,1.52,5.34v12.25h-5.94v-12.01c0-.96-.19-1.67-.58-2.12s-1.09-.68-2.11-.68c-1.16,0-2.02.46-2.58,1.37v13.43h-5.92v-19.02h5.55Z"/>
        <path class="cls-3" d="M137.8,261.52c.83,0,1.48-.23,1.93-.68s.68-1.08.67-1.89h5.55c0,2.09-.75,3.8-2.24,5.13s-3.42,2-5.77,2c-2.77,0-4.95-.87-6.54-2.6s-2.39-4.14-2.39-7.21v-.25c0-1.92.35-3.62,1.06-5.09s1.73-2.6,3.07-3.39,2.92-1.19,4.75-1.19c2.47,0,4.44.69,5.89,2.06s2.18,3.23,2.18,5.57h-5.55c0-.98-.24-1.74-.72-2.27s-1.12-.79-1.93-.79c-1.54,0-2.43.98-2.69,2.94-.08.62-.12,1.48-.12,2.57,0,1.91.23,3.23.69,3.97s1.18,1.11,2.18,1.11Z"/>
        <path class="cls-3" d="M157.91,266.09c-2.92,0-5.28-.87-7.08-2.61s-2.71-4-2.71-6.79v-.49c0-1.95.36-3.66,1.08-5.15s1.77-2.64,3.16-3.45,3.02-1.22,4.92-1.22c2.67,0,4.78.83,6.33,2.49s2.32,3.97,2.32,6.93v2.3h-11.78c.21,1.07.67,1.9,1.39,2.51s1.64.91,2.78.91c1.88,0,3.34-.66,4.39-1.97l2.71,3.2c-.74,1.02-1.78,1.83-3.14,2.43-1.35.6-2.81.91-4.37.91ZM157.25,250.94c-1.73,0-2.77,1.15-3.09,3.45h5.98v-.46c.02-.95-.22-1.68-.72-2.21s-1.22-.78-2.16-.78Z"/>
        <path class="cls-3" d="M167.82,256.09c0-3.01.65-5.38,1.95-7.12s3.12-2.6,5.45-2.6c1.7,0,3.13.67,4.29,2v-9.63h5.94v27h-5.33l-.3-2.04c-1.22,1.59-2.77,2.39-4.64,2.39-2.26,0-4.05-.87-5.38-2.6s-1.99-4.2-1.99-7.4ZM173.74,256.46c0,3.38.98,5.06,2.95,5.06,1.31,0,2.25-.55,2.81-1.65v-7.24c-.54-1.12-1.46-1.69-2.78-1.69-1.83,0-2.82,1.48-2.97,4.43l-.02,1.09Z"/>
        <path class="cls-3" d="M215.94,256.39c0,3.12-.64,5.51-1.93,7.19s-3.11,2.51-5.45,2.51c-1.93,0-3.49-.77-4.68-2.3l-.25,1.95h-5.31v-27h5.92v9.51c1.1-1.25,2.53-1.88,4.27-1.88,2.37,0,4.2.85,5.48,2.55s1.93,4.09,1.93,7.17v.3ZM210,256.01c0-1.82-.24-3.13-.73-3.9s-1.23-1.17-2.24-1.17c-1.34,0-2.26.51-2.78,1.53v7.55c.5,1.01,1.44,1.51,2.81,1.51s2.28-.68,2.65-2.04c.19-.67.28-1.82.28-3.47Z"/>
        <path class="cls-3" d="M226.21,257.45l3.16-10.72h6.35l-7.75,22.2-.33.81c-1.1,2.46-3.05,3.69-5.84,3.69-.77,0-1.59-.12-2.44-.35v-4.22h.77c.83,0,1.47-.12,1.91-.36.44-.24.76-.67.98-1.29l.47-1.27-6.61-19.21h6.33l3.01,10.72Z"/>
        <path class="cls-3" d="M264.38,256.37c0,2.95-.67,5.31-2,7.08s-3.13,2.65-5.39,2.65c-1.75,0-3.18-.64-4.31-1.92v8.88h-5.92v-26.33h5.54l.18,1.76c1.14-1.41,2.63-2.11,4.48-2.11,2.34,0,4.17.86,5.47,2.59s1.95,4.1,1.95,7.13v.28ZM258.46,256c0-3.38-.98-5.06-2.95-5.06-1.41,0-2.34.5-2.81,1.51v7.49c.52,1.05,1.46,1.58,2.85,1.58,1.89,0,2.86-1.63,2.92-4.89v-.63Z"/>
        <path class="cls-3" d="M276.45,266.09c-2.92,0-5.28-.87-7.08-2.61s-2.71-4-2.71-6.79v-.49c0-1.95.36-3.66,1.08-5.15s1.77-2.64,3.16-3.45,3.02-1.22,4.92-1.22c2.67,0,4.78.83,6.33,2.49s2.32,3.97,2.32,6.93v2.3h-11.78c.21,1.07.67,1.9,1.39,2.51s1.64.91,2.78.91c1.88,0,3.34-.66,4.39-1.97l2.71,3.2c-.74,1.02-1.78,1.83-3.14,2.43-1.35.6-2.81.91-4.37.91ZM275.78,250.94c-1.73,0-2.77,1.15-3.09,3.45h5.98v-.46c.02-.95-.22-1.68-.72-2.21s-1.22-.78-2.16-.78Z"/>
        <path class="cls-3" d="M296.3,266.09c-2.92,0-5.28-.87-7.08-2.61s-2.71-4-2.71-6.79v-.49c0-1.95.36-3.66,1.08-5.15s1.77-2.64,3.16-3.45,3.02-1.22,4.92-1.22c2.67,0,4.78.83,6.33,2.49s2.32,3.97,2.32,6.93v2.3h-11.78c.21,1.07.67,1.9,1.39,2.51s1.64.91,2.78.91c1.88,0,3.34-.66,4.39-1.97l2.71,3.2c-.74,1.02-1.78,1.83-3.14,2.43-1.35.6-2.81.91-4.37.91ZM295.63,250.94c-1.73,0-2.77,1.15-3.09,3.45h5.98v-.46c.02-.95-.22-1.68-.72-2.21s-1.22-.78-2.16-.78Z"/>
        <path class="cls-3" d="M318.46,252.08l-1.95-.14c-1.86,0-3.06.59-3.59,1.76v12.04h-5.92v-19.02h5.55l.19,2.44c1-1.86,2.38-2.79,4.17-2.79.63,0,1.18.07,1.65.21l-.11,5.5Z"/>
        <path class="cls-3" d="M330.8,260.4c0-.5-.26-.91-.79-1.21s-1.53-.62-3.01-.95-2.7-.76-3.66-1.29-1.69-1.18-2.2-1.94-.76-1.63-.76-2.62c0-1.75.72-3.18,2.16-4.32s3.33-1.7,5.66-1.7c2.51,0,4.52.57,6.05,1.71s2.29,2.63,2.29,4.48h-5.94c0-1.52-.8-2.29-2.41-2.29-.62,0-1.14.17-1.56.52s-.63.78-.63,1.29.26.96.77,1.28,1.34.6,2.47.81,2.12.46,2.98.76c2.86.98,4.29,2.75,4.29,5.29,0,1.73-.77,3.15-2.31,4.24s-3.54,1.63-5.99,1.63c-1.63,0-3.08-.29-4.36-.88-1.28-.59-2.27-1.38-2.99-2.39s-1.07-2.07-1.07-3.18h5.54c.02.88.32,1.52.88,1.92s1.28.61,2.16.61c.81,0,1.42-.16,1.82-.49s.61-.76.61-1.28Z"/>
        <path class="cls-1" d="M341.62,272.63l-2.99-1.41.6-1.2c.82-1.52,1.25-2.98,1.28-4.36v-4.39h4.75l-.02,3.81c-.01,1.35-.36,2.72-1.04,4.11-.68,1.39-1.54,2.54-2.58,3.43Z"/>
        <path class="cls-1" d="M20.44,291.96c1.27-1.59,2.88-2.39,4.85-2.39,2.1,0,3.68.62,4.75,1.86,1.07,1.24,1.61,3.08,1.63,5.5v12.01h-5.94v-11.87c0-1.01-.21-1.75-.62-2.22s-1.11-.71-2.09-.71c-1.22,0-2.08.39-2.58,1.16v13.64h-5.92v-27h5.92v10.02Z"/>
        <path class="cls-1" d="M35.18,285.02c0-.84.3-1.53.91-2.07.61-.54,1.4-.81,2.37-.81s1.76.27,2.37.81c.61.54.91,1.23.91,2.07s-.3,1.54-.91,2.07c-.61.54-1.4.81-2.37.81s-1.76-.27-2.37-.81c-.61-.54-.91-1.23-.91-2.07ZM41.47,308.94h-5.94v-19.02h5.94v19.02Z"/>
        <path class="cls-1" d="M44.67,299.29c0-1.92.32-3.62.95-5.1s1.54-2.62,2.72-3.42c1.18-.8,2.56-1.2,4.13-1.2,1.98,0,3.53.67,4.64,2l.21-1.65h5.38v18.3c0,1.68-.39,3.13-1.17,4.37s-1.91,2.19-3.38,2.85-3.19.99-5.13.99c-1.39,0-2.75-.26-4.05-.79s-2.31-1.21-3-2.06l2.48-3.48c1.1,1.3,2.55,1.95,4.36,1.95,2.62,0,3.94-1.35,3.94-4.04v-.6c-1.14,1.25-2.57,1.88-4.31,1.88-2.32,0-4.2-.89-5.62-2.66s-2.14-4.15-2.14-7.13v-.21ZM50.62,299.66c0,1.56.29,2.79.88,3.7.59.91,1.41,1.36,2.46,1.36,1.28,0,2.21-.43,2.79-1.28v-8c-.57-.87-1.49-1.3-2.76-1.3-1.05,0-1.88.47-2.48,1.42-.6.94-.9,2.31-.9,4.1Z"/>
        <path class="cls-1" d="M72.12,291.96c1.27-1.59,2.88-2.39,4.85-2.39,2.1,0,3.68.62,4.75,1.86,1.07,1.24,1.61,3.08,1.63,5.5v12.01h-5.94v-11.87c0-1.01-.21-1.75-.62-2.22s-1.11-.71-2.09-.71c-1.22,0-2.08.39-2.58,1.16v13.64h-5.92v-27h5.92v10.02Z"/>
        <path class="cls-1" d="M93.15,308.94h-5.94v-27h5.94v27Z"/>
        <path class="cls-1" d="M97,285.02c0-.84.3-1.53.91-2.07.61-.54,1.4-.81,2.37-.81s1.76.27,2.37.81c.61.54.91,1.23.91,2.07s-.3,1.54-.91,2.07c-.61.54-1.4.81-2.37.81s-1.76-.27-2.37-.81c-.61-.54-.91-1.23-.91-2.07ZM103.3,308.94h-5.94v-19.02h5.94v19.02Z"/>
        <path class="cls-1" d="M106.5,299.29c0-1.92.32-3.62.95-5.1s1.54-2.62,2.72-3.42c1.18-.8,2.56-1.2,4.13-1.2,1.98,0,3.53.67,4.64,2l.21-1.65h5.38v18.3c0,1.68-.39,3.13-1.17,4.37s-1.91,2.19-3.38,2.85-3.19.99-5.13.99c-1.39,0-2.75-.26-4.05-.79s-2.31-1.21-3-2.06l2.48-3.48c1.1,1.3,2.55,1.95,4.36,1.95,2.62,0,3.94-1.35,3.94-4.04v-.6c-1.14,1.25-2.57,1.88-4.31,1.88-2.32,0-4.2-.89-5.62-2.66s-2.14-4.15-2.14-7.13v-.21ZM112.44,299.66c0,1.56.29,2.79.88,3.7.59.91,1.41,1.36,2.46,1.36,1.28,0,2.21-.43,2.79-1.28v-8c-.57-.87-1.49-1.3-2.76-1.3-1.05,0-1.88.47-2.48,1.42-.6.94-.9,2.31-.9,4.1Z"/>
        <path class="cls-1" d="M133.95,291.96c1.27-1.59,2.88-2.39,4.85-2.39,2.1,0,3.68.62,4.75,1.86,1.07,1.24,1.61,3.08,1.63,5.5v12.01h-5.94v-11.87c0-1.01-.21-1.75-.62-2.22s-1.11-.71-2.09-.71c-1.22,0-2.08.39-2.58,1.16v13.64h-5.92v-27h5.92v10.02Z"/>
        <path class="cls-1" d="M155.63,285.19v4.73h3.13v4.11h-3.13v8.7c0,.72.13,1.21.39,1.49s.77.42,1.53.42c.59,0,1.08-.04,1.48-.11v4.24c-1.07.34-2.18.51-3.34.51-2.04,0-3.54-.48-4.52-1.44-.97-.96-1.46-2.42-1.46-4.38v-9.44h-2.43v-4.11h2.43v-4.73h5.92Z"/>
        <path class="cls-1" d="M161.29,285.02c0-.84.3-1.53.91-2.07.61-.54,1.4-.81,2.37-.81s1.76.27,2.37.81c.61.54.91,1.23.91,2.07s-.3,1.54-.91,2.07c-.61.54-1.4.81-2.37.81s-1.76-.27-2.37-.81c-.61-.54-.91-1.23-.91-2.07ZM167.59,308.94h-5.94v-19.02h5.94v19.02Z"/>
        <path class="cls-1" d="M176.93,289.92l.19,2.23c1.31-1.72,3.12-2.58,5.43-2.58,1.98,0,3.46.59,4.44,1.78.98,1.18,1.49,2.97,1.52,5.34v12.25h-5.94v-12.01c0-.96-.19-1.67-.58-2.12-.39-.45-1.09-.68-2.11-.68-1.16,0-2.02.46-2.58,1.37v13.43h-5.92v-19.02h5.55Z"/>
        <path class="cls-1" d="M191.35,299.29c0-1.92.32-3.62.95-5.1s1.54-2.62,2.72-3.42c1.18-.8,2.56-1.2,4.13-1.2,1.98,0,3.53.67,4.64,2l.21-1.65h5.38v18.3c0,1.68-.39,3.13-1.17,4.37s-1.91,2.19-3.38,2.85-3.19.99-5.13.99c-1.39,0-2.75-.26-4.05-.79s-2.31-1.21-3-2.06l2.48-3.48c1.1,1.3,2.55,1.95,4.36,1.95,2.62,0,3.94-1.35,3.94-4.04v-.6c-1.14,1.25-2.57,1.88-4.31,1.88-2.32,0-4.2-.89-5.62-2.66s-2.14-4.15-2.14-7.13v-.21ZM197.29,299.66c0,1.56.29,2.79.88,3.7.59.91,1.41,1.36,2.46,1.36,1.28,0,2.21-.43,2.79-1.28v-8c-.57-.87-1.49-1.3-2.76-1.3-1.05,0-1.88.47-2.48,1.42-.6.94-.9,2.31-.9,4.1Z"/>
        <path class="cls-1" d="M229.12,285.19v4.73h3.13v4.11h-3.13v8.7c0,.72.13,1.21.39,1.49s.77.42,1.53.42c.59,0,1.08-.04,1.48-.11v4.24c-1.07.34-2.18.51-3.34.51-2.04,0-3.54-.48-4.52-1.44-.97-.96-1.46-2.42-1.46-4.38v-9.44h-2.43v-4.11h2.43v-4.73h5.92Z"/>
        <path class="cls-1" d="M240.62,291.96c1.27-1.59,2.88-2.39,4.85-2.39,2.1,0,3.68.62,4.75,1.86,1.07,1.24,1.61,3.08,1.63,5.5v12.01h-5.94v-11.87c0-1.01-.21-1.75-.62-2.22s-1.11-.71-2.09-.71c-1.22,0-2.08.39-2.58,1.16v13.64h-5.92v-27h5.92v10.02Z"/>
        <path class="cls-1" d="M264.6,309.29c-2.92,0-5.28-.87-7.08-2.61s-2.71-4-2.71-6.79v-.49c0-1.94.36-3.66,1.08-5.15.72-1.49,1.77-2.64,3.16-3.45,1.38-.81,3.02-1.22,4.92-1.22,2.67,0,4.78.83,6.33,2.49,1.55,1.66,2.32,3.97,2.32,6.93v2.3h-11.78c.21,1.07.67,1.9,1.39,2.51.71.61,1.64.91,2.78.91,1.88,0,3.34-.66,4.39-1.97l2.71,3.2c-.74,1.02-1.78,1.83-3.14,2.43-1.35.6-2.81.91-4.37.91ZM263.93,294.14c-1.73,0-2.77,1.15-3.09,3.45h5.98v-.46c.02-.95-.22-1.68-.72-2.21-.5-.52-1.22-.78-2.16-.78Z"/>
        <path class="cls-1" d="M294.43,303.6c0-.5-.26-.91-.79-1.21-.53-.3-1.53-.62-3.01-.95-1.48-.33-2.7-.76-3.66-1.29-.96-.53-1.69-1.18-2.2-1.94-.5-.76-.76-1.63-.76-2.62,0-1.75.72-3.18,2.16-4.32,1.44-1.13,3.33-1.7,5.66-1.7,2.51,0,4.52.57,6.05,1.71,1.52,1.14,2.29,2.63,2.29,4.48h-5.94c0-1.52-.8-2.29-2.41-2.29-.62,0-1.14.17-1.56.52-.42.35-.63.78-.63,1.29s.26.96.77,1.28c.52.33,1.34.6,2.47.81s2.12.46,2.98.76c2.86.98,4.29,2.75,4.29,5.29,0,1.73-.77,3.15-2.31,4.24s-3.54,1.63-5.99,1.63c-1.63,0-3.08-.29-4.36-.88-1.28-.59-2.27-1.38-2.99-2.39-.71-1.01-1.07-2.07-1.07-3.18h5.54c.02.88.32,1.52.88,1.92s1.28.61,2.16.61c.81,0,1.42-.16,1.82-.49.4-.33.61-.76.61-1.28Z"/>
        <path class="cls-1" d="M310.06,285.19v4.73h3.13v4.11h-3.13v8.7c0,.72.13,1.21.39,1.49s.77.42,1.53.42c.59,0,1.08-.04,1.48-.11v4.24c-1.07.34-2.18.51-3.34.51-2.04,0-3.54-.48-4.52-1.44-.97-.96-1.46-2.42-1.46-4.38v-9.44h-2.43v-4.11h2.43v-4.73h5.92Z"/>
        <path class="cls-1" d="M327.27,295.28l-1.95-.14c-1.86,0-3.06.59-3.59,1.76v12.04h-5.92v-19.02h5.55l.19,2.44c1-1.86,2.38-2.79,4.17-2.79.63,0,1.18.07,1.65.21l-.11,5.5Z"/>
        <path class="cls-1" d="M328.28,299.26c0-1.9.37-3.59,1.11-5.07.74-1.48,1.8-2.62,3.18-3.42,1.38-.8,3.01-1.2,4.87-1.2,2.85,0,5.09.88,6.73,2.65,1.64,1.76,2.46,4.16,2.46,7.2v.21c0,2.97-.82,5.32-2.47,7.06s-3.88,2.61-6.69,2.61-4.88-.81-6.52-2.43c-1.64-1.62-2.53-3.82-2.65-6.6l-.02-1ZM334.21,299.63c0,1.76.28,3.05.83,3.87.55.82,1.37,1.23,2.44,1.23,2.11,0,3.19-1.62,3.23-4.87v-.6c0-3.41-1.09-5.12-3.27-5.12-1.98,0-3.05,1.47-3.22,4.41l-.02,1.07Z"/>
        <path class="cls-1" d="M354.94,289.92l.19,2.23c1.31-1.72,3.12-2.58,5.43-2.58,1.98,0,3.46.59,4.44,1.78.98,1.18,1.49,2.97,1.52,5.34v12.25h-5.94v-12.01c0-.96-.19-1.67-.58-2.12-.39-.45-1.09-.68-2.11-.68-1.16,0-2.02.46-2.58,1.37v13.43h-5.92v-19.02h5.55Z"/>
        <path class="cls-1" d="M369.36,299.29c0-1.92.32-3.62.95-5.1s1.54-2.62,2.72-3.42c1.18-.8,2.56-1.2,4.13-1.2,1.98,0,3.53.67,4.64,2l.21-1.65h5.38v18.3c0,1.68-.39,3.13-1.17,4.37s-1.91,2.19-3.38,2.85-3.19.99-5.13.99c-1.39,0-2.75-.26-4.05-.79s-2.31-1.21-3-2.06l2.48-3.48c1.1,1.3,2.55,1.95,4.36,1.95,2.62,0,3.94-1.35,3.94-4.04v-.6c-1.14,1.25-2.57,1.88-4.31,1.88-2.32,0-4.2-.89-5.62-2.66s-2.14-4.15-2.14-7.13v-.21ZM375.3,299.66c0,1.56.29,2.79.88,3.7.59.91,1.41,1.36,2.46,1.36,1.28,0,2.21-.43,2.79-1.28v-8c-.57-.87-1.49-1.3-2.76-1.3-1.05,0-1.88.47-2.48,1.42-.6.94-.9,2.31-.9,4.1Z"/>
        <path class="cls-1" d="M400.21,309.29c-2.92,0-5.28-.87-7.08-2.61s-2.71-4-2.71-6.79v-.49c0-1.94.36-3.66,1.08-5.15.72-1.49,1.77-2.64,3.16-3.45,1.38-.81,3.02-1.22,4.92-1.22,2.67,0,4.78.83,6.33,2.49,1.55,1.66,2.32,3.97,2.32,6.93v2.3h-11.78c.21,1.07.67,1.9,1.39,2.51.71.61,1.64.91,2.78.91,1.88,0,3.34-.66,4.39-1.97l2.71,3.2c-.74,1.02-1.78,1.83-3.14,2.43-1.35.6-2.81.91-4.37.91ZM399.54,294.14c-1.73,0-2.77,1.15-3.09,3.45h5.98v-.46c.02-.95-.22-1.68-.72-2.21-.5-.52-1.22-.78-2.16-.78Z"/>
        <path class="cls-1" d="M422.37,295.28l-1.95-.14c-1.86,0-3.06.59-3.59,1.76v12.04h-5.92v-19.02h5.55l.19,2.44c1-1.86,2.38-2.79,4.17-2.79.63,0,1.18.07,1.65.21l-.11,5.5Z"/>
        <path class="cls-1" d="M26.15,338.48l-1.95-.14c-1.86,0-3.06.59-3.59,1.76v12.04h-5.92v-19.02h5.55l.19,2.44c1-1.86,2.38-2.79,4.17-2.79.63,0,1.18.07,1.65.21l-.11,5.5Z"/>
        <path class="cls-1" d="M27.16,342.46c0-1.9.37-3.59,1.11-5.07s1.8-2.62,3.18-3.42,3.01-1.2,4.87-1.2c2.85,0,5.09.88,6.73,2.65s2.46,4.16,2.46,7.2v.21c0,2.96-.82,5.32-2.47,7.06s-3.88,2.61-6.69,2.61-4.88-.81-6.52-2.43-2.53-3.82-2.65-6.6l-.02-1ZM33.08,342.83c0,1.76.28,3.05.83,3.87s1.37,1.23,2.44,1.23c2.11,0,3.19-1.62,3.23-4.87v-.6c0-3.41-1.09-5.12-3.27-5.12-1.98,0-3.05,1.47-3.22,4.41l-.02,1.07Z"/>
        <path class="cls-1" d="M54.62,352.14h-5.94v-27h5.94v27Z"/>
        <path class="cls-1" d="M67.73,352.49c-2.92,0-5.28-.87-7.08-2.61s-2.71-4-2.71-6.79v-.49c0-1.95.36-3.66,1.08-5.15s1.77-2.64,3.16-3.45,3.02-1.22,4.92-1.22c2.67,0,4.78.83,6.33,2.49s2.32,3.97,2.32,6.93v2.3h-11.78c.21,1.07.67,1.9,1.39,2.51s1.64.91,2.78.91c1.88,0,3.34-.66,4.39-1.97l2.71,3.2c-.74,1.02-1.78,1.83-3.14,2.43-1.35.6-2.81.91-4.37.91ZM67.06,337.34c-1.73,0-2.77,1.15-3.09,3.45h5.98v-.46c.02-.95-.22-1.68-.72-2.21s-1.22-.78-2.16-.78Z"/>
        <path class="cls-1" d="M86.84,342.46c0-1.9.37-3.59,1.11-5.07s1.8-2.62,3.18-3.42,3.01-1.2,4.87-1.2c2.85,0,5.09.88,6.73,2.65s2.46,4.16,2.46,7.2v.21c0,2.96-.82,5.32-2.47,7.06s-3.88,2.61-6.69,2.61-4.88-.81-6.52-2.43-2.53-3.82-2.65-6.6l-.02-1ZM92.77,342.83c0,1.76.28,3.05.83,3.87s1.37,1.23,2.44,1.23c2.11,0,3.19-1.62,3.23-4.87v-.6c0-3.41-1.09-5.12-3.27-5.12-1.98,0-3.05,1.47-3.22,4.41l-.02,1.07Z"/>
        <path class="cls-1" d="M109.37,352.14v-14.91h-2.76v-4.11h2.76v-1.51c0-2.17.64-3.85,1.92-5.04s3.07-1.79,5.38-1.79c.84,0,1.77.12,2.78.37l.02,4.36c-.36-.11-.85-.16-1.46-.16-1.79,0-2.69.77-2.69,2.32v1.46h3.71v4.11h-3.71v14.91h-5.94Z"/>
        <path class="cls-2" d="M131.88,352.14v-14.91h-2.76v-4.11h2.76v-1.51c0-2.17.64-3.85,1.92-5.04s3.07-1.79,5.38-1.79c.84,0,1.77.12,2.78.37l.02,4.36c-.36-.11-.85-.16-1.46-.16-1.79,0-2.69.77-2.69,2.32v1.46h3.71v4.11h-3.71v14.91h-5.94Z"/>
        <path class="cls-2" d="M154.58,352.14c-.21-.39-.4-.96-.56-1.71-1.09,1.37-2.61,2.06-4.57,2.06-1.79,0-3.32-.54-4.57-1.63s-1.88-2.45-1.88-4.09c0-2.06.76-3.62,2.29-4.68s3.74-1.58,6.64-1.58h1.83v-1.01c0-1.75-.76-2.63-2.27-2.63-1.41,0-2.11.69-2.11,2.08h-5.92c0-1.84.78-3.33,2.35-4.48s3.56-1.72,5.99-1.72,4.34.59,5.75,1.78,2.13,2.81,2.16,4.87v8.42c.02,1.75.29,3.08.81,4.01v.3h-5.92ZM150.87,348.27c.74,0,1.35-.16,1.84-.47s.83-.67,1.05-1.07v-3.04h-1.72c-2.06,0-3.09.93-3.09,2.78,0,.54.18.98.54,1.31s.83.5,1.39.5Z"/>
        <path class="cls-2" d="M168.82,333.12l.19,2.23c1.35-1.72,3.16-2.58,5.43-2.58,2.4,0,4.03.96,4.87,2.87,1.29-1.91,3.15-2.87,5.59-2.87,3.86,0,5.84,2.33,5.94,7v12.38h-5.94v-12.01c0-.97-.16-1.68-.49-2.13s-.93-.67-1.79-.67c-1.17,0-2.04.52-2.62,1.56l.02.25v12.99h-5.94v-11.97c0-1-.16-1.72-.47-2.16s-.92-.67-1.81-.67c-1.14,0-2,.52-2.6,1.56v13.24h-5.92v-19.02h5.55Z"/>
        <path class="cls-2" d="M194.44,328.22c0-.84.3-1.54.91-2.07s1.4-.81,2.37-.81,1.76.27,2.37.81.91,1.23.91,2.07-.3,1.54-.91,2.07-1.4.81-2.37.81-1.76-.27-2.37-.81-.91-1.23-.91-2.07ZM200.73,352.14h-5.94v-19.02h5.94v19.02Z"/>
        <path class="cls-2" d="M210.88,352.14h-5.94v-27h5.94v27Z"/>
        <path class="cls-2" d="M222.38,343.85l3.16-10.72h6.35l-7.75,22.2-.33.81c-1.1,2.46-3.05,3.69-5.84,3.69-.77,0-1.59-.12-2.44-.35v-4.22h.77c.83,0,1.47-.12,1.91-.36s.76-.67.98-1.29l.47-1.27-6.61-19.21h6.33l3.01,10.72Z"/>
        <path class="cls-2" d="M253.62,352.14c-.21-.39-.4-.96-.56-1.71-1.09,1.37-2.61,2.06-4.57,2.06-1.79,0-3.32-.54-4.57-1.63s-1.88-2.45-1.88-4.09c0-2.06.76-3.62,2.29-4.68s3.74-1.58,6.64-1.58h1.83v-1.01c0-1.75-.76-2.63-2.27-2.63-1.41,0-2.11.69-2.11,2.08h-5.92c0-1.84.78-3.33,2.35-4.48s3.56-1.72,5.99-1.72,4.34.59,5.75,1.78,2.13,2.81,2.16,4.87v8.42c.02,1.75.29,3.08.81,4.01v.3h-5.92ZM249.91,348.27c.74,0,1.35-.16,1.84-.47s.83-.67,1.05-1.07v-3.04h-1.72c-2.06,0-3.09.93-3.09,2.78,0,.54.18.98.54,1.31s.83.5,1.39.5Z"/>
        <path class="cls-2" d="M267.7,333.12l.19,2.23c1.31-1.72,3.12-2.58,5.43-2.58,1.98,0,3.46.59,4.44,1.78s1.49,2.96,1.52,5.34v12.25h-5.94v-12.01c0-.96-.19-1.67-.58-2.12s-1.09-.68-2.11-.68c-1.16,0-2.02.46-2.58,1.37v13.43h-5.92v-19.02h5.55Z"/>
        <path class="cls-2" d="M282.07,342.49c0-3.01.65-5.38,1.95-7.12s3.12-2.6,5.45-2.6c1.7,0,3.13.67,4.29,2v-9.63h5.94v27h-5.33l-.3-2.04c-1.22,1.59-2.77,2.39-4.64,2.39-2.26,0-4.05-.87-5.38-2.6s-1.99-4.2-1.99-7.4ZM287.99,342.86c0,3.38.98,5.06,2.95,5.06,1.31,0,2.25-.55,2.81-1.65v-7.24c-.54-1.12-1.46-1.69-2.78-1.69-1.83,0-2.82,1.48-2.97,4.43l-.02,1.09Z"/>
        <path class="cls-2" d="M330.19,342.77c0,2.95-.67,5.31-2,7.08s-3.13,2.65-5.39,2.65c-1.75,0-3.18-.64-4.31-1.92v8.88h-5.92v-26.33h5.54l.18,1.76c1.14-1.41,2.63-2.11,4.48-2.11,2.34,0,4.17.86,5.47,2.59s1.95,4.1,1.95,7.13v.28ZM324.27,342.4c0-3.38-.98-5.06-2.95-5.06-1.41,0-2.34.5-2.81,1.51v7.49c.52,1.05,1.46,1.58,2.85,1.58,1.89,0,2.86-1.63,2.92-4.89v-.63Z"/>
        <path class="cls-2" d="M342.26,352.49c-2.92,0-5.28-.87-7.08-2.61s-2.71-4-2.71-6.79v-.49c0-1.95.36-3.66,1.08-5.15s1.77-2.64,3.16-3.45,3.02-1.22,4.92-1.22c2.67,0,4.78.83,6.33,2.49s2.32,3.97,2.32,6.93v2.3h-11.78c.21,1.07.67,1.9,1.39,2.51s1.64.91,2.78.91c1.88,0,3.34-.66,4.39-1.97l2.71,3.2c-.74,1.02-1.78,1.83-3.14,2.43-1.35.6-2.81.91-4.37.91ZM341.59,337.34c-1.73,0-2.77,1.15-3.09,3.45h5.98v-.46c.02-.95-.22-1.68-.72-2.21s-1.22-.78-2.16-.78Z"/>
        <path class="cls-2" d="M364.41,338.48l-1.95-.14c-1.86,0-3.06.59-3.59,1.76v12.04h-5.92v-19.02h5.55l.19,2.44c1-1.86,2.38-2.79,4.17-2.79.63,0,1.18.07,1.65.21l-.11,5.5Z"/>
        <path class="cls-2" d="M376.76,346.8c0-.5-.26-.91-.79-1.21s-1.53-.62-3.01-.95-2.7-.76-3.66-1.29-1.69-1.18-2.2-1.94-.76-1.63-.76-2.62c0-1.75.72-3.18,2.16-4.32s3.33-1.7,5.66-1.7c2.51,0,4.52.57,6.05,1.71s2.29,2.63,2.29,4.48h-5.94c0-1.52-.8-2.29-2.41-2.29-.62,0-1.14.17-1.56.52s-.63.78-.63,1.29.26.96.77,1.28,1.34.6,2.47.81,2.12.46,2.98.76c2.86.98,4.29,2.75,4.29,5.29,0,1.73-.77,3.15-2.31,4.24s-3.54,1.63-5.99,1.63c-1.63,0-3.08-.29-4.36-.88-1.28-.59-2.27-1.38-2.99-2.39s-1.07-2.07-1.07-3.18h5.54c.02.88.32,1.52.88,1.92s1.28.61,2.16.61c.81,0,1.42-.16,1.82-.49s.61-.76.61-1.28Z"/>
        <path class="cls-2" d="M384.74,342.46c0-1.9.37-3.59,1.11-5.07s1.8-2.62,3.18-3.42,3.01-1.2,4.87-1.2c2.85,0,5.09.88,6.73,2.65s2.46,4.16,2.46,7.2v.21c0,2.96-.82,5.32-2.47,7.06s-3.88,2.61-6.69,2.61-4.88-.81-6.52-2.43-2.53-3.82-2.65-6.6l-.02-1ZM390.67,342.83c0,1.76.28,3.05.83,3.87s1.37,1.23,2.44,1.23c2.11,0,3.19-1.62,3.23-4.87v-.6c0-3.41-1.09-5.12-3.27-5.12-1.98,0-3.05,1.47-3.22,4.41l-.02,1.07Z"/>
        <path class="cls-2" d="M411.4,333.12l.19,2.23c1.31-1.72,3.12-2.58,5.43-2.58,1.98,0,3.46.59,4.44,1.78s1.49,2.96,1.52,5.34v12.25h-5.94v-12.01c0-.96-.19-1.67-.58-2.12s-1.09-.68-2.11-.68c-1.16,0-2.02.46-2.58,1.37v13.43h-5.92v-19.02h5.55Z"/>
        <path class="cls-2" d="M437.22,352.14c-.21-.39-.4-.96-.56-1.71-1.09,1.37-2.61,2.06-4.57,2.06-1.79,0-3.32-.54-4.57-1.63s-1.88-2.45-1.88-4.09c0-2.06.76-3.62,2.29-4.68s3.74-1.58,6.64-1.58h1.83v-1.01c0-1.75-.76-2.63-2.27-2.63-1.41,0-2.11.69-2.11,2.08h-5.92c0-1.84.78-3.33,2.35-4.48s3.56-1.72,5.99-1.72,4.34.59,5.75,1.78,2.13,2.81,2.16,4.87v8.42c.02,1.75.29,3.08.81,4.01v.3h-5.92ZM433.52,348.27c.74,0,1.35-.16,1.84-.47s.83-.67,1.05-1.07v-3.04h-1.72c-2.06,0-3.09.93-3.09,2.78,0,.54.18.98.54,1.31s.83.5,1.39.5Z"/>
        <path class="cls-2" d="M452.12,352.14h-5.94v-27h5.94v27Z"/>
        <path class="cls-2" d="M13.95,385.69c0-1.92.32-3.62.95-5.1s1.54-2.62,2.72-3.42c1.18-.8,2.56-1.2,4.13-1.2,1.98,0,3.53.67,4.64,2l.21-1.65h5.38v18.3c0,1.68-.39,3.13-1.17,4.37s-1.91,2.19-3.38,2.85-3.19.99-5.13.99c-1.39,0-2.75-.26-4.05-.79s-2.31-1.21-3-2.06l2.48-3.48c1.1,1.3,2.55,1.95,4.36,1.95,2.62,0,3.94-1.35,3.94-4.04v-.6c-1.14,1.25-2.57,1.88-4.31,1.88-2.32,0-4.2-.89-5.62-2.66s-2.14-4.15-2.14-7.13v-.21ZM19.9,386.06c0,1.56.29,2.79.88,3.7.59.91,1.41,1.36,2.46,1.36,1.28,0,2.21-.43,2.79-1.28v-8c-.57-.87-1.49-1.3-2.76-1.3-1.05,0-1.88.47-2.48,1.42-.6.94-.9,2.31-.9,4.1Z"/>
        <path class="cls-2" d="M34.86,385.66c0-1.9.37-3.59,1.11-5.07.74-1.48,1.8-2.62,3.18-3.42,1.38-.8,3.01-1.2,4.87-1.2,2.85,0,5.09.88,6.73,2.65,1.64,1.76,2.46,4.16,2.46,7.2v.21c0,2.97-.82,5.32-2.47,7.06s-3.88,2.61-6.69,2.61-4.88-.81-6.52-2.43c-1.64-1.62-2.53-3.82-2.65-6.6l-.02-1ZM40.78,386.03c0,1.76.28,3.05.83,3.87.55.82,1.37,1.23,2.44,1.23,2.11,0,3.19-1.62,3.23-4.87v-.6c0-3.41-1.09-5.12-3.27-5.12-1.98,0-3.05,1.47-3.22,4.41l-.02,1.07Z"/>
        <path class="cls-2" d="M66.79,395.34c-.21-.39-.4-.95-.56-1.71-1.09,1.37-2.61,2.06-4.57,2.06-1.79,0-3.32-.54-4.57-1.63-1.25-1.08-1.88-2.45-1.88-4.09,0-2.06.76-3.62,2.29-4.68s3.74-1.58,6.64-1.58h1.83v-1.01c0-1.75-.76-2.63-2.27-2.63-1.41,0-2.11.7-2.11,2.08h-5.92c0-1.84.78-3.33,2.35-4.48s3.56-1.72,5.99-1.72,4.34.59,5.75,1.78c1.41,1.18,2.13,2.81,2.16,4.87v8.42c.02,1.75.29,3.08.81,4.01v.3h-5.92ZM63.08,391.47c.74,0,1.35-.16,1.84-.47s.83-.67,1.05-1.07v-3.04h-1.72c-2.06,0-3.09.93-3.09,2.78,0,.54.18.98.54,1.31s.83.5,1.39.5Z"/>
        <path class="cls-2" d="M81.68,395.34h-5.94v-27h5.94v27Z"/>
        <path class="cls-2" d="M95.54,390c0-.5-.26-.91-.79-1.21-.53-.3-1.53-.62-3.01-.95-1.48-.33-2.7-.76-3.66-1.29-.96-.53-1.69-1.18-2.2-1.94-.5-.76-.76-1.63-.76-2.62,0-1.75.72-3.18,2.16-4.32,1.44-1.13,3.33-1.7,5.66-1.7,2.51,0,4.52.57,6.05,1.71,1.52,1.14,2.29,2.63,2.29,4.48h-5.94c0-1.52-.8-2.29-2.41-2.29-.62,0-1.14.17-1.56.52-.42.35-.63.78-.63,1.29s.26.96.77,1.28c.52.33,1.34.6,2.47.81s2.12.46,2.98.76c2.86.98,4.29,2.75,4.29,5.29,0,1.73-.77,3.15-2.31,4.24s-3.54,1.63-5.99,1.63c-1.63,0-3.08-.29-4.36-.88-1.28-.59-2.27-1.38-2.99-2.39-.71-1.01-1.07-2.07-1.07-3.18h5.54c.02.88.32,1.52.88,1.92s1.28.61,2.16.61c.81,0,1.42-.16,1.82-.49.4-.33.61-.76.61-1.28Z"/>
        <path class="cls-2" d="M113.45,371.42c0-.84.3-1.53.91-2.07.61-.54,1.4-.81,2.37-.81s1.76.27,2.37.81c.61.54.91,1.23.91,2.07s-.3,1.54-.91,2.07c-.61.54-1.4.81-2.37.81s-1.76-.27-2.37-.81c-.61-.54-.91-1.23-.91-2.07ZM119.74,395.34h-5.94v-19.02h5.94v19.02Z"/>
        <path class="cls-2" d="M129.08,376.32l.19,2.23c1.31-1.72,3.12-2.58,5.43-2.58,1.98,0,3.46.59,4.44,1.78.98,1.18,1.49,2.97,1.52,5.34v12.25h-5.94v-12.01c0-.96-.19-1.67-.58-2.12-.39-.45-1.09-.68-2.11-.68-1.16,0-2.02.46-2.58,1.37v13.43h-5.92v-19.02h5.55Z"/>
        <path class="cls-2" d="M161.45,391.12c.83,0,1.48-.23,1.93-.68.46-.45.68-1.08.67-1.89h5.55c0,2.09-.75,3.8-2.24,5.13s-3.42,2-5.77,2c-2.77,0-4.95-.87-6.54-2.6-1.59-1.73-2.39-4.14-2.39-7.21v-.25c0-1.92.35-3.62,1.06-5.09.71-1.47,1.73-2.6,3.07-3.39s2.92-1.19,4.75-1.19c2.47,0,4.44.69,5.89,2.06s2.18,3.23,2.18,5.57h-5.55c0-.98-.24-1.74-.72-2.27s-1.12-.79-1.93-.79c-1.54,0-2.43.98-2.69,2.94-.08.62-.12,1.48-.12,2.57,0,1.91.23,3.23.69,3.97s1.18,1.11,2.18,1.11Z"/>
        <path class="cls-2" d="M183.08,395.34c-.21-.39-.4-.95-.56-1.71-1.09,1.37-2.61,2.06-4.57,2.06-1.79,0-3.32-.54-4.57-1.63-1.25-1.08-1.88-2.45-1.88-4.09,0-2.06.76-3.62,2.29-4.68s3.74-1.58,6.64-1.58h1.83v-1.01c0-1.75-.76-2.63-2.27-2.63-1.41,0-2.11.7-2.11,2.08h-5.92c0-1.84.78-3.33,2.35-4.48s3.56-1.72,5.99-1.72,4.34.59,5.75,1.78c1.41,1.18,2.13,2.81,2.16,4.87v8.42c.02,1.75.29,3.08.81,4.01v.3h-5.92ZM179.37,391.47c.74,0,1.35-.16,1.84-.47s.83-.67,1.05-1.07v-3.04h-1.72c-2.06,0-3.09.93-3.09,2.78,0,.54.18.98.54,1.31s.83.5,1.39.5Z"/>
        <path class="cls-2" d="M203.23,381.68l-1.95-.14c-1.86,0-3.06.59-3.59,1.76v12.04h-5.92v-19.02h5.55l.19,2.44c1-1.86,2.38-2.79,4.17-2.79.63,0,1.18.07,1.65.21l-.11,5.5Z"/>
        <path class="cls-2" d="M214.49,395.69c-2.92,0-5.28-.87-7.08-2.61s-2.71-4-2.71-6.79v-.49c0-1.94.36-3.66,1.08-5.15.72-1.49,1.77-2.64,3.16-3.45,1.38-.81,3.02-1.22,4.92-1.22,2.67,0,4.78.83,6.33,2.49,1.55,1.66,2.32,3.97,2.32,6.93v2.3h-11.78c.21,1.07.67,1.9,1.39,2.51.71.61,1.64.91,2.78.91,1.88,0,3.34-.66,4.39-1.97l2.71,3.2c-.74,1.02-1.78,1.83-3.14,2.43-1.35.6-2.81.91-4.37.91ZM213.82,380.54c-1.73,0-2.77,1.15-3.09,3.45h5.98v-.46c.02-.95-.22-1.68-.72-2.21-.5-.52-1.22-.78-2.16-.78Z"/>
        <path class="cls-2" d="M234.34,395.69c-2.92,0-5.28-.87-7.08-2.61s-2.71-4-2.71-6.79v-.49c0-1.94.36-3.66,1.08-5.15.72-1.49,1.77-2.64,3.16-3.45,1.38-.81,3.02-1.22,4.92-1.22,2.67,0,4.78.83,6.33,2.49,1.55,1.66,2.32,3.97,2.32,6.93v2.3h-11.78c.21,1.07.67,1.9,1.39,2.51.71.61,1.64.91,2.78.91,1.88,0,3.34-.66,4.39-1.97l2.71,3.2c-.74,1.02-1.78,1.83-3.14,2.43-1.35.6-2.81.91-4.37.91ZM233.67,380.54c-1.73,0-2.77,1.15-3.09,3.45h5.98v-.46c.02-.95-.22-1.68-.72-2.21-.5-.52-1.22-.78-2.16-.78Z"/>
        <path class="cls-2" d="M256.49,381.68l-1.95-.14c-1.86,0-3.06.59-3.59,1.76v12.04h-5.92v-19.02h5.55l.19,2.44c1-1.86,2.38-2.79,4.17-2.79.63,0,1.18.07,1.65.21l-.11,5.5Z"/>
        <path class="cls-2" d="M267.35,385.69c0-3.01.65-5.38,1.95-7.12,1.3-1.73,3.12-2.6,5.45-2.6,1.7,0,3.13.67,4.29,2v-9.63h5.94v27h-5.33l-.3-2.04c-1.22,1.59-2.77,2.39-4.64,2.39-2.26,0-4.05-.87-5.38-2.6-1.32-1.73-1.99-4.2-1.99-7.4ZM273.27,386.06c0,3.38.98,5.06,2.95,5.06,1.31,0,2.25-.55,2.81-1.65v-7.24c-.54-1.12-1.46-1.69-2.78-1.69-1.83,0-2.82,1.48-2.97,4.43l-.02,1.09Z"/>
        <path class="cls-2" d="M297.8,395.69c-2.92,0-5.28-.87-7.08-2.61s-2.71-4-2.71-6.79v-.49c0-1.94.36-3.66,1.08-5.15.72-1.49,1.77-2.64,3.16-3.45,1.38-.81,3.02-1.22,4.92-1.22,2.67,0,4.78.83,6.33,2.49,1.55,1.66,2.32,3.97,2.32,6.93v2.3h-11.78c.21,1.07.67,1.9,1.39,2.51.71.61,1.64.91,2.78.91,1.88,0,3.34-.66,4.39-1.97l2.71,3.2c-.74,1.02-1.78,1.83-3.14,2.43-1.35.6-2.81.91-4.37.91ZM297.13,380.54c-1.73,0-2.77,1.15-3.09,3.45h5.98v-.46c.02-.95-.22-1.68-.72-2.21-.5-.52-1.22-.78-2.16-.78Z"/>
        <path class="cls-2" d="M316.49,391.12c.83,0,1.48-.23,1.93-.68.46-.45.68-1.08.67-1.89h5.55c0,2.09-.75,3.8-2.24,5.13s-3.42,2-5.77,2c-2.77,0-4.95-.87-6.54-2.6-1.59-1.73-2.39-4.14-2.39-7.21v-.25c0-1.92.35-3.62,1.06-5.09.71-1.47,1.73-2.6,3.07-3.39s2.92-1.19,4.75-1.19c2.47,0,4.44.69,5.89,2.06s2.18,3.23,2.18,5.57h-5.55c0-.98-.24-1.74-.72-2.27s-1.12-.79-1.93-.79c-1.54,0-2.43.98-2.69,2.94-.08.62-.12,1.48-.12,2.57,0,1.91.23,3.23.69,3.97s1.18,1.11,2.18,1.11Z"/>
        <path class="cls-2" d="M327.36,371.42c0-.84.3-1.53.91-2.07.61-.54,1.4-.81,2.37-.81s1.76.27,2.37.81c.61.54.91,1.23.91,2.07s-.3,1.54-.91,2.07c-.61.54-1.4.81-2.37.81s-1.76-.27-2.37-.81c-.61-.54-.91-1.23-.91-2.07ZM333.65,395.34h-5.94v-19.02h5.94v19.02Z"/>
        <path class="cls-2" d="M347.51,390c0-.5-.26-.91-.79-1.21-.53-.3-1.53-.62-3.01-.95-1.48-.33-2.7-.76-3.66-1.29-.96-.53-1.69-1.18-2.2-1.94-.5-.76-.76-1.63-.76-2.62,0-1.75.72-3.18,2.16-4.32,1.44-1.13,3.33-1.7,5.66-1.7,2.51,0,4.52.57,6.05,1.71,1.52,1.14,2.29,2.63,2.29,4.48h-5.94c0-1.52-.8-2.29-2.41-2.29-.62,0-1.14.17-1.56.52-.42.35-.63.78-.63,1.29s.26.96.77,1.28c.52.33,1.34.6,2.47.81s2.12.46,2.98.76c2.86.98,4.29,2.75,4.29,5.29,0,1.73-.77,3.15-2.31,4.24s-3.54,1.63-5.99,1.63c-1.63,0-3.08-.29-4.36-.88-1.28-.59-2.27-1.38-2.99-2.39-.71-1.01-1.07-2.07-1.07-3.18h5.54c.02.88.32,1.52.88,1.92s1.28.61,2.16.61c.81,0,1.42-.16,1.82-.49.4-.33.61-.76.61-1.28Z"/>
        <path class="cls-2" d="M356.2,371.42c0-.84.3-1.53.91-2.07.61-.54,1.4-.81,2.37-.81s1.76.27,2.37.81c.61.54.91,1.23.91,2.07s-.3,1.54-.91,2.07c-.61.54-1.4.81-2.37.81s-1.76-.27-2.37-.81c-.61-.54-.91-1.23-.91-2.07ZM362.49,395.34h-5.94v-19.02h5.94v19.02Z"/>
        <path class="cls-2" d="M365.65,385.66c0-1.9.37-3.59,1.11-5.07.74-1.48,1.8-2.62,3.18-3.42,1.38-.8,3.01-1.2,4.87-1.2,2.85,0,5.09.88,6.73,2.65,1.64,1.76,2.46,4.16,2.46,7.2v.21c0,2.97-.82,5.32-2.47,7.06s-3.88,2.61-6.69,2.61-4.88-.81-6.52-2.43c-1.64-1.62-2.53-3.82-2.65-6.6l-.02-1ZM371.57,386.03c0,1.76.28,3.05.83,3.87.55.82,1.37,1.23,2.44,1.23,2.11,0,3.19-1.62,3.23-4.87v-.6c0-3.41-1.09-5.12-3.27-5.12-1.98,0-3.05,1.47-3.22,4.41l-.02,1.07Z"/>
        <path class="cls-2" d="M392.3,376.32l.19,2.23c1.31-1.72,3.12-2.58,5.43-2.58,1.98,0,3.46.59,4.44,1.78.98,1.18,1.49,2.97,1.52,5.34v12.25h-5.94v-12.01c0-.96-.19-1.67-.58-2.12-.39-.45-1.09-.68-2.11-.68-1.16,0-2.02.46-2.58,1.37v13.43h-5.92v-19.02h5.55Z"/>
        <path class="cls-2" d="M417.37,390c0-.5-.26-.91-.79-1.21-.53-.3-1.53-.62-3.01-.95-1.48-.33-2.7-.76-3.66-1.29-.96-.53-1.69-1.18-2.2-1.94-.5-.76-.76-1.63-.76-2.62,0-1.75.72-3.18,2.16-4.32,1.44-1.13,3.33-1.7,5.66-1.7,2.51,0,4.52.57,6.05,1.71,1.52,1.14,2.29,2.63,2.29,4.48h-5.94c0-1.52-.8-2.29-2.41-2.29-.62,0-1.14.17-1.56.52-.42.35-.63.78-.63,1.29s.26.96.77,1.28c.52.33,1.34.6,2.47.81s2.12.46,2.98.76c2.86.98,4.29,2.75,4.29,5.29,0,1.73-.77,3.15-2.31,4.24s-3.54,1.63-5.99,1.63c-1.63,0-3.08-.29-4.36-.88-1.28-.59-2.27-1.38-2.99-2.39-.71-1.01-1.07-2.07-1.07-3.18h5.54c.02.88.32,1.52.88,1.92s1.28.61,2.16.61c.81,0,1.42-.16,1.82-.49.4-.33.61-.76.61-1.28Z"/>
        <path class="cls-2" d="M429.77,389.59c.94,0,1.72.28,2.34.83.62.56.93,1.27.93,2.14s-.31,1.58-.93,2.14c-.62.56-1.4.83-2.34.83s-1.73-.28-2.35-.84-.92-1.27-.92-2.13.31-1.56.92-2.13,1.4-.84,2.35-.84Z"/>
      </g>
      <g>
        <path class="cls-3" d="M186.52,35.18c0-5.94,4.18-9.37,8.7-9.37s8.7,3.43,8.7,9.37-4.18,9.35-8.7,9.35-8.7-3.43-8.7-9.35ZM198.5,35.18c0-3.09-1.09-5.1-3.28-5.1s-3.28,2.01-3.28,5.1,1.09,5.08,3.28,5.08,3.28-1.99,3.28-5.08Z"/>
        <path class="cls-3" d="M207.79,26.24h4.32l.38,2.26h.13c1.5-1.44,3.3-2.69,5.74-2.69,3.88,0,5.54,2.74,5.54,7.2v11.09h-5.29v-10.41c0-2.57-.69-3.37-2.22-3.37-1.33,0-2.14.62-3.31,1.74v12.05h-5.29v-17.86Z"/>
        <path class="cls-3" d="M228.64,38.55v-19.67h5.29v19.88c0,1.14.53,1.5.96,1.5.2,0,.35,0,.65-.07l.63,3.9c-.58.25-1.45.44-2.66.44-3.63,0-4.87-2.37-4.87-5.98Z"/>
        <path class="cls-3" d="M238.64,50.73l.94-4.03c.33.08.82.23,1.2.23,1.74,0,2.66-.96,3.12-2.34l.27-.93-6.89-17.4h5.32l2.55,7.68c.52,1.62.94,3.31,1.41,5.06h.14c.4-1.69.8-3.38,1.24-5.06l2.17-7.68h5.07l-6.2,18.05c-1.69,4.47-3.6,6.79-7.8,6.79-1.11,0-1.82-.14-2.54-.36Z"/>
      </g>
      <g>
        <path class="cls-3" d="M6.35,106.63c3.44.22,5.16.32,8.59.49,2.57,16,5.49,39.16,7.46,55.15.24,3.18,3.82,5.89,8,5.98h14.47c4.17-.09,7.76-2.8,8-5.98.92-7.49,2.05-16.56,3.26-25.73-.44-3.11-.87-6.14-1.3-9.03-.58-.04-1.19-.08-1.87-.12-4.2-.27-8.14-2.18-10.8-5.24-2.46-2.83-3.65-6.39-3.37-10.03.81-10.33,1.64-19.59,2.44-28.54.8-9.01,1.64-18.32,2.45-28.7.29-3.6,1.92-6.92,4.59-9.36,2.63-2.4,6.04-3.71,9.61-3.71.29,0,.58,0,.87.03,1.32.07,2.65.14,3.98.21-.74-1.29-1.36-2.65-1.87-4.06-7.75.38-15.49.58-23.22.58-8.82,0-17.65-.25-26.51-.74-3.19-.2-5.96,2.16-6.22,5.34C3.28,63.87,1.65,79.69.02,100.4c-.25,3.18,2.59,6,6.34,6.24Z"/>
        <path class="cls-3" d="M37.63,34.05c9.4,0,17.03-7.62,17.03-17.03S47.04,0,37.63,0s-17.02,7.62-17.02,17.02,7.62,17.03,17.02,17.03Z"/>
      </g>
      <path class="cls-3" d="M101.79,29.41c0,9.4-7.62,17.03-17.03,17.03s-17.03-7.62-17.03-17.03,7.62-17.02,17.03-17.02,17.03,7.62,17.03,17.02Z"/>
      <path class="cls-3" d="M122.39,112.78c-1.63-20.71-3.26-36.52-4.89-57.23-.26-3.18-3.03-5.54-6.22-5.34-8.86.49-17.69.74-26.51.74s-17.66-.25-26.51-.74c-3.19-.2-5.96,2.16-6.22,5.34-1.63,20.71-3.26,36.52-4.89,57.23-.25,3.18,2.6,6,6.34,6.24,3.44.22,5.17.32,8.59.49,2.57,16,5.49,39.16,7.46,55.15.24,3.18,3.82,5.9,7.99,5.98h14.47c4.17-.09,7.76-2.8,8-5.98,1.97-15.99,4.89-39.15,7.46-55.15,3.43-.17,5.15-.26,8.59-.49,3.74-.24,6.59-3.05,6.34-6.24Z"/>
      <g>
        <g>
          <path class="cls-2" d="M172.73,128.21c-1.64-20.78-8.73-63.92-10.36-84.69-.26-3.19-3.04-5.56-6.24-5.36-8.88.5-12.29.74-21.15.74s-12.26-.25-21.15-.74c-.78-.05-1.53.06-2.24.29-.47,1.29-1.04,2.54-1.71,3.73,7.09.35,12.97,5.98,13.54,13.11.8,10.17,3.01,26.34,5.14,41.97,2.16,15.79,4.39,32.11,5.22,42.73.28,3.64-.92,7.2-3.37,10.03-2.66,3.07-6.61,4.99-10.84,5.27-.72.05-1.36.09-1.96.12.62,2.37,1.31,4.88,2.09,7.6.24,3.2,3.83,5.92,8.02,6.01h14.52c4.19-.09,7.78-2.81,8.02-6.01,3.45-12.02,5.07-20.21,7.48-28.06,3.44-.17,5.17-.26,8.62-.48,3.76-.24,6.61-3.07,6.36-6.26Z"/>
          <path class="cls-2" d="M134.98.2c-9.43,0-17.08,7.65-17.08,17.08s7.65,17.08,17.08,17.08,17.08-7.65,17.08-17.08S144.42.2,134.98.2Z"/>
        </g>
        <path class="cls-2" d="M131.12,116.26s-.49,5.81-6.27,6.49c-5.79.68-7.32,1.53-10.55,1.36l-3.23-.17,6.55,31.48,20.17,2.39s10.21-27.84,10.21-27.79-2.55-18.85-2.55-18.85l-14.32,5.09Z"/>
      </g>
      <path class="cls-3" d="M222.15,96.4c0-6.48.58-16.35.91-22.83h-.64c-2.57,5.76-5.46,11.4-8.35,17.22l-13.37,22.25h55.22v17.98h-77.82v-16.32l37.21-61.28h28.86v101.91h-22v-58.93Z"/>
      <path class="cls-3" d="M258.29,85.91c0-20.92,10.99-33.06,26.11-33.06s26.11,12.14,26.11,33.06-10.99,33.38-26.11,33.38-26.11-12.4-26.11-33.38ZM294.06,85.91c0-14.86-4.36-19.89-9.66-19.89s-9.66,5.04-9.66,19.89,4.36,20.21,9.66,20.21,9.66-5.36,9.66-20.21ZM344.49,52.85h13.6l-56.47,108.44h-13.6l56.47-108.44ZM335.44,127.91c0-20.92,10.99-33.06,26.11-33.06s26.11,12.14,26.11,33.06-10.99,33.38-26.11,33.38-26.11-12.4-26.11-33.38ZM371.22,127.91c0-14.86-4.36-19.89-9.66-19.89s-9.66,5.04-9.66,19.89,4.36,20.22,9.66,20.22,9.66-5.36,9.66-20.22Z"/>
    </g>
  </g>
</svg>