<?xml version="1.0" encoding="UTF-8"?>
<svg id="Layer_2" data-name="Layer 2" xmlns="http://www.w3.org/2000/svg" viewBox="0 0 738.02 270.98">
  <defs>
    <style>
      .cls-1 {
        fill: none;
      }

      .cls-2 {
        fill: #231f20;
      }

      .cls-3 {
        fill: #f79439;
      }

      .cls-4 {
        fill: #12bdcd;
      }
    </style>
  </defs>
  <g id="Text_Only" data-name="Text Only">
    <g>
      <g>
        <path class="cls-3" d="M0,270.98v-79.21h507.05c16.83,10.43,36.2,15.93,56.11,15.93s39.27-5.5,56.11-15.93h27.08l62.28,47.92c3.84,2.96,8.43,4.52,13.27,4.52,1.66,0,3.3-.19,4.89-.55v27.32H0ZM717.78,191.77h9.01v6.93l-9.01-6.93Z"/>
        <path class="cls-4" d="M732.46,210.27c-.24-.21-.47-.42-.72-.61l-8.57-6.59-19.65,25.53,8.57,6.59c6.17,4.75,14.69,4.33,20.37-.58.81-.7,1.55-1.49,2.23-2.36,5.22-6.8,4.17-16.43-2.23-21.98Z"/>
        <path class="cls-4" d="M721.9,232.87c-2.32,0-4.51-.75-6.35-2.17l-4.07-3.14,12.73-16.55,4.08,3.14c.08.06.15.13.23.2l.23.21c4.17,3.61,4.81,9.87,1.45,14.24-.43.56-.92,1.07-1.45,1.53-1.89,1.64-4.32,2.54-6.84,2.54h0Z"/>
      </g>
      <g>
        <path class="cls-2" d="M24.66,217.85l5.71,17.81,5.7-17.81h8.12v25.59h-6.19v-5.98l.6-12.23-6.19,18.21h-4.08l-6.21-18.23.6,12.25v5.98h-6.17v-25.59h8.1Z"/>
        <path class="cls-2" d="M47.34,233.76c0-1.9.37-3.59,1.11-5.07s1.8-2.62,3.18-3.42c1.38-.8,3.01-1.2,4.87-1.2,2.85,0,5.09.88,6.73,2.65,1.64,1.76,2.46,4.16,2.46,7.2v.21c0,2.96-.82,5.32-2.47,7.06-1.65,1.74-3.88,2.61-6.69,2.61s-4.88-.81-6.52-2.43c-1.64-1.62-2.53-3.82-2.65-6.6l-.02-1ZM53.26,234.13c0,1.76.27,3.05.83,3.87.55.82,1.36,1.23,2.44,1.23,2.11,0,3.19-1.62,3.23-4.87v-.6c0-3.41-1.09-5.12-3.27-5.12-1.98,0-3.05,1.47-3.22,4.41l-.02,1.07Z"/>
        <path class="cls-2" d="M80.06,229.79l-1.95-.14c-1.86,0-3.06.59-3.59,1.76v12.04h-5.92v-19.02h5.55l.19,2.44c1-1.86,2.38-2.79,4.17-2.79.63,0,1.18.07,1.65.21l-.11,5.5Z"/>
        <path class="cls-2" d="M91.31,243.8c-2.92,0-5.28-.87-7.08-2.61s-2.71-4-2.71-6.79v-.49c0-1.95.36-3.66,1.08-5.15s1.77-2.64,3.16-3.45,3.02-1.22,4.92-1.22c2.67,0,4.78.83,6.33,2.49s2.32,3.97,2.32,6.93v2.3h-11.78c.21,1.07.67,1.9,1.39,2.51s1.64.91,2.78.91c1.88,0,3.34-.66,4.39-1.97l2.71,3.2c-.74,1.02-1.78,1.83-3.14,2.43s-2.81.91-4.37.91ZM90.64,228.65c-1.73,0-2.77,1.15-3.09,3.45h5.98v-.46c.02-.95-.22-1.68-.72-2.21s-1.22-.78-2.16-.78Z"/>
        <path class="cls-2" d="M117.62,234.76v8.68h-6.17v-25.59h10.21c1.96,0,3.69.36,5.19,1.08,1.51.72,2.67,1.75,3.5,3.08s1.24,2.84,1.24,4.53c0,2.5-.89,4.49-2.68,5.99-1.79,1.49-4.24,2.24-7.36,2.24h-3.94ZM117.62,230h4.04c1.2,0,2.11-.3,2.73-.9.63-.6.94-1.44.94-2.53,0-1.2-.32-2.15-.97-2.87-.65-.71-1.52-1.08-2.64-1.09h-4.11v7.38Z"/>
        <path class="cls-2" d="M146.37,229.79l-1.95-.14c-1.86,0-3.06.59-3.59,1.76v12.04h-5.92v-19.02h5.55l.19,2.44c1-1.86,2.38-2.79,4.17-2.79.63,0,1.18.07,1.65.21l-.11,5.5Z"/>
        <path class="cls-2" d="M158.94,243.45c-.21-.39-.4-.96-.56-1.71-1.09,1.37-2.61,2.06-4.57,2.06-1.79,0-3.32-.54-4.57-1.63-1.25-1.08-1.88-2.45-1.88-4.09,0-2.06.76-3.62,2.29-4.68,1.52-1.05,3.74-1.58,6.64-1.58h1.83v-1.01c0-1.75-.76-2.63-2.27-2.63-1.41,0-2.11.7-2.11,2.08h-5.92c0-1.84.78-3.33,2.35-4.48,1.56-1.15,3.56-1.72,5.99-1.72s4.34.59,5.75,1.78,2.13,2.81,2.16,4.87v8.42c.02,1.75.29,3.08.81,4.01v.3h-5.92ZM155.23,239.58c.74,0,1.35-.16,1.84-.47.49-.32.83-.67,1.05-1.07v-3.04h-1.72c-2.06,0-3.09.93-3.09,2.78,0,.54.18.98.54,1.31.36.33.83.5,1.39.5Z"/>
        <path class="cls-2" d="M175.63,239.23c.83,0,1.48-.23,1.93-.68s.68-1.08.67-1.89h5.55c0,2.09-.75,3.8-2.24,5.13s-3.42,2-5.77,2c-2.77,0-4.95-.87-6.54-2.6-1.59-1.73-2.39-4.14-2.39-7.21v-.25c0-1.92.35-3.62,1.06-5.09.71-1.47,1.73-2.6,3.07-3.39s2.92-1.19,4.75-1.19c2.47,0,4.44.69,5.89,2.06,1.45,1.37,2.18,3.23,2.18,5.57h-5.55c0-.98-.24-1.74-.72-2.27-.48-.53-1.12-.79-1.93-.79-1.54,0-2.43.98-2.69,2.94-.08.62-.12,1.48-.12,2.57,0,1.91.23,3.23.69,3.97s1.18,1.11,2.18,1.11Z"/>
        <path class="cls-2" d="M193.44,219.7v4.73h3.13v4.11h-3.13v8.7c0,.71.13,1.21.39,1.49.26.28.77.42,1.53.42.59,0,1.08-.04,1.48-.11v4.24c-1.07.34-2.18.51-3.34.51-2.04,0-3.54-.48-4.52-1.44-.97-.96-1.46-2.42-1.46-4.38v-9.44h-2.43v-4.11h2.43v-4.73h5.92Z"/>
        <path class="cls-2" d="M199.11,219.52c0-.84.3-1.54.91-2.07s1.4-.81,2.37-.81,1.76.27,2.37.81.91,1.23.91,2.07-.3,1.54-.91,2.07-1.4.81-2.37.81-1.76-.27-2.37-.81-.91-1.23-.91-2.07ZM205.4,243.45h-5.94v-19.02h5.94v19.02Z"/>
        <path class="cls-2" d="M217.34,239.23c.83,0,1.48-.23,1.93-.68s.68-1.08.67-1.89h5.55c0,2.09-.75,3.8-2.24,5.13s-3.42,2-5.77,2c-2.77,0-4.95-.87-6.54-2.6s-2.39-4.14-2.39-7.21v-.25c0-1.92.35-3.62,1.06-5.09s1.73-2.6,3.07-3.39,2.92-1.19,4.75-1.19c2.47,0,4.44.69,5.89,2.06s2.18,3.23,2.18,5.57h-5.55c0-.98-.24-1.74-.72-2.27s-1.12-.79-1.93-.79c-1.54,0-2.43.98-2.69,2.94-.08.62-.12,1.48-.12,2.57,0,1.91.23,3.23.69,3.97s1.18,1.11,2.18,1.11Z"/>
        <path class="cls-2" d="M238.97,243.45c-.21-.39-.4-.96-.56-1.71-1.09,1.37-2.61,2.06-4.57,2.06-1.79,0-3.32-.54-4.57-1.63s-1.88-2.45-1.88-4.09c0-2.06.76-3.62,2.29-4.68s3.74-1.58,6.64-1.58h1.83v-1.01c0-1.75-.76-2.63-2.27-2.63-1.41,0-2.11.7-2.11,2.08h-5.92c0-1.84.78-3.33,2.35-4.48,1.56-1.15,3.56-1.72,5.99-1.72s4.34.59,5.75,1.78,2.13,2.81,2.16,4.87v8.42c.02,1.75.29,3.08.81,4.01v.3h-5.92ZM235.26,239.58c.74,0,1.35-.16,1.84-.47s.83-.67,1.05-1.07v-3.04h-1.72c-2.06,0-3.09.93-3.09,2.78,0,.54.18.98.54,1.31s.83.5,1.39.5Z"/>
        <path class="cls-2" d="M253.86,243.45h-5.94v-27h5.94v27Z"/>
        <path class="cls-2" d="M286.29,222.62h-7.68v20.83h-6.17v-20.83h-7.54v-4.76h21.39v4.76Z"/>
        <path class="cls-2" d="M299.23,229.79l-1.95-.14c-1.86,0-3.06.59-3.59,1.76v12.04h-5.92v-19.02h5.55l.19,2.44c1-1.86,2.38-2.79,4.17-2.79.63,0,1.18.07,1.65.21l-.11,5.5Z"/>
        <path class="cls-2" d="M311.81,243.45c-.21-.39-.4-.96-.56-1.71-1.09,1.37-2.61,2.06-4.57,2.06-1.79,0-3.32-.54-4.57-1.63-1.25-1.08-1.88-2.45-1.88-4.09,0-2.06.76-3.62,2.29-4.68,1.52-1.05,3.74-1.58,6.64-1.58h1.83v-1.01c0-1.75-.76-2.63-2.27-2.63-1.41,0-2.11.7-2.11,2.08h-5.92c0-1.84.78-3.33,2.35-4.48,1.56-1.15,3.56-1.72,5.99-1.72s4.34.59,5.75,1.78,2.13,2.81,2.16,4.87v8.42c.02,1.75.29,3.08.81,4.01v.3h-5.92ZM308.1,239.58c.74,0,1.35-.16,1.84-.47.49-.32.83-.67,1.05-1.07v-3.04h-1.72c-2.06,0-3.09.93-3.09,2.78,0,.54.18.98.54,1.31.36.33.83.5,1.39.5Z"/>
        <path class="cls-2" d="M320.41,219.52c0-.84.3-1.54.91-2.07.61-.54,1.4-.81,2.37-.81s1.76.27,2.37.81c.61.54.91,1.23.91,2.07s-.31,1.54-.91,2.07c-.61.54-1.4.81-2.37.81s-1.76-.27-2.37-.81c-.61-.54-.91-1.23-.91-2.07ZM326.7,243.45h-5.94v-19.02h5.94v19.02Z"/>
        <path class="cls-2" d="M336.04,224.43l.19,2.23c1.31-1.72,3.12-2.58,5.43-2.58,1.98,0,3.46.59,4.44,1.78.98,1.18,1.49,2.96,1.52,5.34v12.25h-5.94v-12.01c0-.96-.19-1.67-.58-2.12s-1.09-.68-2.11-.68c-1.16,0-2.02.46-2.58,1.37v13.43h-5.92v-19.02h5.55Z"/>
        <path class="cls-2" d="M351.11,219.52c0-.84.3-1.54.91-2.07.61-.54,1.4-.81,2.37-.81s1.76.27,2.37.81c.61.54.91,1.23.91,2.07s-.31,1.54-.91,2.07c-.61.54-1.4.81-2.37.81s-1.76-.27-2.37-.81c-.61-.54-.91-1.23-.91-2.07ZM357.41,243.45h-5.94v-19.02h5.94v19.02Z"/>
        <path class="cls-2" d="M366.75,224.43l.19,2.23c1.31-1.72,3.12-2.58,5.43-2.58,1.98,0,3.46.59,4.44,1.78.98,1.18,1.49,2.96,1.52,5.34v12.25h-5.94v-12.01c0-.96-.19-1.67-.58-2.12s-1.09-.68-2.11-.68c-1.16,0-2.02.46-2.58,1.37v13.43h-5.92v-19.02h5.55Z"/>
        <path class="cls-2" d="M381.17,233.8c0-1.92.32-3.62.95-5.1s1.54-2.62,2.72-3.42,2.56-1.2,4.13-1.2c1.98,0,3.53.67,4.64,2l.21-1.65h5.38v18.3c0,1.68-.39,3.13-1.17,4.37s-1.91,2.19-3.38,2.85-3.19.99-5.13.99c-1.39,0-2.75-.26-4.05-.79s-2.31-1.21-3-2.06l2.48-3.48c1.1,1.3,2.55,1.95,4.36,1.95,2.62,0,3.94-1.35,3.94-4.04v-.6c-1.14,1.25-2.57,1.88-4.31,1.88-2.32,0-4.2-.89-5.62-2.66s-2.14-4.15-2.14-7.13v-.21ZM387.11,234.17c0,1.56.29,2.79.88,3.7s1.41,1.36,2.46,1.36c1.28,0,2.21-.43,2.79-1.28v-8c-.57-.87-1.49-1.3-2.76-1.3-1.05,0-1.88.47-2.48,1.42s-.9,2.31-.9,4.1Z"/>
      </g>
      <g>
        <path class="cls-3" d="M68.68,103.62c0-6.01.54-15.17.84-21.18h-.6c-2.38,5.34-5.06,10.58-7.74,15.98l-12.41,20.64h51.23v16.68H27.8v-15.14l34.52-56.85h26.78v94.55h-20.41v-54.68Z"/>
        <path class="cls-3" d="M114.64,140.64h20.67v-54.7h-17.71v-13.58c10.14-1.93,16.83-4.5,23.46-8.6h16.14v76.89h17.71v17.66h-60.26v-17.66Z"/>
        <path class="cls-3" d="M187.44,90.15c0-19.41,10.2-30.67,24.23-30.67s24.23,11.26,24.23,30.67-10.2,30.97-24.23,30.97-24.23-11.51-24.23-30.97ZM220.63,90.15c0-13.78-4.04-18.46-8.96-18.46s-8.96,4.67-8.96,18.46,4.04,18.76,8.96,18.76,8.96-4.97,8.96-18.76ZM267.42,59.48h12.62l-52.39,100.61h-12.62l52.39-100.61ZM259.03,129.12c0-19.41,10.2-30.67,24.23-30.67s24.23,11.26,24.23,30.67-10.2,30.97-24.23,30.97-24.23-11.51-24.23-30.97ZM292.22,129.12c0-13.78-4.05-18.46-8.96-18.46s-8.96,4.67-8.96,18.46,4.05,18.76,8.96,18.76,8.96-4.97,8.96-18.76Z"/>
      </g>
      <path class="cls-1" d="M617.63,186.1h30.65l-15.48-11.91c-4.66,4.43-9.74,8.42-15.17,11.91Z"/>
      <path class="cls-1" d="M641.67,101.01c0-43.35-35.15-78.5-78.5-78.5s-78.5,35.15-78.5,78.5,35.15,78.5,78.5,78.5,78.5-35.15,78.5-78.5Z"/>
      <path class="cls-4" d="M701.12,186.1l-48.8-37.55c7.57-14.17,11.86-30.35,11.86-47.53,0-55.79-45.23-101.01-101.02-101.01s-101.02,45.23-101.02,101.01c0,35.73,18.55,67.12,46.54,85.08,15.72,10.09,34.41,15.93,54.48,15.93s38.75-5.85,54.47-15.93c5.43-3.49,10.52-7.48,15.17-11.91l15.48,11.91,50.62,38.95,19.65-25.54-17.43-13.41ZM563.16,179.52c-43.36,0-78.5-35.15-78.5-78.5s35.15-78.5,78.5-78.5,78.5,35.15,78.5,78.5-35.15,78.5-78.5,78.5Z"/>
      <g>
        <path class="cls-3" d="M615.39,141.93v-4.73c0-19.79-15.9-35.82-35.68-35.82h-31.12c-19.79,0-35.82,16.03-35.82,35.82v7.38c5.64,6.55,12.54,11.99,20.32,15.93v-25.84h6.23v28.61c7.35,2.81,15.33,4.36,23.67,4.36,9.17,0,17.9-1.86,25.83-5.23v-27.74h6.23v24.7c7.91-4.38,14.82-10.33,20.32-17.43Z"/>
        <path class="cls-3" d="M564.07,97.06c16.73,0,30.3-13.56,30.3-30.3s-13.57-30.3-30.3-30.3-30.3,13.56-30.3,30.3,13.57,30.3,30.3,30.3Z"/>
      </g>
    </g>
  </g>
</svg>