<svg version="1.2" xmlns="http://www.w3.org/2000/svg" viewBox="0 0 738 176" width="738" height="176"><style>tspan{white-space:pre}.a{fill:#f05f25}.b{fill:#fefefe}.c{font-size: 48px;line-height: 56px;fill: #ffffff;font-weight: 900;font-family: "Roboto-Black", "Roboto"}</style><path class="a" d="m176 88.4c0 48.4-39.2 87.6-87.6 87.6-48.3 0-87.5-39.2-87.5-87.6 0-48.4 39.2-87.6 87.5-87.6 48.4 0 87.6 39.2 87.6 87.6z"/><path class="a" d="m733.3 14.1h-555.3c16.8 20.2 26.9 46.1 26.9 74.3 0 29.4-11 56.3-29 76.8h559.2c0.9-1.7 1.5-2.6 2.4-4.3v-139.5c0-4-1.8-7.3-4.2-7.3z"/><path fill-rule="evenodd" class="b" d="m140.8 98.3c0 9.4-3.3 18-8.8 24.9v17.8c0 5.1-4.1 9.3-9.3 9.3h-2.7c-5.1 0-9.3-4.2-9.3-9.3v-3.1c-4.6 1.6-9.6 2.4-14.8 2.4-5.5 0-10.7-0.9-15.6-2.6v3.3c0 5.1-4.1 9.3-9.3 9.3h-2.7c-5.1 0-9.3-4.2-9.3-9.3v-13.1c-19.5-3-26.4-13.1-28.7-18.5h-5.5c-2.9 0-5.2-2.3-5.2-5.2v-9.5c0-2.9 2.3-5.3 5.2-5.3h4.4c1.6-13.1 14.9-13.6 14.9-13.6-3.4-20.7 15.8-20.2 15.8-20.2 2.3 4.1 2.3 10.9 1.8 15.5 5.4-5.8 12.3-10.2 20.3-12.7-4.9-3.7-8-9.6-8-16.2 0-11.3 9.2-20.4 20.5-20.4 11.3 0 20.5 9.1 20.5 20.4 0 6.3-2.8 11.9-7.3 15.7 19.1 4.8 33.1 21.1 33.1 40.4zm-64.2-56.1c0 6.5 3.5 12.2 8.7 15.4 1.6 1 3.3 1.7 5.2 2.1q1.9 0.4 4 0.5 1.9-0.1 3.7-0.4c2.3-0.5 4.3-1.4 6.2-2.6 4.8-3.2 8-8.7 8-15 0-9.8-8-17.9-17.9-17.9-9.9 0-17.9 8.1-17.9 17.9zm38.3 22.6c-3.5-1.9-7.3-3.3-11.3-4.2-2.8 1.4-5.8 2.1-9.1 2.1-3.4 0-6.6-0.8-9.4-2.2-4.1 0.8-8 2.2-11.7 4.1l2.2 4.1c5.6-2.9 12-4.5 18.4-4.5 6.6 0 13.1 1.6 18.7 4.7z"/><path fill-rule="evenodd" class="b" d="m80.2 42.2c0-7.9 6.4-14.2 14.3-14.2 7.9 0 14.3 6.3 14.3 14.2 0 7.3-5.5 13.3-12.5 14.2q-0.9 0.1-1.8 0.1-0.6 0-1.2 0c-7.3-0.6-13.1-6.8-13.1-14.3zm13.9 0.7v4.3q-1.2-0.2-1.6-0.8-0.3-0.5-0.4-1.8h-2.7q-0.1 2.9 1.7 4 0.9 0.7 3 0.9v2h0.9v-2q1.6-0.1 2.8-0.9 1.8-1.1 1.8-3.7 0-1.9-1.3-3-0.9-0.6-3.3-1.5v-3.8q1 0 1.4 0.7 0.2 0.5 0.3 1.4h2.7q-0.1-2.5-1.8-3.6-0.9-0.6-2.6-0.8v-1.3h-0.9v1.3q-1.1 0.1-1.6 0.3-0.9 0.2-1.6 1-0.6 0.5-0.9 1.3-0.3 0.8-0.3 1.7 0 1.4 0.8 2.5 0.8 1 2.7 1.5z"/><text style="transform:matrix(1,0,0,1,255.779,43.651)" ><tspan x="-25.4" y="36" class="c" dx="0 0 0 0 0 0 0 0 0 0 0 0 0 0 0 0 0 0 0" >46% Financial  
</tspan><tspan x="-25.2" y="92" class="c" dx="0 0 0 0 0 0 0 0 0 0 0 0 0 0 0 0" >Support or Scholarships
</tspan></text></svg>
