<svg version="1.2" xmlns="http://www.w3.org/2000/svg" viewBox="0 0 402 87" width="362" height="87"><defs><clipPath clipPathUnits="userSpaceOnUse" id="cp1"><path d="m-1597-1106h2381v1684h-2381z"/></clipPath></defs><style>.a{fill:#f4942c}.b{fill:#fff}.c{fill:#f6f6f6}</style><g clip-path="url(#cp1)"><path class="a" d="m349.4 84.3v-2.6l-2.8-4.7h2.8v-6.8-1.2q-0.7-0.4-1.2-0.9c-1.1-1.1-1.7-2.5-1.7-4.1v-3.6q0-1.5-0.6-2.8-0.6-1.3-1.7-2.3c-3-2.6-5.4-5.9-7-9.5-1.7-3.7-2.5-7.6-2.5-11.6 0-7.6 2.9-14.7 8.3-20q1.3-1.3 2.7-2.4h-337.5c-4 0-7.3 2.7-7.3 6.1v62.5c0 3.4 3.3 6.2 7.3 6.2h344l-1.3-2.3z"/><path fill-rule="evenodd" class="b" d="m248.5 59.1l3-4.3c1.5 1.3 3.3 2.4 5.1 2.4 2.4 0 3.8-1.1 3.8-3.3 0-2.1-1.5-3.2-3.5-3.2-1.3 0-1.9 0.2-3.5 1.2l-2.9-2 0.6-12.9h15v5.7h-9.1l-0.3 3.7c0.9-0.4 1.6-0.4 2.4-0.4 4.4 0 8.1 2.4 8.1 7.8 0 5.6-4.4 8.9-9.5 8.9-4.2 0-7.1-1.5-9.2-3.6zm32.2-10.6c0-1.7 0.1-4.2 0.2-6h-0.2c-0.6 1.6-1.3 3.1-2 4.6l-2.3 4.3h4.3zm9 2.8v5.2h-2.7v5.7h-6.3v-5.7h-10.8v-4.8l8.6-14.8h8.5v14.4zm1.8-7.3c0-5.2 2.8-8.2 6.7-8.2 3.8 0 6.6 3 6.6 8.2 0 5.2-2.8 8.3-6.6 8.3-3.9 0-6.7-3.1-6.7-8.3zm8.6 0c0-3.5-0.9-4.4-1.9-4.4-1.1 0-2 0.9-2 4.4 0 3.5 0.9 4.6 2 4.6 1 0 1.9-1.1 1.9-4.6zm12.9-8.2h3.8l-13.9 26.8h-3.8zm-2 18.6c0-5.2 2.9-8.2 6.7-8.2 3.8 0 6.7 3 6.7 8.2 0 5.2-2.9 8.3-6.7 8.3-3.8 0-6.7-3.1-6.7-8.3zm8.7 0c0-3.5-1-4.5-2-4.5-1 0-2 1-2 4.5 0 3.5 1 4.5 2 4.5 1 0 2-1 2-4.5z"/><path fill-rule="evenodd" class="c" d="m21.2 54.4h5.9v2.6h-9.3v-14h3.4zm13.1 2.6q-0.1-0.3-0.3-0.9-0.9 1.1-2.5 1.1-1.4 0-2.5-0.9-1-0.9-1-2.2 0-1.7 1.2-2.6 1.3-0.9 3.7-0.9h1v-0.5q0-1.5-1.3-1.5-1.1 0-1.1 1.2h-3.3q0-1.5 1.3-2.5 1.3-0.9 3.3-0.9 2 0 3.2 0.9 1.1 1 1.1 2.7v4.6q0.1 1.5 0.5 2.2v0.2zm-2-2.1q0.6 0 1-0.3 0.4-0.2 0.5-0.6v-1.6h-0.9q-1.7 0-1.7 1.5 0 0.4 0.3 0.7 0.3 0.3 0.8 0.3zm11.1-0.2q0.7 0 1.1-0.4 0.3-0.4 0.3-1h3.1q0 1.7-1.3 2.8-1.2 1.1-3.1 1.1-2.3 0-3.6-1.4-1.3-1.5-1.3-4v-0.1q0-1.6 0.6-2.8 0.5-1.2 1.7-1.9 1-0.6 2.6-0.6 2 0 3.2 1.1 1.2 1.1 1.2 3.1h-3.1q0-0.9-0.4-1.3-0.4-0.4-1-0.4-1.3 0-1.5 1.6-0.1 0.5-0.1 1.4 0 1.6 0.4 2.2 0.4 0.6 1.2 0.6zm10.1-1.6l-0.9 0.9v3h-3.2v-14.8h3.2v7.8l0.4-0.4 2.4-3h3.9l-3.7 4.3 3.9 6.1h-3.7zm11.3-1.4q0-1.6 0.6-2.8 0.6-1.2 1.8-1.9 1.1-0.6 2.6-0.6 2.4 0 3.7 1.4 1.4 1.5 1.4 4v0.1q0 2.4-1.4 3.8-1.3 1.5-3.6 1.5-2.3 0-3.6-1.4-1.4-1.3-1.5-3.6zm3.3 0.2q0 1.5 0.4 2.1 0.5 0.7 1.4 0.7 1.7 0 1.8-2.7v-0.3q0-2.8-1.8-2.8-1.7 0-1.8 2.4zm9.1 5.1v-8.1h-1.6v-2.3h1.6v-0.8q0-1.8 1-2.8 1.1-1 3-1 0.7 0 1.5 0.2v2.4q-0.3-0.1-0.8-0.1-1.5 0-1.5 1.3v0.8h2.1v2.3h-2.1v8.1zm15.3 0h-3.4v-14h3.4zm5.3-10.4l0.1 1.2q1.1-1.4 3-1.4 1.6 0 2.4 1 0.8 0.9 0.9 2.9v6.7h-3.3v-6.6q0-0.8-0.3-1.1-0.3-0.4-1.2-0.4-0.9 0-1.4 0.7v7.4h-3.2v-10.4zm8.9 10.4v-8.2h-1.5v-2.2h1.5v-0.9q0-1.7 1.1-2.7 1-1 2.9-1 0.7 0 1.6 0.2v2.4q-0.3-0.1-0.8-0.1-1.5 0-1.5 1.3v0.8h2v2.2h-2v8.2zm6.1-5.3q0-1.6 0.6-2.8 0.6-1.2 1.8-1.9 1.1-0.6 2.6-0.6 2.4 0 3.7 1.4 1.4 1.5 1.4 4v0.1q0 2.4-1.4 3.9-1.3 1.4-3.6 1.4-2.3 0-3.6-1.3-1.4-1.4-1.5-3.7zm3.3 0.2q0 1.5 0.4 2.2 0.5 0.6 1.4 0.6 1.7 0 1.7-2.6v-0.4q0-2.8-1.8-2.8-1.6 0-1.7 2.5zm14.6-2.4l-1-0.1q-1.6 0-2 1v6.6h-3.3v-10.5h3.1l0.1 1.4q0.8-1.6 2.3-1.6 0.5 0 0.9 0.2zm4.3-3l0.1 1.2q1.1-1.4 3-1.4 2 0 2.7 1.6 1-1.6 3.1-1.6 3.1 0 3.2 3.9v6.7h-3.2v-6.5q0-0.8-0.3-1.2-0.3-0.4-1-0.4-1 0-1.4 0.9v0.1 7.1h-3.3v-6.5q0-0.8-0.2-1.2-0.3-0.4-1-0.4-1 0-1.5 0.9v7.2h-3.2v-10.4zm19.9 10.4q-0.2-0.3-0.3-0.9-0.9 1.1-2.5 1.1-1.5 0-2.5-0.9-1.1-0.8-1.1-2.2 0-1.7 1.3-2.6 1.3-0.8 3.6-0.8h1v-0.6q0-1.4-1.2-1.4-1.2 0-1.2 1.1h-3.2q0-1.5 1.3-2.4 1.3-1 3.3-1 2 0 3.1 1 1.2 1 1.2 2.7v4.6q0 1.4 0.4 2.2v0.1zm-2-2.1q0.6 0 1-0.2 0.4-0.3 0.6-0.6v-1.7h-1q-1.6 0-1.6 1.5 0 0.5 0.2 0.8 0.3 0.2 0.8 0.2zm10.5-10.9v2.6h1.7v2.3h-1.7v4.7q0 0.6 0.2 0.9 0.3 0.2 0.9 0.2 0.5 0 0.8-0.1v2.4q-0.9 0.2-1.8 0.2-1.7 0-2.5-0.8-0.8-0.7-0.8-2.4v-5.1h-1.3v-2.3h1.3v-2.6zm3.1-0.1q0-0.7 0.5-1.1 0.5-0.5 1.3-0.5 0.8 0 1.3 0.5 0.5 0.4 0.5 1.1 0 0.7-0.5 1.2-0.5 0.4-1.3 0.4-0.8 0-1.3-0.4-0.5-0.5-0.5-1.2zm3.4 13.1h-3.3v-10.4h3.3zm1.7-5.3q0-1.6 0.6-2.8 0.6-1.2 1.7-1.9 1.2-0.6 2.7-0.6 2.4 0 3.7 1.4 1.4 1.5 1.4 4v0.1q0 2.4-1.4 3.9-1.4 1.4-3.7 1.4-2.2 0-3.5-1.3-1.4-1.4-1.5-3.6zm3.3 0.2q0 1.4 0.4 2.1 0.5 0.7 1.3 0.7 1.8 0 1.8-2.7v-0.3q0-2.9-1.8-2.9-1.6 0-1.7 2.5zm11.3-5.4l0.1 1.3q1.1-1.4 3-1.4 1.6 0 2.4 0.9 0.8 1 0.8 3v6.7h-3.2v-6.6q0-0.8-0.3-1.2-0.4-0.3-1.2-0.3-0.9 0-1.4 0.7v7.4h-3.3v-10.5z"/><path fill-rule="evenodd" class="a" d="m354 67.1h18.9v5.8h-18.9zm0 7.8h18.9v4.6h-18.9zm0.7 6.8h17.5l-2.5 4.3q-0.2 0.3-0.4 0.4-0.3 0.1-0.5 0.1h-10.6q-0.3 0-0.5-0.1h-0.1q-0.2-0.2-0.3-0.4zm25-64.2c4.3 4.3 6.9 10.2 6.9 16.7 0 3.5-0.7 6.8-2 9.7-1.4 3.1-3.4 5.8-5.9 8q-1.9 1.7-2.9 3.9-1 2.2-1 4.7v3.6c0 0.3-0.1 0.6-0.3 0.8-0.2 0.2-0.4 0.3-0.7 0.3h-21.6c-0.3 0-0.6-0.1-0.8-0.3-0.2-0.2-0.3-0.5-0.3-0.8v-3.6q0-2.5-1-4.7-0.9-2.2-2.8-3.9c-2.5-2.2-4.5-4.9-5.9-8-1.3-2.9-2.1-6.2-2.1-9.7 0-6.5 2.7-12.4 7-16.7 4.2-4.3 10.1-6.9 16.7-6.9 6.5 0 12.4 2.6 16.7 6.9zm0.3 12.5c-0.3-0.4-0.7-0.6-1.3-0.6l-2.2-0.1q-0.2-0.7-0.5-1.4-0.3-0.7-0.7-1.4l1.6-1.7c0.3-0.4 0.5-0.8 0.4-1.3 0-0.5-0.1-0.9-0.5-1.3-0.9-0.9-1.9-1.8-2.8-2.8-0.3-0.3-0.8-0.5-1.3-0.5-0.4 0-0.8 0.1-1.2 0.4l-0.1 0.1-1.7 1.5q-0.6-0.4-1.3-0.7-0.8-0.2-1.5-0.5l-0.1-2.2c0-0.5-0.2-1-0.6-1.3-0.3-0.3-0.8-0.5-1.3-0.5h-3.9c-0.5 0-1 0.2-1.3 0.5-0.3 0.3-0.6 0.8-0.6 1.3l-0.1 2.2q-0.7 0.3-1.4 0.5-0.7 0.3-1.4 0.7l-1.7-1.5c-0.3-0.4-0.8-0.5-1.3-0.5-0.5 0-0.9 0.2-1.3 0.5l-2.8 2.8c-0.3 0.4-0.5 0.8-0.5 1.3 0 0.5 0.1 0.9 0.5 1.3l1.5 1.7q-0.3 0.7-0.6 1.4-0.3 0.7-0.5 1.4l-2.3 0.1c-0.5 0-1 0.2-1.3 0.6-0.3 0.3-0.5 0.8-0.5 1.3v3.9c0 0.5 0.2 1 0.5 1.3 0.3 0.4 0.8 0.6 1.3 0.6l2.3 0.1q0.2 0.7 0.5 1.4 0.3 0.7 0.6 1.4l-1.5 1.7c-0.4 0.4-0.5 0.8-0.5 1.3 0 0.5 0.2 1 0.5 1.3 0 0 2.6 2.5 2.8 2.8 0.4 0.3 0.8 0.5 1.3 0.5 0.5 0 1-0.1 1.3-0.5l1.7-1.5q0.7 0.4 1.4 0.7 0.7 0.3 1.4 0.5l0.1 2.2c0 0.5 0.3 1 0.6 1.3 0.3 0.4 0.8 0.6 1.3 0.6h3.9c0.5 0 1-0.3 1.3-0.6 0.4-0.3 0.6-0.8 0.6-1.3l0.1-2.2q0.8-0.2 1.5-0.5 0.7-0.3 1.3-0.7l1.7 1.5c0.4 0.4 0.9 0.5 1.3 0.5 0.5 0 1-0.2 1.3-0.5l2.8-2.8c0.4-0.3 0.5-0.8 0.5-1.3 0.1-0.5-0.1-0.9-0.4-1.3l-1.6-1.7q0.4-0.7 0.7-1.4 0.3-0.7 0.5-1.4l2.2-0.1c0.6 0 1-0.2 1.3-0.6 0.4-0.3 0.6-0.8 0.6-1.3v-3.9c0-0.5-0.2-1-0.6-1.3z"/><path fill-rule="evenodd" class="a" d="m376.3 31.2l2.3 0.1v3.7l-2.3 0.1q-0.6 0.1-1.1 0.4-0.4 0.4-0.6 1-0.2 0.7-0.5 1.3-0.2 0.6-0.6 1.2-0.2 0.6-0.2 1.2 0.1 0.6 0.5 1l1.5 1.7-2.6 2.6-1.6-1.5q-0.5-0.4-1.1-0.5-0.6-0.1-1.1 0.2-0.6 0.3-1.3 0.6-0.6 0.3-1.3 0.5-0.6 0.1-0.9 0.6-0.4 0.5-0.5 1.1l-0.1 2.2h-3.6l-0.1-2.2q-0.1-0.6-0.4-1.1-0.4-0.5-1-0.6-0.7-0.2-1.3-0.5-0.6-0.3-1.2-0.6-0.6-0.3-1.2-0.2-0.6 0.1-1 0.5l-1.7 1.5-2.6-2.6 1.5-1.7q0.4-0.4 0.5-1 0.1-0.6-0.2-1.2-0.4-0.6-0.6-1.2-0.3-0.6-0.5-1.3-0.2-0.6-0.6-1-0.5-0.3-1.1-0.4l-2.3-0.1v-3.7l2.3-0.1q0.6 0 1.1-0.4 0.4-0.3 0.6-0.9 0.2-0.7 0.5-1.3 0.2-0.7 0.6-1.3 0.3-0.5 0.2-1.1-0.1-0.6-0.5-1.1l-1.5-1.6 2.6-2.6 1.7 1.5q0.4 0.4 1 0.5 0.6 0 1.2-0.3 0.6-0.3 1.2-0.6 0.6-0.2 1.3-0.4 0.6-0.2 1-0.7 0.3-0.4 0.4-1.1l0.1-2.2h3.6l0.1 2.2q0.1 0.7 0.5 1.1v0.1q0.4 0.4 0.9 0.6 0.7 0.2 1.3 0.4 0.7 0.3 1.3 0.6 0.5 0.3 1.1 0.3 0.6-0.1 1.1-0.5l1.6-1.5 2.6 2.6-1.5 1.6q-0.4 0.5-0.5 1.1-0.1 0.6 0.2 1.1 0.4 0.6 0.6 1.3 0.3 0.6 0.5 1.3 0.2 0.6 0.6 0.9 0.5 0.4 1.1 0.4zm-4.9 2c0-2.3-0.9-4.4-2.5-6-1.5-1.5-3.6-2.4-5.9-2.4-2.3 0-4.4 0.9-5.9 2.4-1.5 1.6-2.5 3.7-2.5 6 0 2.3 1 4.4 2.5 5.9 1.5 1.5 3.6 2.5 5.9 2.5 2.3 0 4.4-1 5.9-2.5 1.6-1.5 2.5-3.6 2.5-5.9z"/><path fill-rule="evenodd" class="a" d="m367.5 28.7c1.2 1.1 1.9 2.7 1.9 4.5 0 1.7-0.7 3.3-1.9 4.5-1.1 1.1-2.7 1.8-4.5 1.8-1.7 0-3.3-0.7-4.5-1.8-1.1-1.2-1.8-2.8-1.8-4.5 0-1.8 0.7-3.4 1.8-4.5 1.2-1.2 2.8-1.9 4.5-1.9 1.8 0 3.4 0.7 4.5 1.9zm28.7 24.6c-0.3 0.5-0.9 0.7-1.4 0.4l-5.5-3.2c-0.4-0.2-0.6-0.9-0.3-1.3 0.2-0.5 0.9-0.7 1.3-0.4l5.5 3.1c0.5 0.3 0.6 0.9 0.4 1.4z"/><path fill-rule="evenodd" class="a" d="m401.3 34.2c0 0.5-0.5 1-1 1h-6.3c-0.6 0-1-0.5-1-1 0-0.6 0.4-1 1-1h6.3c0.5 0 1 0.4 1 1zm-12.3-15c-0.3-0.5-0.1-1.1 0.3-1.4l5.5-3.1c0.5-0.3 1.1-0.2 1.4 0.3 0.2 0.5 0.1 1.1-0.4 1.4l-5.5 3.2c-0.4 0.2-1.1 0.1-1.3-0.4zm-45.5-16.8c-0.3-0.5-0.1-1.1 0.4-1.4 0.5-0.3 1.1-0.1 1.4 0.4l3.1 5.4c0.3 0.5 0.1 1.1-0.4 1.4-0.5 0.3-1.1 0.1-1.4-0.4z"/></g></svg>
