<svg version="1.2" xmlns="http://www.w3.org/2000/svg" viewBox="0 0 362 87" width="362" height="87"><defs><clipPath clipPathUnits="userSpaceOnUse" id="cp1"><path d="m-1438.09-991.45h2144.08v1516.44h-2144.08z"/></clipPath></defs><style>tspan{white-space:pre}.a{fill:#f4942c}.b{font-size: 50px;fill: #ffffff;font-weight: 900;font-family: "Roboto-Black", "Roboto"}.c{font-size: 22px;fill: #ffffff;font-weight: 900;font-family: "Roboto-Black", "Roboto"}</style><g clip-path="url(#cp1)"><path class="a" d="m314.6 80.4v-2.3l-2.5-4.3h2.5v-6.1-1.1q-0.6-0.3-1-0.8c-1-1-1.6-2.2-1.6-3.7v-3.2q0-1.4-0.5-2.5-0.6-1.2-1.5-2.1c-2.8-2.3-4.9-5.3-6.4-8.6-1.5-3.3-2.2-6.8-2.2-10.4 0-6.8 2.6-13.2 7.5-18q1.1-1.2 2.4-2.2h-303.9c-3.6 0-6.6 2.5-6.6 5.5v56.3c0 3.1 3 5.6 6.6 5.6h309.8l-1.2-2.1z"/><path fill-rule="evenodd" class="a" d="m318.8 64.9h17v5.2h-17zm0 7.1h17v4.1h-17zm0.6 6.1h15.8l-2.3 3.9q-0.2 0.3-0.3 0.4-0.3 0.1-0.5 0.1h-9.5q-0.3 0-0.5-0.1h-0.1q-0.2-0.2-0.3-0.4zm22.6-57.8c3.8 3.9 6.2 9.2 6.2 15 0 3.2-0.7 6.2-1.8 8.8-1.3 2.8-3.1 5.2-5.3 7.2q-1.8 1.5-2.7 3.5-0.9 2-0.9 4.2v3.3c0 0.2 0 0.5-0.2 0.7-0.2 0.2-0.4 0.3-0.7 0.3h-19.4c-0.3 0-0.5-0.1-0.7-0.3-0.2-0.2-0.3-0.5-0.3-0.7v-3.3q0-2.2-0.9-4.2-0.8-2-2.5-3.5c-2.3-2-4.1-4.4-5.3-7.2-1.2-2.6-1.9-5.6-1.9-8.8 0-5.8 2.4-11.1 6.3-15 3.8-3.9 9.1-6.2 15-6.2 5.9 0 11.2 2.3 15.1 6.2zm0.2 11.3c-0.2-0.4-0.6-0.6-1.1-0.6l-2-0.1q-0.2-0.6-0.5-1.2-0.2-0.7-0.6-1.3l1.4-1.5c0.3-0.4 0.5-0.7 0.4-1.2 0-0.4-0.1-0.8-0.5-1.2-0.8-0.8-1.7-1.6-2.5-2.5-0.2-0.3-0.7-0.4-1.1-0.4-0.4 0-0.8 0-1.1 0.3l-0.1 0.1-1.5 1.4q-0.6-0.4-1.2-0.7-0.7-0.2-1.4-0.4l-0.1-2c0-0.5-0.1-0.9-0.5-1.2-0.3-0.2-0.7-0.4-1.2-0.4h-3.5c-0.4 0-0.9 0.2-1.1 0.4-0.3 0.3-0.6 0.7-0.6 1.2l-0.1 2q-0.6 0.2-1.2 0.4-0.7 0.3-1.3 0.7l-1.5-1.4c-0.3-0.4-0.8-0.4-1.2-0.4-0.5 0-0.8 0.1-1.2 0.4l-2.5 2.5c-0.3 0.4-0.4 0.8-0.4 1.2 0 0.5 0 0.8 0.4 1.2l1.4 1.5q-0.3 0.6-0.6 1.3-0.3 0.6-0.4 1.2l-2.1 0.1c-0.5 0-0.9 0.2-1.2 0.6-0.2 0.2-0.4 0.7-0.4 1.1v3.5c0 0.5 0.2 0.9 0.4 1.2 0.3 0.4 0.7 0.5 1.2 0.5l2.1 0.1q0.1 0.7 0.4 1.3 0.3 0.6 0.6 1.3l-1.4 1.5c-0.4 0.4-0.4 0.7-0.4 1.2 0 0.4 0.1 0.9 0.4 1.1 0 0 2.3 2.3 2.5 2.6 0.4 0.2 0.7 0.4 1.2 0.4 0.4 0 0.9-0.1 1.2-0.4l1.5-1.4q0.6 0.4 1.3 0.6 0.6 0.3 1.2 0.5l0.1 2c0 0.4 0.3 0.9 0.6 1.1 0.2 0.4 0.7 0.6 1.1 0.6h3.5c0.5 0 0.9-0.3 1.2-0.6 0.4-0.2 0.5-0.7 0.5-1.1l0.1-2q0.8-0.2 1.4-0.5 0.6-0.2 1.2-0.6l1.5 1.4c0.3 0.3 0.8 0.4 1.2 0.4 0.4 0 0.9-0.2 1.1-0.4l2.5-2.6c0.4-0.2 0.5-0.7 0.5-1.1 0.1-0.5-0.1-0.8-0.4-1.2l-1.4-1.5q0.4-0.7 0.6-1.3 0.3-0.6 0.5-1.3l2-0.1c0.5 0 0.9-0.1 1.1-0.5 0.4-0.3 0.6-0.7 0.6-1.2v-3.5c0-0.4-0.2-0.9-0.6-1.1z"/><text style="transform:matrix(1,0,0,1,6,70)" ><tspan x="0" y="0" class="b">5</tspan><tspan  y="0" class="b">4</tspan><tspan  y="0" class="b">%
</tspan></text><text style="transform:matrix(1,0,0,1,110,43)" ><tspan x="0" y="0" class="c">S</tspan><tspan  y="0" class="c">t</tspan><tspan  y="0" class="c">r</tspan><tspan  y="0" class="c">u</tspan><tspan  y="0" class="c">g</tspan><tspan  y="0" class="c">g</tspan><tspan  y="0" class="c">l</tspan><tspan  y="0" class="c">e</tspan><tspan  y="0" class="c"> </tspan><tspan  y="0" class="c">W</tspan><tspan  y="0" class="c">i</tspan><tspan  y="0" class="c">t</tspan><tspan  y="0" class="c">h</tspan><tspan  y="0" class="c"> </tspan><tspan  y="0" class="c">
</tspan><tspan x="0" y="26.4" class="c">L</tspan><tspan  y="26.4" class="c">a</tspan><tspan  y="26.4" class="c">c</tspan><tspan  y="26.4" class="c">k</tspan><tspan  y="26.4" class="c"> </tspan><tspan  y="26.4" class="c">O</tspan><tspan  y="26.4" class="c">f</tspan><tspan  y="26.4" class="c"> </tspan><tspan  y="26.4" class="c">I</tspan><tspan  y="26.4" class="c">n</tspan><tspan  y="26.4" class="c">f</tspan><tspan  y="26.4" class="c">o</tspan><tspan  y="26.4" class="c">r</tspan><tspan  y="26.4" class="c">m</tspan><tspan  y="26.4" class="c">a</tspan><tspan  y="26.4" class="c">t</tspan><tspan  y="26.4" class="c">i</tspan><tspan  y="26.4" class="c">o</tspan><tspan  y="26.4" class="c">n</tspan><tspan  y="26.4" class="c"> 
</tspan></text><path fill-rule="evenodd" class="a" d="m338.9 32.6l2 0.1v3.3l-2 0.1q-0.6 0.1-1 0.4-0.4 0.3-0.6 0.9-0.2 0.6-0.4 1.1-0.2 0.6-0.6 1.1-0.1 0.6-0.1 1.1 0 0.5 0.4 0.9l1.4 1.5-2.4 2.4-1.4-1.4q-0.5-0.3-1-0.4-0.6-0.1-1 0.2-0.5 0.2-1.2 0.5-0.5 0.3-1.1 0.4-0.6 0.1-0.9 0.6-0.3 0.4-0.4 1l-0.1 2h-3.2l-0.1-2q-0.1-0.6-0.4-1-0.4-0.5-0.9-0.6-0.6-0.1-1.2-0.4-0.5-0.3-1-0.5-0.6-0.3-1.1-0.2-0.6 0.1-0.9 0.4l-1.6 1.4-2.3-2.4 1.4-1.5q0.3-0.4 0.4-0.9 0.1-0.5-0.2-1.1-0.3-0.5-0.5-1.1-0.3-0.5-0.5-1.1-0.1-0.6-0.5-0.9-0.5-0.3-1-0.4l-2.1-0.1v-3.3l2.1-0.1q0.5 0 1-0.4 0.4-0.2 0.5-0.8 0.2-0.6 0.5-1.1 0.2-0.7 0.5-1.2 0.3-0.5 0.2-1-0.1-0.5-0.4-1l-1.4-1.4 2.3-2.4 1.6 1.4q0.3 0.3 0.9 0.4 0.5 0 1.1-0.2 0.5-0.3 1-0.6 0.6-0.2 1.2-0.3 0.5-0.2 0.9-0.7 0.3-0.3 0.4-1l0.1-1.9h3.2l0.1 1.9q0.1 0.7 0.4 1v0.1q0.4 0.4 0.9 0.6 0.6 0.1 1.1 0.3 0.7 0.3 1.2 0.6 0.4 0.2 1 0.2 0.5-0.1 1-0.4l1.4-1.4 2.4 2.4-1.4 1.4q-0.4 0.5-0.4 1-0.1 0.5 0.1 1 0.4 0.5 0.6 1.2 0.2 0.5 0.4 1.1 0.2 0.6 0.6 0.8 0.4 0.4 1 0.4zm-4.5 1.8c0-2.1-0.8-4-2.2-5.4-1.4-1.4-3.2-2.2-5.3-2.2-2.1 0-4 0.8-5.3 2.2-1.4 1.4-2.3 3.3-2.3 5.4 0 2.1 0.9 4 2.3 5.3 1.3 1.4 3.2 2.3 5.3 2.3 2.1 0 3.9-0.9 5.3-2.3 1.4-1.3 2.2-3.2 2.2-5.3z"/><path fill-rule="evenodd" class="a" d="m330.9 30.3c1.1 1 1.7 2.5 1.7 4.1 0 1.5-0.6 3-1.7 4.1-1 0.9-2.4 1.6-4 1.6-1.6 0-3-0.7-4.1-1.6-1-1.1-1.6-2.6-1.6-4.1 0-1.6 0.6-3.1 1.6-4.1 1.1-1 2.5-1.7 4.1-1.7 1.6 0 3 0.7 4 1.7zm25.9 22.2c-0.3 0.4-0.8 0.6-1.3 0.4l-4.9-2.9c-0.4-0.2-0.6-0.8-0.3-1.2 0.2-0.4 0.8-0.6 1.2-0.4l4.9 2.8c0.5 0.3 0.6 0.8 0.4 1.3z"/><path fill-rule="evenodd" class="a" d="m360.5 34.4h-5.7c-0.5 0-0.9 0.4-0.9 0.9 0 0.4 0.4 0.9 0.9 0.9h5.7c0.4 0 0.9-0.5 0.9-0.9 0-0.5-0.5-0.9-0.9-0.9zm-9-12.2l4.9-2.9c0.5-0.3 0.6-0.8 0.4-1.3-0.3-0.4-0.8-0.5-1.3-0.3l-4.9 2.8c-0.4 0.3-0.6 0.8-0.3 1.3 0.2 0.4 0.8 0.5 1.2 0.4zm-39.4-10.7c0.3 0.5 0.8 0.7 1.3 0.4 0.4-0.3 0.6-0.8 0.3-1.3l-2.8-4.8c-0.2-0.5-0.8-0.7-1.2-0.4-0.5 0.3-0.6 0.8-0.4 1.3z"/></g></svg>