<?xml version="1.0" encoding="UTF-8"?>
<svg id="Layer_2" data-name="Layer 2" xmlns="http://www.w3.org/2000/svg" viewBox="0 0 737.91 370.92">
  <defs>
    <style>
      .cls-1 {
        fill: #231f20;
      }

      .cls-2 {
        fill: #fff;
      }

      .cls-3 {
        fill: #f79439;
      }

      .cls-4 {
        fill: #537dbf;
        opacity: .15;
      }

      .cls-5 {
        fill: #12bdcd;
      }
    </style>
  </defs>
  <g id="Graphics">
    <g>
      <rect class="cls-3" x="74.65" y="222.58" width="663.26" height="132.11"/>
      <g>
        <path class="cls-5" d="M138.4,157.29c0-35.37,19.38-52.28,40.29-52.28,13.84,0,23.99,5.84,30.45,12.3l-13.84,15.69c-3.07-3.38-9.23-6.77-14.76-6.77-10.3,0-18.14,7.69-18.14,31.06s7.53,29.22,13.53,29.22c5.54,0,10.46-3.23,10.46-13.53,0-9.38-5.23-11.69-10.77-11.69-4.61,0-9.38,2.46-12.92,9.23l-1.23-16.61c4.61-7.07,13.69-11.07,19.38-11.07,16.61,0,29.53,9.23,29.53,30.14s-15.38,33.22-33.83,33.22-38.14-13.53-38.14-48.9Z"/>
        <path class="cls-5" d="M218.98,134.23c0-19.99,11.07-31.68,25.83-31.68s25.84,11.69,25.84,31.68-11.07,31.99-25.84,31.99-25.83-12-25.83-31.99ZM252.5,134.23c0-13.53-3.69-17.22-7.69-17.22s-7.69,3.69-7.69,17.22,3.69,17.53,7.69,17.53,7.69-4,7.69-17.53ZM302.02,102.55h14.76l-53.51,103.65h-14.76l53.51-103.65ZM294.33,174.21c0-19.99,11.07-31.68,25.83-31.68s25.84,11.69,25.84,31.68-11.07,31.99-25.84,31.99-25.83-12-25.83-31.99ZM327.85,174.21c0-13.53-3.69-17.22-7.69-17.22s-7.69,3.69-7.69,17.22,3.69,17.53,7.69,17.53,7.69-4,7.69-17.53Z"/>
      </g>
      <g>
        <path class="cls-1" d="M199.14,274.84h7.2l11.28,34.6h-6.5l-5.27-18.41c-1.1-3.66-2.12-7.61-3.13-11.41h-.21c-.95,3.83-1.97,7.74-3.07,11.41l-5.31,18.41h-6.26l11.28-34.6ZM194.53,295.25h16.29v4.81h-16.29v-4.81Z"/>
        <path class="cls-1" d="M219.59,314.16c0-2.19,1.35-4.1,3.75-5.54v-.21c-1.33-.87-2.35-2.24-2.35-4.34s1.38-3.79,2.88-4.85v-.21c-1.78-1.31-3.43-3.79-3.43-6.86,0-5.97,4.82-9.33,10.26-9.33,1.44,0,2.79.25,3.85.63h9.29v4.53h-4.74c.85.97,1.48,2.58,1.48,4.36,0,5.78-4.38,8.87-9.88,8.87-1.1,0-2.35-.23-3.51-.69-.78.67-1.27,1.32-1.27,2.49,0,1.46,1.06,2.35,4.21,2.35h4.62c6.21,0,9.51,1.93,9.51,6.41,0,5.12-5.38,9.16-13.86,9.16-6.2,0-10.81-2.22-10.81-6.77ZM238.38,312.76c0-2.01-1.61-2.6-4.58-2.6h-3.56c-1.4,0-2.52-.11-3.51-.36-1.4,1.06-2.01,2.22-2.01,3.43,0,2.37,2.54,3.75,6.62,3.75s7.05-1.97,7.05-4.21ZM235.21,292.15c0-3.26-1.97-5.12-4.51-5.12s-4.51,1.84-4.51,5.12,2.01,5.23,4.51,5.23,4.51-1.93,4.51-5.23Z"/>
        <path class="cls-1" d="M248.88,283.45h4.99l.46,4.63h.17c1.85-3.39,4.6-5.27,7.38-5.27,1.32,0,2.16.17,2.94.53l-1.06,5.29c-.91-.25-1.59-.42-2.67-.42-2.07,0-4.57,1.42-6.14,5.38v15.85h-6.09v-25.99Z"/>
        <path class="cls-1" d="M265.48,275.41c0-2.07,1.5-3.45,3.66-3.45s3.66,1.38,3.66,3.45-1.5,3.49-3.66,3.49-3.66-1.38-3.66-3.49ZM266.07,283.45h6.09v25.99h-6.09v-25.99Z"/>
        <path class="cls-1" d="M278.22,296.47c0-8.65,6.12-13.65,13.04-13.65,3.3,0,5.71,1.27,7.6,2.92l-2.96,3.96c-1.38-1.21-2.69-1.9-4.32-1.9-4.19,0-7.09,3.47-7.09,8.68s2.86,8.63,6.9,8.63c2.03,0,3.89-1,5.38-2.24l2.48,4.02c-2.43,2.16-5.52,3.2-8.49,3.2-7.09,0-12.53-4.99-12.53-13.61Z"/>
        <path class="cls-1" d="M304.08,299.75v-16.29h6.1v15.51c0,4.27,1.23,5.88,4.04,5.88,2.29,0,3.79-1.06,5.76-3.6v-17.8h6.09v25.99h-4.99l-.46-3.83h-.17c-2.29,2.71-4.8,4.46-8.36,4.46-5.57,0-8-3.77-8-10.33Z"/>
        <path class="cls-1" d="M333.79,302.75v-30.68h6.1v31c0,1.5.68,2.03,1.31,2.03.28,0,.49,0,.95-.11l.76,4.55c-.74.3-1.76.53-3.22.53-4.32,0-5.9-2.79-5.9-7.32Z"/>
        <path class="cls-1" d="M349.04,300.68v-12.38h-3.7v-4.57l4.02-.28.72-7.09h5.06v7.09h6.62v4.85h-6.62v12.37c0,3.06,1.18,4.56,3.68,4.56.89,0,1.95-.3,2.71-.59l1.04,4.49c-1.42.47-3.23.95-5.31.95-5.99,0-8.21-3.79-8.21-9.4Z"/>
        <path class="cls-1" d="M366.94,299.75v-16.29h6.09v15.51c0,4.27,1.23,5.88,4.04,5.88,2.29,0,3.79-1.06,5.76-3.6v-17.8h6.1v25.99h-4.99l-.47-3.83h-.17c-2.29,2.71-4.8,4.46-8.36,4.46-5.56,0-8-3.77-8-10.33Z"/>
        <path class="cls-1" d="M396.65,283.45h4.99l.46,4.63h.17c1.85-3.39,4.6-5.27,7.38-5.27,1.32,0,2.16.17,2.94.53l-1.06,5.29c-.91-.25-1.59-.42-2.67-.42-2.07,0-4.57,1.42-6.14,5.38v15.85h-6.09v-25.99Z"/>
        <path class="cls-1" d="M414.14,296.47c0-8.44,5.86-13.65,11.98-13.65,7.03,0,10.73,5.08,10.73,12.34,0,1.16-.13,2.33-.26,2.96h-16.5c.51,4.61,3.47,7.24,7.66,7.24,2.22,0,4.13-.7,6.03-1.88l2.07,3.79c-2.48,1.67-5.61,2.81-8.91,2.81-7.17,0-12.8-5.04-12.8-13.61ZM431.58,293.97c0-4-1.78-6.43-5.33-6.43-3.03,0-5.69,2.26-6.22,6.43h11.55Z"/>
      </g>
      <g>
        <g id="Circle">
          <path class="cls-4" d="M164.58,288.63c0,45.44-36.85,82.29-82.29,82.29-45.44,0-82.29-36.85-82.29-82.29s36.85-82.29,82.29-82.29c45.44,0,82.29,36.85,82.29,82.29Z"/>
          <path class="cls-3" d="M150.86,288.63c0,37.87-30.71,68.57-68.57,68.57s-68.57-30.71-68.57-68.57c0-37.87,30.7-68.58,68.57-68.58,37.87,0,68.57,30.71,68.57,68.58Z"/>
        </g>
        <g>
          <path class="cls-2" d="M60.53,301.91c-3.38,0-6.12,2.76-6.12,6.15s2.74,6.12,6.12,6.12,6.15-2.74,6.15-6.12c0-3.39-2.76-6.15-6.15-6.15Z"/>
          <path class="cls-2" d="M60.53,288.01c-11.06,0-20.03,8.96-20.03,20.03,0,11.07,8.97,20.05,20.03,20.05,11.09,0,20.05-8.97,20.05-20.05,0-11.07-8.96-20.03-20.05-20.03ZM60.53,316.92c-4.9,0-8.86-3.98-8.86-8.86s3.97-8.89,8.86-8.89,8.89,3.98,8.89,8.89c0,4.88-3.99,8.86-8.89,8.86Z"/>
          <path class="cls-2" d="M115.85,312.31c-1.82,0-3.31,1.48-3.31,3.31s1.48,3.29,3.31,3.29,3.28-1.48,3.28-3.29-1.47-3.31-3.28-3.31Z"/>
          <path class="cls-2" d="M115.85,303.15c-6.89,0-12.49,5.6-12.49,12.46s5.6,12.49,12.49,12.49c6.89,0,12.46-5.58,12.46-12.49,0-6.86-5.57-12.46-12.46-12.46ZM115.85,321.65c-3.33,0-6.05-2.7-6.05-6.04s2.72-6.05,6.05-6.05,6.02,2.72,6.02,6.05-2.7,6.04-6.02,6.04Z"/>
          <path class="cls-2" d="M115.85,300.4c3.73,0,7.18,1.36,9.82,3.61,0-.35,0-8.62,0-8.16v-.7c0-7.16-7.45-7.5-7.59-7.57-12.6-1.93-26.51-4.27-27.21-3.98-.14.06-16.15,6.81-16.01,6.75,5.65,4.68,8.45,11.08,8.45,17.7,0,1.47-.14,2.91-.41,4.29h18.07c1.5-6.82,7.6-11.94,14.87-11.94Z"/>
          <path class="cls-2" d="M113.36,253.92c0-2.62-2.14-4.75-4.75-4.75h-54.39c-2.69,0-4.73,2.33-4.47,4.95.23,2.25,2.28,4.02,4.65,4.02h2.4v21.71h-9.26c-.75,0-1.37.6-1.37,1.37,0,.75.62,1.37,1.37,1.37h9.26v2.98c5.58-.89,10.9.24,15.38,2.92l4.42-1.85c-3.87-3.28-8.62-5.53-13.83-6.38v-22.12h17.47s5.16,24.79,5.16,24.79c2.51-.87,4.78-2.45,6.42-2.15l-5.54-22.64h22.45c2.41,0,4.46-1.81,4.64-4.23Z"/>
          <path class="cls-2" d="M110.06,272.11c.75,0,1.37-.6,1.37-1.37v-5.38c0-.75-.62-1.37-1.37-1.37h-2.88c-3.9,0-7.05,3.17-7.05,7.07v8.16h-.22c-1.86,0-1.28,2.19-1.37,2.58l11.09,1.7v-2.91c0-.77-.62-1.37-1.37-1.37v-7.11h1.81Z"/>
        </g>
      </g>
      <g>
        <path class="cls-3" d="M614.48,29.55c0-1.87,1.53-3.4,3.4-3.4h7.05c1.87,0,3.4,1.53,3.4,3.4s-1.53,3.4-3.4,3.4h-7.05c-1.87,0-3.4-1.5-3.4-3.4Z"/>
        <path class="cls-5" d="M534.41,162.05c0,4.56-2.93,8.44-7.01,9.87v10.83c0,1.91-1.53,3.4-3.4,3.4s-3.4-1.5-3.4-3.4v-10.83c-4.12-1.4-7.08-5.31-7.08-9.87s5.79-14.54,7.52-17.5c1.23-2.08,4.63-2.08,5.86,0,1.77,2.96,7.52,13,7.52,17.5Z"/>
        <path class="cls-5" d="M580.92,135.84v-20.66h-21.75v14.5c-11.17-2.52-21.01-3.71-28.97-4.22v-27.88h79.7v50.76c-10.04-5.24-19.78-9.29-28.97-12.49Z"/>
        <path class="cls-3" d="M619.28,189.35c.58,1.19.41,2.62-.48,3.64l-3.06,3.68v12.56c0,1.87-1.53,3.4-3.4,3.4h-4.63c-1.02,0-1.97-.44-2.62-1.23l-7.49-8.99h-2.25v18.86c0,1.87-1.5,3.4-3.4,3.4h-11.75c-1.87,0-3.4-1.53-3.4-3.4v-11.61h-14.5v11.61c0,1.87-1.53,3.4-3.4,3.4h-12.05c-1.87,0-3.4-1.53-3.4-3.4v-36.29c-.34.07-2.59-.44-2.59,1.36v18.21c0,1.87-1.53,3.4-3.4,3.4s-3.4-1.53-3.4-3.4v-18.21c0-4.49,3.68-8.17,8.17-8.17h52.29c.78,0,1.53.24,2.11.72l10.96,8.61,8.58-.1c1.33-.1,2.59.72,3.13,1.94Z"/>
        <path class="cls-3" d="M513.61,88.55c-.51-1.33-.1-2.86.95-3.78l53.28-45.58c1.26-1.09,3.13-1.09,4.43,0l53.24,45.58c1.09.92,1.46,2.45.99,3.78-.51,1.33-1.77,2.21-3.2,2.21h-106.52c-1.4,0-2.69-.89-3.17-2.21Z"/>
        <path class="cls-3" d="M632.15,29.55c0-6.57,5.34-11.92,11.92-11.92s11.92,5.34,11.92,11.92-5.34,11.92-11.92,11.92-11.92-5.34-11.92-11.92Z"/>
        <path class="cls-5" d="M670.62,168.04c1.77,3,7.56,13.04,7.56,17.53s-2.96,8.48-7.08,9.87c-.68,6.37,1.97,14.23-3.4,14.23-1.87,0-3.4-1.53-3.4-3.4v-10.83c-4.09-1.43-7.05-5.31-7.05-9.87s5.75-14.54,7.52-17.53c1.23-2.04,4.63-2.08,5.86,0Z"/>
        <path class="cls-3" d="M623.16,13.48c-1.33-1.33-1.33-3.51,0-4.83,1.33-1.33,3.47-1.33,4.8,0l4.97,4.97c1.33,1.33,1.33,3.47,0,4.8-1.28,1.34-3.49,1.38-4.8,0l-4.97-4.94Z"/>
        <path class="cls-3" d="M632.94,40.68c1.33,1.36,1.33,3.51,0,4.83l-4.97,4.97c-1.27,1.27-3.45,1.35-4.8,0-1.33-1.33-1.33-3.51,0-4.83l4.97-4.97c1.33-1.33,3.47-1.33,4.8,0Z"/>
        <path class="cls-3" d="M640.66,10.42V3.4c0-1.91,1.53-3.4,3.4-3.4s3.4,1.5,3.4,3.4v7.01c0,1.87-1.53,3.4-3.4,3.4s-3.4-1.53-3.4-3.4Z"/>
        <path class="cls-3" d="M660.17,50.49l-4.97-4.97c-1.33-1.33-1.33-3.47,0-4.83,1.33-1.33,3.47-1.33,4.83,0l4.94,4.97c1.33,1.33,1.33,3.51,0,4.83-1.27,1.27-3.36,1.36-4.8,0Z"/>
        <path class="cls-3" d="M687.98,148.64v-38.03l-11-11c-3.19-3.19,1.66-7.98,4.83-4.8l6.16,6.16v-7.32c0-1.87,1.53-3.4,3.4-3.4s3.4,1.53,3.4,3.4v17.91l6.16-6.16c1.36-1.33,3.51-1.33,4.83,0,1.33,1.33,1.33,3.51,0,4.83l-11,11v28.32c-2.21-.37-4.49-.68-6.81-.92Z"/>
        <path class="cls-3" d="M721.04,183.05c1.74,2.96,7.49,13,7.49,17.5s-2.93,8.48-7.01,9.91v10.83c0,1.87-1.53,3.4-3.4,3.4s-3.4-1.53-3.4-3.4v-10.83c-4.12-1.4-7.08-5.31-7.08-9.91s5.79-14.54,7.52-17.5c.61-1.06,1.74-1.67,2.93-1.67s2.32.61,2.96,1.67Z"/>
        <path class="cls-3" d="M644.07,45.31c1.87,0,3.4,1.53,3.4,3.4v7.01c0,1.87-1.53,3.4-3.4,3.4s-3.4-1.53-3.4-3.4v-7.01c0-1.87,1.53-3.4,3.4-3.4Z"/>
        <path class="cls-3" d="M732.38,173.18c-.65,1.09-1.77,1.7-2.96,1.7-.58,0-1.16-.14-1.7-.44-31.69-18.45-83.71-13.52-104.48-10.55,2.42,1.53,4.83,3.13,7.25,4.8,1.57,1.06,1.94,3.2.88,4.73-1.09,1.53-3.2,1.94-4.77.85-59.1-40.92-114.12-35.2-114.66-35.13-1.84.2-3.57-1.16-3.78-3.03-.2-1.84,1.12-3.54,3-3.74,2.14-.24,48.58-5.04,103.05,26.08,10.32-1.91,77.11-13.07,116.94,10.11,1.63.95,2.18,3.03,1.23,4.63Z"/>
        <path class="cls-3" d="M663.23,26.15h7.01c1.87,0,3.4,1.53,3.4,3.4s-1.53,3.4-3.4,3.4h-7.01c-1.91,0-3.4-1.5-3.4-3.4s1.5-3.4,3.4-3.4Z"/>
        <path class="cls-5" d="M702.01,69.86c18.18-5.96,33.77,13.92,24.21,30.1,10.99,15.05.34,36.87-18.89,36.87-1.94,0-3.85-.24-5.72-.72v-12.05l9.02-9.02c7.03-7.09.69-19.01-9.02-17.29v-4.09c0-5.62-4.6-10.21-10.21-10.21-3.4,0-6.43,1.67-8.27,4.26-10.6-3.94-18.6,9.18-10.93,16.72l8.99,9.02v20.63c-.34-.2-.68-.41-1.02-.65-2.42,1.02-5.04,1.53-7.69,1.53-11.2,0-20.32-9.12-20.32-20.32,0-6.54,3.23-12.66,8.44-16.41-1.6-3.37-2.42-7.05-2.42-10.79,0-23.16,28.37-33.93,43.85-17.57Z"/>
        <path class="cls-3" d="M655.2,18.42c-1.33-1.33-1.33-3.47,0-4.8l4.97-4.97c1.33-1.33,3.47-1.33,4.8,0,1.33,1.33,1.33,3.51,0,4.83l-4.94,4.94c-1.32,1.32-3.43,1.4-4.83,0Z"/>
      </g>
      <g>
        <rect class="cls-3" x="458.82" y="162.46" width="13.44" height="13.41"/>
        <path class="cls-3" d="M509.27,173.79c-36.03-36.01-41.77-41.75-42.06-42.04h0c-.89-.86-2.48-.86-3.37,0-.08.08-.14.14-.2.2-.07.07-.16.16-.27.27-.05.05-.09.09-.11.11-2.11,2.11-10.86,10.85-41.48,41.46-.91.93-.91,2.41,0,3.32.91.91,2.38.91,3.29,0l7.24-7.24v56.81c0,1.31,1.05,2.34,2.34,2.34h19v-23.3c0-1.29,1.05-2.34,2.34-2.34h19.05c1.31,0,2.34,1.05,2.34,2.34v23.3h19.02c1.29,0,2.34-1.03,2.34-2.34v-56.81l7.24,7.24c.93.93,2.42.87,3.3,0,.91-.91.91-2.38,0-3.32ZM467.55,132.08s-.06-.06-.09-.09c.03.03.06.06.09.09ZM467.76,132.3s-.02-.02-.02-.02c0,0,.01.01.02.02ZM463.6,132l-.09.09s.06-.06.09-.09ZM476.93,178.21c0,1.31-1.03,2.34-2.34,2.34h-18.11c-1.29,0-2.34-1.03-2.34-2.34v-18.09c0-1.29,1.05-2.34,2.34-2.34h18.11c1.31,0,2.34,1.05,2.34,2.34v18.09Z"/>
        <path class="cls-3" d="M391.36,122.66c0-.68.07-1.36.21-2.01-16.73,1.66-26.8,5-30,9.95-2.88,4.47-.25,11.43,6.87,11.43s17.6-5.96,26.34-11.94c-2.1-1.8-3.41-4.46-3.41-7.43Z"/>
        <path class="cls-3" d="M407.64,115.25c5.29-11.48,13.96-33.46,1.47-35.66-12.39-2.19-11.79,21.17-10.77,33.65,3.08-.95,6.66-.31,9.3,2.01Z"/>
        <path class="cls-3" d="M405.14,131.68c24.11,33.68,32.65,18.31,31.27,12.13-1.31-5.84-9.84-12.55-25.42-19.96-.42,3.51-2.71,6.45-5.84,7.83Z"/>
        <path class="cls-3" d="M421.78,224.33h-7.66l-6.22-81.42c-1.73-2.06-3.53-4.35-5.37-6.87-.3.02-.61.02-.91.02-1.99,0-3.88-.4-5.61-1.17-.02,0-.02.02-.05.02l-6.85,89.41h-7.64c-1.29,0-2.34,1.05-2.34,2.34s1.05,2.34,2.34,2.34h40.31c1.29,0,2.34-1.03,2.34-2.34s-1.05-2.34-2.34-2.34Z"/>
        <circle class="cls-3" cx="401.19" cy="122.66" r="5.18"/>
      </g>
    </g>
  </g>
</svg>