<svg version="1.2" xmlns="http://www.w3.org/2000/svg" viewBox="0 0 506 84" width="506" height="84"><defs><clipPath clipPathUnits="userSpaceOnUse" id="cp1"><path d="m-1597-1200h2381v1684h-2381z"/></clipPath></defs><style>tspan{white-space:pre}.a{fill:#e95413}.b{font-size: 58px;fill: #ffffff;font-weight: 900;font-family: "Roboto-Black", "Roboto"}.c{font-size: 22px;fill: #ffffff;font-weight: 900;font-family: "Roboto-Black", "Roboto"}</style><g clip-path="url(#cp1)"><path fill-rule="evenodd" class="a" d="m442.2 55.3q0-1.4-0.9-2.2-0.6-0.5-1.9-1v6.3q1.2-0.2 1.8-0.6 1-0.7 1-2.5zm-4.4-13.6q-1.4 0-2 0.7-0.2 0.2-0.3 0.5-0.4 0.6-0.4 1.5 0 1.3 1 2.1 0.6 0.4 1.7 0.8zm53.4-11.1c-1.4 10.5-8 19.3-17.2 23.6-0.9 8.2-4.5 15.5-9.8 21.1 4.3 3.1 9.6 5 15.4 5 14.5 0 26.2-11.7 26.2-26.2 0-10.3-6-19.2-14.6-23.5z"/><path class="a" d="m468 30.7c3.7 5.4 5.9 11.8 6.1 18.8 7.3-4.1 12.3-11.7 13.1-20.4q0.1-1.2 0.1-2.3c0-14.5-11.7-26.2-26.2-26.2-10.2 0-19 5.9-23.3 14.4q0.4 0 0.7 0c12.3 0 23.1 6.2 29.5 15.7z"/><path class="a" d="m438.5 73c7 0 13.2-3.2 17.3-8.1 1.9-2.3 3.3-4.9 4.2-7.9q0.6-1.9 0.8-4.1 0.1-1.1 0.1-2.3c0-4.1-1-7.9-2.9-11.2-3.9-6.7-11.1-11.2-19.5-11.2q-1.8 0-3.5 0.3-2.1 0.3-4 1c-8.7 3.1-14.9 11.4-14.9 21.1 0 12.4 10.1 22.4 22.4 22.4zm-3.7-18.7q0.2 2 0.6 2.7 0.6 1.1 2.4 1.4v-6.8l-1.3-0.4q-3-0.9-4.3-2.5-1.2-1.6-1.2-3.8 0-1.5 0.5-2.7 0.5-1.2 1.3-2.1 0.4-0.4 0.8-0.7 0.8-0.6 1.8-0.9 0.7-0.2 2.2-0.3 0.1 0 0.2-0.1v-2.1h1.6v2.2q2.6 0.2 4 1.3 2.7 1.7 2.8 5.5h-3.9-0.3q0-0.2 0-0.4-0.1-1.1-0.4-1.7-0.6-1-2-1.2-0.1 0-0.2 0v6.1q3.8 1.3 5.1 2.3 1.5 1.2 2 3.2 0.1 0.7 0.1 1.5 0 4-2.9 5.8-1.8 1.1-4.3 1.3v3.2h-1.6v-3.1q-3.1-0.4-4.7-1.4-2.7-1.8-2.6-6.3z"/><path class="a" d="m438.5 82.8c9.1 0 17.2-3.7 23.1-9.7 4.5-4.7 7.7-10.7 8.8-17.5q0.3-2.2 0.4-4.5 0-0.2 0-0.5c0-6.8-2.1-13.1-5.7-18.2-5.8-8.5-15.6-14-26.6-14q-1.1 0-2.2 0-2.3 0.2-4.5 0.7c-14.5 3-25.5 16-25.5 31.5 0 17.8 14.5 32.2 32.2 32.2zm-7.5-59.2q2.1-0.5 4.3-0.8 1.6-0.2 3.2-0.2c9.7 0 18.2 4.9 23.3 12.4 3 4.5 4.7 9.8 4.7 15.6q0 0.9 0 1.8-0.2 2.2-0.7 4.3c-1.1 5.1-3.6 9.6-7.1 13.2-5.1 5.3-12.2 8.7-20.2 8.7-15.4 0-28-12.6-28-28 0-12.8 8.7-23.7 20.5-27z"/><path class="a" d="m401.6 50.6c0-17.3 12.3-32.5 29.3-36.1q1-0.2 2.1-0.4l0.6-1.2q1-2 2.3-3.8h-419.1c-8.8 0-15.9 2.7-15.9 6.1v62.6c0 3.4 7.1 6.1 15.9 6.1h406c-12.5-5.9-21.2-18.6-21.2-33.3z"/><text style="transform:matrix(1,0,0,1,5,68)" ><tspan x="0" y="0" class="b">7</tspan><tspan  y="0" class="b">2</tspan><tspan  y="0" class="b">%</tspan><tspan  y="0" class="b">
</tspan></text><text style="transform:matrix(1,0,0,1,119,42)" ><tspan x="0" y="0" class="c">F</tspan><tspan  y="0" class="c">a</tspan><tspan  y="0" class="c">c</tspan><tspan  y="0" class="c">e</tspan><tspan  y="0" class="c"> </tspan><tspan  y="0" class="c">F</tspan><tspan  y="0" class="c">i</tspan><tspan  y="0" class="c">n</tspan><tspan  y="0" class="c">a</tspan><tspan  y="0" class="c">n</tspan><tspan  y="0" class="c">c</tspan><tspan  y="0" class="c">i</tspan><tspan  y="0" class="c">a</tspan><tspan  y="0" class="c">l</tspan><tspan  y="0" class="c">
</tspan><tspan x="0" y="26.4" class="c">B</tspan><tspan  y="26.4" class="c">a</tspan><tspan  y="26.4" class="c">r</tspan><tspan  y="26.4" class="c">r</tspan><tspan  y="26.4" class="c">i</tspan><tspan  y="26.4" class="c">e</tspan><tspan  y="26.4" class="c">r</tspan><tspan  y="26.4" class="c">s</tspan><tspan  y="26.4" class="c"> </tspan><tspan  y="26.4" class="c">T</tspan><tspan  y="26.4" class="c">o</tspan><tspan  y="26.4" class="c"> </tspan><tspan  y="26.4" class="c">A</tspan><tspan  y="26.4" class="c">t</tspan><tspan  y="26.4" class="c">t</tspan><tspan  y="26.4" class="c">e</tspan><tspan  y="26.4" class="c">n</tspan><tspan  y="26.4" class="c">d</tspan><tspan  y="26.4" class="c">i</tspan><tspan  y="26.4" class="c">n</tspan><tspan  y="26.4" class="c">g</tspan><tspan  y="26.4" class="c"> </tspan><tspan  y="26.4" class="c">T</tspan><tspan  y="26.4" class="c">V</tspan><tspan  y="26.4" class="c">E</tspan><tspan  y="26.4" class="c">T
</tspan></text></g></svg>