<svg version="1.2" xmlns="http://www.w3.org/2000/svg" viewBox="0 0 506 84" width="506" height="84"><defs><clipPath clipPathUnits="userSpaceOnUse" id="cp1"><path d="m-1597-1200h2381v1684h-2381z"/></clipPath></defs><style>.a{fill:#e95413}.b{fill:#fff}.c{fill:#f6f6f6}</style><g clip-path="url(#cp1)"><path fill-rule="evenodd" class="a" d="m442.2 55.3q0-1.4-0.9-2.2-0.6-0.5-1.9-1v6.3q1.2-0.2 1.8-0.6 1-0.7 1-2.5zm-4.4-13.6q-1.4 0-2 0.7-0.2 0.2-0.3 0.5-0.4 0.6-0.4 1.5 0 1.3 1 2.1 0.6 0.4 1.7 0.8zm53.4-11.1c-1.4 10.5-8 19.3-17.2 23.6-0.9 8.2-4.5 15.5-9.8 21.1 4.3 3.1 9.6 5 15.4 5 14.5 0 26.2-11.7 26.2-26.2 0-10.3-6-19.2-14.6-23.5z"/><path class="a" d="m468 30.7c3.7 5.4 5.9 11.8 6.1 18.8 7.3-4.1 12.3-11.7 13.1-20.4q0.1-1.2 0.1-2.3c0-14.5-11.7-26.2-26.2-26.2-10.2 0-19 5.9-23.3 14.4q0.4 0 0.7 0c12.3 0 23.1 6.2 29.5 15.7z"/><path class="a" d="m438.5 73c7 0 13.2-3.2 17.3-8.1 1.9-2.3 3.3-4.9 4.2-7.9q0.6-1.9 0.8-4.1 0.1-1.1 0.1-2.3c0-4.1-1-7.9-2.9-11.2-3.9-6.7-11.1-11.2-19.5-11.2q-1.8 0-3.5 0.3-2.1 0.3-4 1c-8.7 3.1-14.9 11.4-14.9 21.1 0 12.4 10.1 22.4 22.4 22.4zm-3.7-18.7q0.2 2 0.6 2.7 0.6 1.1 2.4 1.4v-6.8l-1.3-0.4q-3-0.9-4.3-2.5-1.2-1.6-1.2-3.8 0-1.5 0.5-2.7 0.5-1.2 1.3-2.1 0.4-0.4 0.8-0.7 0.8-0.6 1.8-0.9 0.7-0.2 2.2-0.3 0.1 0 0.2-0.1v-2.1h1.6v2.2q2.6 0.2 4 1.3 2.7 1.7 2.8 5.5h-3.9-0.3q0-0.2 0-0.4-0.1-1.1-0.4-1.7-0.6-1-2-1.2-0.1 0-0.2 0v6.1q3.8 1.3 5.1 2.3 1.5 1.2 2 3.2 0.1 0.7 0.1 1.5 0 4-2.9 5.8-1.8 1.1-4.3 1.3v3.2h-1.6v-3.1q-3.1-0.4-4.7-1.4-2.7-1.8-2.6-6.3z"/><path class="a" d="m438.5 82.8c9.1 0 17.2-3.7 23.1-9.7 4.5-4.7 7.7-10.7 8.8-17.5q0.3-2.2 0.4-4.5 0-0.2 0-0.5c0-6.8-2.1-13.1-5.7-18.2-5.8-8.5-15.6-14-26.6-14q-1.1 0-2.2 0-2.3 0.2-4.5 0.7c-14.5 3-25.5 16-25.5 31.5 0 17.8 14.5 32.2 32.2 32.2zm-7.5-59.2q2.1-0.5 4.3-0.8 1.6-0.2 3.2-0.2c9.7 0 18.2 4.9 23.3 12.4 3 4.5 4.7 9.8 4.7 15.6q0 0.9 0 1.8-0.2 2.2-0.7 4.3c-1.1 5.1-3.6 9.6-7.1 13.2-5.1 5.3-12.2 8.7-20.2 8.7-15.4 0-28-12.6-28-28 0-12.8 8.7-23.7 20.5-27z"/><path class="a" d="m401.6 50.6c0-17.3 12.3-32.5 29.3-36.1q1-0.2 2.1-0.4l0.6-1.2q1-2 2.3-3.8h-419.1c-8.8 0-15.9 2.7-15.9 6.1v62.6c0 3.4 7.1 6.1 15.9 6.1h406c-12.5-5.9-21.2-18.6-21.2-33.3z"/><path fill-rule="evenodd" class="b" d="m324.8 44.5h-10.8v-5.7h18.1v4.2c-5.8 6.8-6.5 11.2-6.9 21h-6.9c0.5-8 1.9-13 6.5-19.5zm10.4 15.6c6-5.5 10.6-9.7 10.6-13.1 0-2.3-1.3-3.4-3.1-3.4-1.7 0-3 1.2-4.2 2.4l-3.6-3.7c2.6-2.7 5-4 8.7-4 5.1 0 8.7 3.3 8.7 8.3 0 4-3.8 8.5-7.2 12 1.2-0.2 3.1-0.3 4.2-0.3h4.2v5.7h-18.3zm20.9-14.2c0-5.2 2.9-8.2 6.7-8.2 3.8 0 6.7 3 6.7 8.2 0 5.1-2.9 8.2-6.7 8.2-3.8 0-6.7-3.1-6.7-8.2zm8.7 0c0-3.6-1-4.5-2-4.5-1 0-2 0.9-2 4.5 0 3.5 1 4.5 2 4.5 1 0 2-1 2-4.5zm12.8-8.2h3.8l-13.8 26.8h-3.8zm-2 18.5c0-5.2 2.8-8.2 6.7-8.2 3.8 0 6.6 3 6.6 8.2 0 5.2-2.8 8.3-6.6 8.3-3.9 0-6.7-3.1-6.7-8.3zm8.6 0c0-3.5-0.9-4.4-1.9-4.4-1.1 0-2 0.9-2 4.4 0 3.5 0.9 4.5 2 4.5 1 0 1.9-1 1.9-4.5z"/><path fill-rule="evenodd" class="c" d="m26.7 47.4h-5.5v5.6h-3.4v-14h9.4v2.6h-6v3.2h5.5zm1.8-7.5q0-0.7 0.5-1.2 0.5-0.4 1.3-0.4 0.8 0 1.3 0.4 0.5 0.5 0.5 1.2 0 0.7-0.5 1.1-0.5 0.5-1.3 0.5-0.8 0-1.3-0.5-0.5-0.4-0.5-1.1zm3.5 13.1h-3.3v-10.4h3.3zm5.1-10.5l0.1 1.3q1.1-1.5 3-1.5 1.6 0 2.4 1 0.8 1 0.8 2.9v6.8h-3.2v-6.6q0-0.8-0.4-1.2-0.3-0.3-1.1-0.3-1 0-1.4 0.7v7.4h-3.3v-10.5zm14.2 10.5q-0.2-0.3-0.4-1-0.9 1.2-2.5 1.2-1.4 0-2.5-0.9-1-0.9-1-2.3 0-1.7 1.3-2.5 1.2-0.9 3.6-0.9h1v-0.6q0-1.4-1.2-1.4-1.2 0-1.2 1.1h-3.2q0-1.5 1.2-2.4 1.3-1 3.3-1 2 0 3.2 1 1.1 1 1.2 2.7v4.6q0 1.4 0.4 2.2v0.2zm-2-2.2q0.6 0 1-0.2 0.4-0.3 0.5-0.6v-1.7h-0.9q-1.7 0-1.7 1.6 0 0.4 0.3 0.7 0.3 0.2 0.8 0.2zm9.7-8.3l0.1 1.3q1.1-1.5 3-1.5 1.6 0 2.4 1 0.8 1 0.8 2.9v6.8h-3.2v-6.6q0-0.8-0.3-1.2-0.4-0.3-1.2-0.3-0.9 0-1.4 0.7v7.4h-3.3v-10.5zm12.7 8.2q0.7 0 1.1-0.4 0.3-0.4 0.3-1.1h3.1q0 1.8-1.3 2.9-1.2 1.1-3.1 1.1-2.3 0-3.6-1.5-1.3-1.4-1.3-3.9v-0.2q0-1.5 0.6-2.7 0.5-1.3 1.6-1.9 1.1-0.7 2.6-0.7 2.1 0 3.3 1.2 1.2 1.1 1.2 3h-3.1q0-0.8-0.4-1.2-0.4-0.4-1-0.4-1.3 0-1.5 1.6-0.1 0.5-0.1 1.4 0 1.5 0.4 2.1 0.4 0.7 1.2 0.7zm5.9-10.9q0-0.6 0.5-1.1 0.5-0.4 1.3-0.4 0.8 0 1.3 0.4 0.5 0.5 0.5 1.1 0 0.7-0.5 1.2-0.5 0.4-1.3 0.4-0.8 0-1.3-0.4-0.5-0.5-0.5-1.2zm3.5 13.2h-3.3v-10.5h3.3zm7.9 0q-0.1-0.3-0.3-0.9-0.9 1.1-2.5 1.1-1.4 0-2.5-0.9-1-0.9-1-2.2 0-1.7 1.2-2.6 1.3-0.8 3.7-0.8h1v-0.6q0-1.4-1.2-1.4-1.2 0-1.2 1.1h-3.3q0-1.5 1.3-2.4 1.3-1 3.3-1 2 0 3.2 1 1.1 1 1.2 2.7v4.6q0 1.4 0.4 2.2v0.1zm-2-2.1q0.6 0 1-0.2 0.4-0.3 0.5-0.6v-1.7h-0.9q-1.7 0-1.7 1.5 0 0.5 0.3 0.7 0.3 0.3 0.8 0.3zm10.1 2.1h-3.2v-14.8h3.2zm7.3 0v-14h5q2.7 0 4.2 1 1.4 1 1.4 2.9 0 1.1-0.5 1.8-0.5 0.8-1.5 1.2 1.1 0.3 1.7 1 0.6 0.8 0.6 2 0 2-1.3 3.1-1.3 1-3.9 1zm3.4-8.2h1.7q1.1 0 1.6-0.4 0.5-0.4 0.5-1.1 0-0.9-0.5-1.3-0.5-0.4-1.7-0.4h-1.6zm0 2.2v3.4h2.2q0.9 0 1.4-0.4 0.5-0.5 0.5-1.2 0-1.8-1.8-1.8zm15.2 6q-0.2-0.3-0.3-1-0.9 1.2-2.5 1.2-1.5 0-2.5-0.9-1-0.9-1-2.3 0-1.7 1.2-2.5 1.3-0.9 3.7-0.9h1v-0.5q0-1.5-1.3-1.5-1.1 0-1.1 1.2h-3.3q0-1.6 1.3-2.5 1.3-0.9 3.3-0.9 2 0 3.1 0.9 1.2 1 1.2 2.7v4.6q0 1.5 0.5 2.2v0.2zm-2.1-2.1q0.6 0 1-0.3 0.4-0.3 0.6-0.6v-1.7h-0.9q-1.7 0-1.7 1.6 0 0.4 0.3 0.7 0.3 0.3 0.7 0.3zm13.1-5.4l-1.1-0.1q-1.5 0-2 1v6.6h-3.2v-10.5h3l0.1 1.4q0.9-1.5 2.3-1.5 0.6 0 0.9 0.1zm7.6 0l-1.1-0.1q-1.5 0-1.9 1v6.6h-3.3v-10.5h3.1l0.1 1.4q0.8-1.6 2.3-1.6 0.5 0 0.9 0.2zm1.2-5.7q0-0.7 0.5-1.1 0.5-0.5 1.3-0.5 0.8 0 1.3 0.5 0.5 0.4 0.5 1.1 0 0.7-0.5 1.2-0.5 0.4-1.3 0.4-0.8 0-1.3-0.4-0.5-0.5-0.5-1.2zm3.5 13.1h-3.3v-10.4h3.3zm7.1 0.2q-2.4 0-3.9-1.4-1.5-1.5-1.5-3.8v-0.2q0-1.6 0.6-2.8 0.6-1.3 1.8-1.9 1.1-0.7 2.7-0.7 2.2 0 3.4 1.4 1.3 1.3 1.3 3.8v1.2h-6.4q0.1 0.9 0.7 1.4 0.6 0.5 1.5 0.5 1.6 0 2.5-1.1l1.4 1.8q-0.6 0.8-1.7 1.3-1.1 0.5-2.4 0.5zm-0.3-8.3q-1.5 0-1.7 1.9h3.2v-0.3q0.1-0.7-0.4-1.2-0.4-0.4-1.1-0.4zm12.4 0.6l-1-0.1q-1.6 0-2 1v6.6h-3.3v-10.4h3.1l0.1 1.3q0.8-1.5 2.3-1.5 0.5 0 0.9 0.1zm6.7 4.6q0-0.4-0.4-0.7-0.4-0.3-1.7-0.5-1.2-0.3-2-0.7-0.8-0.5-1.2-1.1-0.4-0.6-0.4-1.4 0-1.5 1.2-2.4 1.2-0.9 3.1-0.9 2.1 0 3.3 0.9 1.3 0.9 1.3 2.5h-3.3q0-1.3-1.3-1.3-0.5 0-0.9 0.3-0.3 0.3-0.3 0.7 0 0.4 0.4 0.7 0.4 0.3 1.4 0.5 0.9 0.1 1.6 0.4 2.4 0.8 2.4 2.9 0 1.4-1.3 2.3-1.3 0.9-3.3 0.9-1.3 0-2.4-0.5-1-0.5-1.6-1.3-0.6-0.8-0.6-1.7h3q0 0.7 0.5 1 0.5 0.3 1.2 0.3 0.7 0 1-0.2 0.3-0.3 0.3-0.7z"/></g></svg>