<?xml version="1.0" encoding="UTF-8"?>
<svg id="Layer_2" data-name="Layer 2" xmlns="http://www.w3.org/2000/svg" viewBox="0 0 861.5 480.76">
  <defs>
    <style>
      .cls-1, .cls-2 {
        fill: #f16024;
      }

      .cls-1, .cls-3 {
        fill-rule: evenodd;
      }

      .cls-4 {
        fill: #fff;
      }

      .cls-5 {
        fill: #0a484d;
      }

      .cls-6, .cls-3 {
        fill: #154d55;
      }
    </style>
  </defs>
  <g id="Text_Only" data-name="Text Only">
    <g>
      <rect class="cls-2" x="0" y="289.76" width="861.5" height="191"/>
      <g>
        <path class="cls-6" d="M344.88,106.22h-84.63v-36.74h131.41v26.91c-43.83,52.67-49.84,88.3-53.3,161.89h-43.91c3.47-62.8,14.73-102.6,50.43-152.06Z"/>
        <path class="cls-6" d="M417.25,233.23c48.05-45.42,81.9-77.67,81.9-104.7,0-18.25-10.14-28.33-26.74-28.33-13.43,0-24.1,9.23-33.54,19.2l-23.69-23.58c18.57-19.87,36.2-29.91,63.2-29.91,37.22,0,62.61,23.75,62.61,60.16,0,31.79-29.69,65.66-60.59,97.63,9.73-1.08,22.87-2.17,31.62-2.17h38v36.74h-132.77v-25.05Z"/>
        <path class="cls-6" d="M572.89,122.19c0-38.75,20.36-61.24,48.37-61.24s48.38,22.49,48.38,61.24-20.36,61.84-48.38,61.84-48.37-22.98-48.37-61.84ZM639.16,122.19c0-27.52-8.08-36.85-17.9-36.85s-17.9,9.33-17.9,36.85,8.07,37.45,17.9,37.45,17.9-9.92,17.9-37.45ZM732.58,60.95h25.19l-104.61,200.89h-25.19l104.61-200.89ZM715.83,200.01c0-38.75,20.36-61.24,48.38-61.24s48.38,22.49,48.38,61.24-20.36,61.83-48.38,61.83-48.38-22.98-48.38-61.83ZM782.1,200.01c0-27.53-8.07-36.86-17.9-36.86s-17.9,9.33-17.9,36.86,8.07,37.45,17.9,37.45,17.9-9.93,17.9-37.45Z"/>
      </g>
      <g>
        <path class="cls-3" d="M116.24,106.71c-5.22,5.31-8.03,14.51-8.03,24.28,0,5.48.9,11.11,2.76,16.3,1.84,5.13,4.61,9.83,8.38,13.54,5.15,5.06,12.26,8.32,21.52,8.32s16.36-3.25,21.51-8.32c3.77-3.71,6.54-8.41,8.38-13.54,1.86-5.2,2.76-10.82,2.76-16.31,0-9.77-2.81-18.97-8.03-24.28-3.36-3.42-6.97-5.78-10.98-7.29-4.04-1.52-8.54-2.19-13.61-2.19s-9.61.66-13.66,2.18c-4,1.5-7.61,3.87-10.99,7.3Z"/>
        <path class="cls-1" d="M152.66,187.08h-23.61l7.14,9.99c1.14,1.6,1.88,3.34,2.21,5.16.32,1.8.22,3.67-.3,5.58l-6.11,22.28,8.86,16.46,8.96-16.64-6.17-22.05c-.53-1.91-.64-3.8-.32-5.63.32-1.83,1.06-3.57,2.21-5.18l7.12-9.96Z"/>
        <path class="cls-3" d="M138.24,254.24l-34.4-63.9c-9.96,3.67-18.55,10.23-24.72,18.65-6.48,8.83-10.31,19.73-10.31,31.49v16.21h24.94v-17.93c0-1.65,1.34-2.99,2.99-2.99s2.98,1.34,2.98,2.99v17.93h82.3v-17.93c0-1.65,1.34-2.99,2.99-2.99s2.99,1.34,2.99,2.99v17.93h24.94v-16.21c0-11.76-3.83-22.66-10.31-31.49-6.18-8.42-14.76-14.98-24.72-18.65l-34.4,63.9c-.78,1.45-2.59,1.99-4.04,1.21-.53-.29-.94-.71-1.21-1.21Z"/>
        <path class="cls-1" d="M62.83,240.49c0-11.5,3.3-22.25,9-31.36-1.16-.13-2.34-.2-3.54-.2h-24.12c-9.18,0-17.53,4.04-23.58,10.55-6.11,6.57-9.9,15.65-9.9,25.67v4.55c0,1.93.79,3.68,2.05,4.94,1.27,1.27,3.02,2.05,4.94,2.05h45.14v-16.21Z"/>
        <path class="cls-1" d="M209.89,209.12c5.7,9.11,9,19.87,9,31.36v16.21h45.14c1.93,0,3.68-.78,4.95-2.05,1.26-1.27,2.05-3.02,2.05-4.95v-4.55c0-10.02-3.79-19.11-9.9-25.67-6.06-6.51-14.4-10.55-23.58-10.55h-24.12c-1.21,0-2.39.07-3.54.2Z"/>
        <path class="cls-1" d="M225.5,188.99c6.11,0,10.8-2.14,14.19-5.47,2.49-2.45,4.33-5.57,5.55-8.99,1.25-3.48,1.85-7.26,1.85-10.93,0-6.51-1.85-12.62-5.27-16.1-2.22-2.26-4.6-3.82-7.24-4.81-2.67-1.01-5.67-1.45-9.06-1.45s-6.41.44-9.09,1.44c-2.63.99-5.01,2.55-7.25,4.82-3.42,3.48-5.27,9.58-5.27,16.1,0,3.68.6,7.45,1.85,10.93,1.22,3.42,3.06,6.54,5.55,8.99,3.39,3.33,8.08,5.47,14.19,5.47Z"/>
        <path class="cls-1" d="M75.97,174.53c1.25-3.48,1.85-7.26,1.85-10.93,0-6.51-1.85-12.61-5.27-16.09-2.22-2.26-4.6-3.82-7.23-4.81-2.67-1.01-5.67-1.45-9.06-1.45s-6.41.44-9.1,1.44c-2.63.99-5.01,2.55-7.24,4.82-3.42,3.48-5.27,9.58-5.27,16.09,0,3.68.6,7.45,1.85,10.93,1.22,3.42,3.06,6.54,5.56,8.99,3.39,3.33,8.07,5.47,14.19,5.47s10.8-2.14,14.18-5.47c2.49-2.45,4.33-5.57,5.55-8.99Z"/>
        <path class="cls-1" d="M64.4,101.95l18.58,11.74c.67.42,1.5.57,2.32.37,1.59-.41,2.55-2.03,2.15-3.62l-5.46-21.3,16.77-13.92c.69-.5,1.16-1.3,1.22-2.22.1-1.64-1.15-3.06-2.79-3.16l-21.94-1.39-8.12-20.41c-.29-.74-.87-1.35-1.67-1.67-1.53-.61-3.25.14-3.86,1.67l-8.1,20.43-21.84,1.41c-.83.02-1.64.39-2.21,1.08-1.05,1.27-.87,3.15.4,4.2l16.93,14.01-5.43,21.3c-.19.77-.09,1.61.37,2.33.88,1.39,2.72,1.8,4.12.92l18.57-11.77Z"/>
        <path class="cls-3" d="M119.78,43l-5.44,21.3c-.19.76-.09,1.6.37,2.32.88,1.39,2.71,1.81,4.11.93l18.58-11.76,18.39,11.64c.69.51,1.61.72,2.51.49,1.6-.41,2.56-2.03,2.16-3.63l-5.45-21.3,16.91-14.03c.61-.51,1.02-1.25,1.07-2.11.1-1.64-1.14-3.06-2.79-3.16l-21.94-1.4-8.11-20.42c-.29-.74-.87-1.35-1.67-1.67-1.53-.61-3.26.14-3.86,1.67l-8.11,20.42-21.84,1.4c-.83.02-1.64.39-2.21,1.08-1.05,1.27-.87,3.15.4,4.2l16.91,14.02Z"/>
        <path class="cls-1" d="M202.96,62.47l-21.82,1.44c-.83.02-1.64.39-2.21,1.08-1.05,1.27-.87,3.15.4,4.2l16.95,14-5.39,21.24c-.21.78-.11,1.65.36,2.39.88,1.39,2.72,1.8,4.12.92l18.55-11.79,18.59,11.72c.67.42,1.49.57,2.32.37,1.59-.41,2.55-2.02,2.15-3.61l-5.48-21.29,16.76-13.95c.69-.51,1.15-1.31,1.21-2.22.1-1.64-1.16-3.05-2.8-3.15l-21.93-1.36-8.06-20.18c-.26-.84-.88-1.56-1.76-1.9-1.53-.61-3.27.15-3.87,1.68l-8.08,20.44Z"/>
      </g>
      <g>
        <path class="cls-5" d="M28.6,349.19c0-2.53.49-4.79,1.48-6.76s2.4-3.5,4.24-4.56c1.84-1.06,4.01-1.59,6.49-1.59,3.8,0,6.79,1.18,8.98,3.53,2.19,2.35,3.28,5.55,3.28,9.6v.28c0,3.95-1.1,7.09-3.29,9.41-2.2,2.32-5.17,3.48-8.92,3.48s-6.51-1.08-8.7-3.25c-2.19-2.16-3.37-5.1-3.54-8.8l-.02-1.34ZM36.5,349.68c0,2.34.37,4.06,1.1,5.16.73,1.09,1.82,1.64,3.26,1.64,2.81,0,4.25-2.16,4.31-6.49v-.8c0-4.55-1.45-6.82-4.36-6.82-2.64,0-4.07,1.96-4.29,5.88l-.02,1.43Z"/>
        <path class="cls-5" d="M58.29,362.11v-19.88h-3.68v-5.48h3.68v-2.02c0-2.89.85-5.13,2.55-6.73,1.7-1.59,4.09-2.39,7.17-2.39,1.12,0,2.36.16,3.7.49l.02,5.81c-.48-.14-1.13-.21-1.95-.21-2.39,0-3.59,1.03-3.59,3.09v1.95h4.95v5.48h-4.95v19.88h-7.92Z"/>
        <path class="cls-5" d="M101.23,343.89l-2.6-.19c-2.48,0-4.08.78-4.78,2.34v16.05h-7.9v-25.36h7.41l.26,3.26c1.33-2.48,3.18-3.73,5.55-3.73.84,0,1.58.09,2.2.28l-.14,7.34Z"/>
        <path class="cls-5" d="M115.9,362.57c-3.89,0-7.04-1.16-9.45-3.48-2.41-2.32-3.61-5.34-3.61-9.06v-.66c0-2.59.48-4.88,1.44-6.87s2.36-3.52,4.21-4.61c1.84-1.09,4.03-1.63,6.56-1.63,3.56,0,6.38,1.11,8.44,3.32s3.09,5.29,3.09,9.25v3.07h-15.7c.28,1.42.9,2.54,1.85,3.35.95.81,2.19,1.22,3.7,1.22,2.5,0,4.45-.88,5.86-2.62l3.61,4.27c-.98,1.36-2.38,2.44-4.18,3.25s-3.75,1.21-5.82,1.21ZM115.01,342.37c-2.31,0-3.69,1.53-4.12,4.59h7.97v-.61c.03-1.27-.29-2.25-.96-2.94-.67-.7-1.63-1.04-2.88-1.04Z"/>
        <path class="cls-5" d="M143.04,354.98c0-.67-.35-1.21-1.05-1.62s-2.04-.83-4.01-1.27-3.59-1.01-4.88-1.72c-1.28-.71-2.26-1.57-2.93-2.59-.67-1.02-1.01-2.18-1.01-3.49,0-2.33.96-4.25,2.88-5.75s4.44-2.26,7.55-2.26c3.34,0,6.03.76,8.06,2.27,2.03,1.52,3.05,3.51,3.05,5.98h-7.92c0-2.03-1.07-3.05-3.21-3.05-.83,0-1.52.23-2.09.69s-.84,1.04-.84,1.72.34,1.27,1.03,1.71c.69.44,1.78.8,3.29,1.08,1.51.28,2.83.62,3.97,1.01,3.81,1.31,5.72,3.66,5.72,7.05,0,2.31-1.03,4.2-3.08,5.65-2.06,1.45-4.72,2.18-7.98,2.18-2.17,0-4.11-.39-5.81-1.17-1.7-.78-3.03-1.84-3.98-3.19-.95-1.34-1.43-2.76-1.43-4.24h7.38c.03,1.17.42,2.03,1.17,2.57s1.71.81,2.88.81c1.08,0,1.89-.22,2.43-.66s.81-1.01.81-1.71Z"/>
        <path class="cls-5" d="M177.9,349.61c0,3.94-.89,7.08-2.66,9.43-1.77,2.35-4.17,3.53-7.18,3.53-2.33,0-4.24-.85-5.74-2.55v11.84h-7.9v-35.11h7.38l.23,2.34c1.52-1.88,3.51-2.81,5.98-2.81,3.12,0,5.55,1.15,7.29,3.46s2.6,5.47,2.6,9.5v.38ZM170,349.12c0-4.5-1.31-6.75-3.94-6.75-1.88,0-3.13.67-3.75,2.02v9.98c.69,1.41,1.95,2.11,3.8,2.11,2.52,0,3.81-2.17,3.89-6.52v-.84Z"/>
        <path class="cls-5" d="M180.38,349.19c0-2.53.49-4.79,1.48-6.76s2.4-3.5,4.24-4.56c1.84-1.06,4.01-1.59,6.49-1.59,3.8,0,6.79,1.18,8.98,3.53,2.19,2.35,3.28,5.55,3.28,9.6v.28c0,3.95-1.1,7.09-3.29,9.41-2.2,2.32-5.17,3.48-8.92,3.48s-6.51-1.08-8.7-3.25c-2.19-2.16-3.37-5.1-3.54-8.8l-.02-1.34ZM188.28,349.68c0,2.34.37,4.06,1.1,5.16.73,1.09,1.82,1.64,3.26,1.64,2.81,0,4.25-2.16,4.31-6.49v-.8c0-4.55-1.45-6.82-4.36-6.82-2.64,0-4.07,1.96-4.29,5.88l-.02,1.43Z"/>
        <path class="cls-5" d="M215.58,336.75l.26,2.98c1.75-2.3,4.16-3.45,7.24-3.45,2.64,0,4.61.79,5.92,2.37,1.3,1.58,1.98,3.95,2.03,7.12v16.34h-7.92v-16.01c0-1.28-.26-2.22-.77-2.82s-1.45-.9-2.81-.9c-1.55,0-2.7.61-3.45,1.83v17.91h-7.9v-25.36h7.41Z"/>
        <path class="cls-5" d="M234.4,349.24c0-4.02.87-7.18,2.6-9.49s4.16-3.47,7.27-3.47c2.27,0,4.17.89,5.72,2.67v-12.84h7.92v36h-7.1l-.4-2.72c-1.63,2.12-3.69,3.19-6.19,3.19-3.02,0-5.41-1.16-7.17-3.47-1.77-2.31-2.65-5.6-2.65-9.87ZM242.3,349.73c0,4.5,1.31,6.75,3.94,6.75,1.75,0,3-.73,3.75-2.2v-9.66c-.72-1.5-1.95-2.25-3.7-2.25-2.44,0-3.76,1.97-3.96,5.91l-.02,1.45Z"/>
        <path class="cls-5" d="M274.67,362.57c-3.89,0-7.04-1.16-9.45-3.48-2.41-2.32-3.61-5.34-3.61-9.06v-.66c0-2.59.48-4.88,1.44-6.87s2.36-3.52,4.21-4.61c1.84-1.09,4.03-1.63,6.56-1.63,3.56,0,6.38,1.11,8.44,3.32s3.09,5.29,3.09,9.25v3.07h-15.7c.28,1.42.9,2.54,1.85,3.35.95.81,2.19,1.22,3.7,1.22,2.5,0,4.45-.88,5.86-2.62l3.61,4.27c-.98,1.36-2.38,2.44-4.18,3.25s-3.75,1.21-5.82,1.21ZM273.78,342.37c-2.31,0-3.69,1.53-4.12,4.59h7.97v-.61c.03-1.27-.29-2.25-.96-2.94-.67-.7-1.63-1.04-2.88-1.04Z"/>
        <path class="cls-5" d="M295.79,336.75l.26,2.98c1.75-2.3,4.16-3.45,7.24-3.45,2.64,0,4.61.79,5.92,2.37,1.3,1.58,1.98,3.95,2.03,7.12v16.34h-7.92v-16.01c0-1.28-.26-2.22-.77-2.82s-1.45-.9-2.81-.9c-1.55,0-2.7.61-3.45,1.83v17.91h-7.9v-25.36h7.41Z"/>
        <path class="cls-5" d="M324.8,330.44v6.3h4.17v5.48h-4.17v11.6c0,.95.17,1.62.52,1.99.34.38,1.02.56,2.04.56.78,0,1.44-.05,1.97-.14v5.65c-1.42.45-2.91.68-4.45.68-2.72,0-4.73-.64-6.02-1.92-1.3-1.28-1.95-3.23-1.95-5.84v-12.59h-3.23v-5.48h3.23v-6.3h7.9Z"/>
        <path class="cls-5" d="M345.36,354.98c0-.67-.35-1.21-1.05-1.62s-2.04-.83-4.01-1.27-3.59-1.01-4.88-1.72c-1.28-.71-2.26-1.57-2.93-2.59-.67-1.02-1.01-2.18-1.01-3.49,0-2.33.96-4.25,2.88-5.75s4.44-2.26,7.55-2.26c3.34,0,6.03.76,8.06,2.27,2.03,1.52,3.05,3.51,3.05,5.98h-7.92c0-2.03-1.07-3.05-3.21-3.05-.83,0-1.52.23-2.09.69s-.84,1.04-.84,1.72.34,1.27,1.03,1.71c.69.44,1.78.8,3.29,1.08,1.51.28,2.83.62,3.97,1.01,3.81,1.31,5.72,3.66,5.72,7.05,0,2.31-1.03,4.2-3.08,5.65-2.05,1.45-4.71,2.18-7.98,2.18-2.17,0-4.11-.39-5.81-1.17-1.7-.78-3.03-1.84-3.98-3.19-.95-1.34-1.43-2.76-1.43-4.24h7.38c.03,1.17.42,2.03,1.17,2.57s1.71.81,2.88.81c1.08,0,1.89-.22,2.43-.66s.81-1.01.81-1.71Z"/>
        <path class="cls-5" d="M382.9,362.11c-.28-.52-.53-1.27-.75-2.27-1.45,1.83-3.48,2.74-6.09,2.74-2.39,0-4.42-.72-6.09-2.17-1.67-1.45-2.51-3.26-2.51-5.45,0-2.75,1.02-4.83,3.05-6.23,2.03-1.41,4.98-2.11,8.86-2.11h2.44v-1.34c0-2.34-1.01-3.51-3.02-3.51-1.88,0-2.81.93-2.81,2.78h-7.9c0-2.45,1.04-4.44,3.13-5.97s4.75-2.29,7.98-2.29,5.79.79,7.66,2.37,2.84,3.74,2.88,6.49v11.23c.03,2.33.39,4.11,1.08,5.34v.4h-7.9ZM377.96,356.95c.98,0,1.8-.21,2.45-.63.65-.42,1.11-.9,1.39-1.43v-4.05h-2.3c-2.75,0-4.12,1.23-4.12,3.7,0,.72.24,1.3.73,1.75.48.45,1.1.67,1.85.67Z"/>
        <path class="cls-5" d="M393.17,349.24c0-2.56.42-4.83,1.27-6.8s2.05-3.49,3.63-4.56c1.58-1.07,3.41-1.61,5.51-1.61,2.64,0,4.7.89,6.19,2.67l.28-2.2h7.17v24.4c0,2.23-.52,4.18-1.56,5.82-1.04,1.65-2.54,2.91-4.51,3.8s-4.25,1.32-6.84,1.32c-1.86,0-3.66-.35-5.4-1.05-1.74-.7-3.07-1.62-4-2.74l3.3-4.64c1.47,1.73,3.41,2.6,5.81,2.6,3.5,0,5.25-1.8,5.25-5.39v-.8c-1.52,1.67-3.43,2.51-5.74,2.51-3.09,0-5.59-1.18-7.5-3.55-1.91-2.37-2.86-5.54-2.86-9.5v-.28ZM401.09,349.73c0,2.08.39,3.72,1.17,4.93.78,1.21,1.88,1.82,3.28,1.82,1.7,0,2.94-.57,3.73-1.71v-10.66c-.77-1.16-1.99-1.73-3.68-1.73-1.41,0-2.51.63-3.3,1.89s-1.2,3.08-1.2,5.47Z"/>
        <path class="cls-5" d="M437.04,343.89l-2.6-.19c-2.48,0-4.08.78-4.78,2.34v16.05h-7.9v-25.36h7.41l.26,3.26c1.33-2.48,3.18-3.73,5.55-3.73.84,0,1.58.09,2.2.28l-.14,7.34Z"/>
        <path class="cls-5" d="M451.72,362.57c-3.89,0-7.04-1.16-9.45-3.48-2.41-2.32-3.61-5.34-3.61-9.06v-.66c0-2.59.48-4.88,1.44-6.87s2.36-3.52,4.21-4.61c1.84-1.09,4.03-1.63,6.56-1.63,3.56,0,6.38,1.11,8.44,3.32s3.09,5.29,3.09,9.25v3.07h-15.7c.28,1.42.9,2.54,1.85,3.35.95.81,2.19,1.22,3.7,1.22,2.5,0,4.45-.88,5.86-2.62l3.61,4.27c-.98,1.36-2.38,2.44-4.18,3.25s-3.75,1.21-5.82,1.21ZM450.83,342.37c-2.31,0-3.69,1.53-4.12,4.59h7.97v-.61c.03-1.27-.29-2.25-.96-2.94-.67-.7-1.63-1.04-2.88-1.04Z"/>
        <path class="cls-5" d="M477.85,362.57c-3.89,0-7.04-1.16-9.45-3.48-2.41-2.32-3.61-5.34-3.61-9.06v-.66c0-2.59.48-4.88,1.44-6.87s2.36-3.52,4.21-4.61c1.84-1.09,4.03-1.63,6.56-1.63,3.56,0,6.38,1.11,8.44,3.32s3.09,5.29,3.09,9.25v3.07h-15.7c.28,1.42.9,2.54,1.85,3.35.95.81,2.19,1.22,3.7,1.22,2.5,0,4.45-.88,5.86-2.62l3.61,4.27c-.98,1.36-2.38,2.44-4.18,3.25s-3.75,1.21-5.82,1.21ZM476.96,342.37c-2.31,0-3.69,1.53-4.12,4.59h7.97v-.61c.03-1.27-.29-2.25-.96-2.94-.67-.7-1.63-1.04-2.88-1.04Z"/>
        <path class="cls-5" d="M512.87,330.44v6.3h4.17v5.48h-4.17v11.6c0,.95.17,1.62.52,1.99.34.38,1.02.56,2.04.56.78,0,1.44-.05,1.97-.14v5.65c-1.42.45-2.91.68-4.45.68-2.72,0-4.73-.64-6.02-1.92-1.3-1.28-1.95-3.23-1.95-5.84v-12.59h-3.23v-5.48h3.23v-6.3h7.9Z"/>
        <path class="cls-5" d="M527.87,339.46c1.69-2.12,3.84-3.19,6.47-3.19,2.8,0,4.91.83,6.33,2.48,1.42,1.66,2.15,4.1,2.18,7.34v16.01h-7.92v-15.82c0-1.34-.27-2.33-.82-2.96-.55-.63-1.48-.95-2.79-.95-1.63,0-2.77.52-3.45,1.55v18.19h-7.9v-36h7.9v13.36Z"/>
        <path class="cls-5" d="M561.52,362.11c-.28-.52-.53-1.27-.75-2.27-1.45,1.83-3.48,2.74-6.09,2.74-2.39,0-4.42-.72-6.09-2.17-1.67-1.45-2.51-3.26-2.51-5.45,0-2.75,1.02-4.83,3.05-6.23,2.03-1.41,4.98-2.11,8.86-2.11h2.44v-1.34c0-2.34-1.01-3.51-3.02-3.51-1.88,0-2.81.93-2.81,2.78h-7.9c0-2.45,1.04-4.44,3.13-5.97s4.75-2.29,7.98-2.29,5.79.79,7.66,2.37,2.84,3.74,2.88,6.49v11.23c.03,2.33.39,4.11,1.08,5.34v.4h-7.9ZM556.58,356.95c.98,0,1.8-.21,2.45-.63.65-.42,1.11-.9,1.39-1.43v-4.05h-2.3c-2.75,0-4.12,1.23-4.12,3.7,0,.72.24,1.3.73,1.75.48.45,1.1.67,1.85.67Z"/>
        <path class="cls-5" d="M581.91,330.44v6.3h4.17v5.48h-4.17v11.6c0,.95.17,1.62.52,1.99.34.38,1.02.56,2.04.56.78,0,1.44-.05,1.97-.14v5.65c-1.42.45-2.91.68-4.45.68-2.72,0-4.73-.64-6.02-1.92-1.3-1.28-1.95-3.23-1.95-5.84v-12.59h-3.23v-5.48h3.23v-6.3h7.9Z"/>
        <path class="cls-5" d="M626.89,334.33h-10.24v27.77h-8.23v-27.77h-10.05v-6.35h28.52v6.35Z"/>
        <path class="cls-5" d="M643.97,352.82l6.8-24.84h9.19l-11.48,34.12h-9l-11.39-34.12h9.12l6.77,24.84Z"/>
        <path class="cls-5" d="M683.61,347.62h-12.94v8.16h15.28v6.33h-23.51v-34.12h23.55v6.35h-15.33v7.2h12.94v6.09Z"/>
        <path class="cls-5" d="M716.56,334.33h-10.24v27.77h-8.23v-27.77h-10.05v-6.35h28.52v6.35Z"/>
        <path class="cls-5" d="M730.15,330.21c0-1.12.41-2.05,1.22-2.77.81-.72,1.87-1.08,3.16-1.08s2.35.36,3.16,1.08c.81.72,1.22,1.64,1.22,2.77s-.41,2.05-1.22,2.77c-.81.72-1.87,1.08-3.16,1.08s-2.35-.36-3.16-1.08c-.81-.72-1.22-1.64-1.22-2.77ZM738.54,362.11h-7.92v-25.36h7.92v25.36Z"/>
        <path class="cls-5" d="M756.69,354.98c0-.67-.35-1.21-1.05-1.62s-2.04-.83-4.01-1.27-3.59-1.01-4.88-1.72c-1.28-.71-2.26-1.57-2.93-2.59-.67-1.02-1.01-2.18-1.01-3.49,0-2.33.96-4.25,2.88-5.75s4.44-2.26,7.55-2.26c3.34,0,6.03.76,8.06,2.27,2.03,1.52,3.05,3.51,3.05,5.98h-7.92c0-2.03-1.07-3.05-3.21-3.05-.83,0-1.52.23-2.09.69s-.84,1.04-.84,1.72.34,1.27,1.03,1.71c.69.44,1.78.8,3.29,1.08,1.51.28,2.83.62,3.97,1.01,3.81,1.31,5.72,3.66,5.72,7.05,0,2.31-1.03,4.2-3.08,5.65-2.05,1.45-4.71,2.18-7.98,2.18-2.17,0-4.11-.39-5.81-1.17-1.7-.78-3.03-1.84-3.98-3.19-.95-1.34-1.43-2.76-1.43-4.24h7.38c.03,1.17.42,2.03,1.17,2.57s1.71.81,2.88.81c1.08,0,1.89-.22,2.43-.66s.81-1.01.81-1.71Z"/>
        <path class="cls-4" d="M44.94,416.89l-2.6-.19c-2.48,0-4.08.78-4.78,2.34v16.05h-7.9v-25.36h7.41l.26,3.26c1.33-2.48,3.18-3.73,5.55-3.73.84,0,1.58.09,2.2.28l-.14,7.34Z"/>
        <path class="cls-4" d="M59.61,435.57c-3.89,0-7.04-1.16-9.45-3.48-2.41-2.32-3.61-5.34-3.61-9.06v-.66c0-2.59.48-4.88,1.44-6.87s2.36-3.52,4.21-4.61c1.84-1.09,4.03-1.63,6.56-1.63,3.56,0,6.38,1.11,8.44,3.32s3.09,5.29,3.09,9.25v3.07h-15.7c.28,1.42.9,2.54,1.85,3.35.95.81,2.19,1.22,3.7,1.22,2.5,0,4.45-.88,5.86-2.62l3.61,4.27c-.98,1.36-2.38,2.44-4.18,3.25s-3.75,1.21-5.82,1.21ZM58.72,415.37c-2.31,0-3.69,1.53-4.12,4.59h7.97v-.61c.03-1.27-.29-2.25-.96-2.94-.67-.7-1.63-1.04-2.88-1.04Z"/>
        <path class="cls-4" d="M81.8,435.11h-7.92v-36h7.92v36Z"/>
        <path class="cls-4" d="M98.94,435.57c-3.89,0-7.04-1.16-9.45-3.48-2.41-2.32-3.61-5.34-3.61-9.06v-.66c0-2.59.48-4.88,1.44-6.87s2.36-3.52,4.21-4.61c1.84-1.09,4.03-1.63,6.56-1.63,3.56,0,6.38,1.11,8.44,3.32s3.09,5.29,3.09,9.25v3.07h-15.7c.28,1.42.9,2.54,1.85,3.35.95.81,2.19,1.22,3.7,1.22,2.5,0,4.45-.88,5.86-2.62l3.61,4.27c-.98,1.36-2.38,2.44-4.18,3.25s-3.75,1.21-5.82,1.21ZM98.04,415.37c-2.31,0-3.69,1.53-4.12,4.59h7.97v-.61c.03-1.27-.29-2.25-.96-2.94-.67-.7-1.63-1.04-2.88-1.04Z"/>
        <path class="cls-4" d="M122.61,425.71l4.01-15.96h8.32l-8.27,25.36h-8.06l-8.27-25.36h8.34l3.94,15.96Z"/>
        <path class="cls-4" d="M151.22,435.11c-.28-.52-.53-1.27-.75-2.27-1.45,1.83-3.48,2.74-6.09,2.74-2.39,0-4.42-.72-6.09-2.17-1.67-1.45-2.51-3.26-2.51-5.45,0-2.75,1.02-4.83,3.05-6.23,2.03-1.41,4.98-2.11,8.86-2.11h2.44v-1.34c0-2.34-1.01-3.51-3.02-3.51-1.88,0-2.81.93-2.81,2.78h-7.9c0-2.45,1.04-4.44,3.13-5.97s4.75-2.29,7.98-2.29,5.79.79,7.66,2.37,2.84,3.74,2.88,6.49v11.23c.03,2.33.39,4.11,1.08,5.34v.4h-7.9ZM146.28,429.95c.98,0,1.8-.21,2.45-.63.65-.42,1.11-.9,1.39-1.43v-4.05h-2.3c-2.75,0-4.12,1.23-4.12,3.7,0,.72.24,1.3.73,1.75.48.45,1.1.67,1.85.67Z"/>
        <path class="cls-4" d="M169.67,409.75l.26,2.98c1.75-2.3,4.16-3.45,7.24-3.45,2.64,0,4.61.79,5.92,2.37,1.3,1.58,1.98,3.95,2.03,7.12v16.34h-7.92v-16.01c0-1.28-.26-2.22-.77-2.82s-1.45-.9-2.81-.9c-1.55,0-2.7.61-3.45,1.83v17.91h-7.9v-25.36h7.41Z"/>
        <path class="cls-4" d="M198.69,403.44v6.3h4.17v5.48h-4.17v11.6c0,.95.17,1.62.52,1.99.34.38,1.02.56,2.04.56.78,0,1.44-.05,1.97-.14v5.65c-1.42.45-2.91.68-4.45.68-2.72,0-4.73-.64-6.02-1.92-1.3-1.28-1.95-3.23-1.95-5.84v-12.59h-3.23v-5.48h3.23v-6.3h7.9Z"/>
        <path class="cls-4" d="M219.66,435.11v-19.88h-3.68v-5.48h3.68v-2.02c0-2.89.85-5.13,2.55-6.73,1.7-1.59,4.09-2.39,7.17-2.39,1.12,0,2.36.16,3.7.49l.02,5.81c-.48-.14-1.13-.21-1.95-.21-2.39,0-3.59,1.03-3.59,3.09v1.95h4.95v5.48h-4.95v19.88h-7.92Z"/>
        <path class="cls-4" d="M234.31,422.19c0-2.53.49-4.79,1.48-6.76s2.4-3.5,4.24-4.56c1.84-1.06,4.01-1.59,6.49-1.59,3.8,0,6.79,1.18,8.98,3.53,2.19,2.35,3.28,5.55,3.28,9.6v.28c0,3.95-1.1,7.09-3.29,9.41-2.2,2.32-5.17,3.48-8.92,3.48s-6.51-1.08-8.7-3.25c-2.19-2.16-3.37-5.1-3.54-8.8l-.02-1.34ZM242.21,422.68c0,2.34.37,4.06,1.1,5.16.73,1.09,1.82,1.64,3.26,1.64,2.81,0,4.25-2.16,4.31-6.49v-.8c0-4.55-1.45-6.82-4.36-6.82-2.64,0-4.07,1.96-4.29,5.88l-.02,1.43Z"/>
        <path class="cls-4" d="M277.6,416.89l-2.6-.19c-2.48,0-4.08.78-4.78,2.34v16.05h-7.9v-25.36h7.41l.26,3.26c1.33-2.48,3.18-3.73,5.55-3.73.84,0,1.58.09,2.2.28l-.14,7.34Z"/>
        <path class="cls-4" d="M301.6,403.44v6.3h4.17v5.48h-4.17v11.6c0,.95.17,1.62.52,1.99.34.38,1.02.56,2.04.56.78,0,1.44-.05,1.97-.14v5.65c-1.42.45-2.91.68-4.45.68-2.72,0-4.73-.64-6.02-1.92-1.3-1.28-1.95-3.23-1.95-5.84v-12.59h-3.23v-5.48h3.23v-6.3h7.9Z"/>
        <path class="cls-4" d="M316.6,412.46c1.69-2.12,3.84-3.19,6.47-3.19,2.8,0,4.91.83,6.33,2.48,1.42,1.66,2.15,4.1,2.18,7.34v16.01h-7.92v-15.82c0-1.34-.27-2.33-.82-2.96-.55-.63-1.48-.95-2.79-.95-1.63,0-2.77.52-3.45,1.55v18.19h-7.9v-36h7.9v13.36Z"/>
        <path class="cls-4" d="M348.24,435.57c-3.89,0-7.04-1.16-9.45-3.48-2.41-2.32-3.61-5.34-3.61-9.06v-.66c0-2.59.48-4.88,1.44-6.87s2.36-3.52,4.21-4.61c1.84-1.09,4.03-1.63,6.56-1.63,3.56,0,6.38,1.11,8.44,3.32s3.09,5.29,3.09,9.25v3.07h-15.7c.28,1.42.9,2.54,1.85,3.35.95.81,2.19,1.22,3.7,1.22,2.5,0,4.45-.88,5.86-2.62l3.61,4.27c-.98,1.36-2.38,2.44-4.18,3.25s-3.75,1.21-5.82,1.21ZM347.35,415.37c-2.31,0-3.69,1.53-4.12,4.59h7.97v-.61c.03-1.27-.29-2.25-.96-2.94-.67-.7-1.63-1.04-2.88-1.04Z"/>
        <path class="cls-4" d="M382.55,409.75v26.23c-.02,3-.88,5.31-2.58,6.94-1.7,1.62-4.08,2.44-7.12,2.44-1.31,0-2.55-.13-3.73-.4v-5.98c.91.14,1.65.21,2.23.21,2.19,0,3.28-1.09,3.28-3.26v-26.18h7.92ZM374.04,403.21c0-1.12.41-2.05,1.22-2.77.81-.72,1.87-1.08,3.16-1.08s2.35.36,3.16,1.08c.81.72,1.22,1.64,1.22,2.77s-.41,2.05-1.22,2.77c-.81.72-1.87,1.08-3.16,1.08s-2.35-.36-3.16-1.08c-.81-.72-1.22-1.64-1.22-2.77Z"/>
        <path class="cls-4" d="M386.02,422.19c0-2.53.49-4.79,1.48-6.76s2.4-3.5,4.24-4.56c1.84-1.06,4.01-1.59,6.49-1.59,3.8,0,6.79,1.18,8.98,3.53,2.19,2.35,3.28,5.55,3.28,9.6v.28c0,3.95-1.1,7.09-3.29,9.41-2.2,2.32-5.17,3.48-8.92,3.48s-6.51-1.08-8.7-3.25c-2.19-2.16-3.37-5.1-3.54-8.8l-.02-1.34ZM393.92,422.68c0,2.34.37,4.06,1.1,5.16.73,1.09,1.82,1.64,3.26,1.64,2.81,0,4.25-2.16,4.31-6.49v-.8c0-4.55-1.45-6.82-4.36-6.82-2.64,0-4.07,1.96-4.29,5.88l-.02,1.43Z"/>
        <path class="cls-4" d="M437.51,422.64c0,4.16-.86,7.35-2.58,9.59-1.72,2.23-4.14,3.35-7.27,3.35-2.58,0-4.66-1.02-6.23-3.07l-.33,2.6h-7.08v-36h7.9v12.68c1.47-1.67,3.37-2.51,5.7-2.51,3.16,0,5.59,1.13,7.31,3.4,1.72,2.27,2.58,5.45,2.58,9.56v.4ZM429.59,422.13c0-2.43-.32-4.17-.97-5.21-.65-1.04-1.64-1.56-2.99-1.56-1.78,0-3.02.68-3.7,2.04v10.06c.67,1.34,1.92,2.01,3.75,2.01s3.04-.9,3.54-2.71c.25-.89.38-2.43.38-4.63Z"/>
        <path class="cls-4" d="M460.41,409.75l.26,2.98c1.8-2.3,4.21-3.45,7.24-3.45,3.2,0,5.37,1.27,6.49,3.82,1.72-2.55,4.2-3.82,7.45-3.82,5.14,0,7.78,3.11,7.92,9.33v16.5h-7.92v-16.01c0-1.3-.22-2.24-.66-2.84-.44-.59-1.23-.89-2.39-.89-1.56,0-2.73.7-3.49,2.09l.02.33v17.32h-7.92v-15.96c0-1.33-.21-2.29-.63-2.88s-1.23-.89-2.41-.89c-1.52,0-2.67.7-3.47,2.09v17.65h-7.9v-25.36h7.41Z"/>
        <path class="cls-4" d="M508.58,435.11c-.28-.52-.53-1.27-.75-2.27-1.45,1.83-3.48,2.74-6.09,2.74-2.39,0-4.42-.72-6.09-2.17-1.67-1.45-2.51-3.26-2.51-5.45,0-2.75,1.02-4.83,3.05-6.23,2.03-1.41,4.98-2.11,8.86-2.11h2.44v-1.34c0-2.34-1.01-3.51-3.02-3.51-1.88,0-2.81.93-2.81,2.78h-7.9c0-2.45,1.04-4.44,3.13-5.97s4.75-2.29,7.98-2.29,5.79.79,7.66,2.37,2.84,3.74,2.88,6.49v11.23c.03,2.33.39,4.11,1.08,5.34v.4h-7.9ZM503.63,429.95c.98,0,1.8-.21,2.45-.63.65-.42,1.11-.9,1.39-1.43v-4.05h-2.3c-2.75,0-4.12,1.23-4.12,3.7,0,.72.24,1.3.73,1.75.48.45,1.1.67,1.85.67Z"/>
        <path class="cls-4" d="M535.11,416.89l-2.6-.19c-2.48,0-4.08.78-4.78,2.34v16.05h-7.9v-25.36h7.41l.26,3.26c1.33-2.48,3.18-3.73,5.55-3.73.84,0,1.58.09,2.2.28l-.14,7.34Z"/>
        <path class="cls-4" d="M548.14,425.66l-2.23,2.23v7.22h-7.9v-36.02h7.9v19.12l.8-1.05,5.95-7.41h9.47l-8.88,10.43,9.47,14.93h-9.05l-5.53-9.45Z"/>
        <path class="cls-4" d="M576.01,435.57c-3.89,0-7.04-1.16-9.45-3.48-2.41-2.32-3.61-5.34-3.61-9.06v-.66c0-2.59.48-4.88,1.44-6.87s2.36-3.52,4.21-4.61c1.84-1.09,4.03-1.63,6.56-1.63,3.56,0,6.38,1.11,8.44,3.32s3.09,5.29,3.09,9.25v3.07h-15.7c.28,1.42.9,2.54,1.85,3.35.95.81,2.19,1.22,3.7,1.22,2.5,0,4.45-.88,5.86-2.62l3.61,4.27c-.98,1.36-2.38,2.44-4.18,3.25s-3.75,1.21-5.82,1.21ZM575.12,415.37c-2.31,0-3.69,1.53-4.12,4.59h7.97v-.61c.03-1.27-.29-2.25-.96-2.94-.67-.7-1.63-1.04-2.88-1.04Z"/>
        <path class="cls-4" d="M599.07,403.44v6.3h4.17v5.48h-4.17v11.6c0,.95.17,1.62.52,1.99.34.38,1.02.56,2.04.56.78,0,1.44-.05,1.97-.14v5.65c-1.42.45-2.91.68-4.45.68-2.72,0-4.73-.64-6.02-1.92-1.3-1.28-1.95-3.23-1.95-5.84v-12.59h-3.23v-5.48h3.23v-6.3h7.9Z"/>
        <path class="cls-4" d="M611.23,427.44c1.25,0,2.29.37,3.12,1.11.83.74,1.24,1.69,1.24,2.85s-.41,2.11-1.24,2.85c-.83.74-1.87,1.11-3.12,1.11s-2.31-.38-3.13-1.12-1.23-1.7-1.23-2.84.41-2.09,1.23-2.84,1.86-1.12,3.13-1.12Z"/>
      </g>
    </g>
  </g>
</svg>