<?xml version="1.0" encoding="UTF-8"?>
<svg id="Layer_2" data-name="Layer 2" xmlns="http://www.w3.org/2000/svg" viewBox="0 0 804.54 379.07">
  <defs>
    <style>
      .cls-1 {
        fill: #231f20;
      }

      .cls-2 {
        fill: #fff;
      }

      .cls-3 {
        fill: #f79439;
      }

      .cls-4 {
        fill: #537dbf;
        opacity: .15;
      }

      .cls-5 {
        fill: #12bdcd;
      }
    </style>
  </defs>
  <g id="Graphics">
    <g>
      <rect class="cls-3" x="72.61" y="230.34" width="663.26" height="132.11"/>
      <g>
        <path class="cls-5" d="M199.6,132.72h-42.09v-22.28h70.25v16.4c-22.59,26.46-25.07,43.48-26.92,81.7h-26.61c1.86-30.95,7.12-50.6,25.37-75.82Z"/>
        <path class="cls-5" d="M237.67,137.98c0-20.12,11.14-31.88,25.99-31.88s26,11.76,26,31.88-11.14,32.19-26,32.19-25.99-12.07-25.99-32.19ZM271.4,137.98c0-13.62-3.71-17.33-7.74-17.33s-7.74,3.71-7.74,17.33,3.71,17.64,7.74,17.64,7.74-4.02,7.74-17.64ZM321.22,106.1h14.85l-53.85,104.29h-14.85l53.85-104.29ZM313.49,178.21c0-20.12,11.14-31.88,26-31.88s25.99,11.76,25.99,31.88-11.14,32.19-25.99,32.19-26-12.07-26-32.19ZM347.22,178.21c0-13.62-3.71-17.33-7.73-17.33s-7.74,3.71-7.74,17.33,3.71,17.64,7.74,17.64,7.73-4.02,7.73-17.64Z"/>
      </g>
      <g>
        <path class="cls-1" d="M194.62,274.78h20.82v5.16h-14.69v8.87h12.44v5.16h-12.44v10.24h15.21v5.16h-21.35v-34.6Z"/>
        <path class="cls-1" d="M222.56,302.69v-30.68h6.1v31c0,1.5.68,2.03,1.31,2.03.28,0,.49,0,.95-.11l.76,4.55c-.74.3-1.76.53-3.22.53-4.32,0-5.9-2.79-5.9-7.32Z"/>
        <path class="cls-1" d="M235.18,296.41c0-8.44,5.86-13.65,11.98-13.65,7.03,0,10.73,5.08,10.73,12.34,0,1.16-.13,2.33-.26,2.96h-16.5c.51,4.61,3.47,7.24,7.66,7.24,2.22,0,4.13-.7,6.03-1.88l2.07,3.79c-2.48,1.67-5.61,2.81-8.91,2.81-7.17,0-12.8-5.04-12.8-13.61ZM252.62,293.91c0-4-1.78-6.43-5.33-6.43-3.03,0-5.69,2.26-6.22,6.43h11.55Z"/>
        <path class="cls-1" d="M262,296.41c0-8.66,6.12-13.65,13.04-13.65,3.3,0,5.71,1.27,7.6,2.92l-2.96,3.96c-1.38-1.21-2.69-1.9-4.32-1.9-4.19,0-7.09,3.47-7.09,8.68s2.86,8.63,6.9,8.63c2.03,0,3.89-.99,5.38-2.24l2.47,4.02c-2.43,2.16-5.52,3.2-8.48,3.2-7.09,0-12.53-4.99-12.53-13.61Z"/>
        <path class="cls-1" d="M288.54,300.62v-12.38h-3.7v-4.57l4.02-.27.72-7.09h5.06v7.09h6.62v4.85h-6.62v12.37c0,3.06,1.19,4.56,3.68,4.56.89,0,1.95-.3,2.71-.59l1.04,4.49c-1.42.47-3.23.95-5.31.95-5.99,0-8.21-3.79-8.21-9.4Z"/>
        <path class="cls-1" d="M306.73,283.39h4.99l.46,4.63h.17c1.85-3.39,4.6-5.27,7.38-5.27,1.32,0,2.16.17,2.94.53l-1.06,5.29c-.91-.25-1.59-.42-2.67-.42-2.07,0-4.57,1.42-6.14,5.38v15.85h-6.09v-25.99Z"/>
        <path class="cls-1" d="M323.34,275.35c0-2.07,1.5-3.45,3.66-3.45s3.66,1.38,3.66,3.45-1.5,3.49-3.66,3.49-3.66-1.38-3.66-3.49ZM323.93,283.39h6.09v25.99h-6.09v-25.99Z"/>
        <path class="cls-1" d="M336.07,296.41c0-8.66,6.12-13.65,13.04-13.65,3.3,0,5.71,1.27,7.6,2.92l-2.96,3.96c-1.38-1.21-2.69-1.9-4.32-1.9-4.19,0-7.09,3.47-7.09,8.68s2.86,8.63,6.9,8.63c2.03,0,3.89-.99,5.38-2.24l2.48,4.02c-2.43,2.16-5.52,3.2-8.49,3.2-7.09,0-12.53-4.99-12.53-13.61Z"/>
        <path class="cls-1" d="M360.31,302.4c0-5.57,4.61-8.46,15.28-9.61-.08-2.79-1.21-5.12-4.72-5.12-2.58,0-5.02,1.16-7.3,2.56l-2.24-4.06c2.86-1.8,6.54-3.41,10.66-3.41,6.5,0,9.69,4,9.69,11.24v15.38h-4.99l-.47-2.88h-.17c-2.33,1.99-4.99,3.51-8.06,3.51-4.55,0-7.68-3.09-7.68-7.62ZM375.58,302.42v-5.84c-7.05.89-9.39,2.73-9.39,5.35,0,2.3,1.57,3.3,3.75,3.3s3.72-1.04,5.65-2.81Z"/>
        <path class="cls-1" d="M388.37,302.69v-30.68h6.1v31c0,1.5.68,2.03,1.31,2.03.28,0,.49,0,.95-.11l.76,4.55c-.74.3-1.76.53-3.22.53-4.32,0-5.9-2.79-5.9-7.32Z"/>
      </g>
      <g>
        <g id="Circle">
          <path class="cls-4" d="M164.58,296.77c0,45.44-36.85,82.29-82.29,82.29-45.44,0-82.29-36.85-82.29-82.29s36.85-82.29,82.29-82.29c45.44,0,82.29,36.85,82.29,82.29Z"/>
          <path class="cls-3" d="M150.86,296.77c0,37.87-30.71,68.57-68.57,68.57-37.87,0-68.57-30.71-68.57-68.57,0-37.87,30.7-68.58,68.57-68.58,37.87,0,68.57,30.71,68.57,68.58Z"/>
        </g>
        <path class="cls-2" d="M82.29,259.05c-16.39,0-29.72,13.33-29.72,29.72,0,9.89,4.82,18.93,12.95,24.48v13.62c0,1.41,1.15,2.56,2.56,2.56h2.13c1.18,5.6,6.15,9.81,12.08,9.81,5.94,0,10.92-4.21,12.1-9.81h2.11c1.41,0,2.56-1.15,2.56-2.56v-13.62c8.13-5.55,12.95-14.59,12.95-24.48,0-16.39-13.33-29.72-29.72-29.72ZM79.73,272.84h5.12v5.18h-5.12v-5.18ZM79.73,282.93h5.12v21.26h-5.12v-21.26ZM93.95,324.32h-1.84s-19.61,0-19.61,0h-1.86v-9.88h23.31v9.88Z"/>
      </g>
      <g>
        <polygon class="cls-3" points="716.74 35.21 716.74 0 688.02 0 688.02 35.21 602.11 35.21 602.11 58.16 688.02 58.16 688.02 272.08 716.74 272.08 716.74 58.16 804.54 58.16 804.54 35.21 716.74 35.21"/>
        <polygon class="cls-5" points="728.8 96.18 728.8 117.37 796.81 65.19 778.38 65.19 728.8 96.18"/>
        <path class="cls-5" d="M679.52,25.34h-5.64c-.09-3.12-2.64-5.63-5.79-5.63h-1.92c-3.15,0-5.7,2.51-5.79,5.63h-5.64v6.19h24.78v-6.19Z"/>
        <path class="cls-5" d="M638.98,25.34h-5.64c-.09-3.12-2.64-5.63-5.79-5.63h-1.92c-3.15,0-5.7,2.51-5.79,5.63h-5.64v6.19h24.78v-6.19Z"/>
        <path class="cls-5" d="M749.15,25.34h-5.64c-.09-3.12-2.64-5.63-5.79-5.63h-1.92c-3.15,0-5.7,2.51-5.79,5.63h-5.64v6.19h24.78v-6.19Z"/>
        <path class="cls-5" d="M789.7,25.34h-5.64c-.09-3.12-2.64-5.63-5.79-5.63h-1.92c-3.15,0-5.7,2.51-5.79,5.63h-5.64v6.19h24.78v-6.19Z"/>
        <polygon class="cls-3" points="525.6 213.94 608.77 213.94 629.39 139.42 525.6 139.42 525.6 213.94"/>
        <rect class="cls-5" x="507.35" y="167.55" width="11.49" height="17.3"/>
        <path class="cls-5" d="M567.74,65.18c10.66,0,19.3-8.64,19.3-19.3,0-3.14-.76-6.11-2.09-8.73l4.28-2.78-11.16-5.23-.37.2c-2.91-1.76-6.32-2.77-9.96-2.77-10.66,0-19.3,8.64-19.3,19.3s8.64,19.3,19.3,19.3Z"/>
        <path class="cls-5" d="M595.09,77.24l-33.78-7.24c-24.93,3.22-26.54,62.74-26.54,62.74h53.89v-38.61l13.67-.8s31.12-19.89,45.01-28h-24.93l-27.32,11.91Z"/>
      </g>
    </g>
  </g>
</svg>