<?xml version="1.0" encoding="UTF-8"?>
<svg id="Layer_2" data-name="Layer 2" xmlns="http://www.w3.org/2000/svg" viewBox="0 0 761.49 535.83">
  <defs>
    <style>
      .cls-1 {
        fill: #231f20;
      }

      .cls-2 {
        fill: #fff;
      }

      .cls-3 {
        fill: #f79439;
      }

      .cls-4 {
        fill: #537dbf;
        opacity: .15;
      }

      .cls-5 {
        fill: #12bdcd;
      }
    </style>
  </defs>
  <g id="Graphics">
    <g>
      <path class="cls-3" d="M587.96,428.34l-20.12-1.34-7.78-29.07,13.82-9.25c-.04-1.05-.06-2.14-.05-3.24-.01-1.08,0-2.16.04-3.22l-13.82-9.26,7.78-29.05,16.6-1.12c1-1.9,2.08-3.76,3.22-5.59l-3.19-6.48H91.43v138.63h455.51l41.03-41.02Z"/>
      <g>
        <path class="cls-5" d="M181.98,228.01h-46.76v-24.76h78.05v18.22c-25.1,29.4-27.85,48.31-29.91,90.77h-29.57c2.06-34.38,7.91-56.22,28.19-84.24Z"/>
        <path class="cls-5" d="M224.27,233.86c0-22.35,12.38-35.42,28.88-35.42s28.88,13.07,28.88,35.42-12.38,35.76-28.88,35.76-28.88-13.41-28.88-35.76ZM261.75,233.86c0-15.13-4.13-19.25-8.6-19.25s-8.6,4.13-8.6,19.25,4.13,19.6,8.6,19.6,8.6-4.47,8.6-19.6ZM317.11,198.44h16.5l-59.83,115.87h-16.5l59.83-115.87ZM308.51,278.56c0-22.35,12.38-35.42,28.88-35.42s28.88,13.07,28.88,35.42-12.38,35.76-28.88,35.76-28.88-13.41-28.88-35.76ZM345.99,278.56c0-15.13-4.12-19.25-8.59-19.25s-8.6,4.13-8.6,19.25,4.12,19.6,8.6,19.6,8.59-4.47,8.59-19.6Z"/>
      </g>
      <g>
        <path class="cls-1" d="M224.82,379.62h23.13v5.74h-16.32v9.85h13.82v5.74h-13.82v11.38h16.9v5.74h-23.72v-38.44Z"/>
        <path class="cls-1" d="M255.86,389.18h5.55l.52,3.9h.19c2.59-2.52,5.53-4.61,9.48-4.61,6.18,0,8.89,4.19,8.89,11.47v18.1h-6.77v-17.23c0-4.75-1.36-6.54-4.49-6.54-2.54,0-4.21,1.25-6.58,3.6v20.17h-6.77v-28.87Z"/>
        <path class="cls-1" d="M286.81,423.3c0-2.43,1.5-4.56,4.16-6.16v-.24c-1.48-.96-2.61-2.49-2.61-4.82s1.53-4.21,3.2-5.38v-.23c-1.97-1.46-3.81-4.21-3.81-7.62,0-6.63,5.36-10.37,11.4-10.37,1.6,0,3.1.28,4.28.71h10.32v5.03h-5.27c.94,1.08,1.65,2.87,1.65,4.84,0,6.42-4.87,9.85-10.98,9.85-1.22,0-2.61-.26-3.9-.76-.87.74-1.41,1.47-1.41,2.76,0,1.62,1.17,2.61,4.68,2.61h5.14c6.9,0,10.57,2.14,10.57,7.12,0,5.69-5.97,10.18-15.4,10.18-6.89,0-12.01-2.47-12.01-7.52ZM307.68,421.75c0-2.23-1.79-2.89-5.09-2.89h-3.96c-1.55,0-2.8-.12-3.9-.4-1.55,1.18-2.23,2.47-2.23,3.81,0,2.63,2.82,4.16,7.36,4.16s7.83-2.19,7.83-4.68ZM304.16,398.85c0-3.62-2.19-5.69-5.01-5.69s-5.01,2.05-5.01,5.69,2.23,5.81,5.01,5.81,5.01-2.14,5.01-5.81Z"/>
        <path class="cls-1" d="M319.39,380.25c0-2.3,1.67-3.83,4.07-3.83s4.07,1.53,4.07,3.83-1.67,3.88-4.07,3.88-4.07-1.53-4.07-3.88ZM320.05,389.18h6.77v28.87h-6.77v-28.87Z"/>
        <path class="cls-1" d="M335.45,389.18h5.55l.52,3.9h.19c2.59-2.52,5.53-4.61,9.47-4.61,6.18,0,8.89,4.19,8.89,11.47v18.1h-6.77v-17.23c0-4.75-1.36-6.54-4.49-6.54-2.54,0-4.21,1.25-6.58,3.6v20.17h-6.77v-28.87Z"/>
        <path class="cls-1" d="M366.47,403.64c0-9.38,6.51-15.17,13.31-15.17,7.81,0,11.92,5.64,11.92,13.71,0,1.29-.14,2.59-.29,3.29h-18.33c.56,5.12,3.86,8.04,8.51,8.04,2.47,0,4.58-.78,6.7-2.09l2.3,4.21c-2.75,1.86-6.23,3.13-9.9,3.13-7.97,0-14.22-5.6-14.22-15.12ZM385.84,400.87c0-4.44-1.98-7.15-5.93-7.15-3.36,0-6.32,2.52-6.91,7.15h12.84Z"/>
        <path class="cls-1" d="M396.27,403.64c0-9.38,6.51-15.17,13.31-15.17,7.8,0,11.92,5.64,11.92,13.71,0,1.29-.14,2.59-.29,3.29h-18.33c.56,5.12,3.86,8.04,8.51,8.04,2.47,0,4.58-.78,6.7-2.09l2.3,4.21c-2.75,1.86-6.23,3.13-9.9,3.13-7.97,0-14.22-5.6-14.22-15.12ZM415.64,400.87c0-4.44-1.97-7.15-5.92-7.15-3.36,0-6.32,2.52-6.91,7.15h12.84Z"/>
        <path class="cls-1" d="M427.97,389.18h5.55l.52,5.15h.19c2.06-3.76,5.11-5.85,8.21-5.85,1.47,0,2.4.19,3.27.59l-1.17,5.88c-1.01-.28-1.76-.47-2.96-.47-2.3,0-5.08,1.57-6.82,5.97v17.61h-6.77v-28.87Z"/>
        <path class="cls-1" d="M446.42,380.25c0-2.3,1.67-3.83,4.07-3.83s4.07,1.53,4.07,3.83-1.67,3.88-4.07,3.88-4.07-1.53-4.07-3.88ZM447.08,389.18h6.77v28.87h-6.77v-28.87Z"/>
        <path class="cls-1" d="M462.48,389.18h5.55l.52,3.9h.19c2.59-2.52,5.53-4.61,9.47-4.61,6.18,0,8.89,4.19,8.89,11.47v18.1h-6.77v-17.23c0-4.75-1.37-6.54-4.49-6.54-2.54,0-4.21,1.25-6.58,3.6v20.17h-6.77v-28.87Z"/>
        <path class="cls-1" d="M493.42,423.3c0-2.43,1.5-4.56,4.16-6.16v-.24c-1.48-.96-2.61-2.49-2.61-4.82s1.53-4.21,3.2-5.38v-.23c-1.98-1.46-3.81-4.21-3.81-7.62,0-6.63,5.36-10.37,11.4-10.37,1.6,0,3.1.28,4.28.71h10.32v5.03h-5.27c.94,1.08,1.64,2.87,1.64,4.84,0,6.42-4.87,9.85-10.98,9.85-1.22,0-2.61-.26-3.9-.76-.87.74-1.41,1.47-1.41,2.76,0,1.62,1.18,2.61,4.68,2.61h5.14c6.9,0,10.57,2.14,10.57,7.12,0,5.69-5.97,10.18-15.4,10.18-6.89,0-12.01-2.47-12.01-7.52ZM514.3,421.75c0-2.23-1.79-2.89-5.09-2.89h-3.96c-1.55,0-2.8-.12-3.9-.4-1.55,1.18-2.23,2.47-2.23,3.81,0,2.63,2.82,4.16,7.36,4.16s7.83-2.19,7.83-4.68ZM510.77,398.85c0-3.62-2.19-5.69-5.01-5.69s-5.01,2.05-5.01,5.69,2.23,5.81,5.01,5.81,5.01-2.14,5.01-5.81Z"/>
      </g>
      <g>
        <g id="Circle">
          <path class="cls-4" d="M91.43,308.62c50.49,0,91.43,40.94,91.43,91.43s-40.94,91.43-91.43,91.43S0,450.53,0,400.04s40.94-91.43,91.43-91.43Z"/>
          <path class="cls-3" d="M91.43,323.86c42.07,0,76.19,34.11,76.19,76.19,0,42.07-34.11,76.19-76.19,76.19-42.08,0-76.19-34.11-76.19-76.19,0-42.07,34.12-76.19,76.19-76.19Z"/>
        </g>
        <path id="Gear" class="cls-2" d="M94.64,375.49c-.76-.1-1.5-.79-1.66-1.54l-1.02-4.54c-.16-.75-.91-1.27-1.67-1.18l-5.65.77c-.76.11-1.34.8-1.3,1.57l.24,4.64c.04.77-.5,1.63-1.2,1.94l-4.28,2.24c-.64.41-1.66.36-2.26-.1l-3.7-2.83c-.6-.47-1.51-.38-2.03.17l-3.83,4.22c-.51.56-.5,1.47.02,2.03l3.18,3.4c.51.55.66,1.57.31,2.24l-1.82,4.47c-.24.74-1.06,1.36-1.82,1.38l-4.64.21c-.76.03-1.41.69-1.44,1.44l-.22,5.71c-.03.76.56,1.46,1.31,1.55l4.62.57c.74.08,1.51.77,1.69,1.5l1.47,4.61c.28.72.06,1.7-.51,2.21l-3.43,3.15c-.56.5-.64,1.42-.18,2.02l3.5,4.51c.46.61,1.37.76,2,.35l3.9-2.54c.64-.42,1.67-.38,2.27.06l4.08,2.58c.67.35,1.14,1.27,1.03,2.02l-.6,4.61c-.1.76.42,1.5,1.18,1.66l5.57,1.21c.75.16,1.53-.31,1.76-1.03l1.35-4.45c.22-.73,1.03-1.37,1.79-1.41l4.77-.64c.76-.16,1.69.24,2.1.88l2.5,3.92c.41.64,1.3.88,1.97.52l5.05-2.64c.68-.36.97-1.22.69-1.93l-1.82-4.28c-.3-.7-.09-1.7.46-2.22l3.25-3.57c.47-.59,1.44-.9,2.17-.67l4.43,1.4c.73.23,1.56-.15,1.85-.86l2.16-5.29c.29-.7-.04-1.55-.71-1.91l-4.14-2.1c-.67-.35-1.14-1.24-1.01-2,0,0,.17-1.12.22-2.41.05-1.31-.04-2.44-.04-2.44-.06-.75.47-1.61,1.18-1.9l4.29-1.77c.71-.29,1.09-1.12.86-1.84l-1.74-5.43c-.23-.73-1.03-1.16-1.77-1l-4.54,1.04c-.73.18-1.68-.2-2.1-.84l-2.97-3.81c-.52-.56-.64-1.57-.29-2.24l2.15-4.13c.35-.68.11-1.57-.53-1.98l-4.83-3.04c-.64-.39-1.53-.24-1.99.37l-2.79,3.72c-.46.6-1.44.93-2.16.71l-4.72-1.03ZM106.47,400.71c-.31,8.14-7.16,14.47-15.29,14.15-8.13-.32-14.47-7.17-14.15-15.3.32-8.14,7.18-14.46,15.31-14.15,8.12.32,14.46,7.18,14.13,15.3Z"/>
      </g>
      <path class="cls-3" d="M707.11,380.61c-.4-3.51-4.71-4.99-7.21-2.49l-22.59,22.59c-1.07,1.07-2.63,1.49-4.09,1.1l-17.19-4.61c-1.46-.39-2.6-1.53-3-3l-4.61-17.2c-.39-1.46.03-3.02,1.1-4.09l22.59-22.58c2.5-2.5,1.02-6.81-2.49-7.21-12.47-1.42-25.42,2.64-35,12.19-12.34,12.36-15.51,30.42-9.52,45.72l-76.13,76.12c-9.21-1.71-19.01.94-26.05,7.99-11.47,11.47-11.34,30.2.31,41.86,11.66,11.66,30.4,11.8,41.86.33,7.06-7.06,9.72-16.87,8.01-26.09l76.11-76.1c15.3,5.99,33.36,2.82,45.72-9.54,9.55-9.55,13.61-22.52,12.19-34.98ZM544.11,521.14c-8.3,0-15.02-6.73-15.02-15.02s6.73-15.02,15.02-15.02,15.02,6.73,15.02,15.02-6.73,15.02-15.02,15.02Z"/>
      <path class="cls-5" d="M648.23,445.58c20.91,5.73,44.21.4,60.64-16.03,24.35-24.34,24.35-63.84-.01-88.2-24.34-24.34-63.84-24.34-88.18,0-16.42,16.43-21.75,39.74-16.02,60.65l-19.21,19.21-12.17-.81-5.21-19.46,12.97-8.68.03.07c-.17-2.28-.31-4.58-.27-6.89-.03-2.24.1-4.55.23-6.79l-12.96-8.69,5.21-19.46,15.61-1.05c1.9-4.04,4.15-7.97,6.77-11.76l-6.91-14.01,14.27-14.26,14.01,6.87c3.78-2.59,7.7-4.84,11.77-6.77l1.04-15.59,19.45-5.2,8.69,12.96-.07.04c2.29-.2,4.58-.31,6.87-.29,2.29-.02,4.6.1,6.88.28l-.08-.03,8.69-12.96,19.46,5.2,1.04,15.61c4.05,1.9,7.96,4.15,11.76,6.76l14.02-6.88,14.25,14.25-6.88,14.01c2.6,3.79,4.85,7.72,6.79,11.79l15.57,1.02,5.22,19.46-12.96,8.69c.14,2.24.25,4.54.24,6.79.02,2.3-.1,4.61-.29,6.89l.05-.07,12.96,8.68-5.21,19.46-15.58,1.05c-1.96,4.04-4.17,7.98-6.8,11.76l6.88,14.01-14.25,14.25-14.01-6.88c-3.8,2.63-7.73,4.85-11.76,6.79l-1.05,15.58-19.46,5.22-8.68-12.97c-2.26.14-4.55.26-6.82.23-2.29.02-4.59-.09-6.86-.25l-8.62,12.99-19.47-5.21-.81-12.17,19.23-19.23Z"/>
      <g>
        <path class="cls-3" d="M704.18,152.44l-19.05-22.59c-2.58-3.06-6.39-4.83-10.4-4.83h-4.99v-37.99c17.95-5.77,30.98-22.6,30.98-42.44,0-24.58-20-44.59-44.58-44.59-12.8,0-24.32,5.45-32.46,14.12l-120.91,33.36c-10.56-7.87-23.59-12.58-37.74-12.58-34.94,0-63.36,28.43-63.36,63.36,0,16.07,6.06,30.71,15.95,41.89v104.66c-11.36,12.02-17.79,27.97-17.79,44.71v25.63c0,.92.1,1.83.27,2.7h-13.05c-7.51,0-13.6,6.09-13.6,13.6s6.09,13.6,13.6,13.6h155.96c7.51,0,13.6-6.09,13.6-13.6s-6.09-13.6-13.6-13.6h-13.05c.18-.87.27-1.77.27-2.7v-25.63c0-16.76-6.34-32.52-17.79-44.67v-104.71c3.87-4.37,7.12-9.27,9.67-14.59l109.73-43.63c3.29,2.15,6.87,3.88,10.68,5.1v37.99h-4.99c-4.01,0-7.82,1.77-10.4,4.83l-19.05,22.59c-2.94,3.49-3.94,8.23-2.65,12.61l7.62,25.92c2.11,7.2,9.65,11.33,16.89,9.21,7.2-2.12,11.33-9.68,9.21-16.89l-5.56-18.89,10.27-12.17h24.54l10.27,12.17-5.56,18.9c-2.12,7.2,2,14.77,9.21,16.89,1.28.38,2.57.56,3.84.56,5.88,0,11.3-3.84,13.04-9.77l7.62-25.91c1.29-4.38.29-9.11-2.65-12.61ZM656.14,27.2c9.58,0,17.38,7.8,17.38,17.38s-7.79,17.38-17.38,17.38-17.39-7.8-17.39-17.38,7.8-17.38,17.39-17.38ZM485.25,227.57c-6.48-2.12-13.3-3.29-20.24-3.29s-13.72,1.16-20.19,3.28v-69.3c6.36,2.15,13.14,3.36,20.21,3.36s13.86-1.22,20.21-3.36v69.31ZM521.87,70.43l89.73-24.76c.12,4.9,1.04,9.6,2.62,13.99l-86.06,34.22c-.58-8.37-2.78-16.28-6.3-23.44ZM465.03,62.1c19.94,0,36.16,16.22,36.16,36.16s-16.22,36.16-36.16,36.16-36.16-16.22-36.16-36.16,16.22-36.16,36.16-36.16ZM426.76,317.84c.18-.87.27-1.77.27-2.7v-25.63c0-11.02,4.77-21.48,13.14-28.72,6.97-6.09,15.56-9.31,24.83-9.31s18.02,3.31,25.2,9.59c.59.48,1.13,1,1.69,1.56,7.18,7.18,11.14,16.74,11.14,26.89v25.63c0,.92.1,1.83.27,2.7h-76.55Z"/>
        <path class="cls-5" d="M465.03,272.13c-8.21,0-14.87,6.66-14.87,14.87s6.66,14.87,14.87,14.87,14.87-6.66,14.87-14.87-6.66-14.87-14.87-14.87Z"/>
        <circle class="cls-5" cx="465.03" cy="98.26" r="14.87" transform="translate(-10.13 109.47) rotate(-13.28)"/>
      </g>
    </g>
  </g>
</svg>