<?xml version="1.0" encoding="UTF-8"?>
<svg id="Layer_2" data-name="Layer 2" xmlns="http://www.w3.org/2000/svg" viewBox="0 0 438.94 204.69">
  <defs>
    <style>
      .cls-1 {
        fill: #231f20;
      }

      .cls-2 {
        fill: #f79439;
      }

      .cls-3 {
        fill: #12bdcd;
      }
    </style>
  </defs>
  <g id="Graphics">
    <g>
      <g>
        <path class="cls-2" d="M22.86,143.8h-9.95v10.2h-6.17v-25.59h17.12v4.76h-10.95v5.89h9.95v4.75Z"/>
        <path class="cls-2" d="M36.52,154c-.21-.39-.4-.96-.56-1.71-1.09,1.37-2.61,2.06-4.57,2.06-1.79,0-3.32-.54-4.57-1.63s-1.88-2.45-1.88-4.09c0-2.06.76-3.62,2.29-4.68s3.74-1.58,6.64-1.58h1.83v-1.01c0-1.75-.76-2.63-2.27-2.63-1.41,0-2.11.69-2.11,2.08h-5.92c0-1.84.78-3.33,2.35-4.48s3.56-1.72,5.99-1.72,4.34.59,5.75,1.78,2.13,2.81,2.16,4.87v8.42c.02,1.75.29,3.08.81,4.01v.3h-5.92ZM32.81,150.13c.74,0,1.35-.16,1.84-.47s.83-.67,1.05-1.07v-3.04h-1.72c-2.06,0-3.09.93-3.09,2.78,0,.54.18.98.54,1.31s.83.5,1.39.5Z"/>
        <path class="cls-2" d="M50.76,134.98l.19,2.23c1.35-1.72,3.16-2.58,5.43-2.58,2.4,0,4.03.96,4.87,2.87,1.29-1.91,3.15-2.87,5.59-2.87,3.86,0,5.84,2.33,5.94,7v12.38h-5.94v-12.01c0-.97-.16-1.68-.49-2.13s-.93-.67-1.79-.67c-1.17,0-2.04.52-2.62,1.56l.02.25v12.99h-5.94v-11.97c0-1-.16-1.72-.47-2.16s-.92-.67-1.81-.67c-1.14,0-2,.52-2.6,1.56v13.24h-5.92v-19.02h5.55Z"/>
        <path class="cls-2" d="M76.38,130.07c0-.84.3-1.54.91-2.07s1.4-.81,2.37-.81,1.76.27,2.37.81.91,1.23.91,2.07-.3,1.54-.91,2.07-1.4.81-2.37.81-1.76-.27-2.37-.81-.91-1.23-.91-2.07ZM82.67,154h-5.94v-19.02h5.94v19.02Z"/>
        <path class="cls-2" d="M92.82,154h-5.94v-27h5.94v27Z"/>
        <path class="cls-2" d="M104.32,145.7l3.16-10.72h6.35l-7.75,22.2-.33.81c-1.1,2.46-3.05,3.69-5.84,3.69-.77,0-1.59-.12-2.44-.35v-4.22h.77c.83,0,1.47-.12,1.91-.36.44-.24.76-.67.98-1.29l.47-1.27-6.61-19.21h6.33l3.01,10.72Z"/>
        <path class="cls-2" d="M136.35,140.34l-1.95-.14c-1.86,0-3.06.59-3.59,1.76v12.04h-5.92v-19.02h5.55l.19,2.44c1-1.86,2.38-2.79,4.17-2.79.63,0,1.18.07,1.65.21l-.11,5.5Z"/>
        <path class="cls-2" d="M147.6,154.35c-2.92,0-5.28-.87-7.08-2.61s-2.71-4-2.71-6.79v-.49c0-1.95.36-3.66,1.08-5.15s1.77-2.64,3.16-3.45,3.02-1.22,4.92-1.22c2.67,0,4.78.83,6.33,2.49s2.32,3.97,2.32,6.93v2.3h-11.78c.21,1.07.67,1.9,1.39,2.51s1.64.91,2.78.91c1.88,0,3.34-.66,4.39-1.97l2.71,3.2c-.74,1.02-1.78,1.83-3.14,2.43s-2.81.91-4.37.91ZM146.93,139.2c-1.73,0-2.77,1.15-3.09,3.45h5.98v-.46c.02-.95-.22-1.68-.72-2.21s-1.22-.78-2.16-.78Z"/>
        <path class="cls-2" d="M168.21,148.65c0-.5-.26-.91-.79-1.21s-1.53-.62-3.01-.95-2.7-.76-3.66-1.29-1.69-1.18-2.2-1.94-.76-1.63-.76-2.62c0-1.75.72-3.18,2.16-4.32s3.33-1.7,5.66-1.7c2.51,0,4.52.57,6.05,1.71s2.29,2.63,2.29,4.48h-5.94c0-1.52-.8-2.29-2.41-2.29-.62,0-1.14.17-1.56.52s-.63.78-.63,1.29.26.96.77,1.28,1.34.6,2.47.81,2.12.46,2.98.76c2.86.98,4.29,2.75,4.29,5.29,0,1.73-.77,3.15-2.31,4.24s-3.54,1.63-5.99,1.63c-1.63,0-3.08-.29-4.36-.88s-2.27-1.38-2.99-2.39-1.07-2.07-1.07-3.18h5.54c.02.88.32,1.52.88,1.92s1.28.61,2.16.61c.81,0,1.42-.16,1.82-.49s.61-.76.61-1.28Z"/>
        <path class="cls-2" d="M194.6,144.63c0,2.95-.67,5.31-2,7.08s-3.13,2.65-5.39,2.65c-1.75,0-3.18-.64-4.31-1.92v8.88h-5.92v-26.33h5.54l.18,1.76c1.14-1.41,2.63-2.11,4.48-2.11,2.34,0,4.17.86,5.47,2.59s1.95,4.1,1.95,7.13v.28ZM188.68,144.26c0-3.38-.98-5.06-2.95-5.06-1.41,0-2.34.5-2.81,1.51v7.49c.52,1.05,1.46,1.58,2.85,1.58,1.89,0,2.86-1.63,2.92-4.89v-.63Z"/>
        <path class="cls-2" d="M196.72,144.31c0-1.9.37-3.59,1.11-5.07s1.8-2.62,3.18-3.42,3.01-1.2,4.87-1.2c2.85,0,5.09.88,6.73,2.65s2.46,4.16,2.46,7.2v.21c0,2.96-.82,5.32-2.47,7.06s-3.88,2.61-6.69,2.61-4.88-.81-6.52-2.43-2.53-3.82-2.65-6.6l-.02-1ZM202.64,144.68c0,1.76.28,3.05.83,3.87s1.37,1.23,2.44,1.23c2.11,0,3.19-1.62,3.23-4.87v-.6c0-3.41-1.09-5.12-3.27-5.12-1.98,0-3.05,1.47-3.22,4.41l-.02,1.07Z"/>
        <path class="cls-2" d="M223.37,134.98l.19,2.23c1.31-1.72,3.12-2.58,5.43-2.58,1.98,0,3.46.59,4.44,1.78s1.49,2.96,1.52,5.34v12.25h-5.94v-12.01c0-.96-.19-1.67-.58-2.12s-1.09-.68-2.11-.68c-1.16,0-2.02.46-2.58,1.37v13.43h-5.92v-19.02h5.55Z"/>
        <path class="cls-2" d="M248.44,148.65c0-.5-.26-.91-.79-1.21s-1.53-.62-3.01-.95-2.7-.76-3.66-1.29-1.69-1.18-2.2-1.94-.76-1.63-.76-2.62c0-1.75.72-3.18,2.16-4.32s3.33-1.7,5.66-1.7c2.51,0,4.52.57,6.05,1.71s2.29,2.63,2.29,4.48h-5.94c0-1.52-.8-2.29-2.41-2.29-.62,0-1.14.17-1.56.52s-.63.78-.63,1.29.26.96.77,1.28,1.34.6,2.47.81,2.12.46,2.98.76c2.86.98,4.29,2.75,4.29,5.29,0,1.73-.77,3.15-2.31,4.24s-3.54,1.63-5.99,1.63c-1.63,0-3.08-.29-4.36-.88s-2.27-1.38-2.99-2.39-1.07-2.07-1.07-3.18h5.54c.02.88.32,1.52.88,1.92s1.28.61,2.16.61c.81,0,1.42-.16,1.82-.49s.61-.76.61-1.28Z"/>
        <path class="cls-2" d="M257.13,130.07c0-.84.3-1.54.91-2.07s1.4-.81,2.37-.81,1.76.27,2.37.81.91,1.23.91,2.07-.3,1.54-.91,2.07-1.4.81-2.37.81-1.76-.27-2.37-.81-.91-1.23-.91-2.07ZM263.42,154h-5.94v-19.02h5.94v19.02Z"/>
        <path class="cls-2" d="M284.98,144.65c0,3.12-.64,5.51-1.93,7.19s-3.11,2.51-5.45,2.51c-1.93,0-3.49-.77-4.68-2.3l-.25,1.95h-5.31v-27h5.92v9.51c1.1-1.25,2.53-1.88,4.27-1.88,2.37,0,4.2.85,5.48,2.55s1.93,4.09,1.93,7.17v.3ZM279.04,144.27c0-1.82-.24-3.13-.73-3.9-.49-.78-1.23-1.17-2.24-1.17-1.34,0-2.26.51-2.78,1.53v7.55c.5,1.01,1.44,1.51,2.81,1.51s2.28-.68,2.65-2.04c.19-.67.28-1.83.28-3.48Z"/>
        <path class="cls-2" d="M287.8,130.07c0-.84.3-1.54.91-2.07s1.4-.81,2.37-.81,1.76.27,2.37.81.91,1.23.91,2.07-.3,1.54-.91,2.07-1.4.81-2.37.81-1.76-.27-2.37-.81-.91-1.23-.91-2.07ZM294.09,154h-5.94v-19.02h5.94v19.02Z"/>
        <path class="cls-2" d="M304.24,154h-5.94v-27h5.94v27Z"/>
        <path class="cls-2" d="M308.1,130.07c0-.84.3-1.54.91-2.07s1.4-.81,2.37-.81,1.76.27,2.37.81.91,1.23.91,2.07-.3,1.54-.91,2.07-1.4.81-2.37.81-1.76-.27-2.37-.81-.91-1.23-.91-2.07ZM314.39,154h-5.94v-19.02h5.94v19.02Z"/>
        <path class="cls-2" d="M325.19,130.25v4.73h3.13v4.11h-3.13v8.7c0,.71.13,1.21.39,1.49s.77.42,1.53.42c.59,0,1.08-.04,1.48-.11v4.24c-1.07.34-2.18.51-3.34.51-2.04,0-3.54-.48-4.52-1.44s-1.46-2.42-1.46-4.38v-9.44h-2.43v-4.11h2.43v-4.73h5.92Z"/>
        <path class="cls-2" d="M330.85,130.07c0-.84.3-1.54.91-2.07s1.4-.81,2.37-.81,1.76.27,2.37.81.91,1.23.91,2.07-.3,1.54-.91,2.07-1.4.81-2.37.81-1.76-.27-2.37-.81-.91-1.23-.91-2.07ZM337.15,154h-5.94v-19.02h5.94v19.02Z"/>
        <path class="cls-2" d="M350.25,154.35c-2.92,0-5.28-.87-7.08-2.61s-2.71-4-2.71-6.79v-.49c0-1.95.36-3.66,1.08-5.15s1.77-2.64,3.16-3.45,3.02-1.22,4.92-1.22c2.67,0,4.78.83,6.33,2.49s2.32,3.97,2.32,6.93v2.3h-11.78c.21,1.07.67,1.9,1.39,2.51s1.64.91,2.78.91c1.88,0,3.34-.66,4.39-1.97l2.71,3.2c-.74,1.02-1.78,1.83-3.14,2.43s-2.81.91-4.37.91ZM349.58,139.2c-1.73,0-2.77,1.15-3.09,3.45h5.98v-.46c.02-.95-.22-1.68-.72-2.21s-1.22-.78-2.16-.78Z"/>
        <path class="cls-2" d="M370.86,148.65c0-.5-.26-.91-.79-1.21s-1.53-.62-3.01-.95-2.7-.76-3.66-1.29-1.69-1.18-2.2-1.94-.76-1.63-.76-2.62c0-1.75.72-3.18,2.16-4.32s3.33-1.7,5.66-1.7c2.51,0,4.52.57,6.05,1.71s2.29,2.63,2.29,4.48h-5.94c0-1.52-.8-2.29-2.41-2.29-.62,0-1.14.17-1.56.52s-.63.78-.63,1.29.26.96.77,1.28,1.34.6,2.47.81,2.12.46,2.98.76c2.86.98,4.29,2.75,4.29,5.29,0,1.73-.77,3.15-2.31,4.24s-3.54,1.63-5.99,1.63c-1.63,0-3.08-.29-4.36-.88s-2.27-1.38-2.99-2.39-1.07-2.07-1.07-3.18h5.54c.02.88.32,1.52.88,1.92s1.28.61,2.16.61c.81,0,1.42-.16,1.82-.49s.61-.76.61-1.28Z"/>
        <path class="cls-1" d="M399.52,154c-.21-.39-.4-.96-.56-1.71-1.09,1.37-2.61,2.06-4.57,2.06-1.79,0-3.32-.54-4.57-1.63s-1.88-2.45-1.88-4.09c0-2.06.76-3.62,2.29-4.68s3.74-1.58,6.64-1.58h1.83v-1.01c0-1.75-.76-2.63-2.27-2.63-1.41,0-2.11.69-2.11,2.08h-5.92c0-1.84.78-3.33,2.35-4.48s3.56-1.72,5.99-1.72,4.34.59,5.75,1.78,2.13,2.81,2.16,4.87v8.42c.02,1.75.29,3.08.81,4.01v.3h-5.92ZM395.81,150.13c.74,0,1.35-.16,1.84-.47s.83-.67,1.05-1.07v-3.04h-1.72c-2.06,0-3.09.93-3.09,2.78,0,.54.18.98.54,1.31s.83.5,1.39.5Z"/>
        <path class="cls-1" d="M419.67,140.34l-1.95-.14c-1.86,0-3.06.59-3.59,1.76v12.04h-5.92v-19.02h5.55l.19,2.44c1-1.86,2.38-2.79,4.17-2.79.63,0,1.18.07,1.65.21l-.11,5.5Z"/>
        <path class="cls-1" d="M430.93,154.35c-2.92,0-5.28-.87-7.08-2.61s-2.71-4-2.71-6.79v-.49c0-1.95.36-3.66,1.08-5.15s1.77-2.64,3.16-3.45,3.02-1.22,4.92-1.22c2.67,0,4.78.83,6.33,2.49s2.32,3.97,2.32,6.93v2.3h-11.78c.21,1.07.67,1.9,1.39,2.51s1.64.91,2.78.91c1.88,0,3.34-.66,4.39-1.97l2.71,3.2c-.74,1.02-1.78,1.83-3.14,2.43s-2.81.91-4.37.91ZM430.26,139.2c-1.73,0-2.77,1.15-3.09,3.45h5.98v-.46c.02-.95-.22-1.68-.72-2.21s-1.22-.78-2.16-.78Z"/>
        <path class="cls-1" d="M16.42,191.85c0-.5-.26-.91-.79-1.21s-1.53-.62-3.01-.95-2.7-.76-3.66-1.29-1.69-1.18-2.2-1.94-.76-1.63-.76-2.62c0-1.75.72-3.18,2.16-4.32s3.33-1.7,5.66-1.7c2.51,0,4.52.57,6.05,1.71s2.29,2.63,2.29,4.48h-5.94c0-1.52-.8-2.29-2.41-2.29-.62,0-1.14.17-1.56.52s-.63.78-.63,1.29.26.96.77,1.28,1.34.6,2.47.81,2.12.46,2.98.76c2.86.98,4.29,2.75,4.29,5.29,0,1.73-.77,3.15-2.31,4.24s-3.54,1.63-5.99,1.63c-1.63,0-3.08-.29-4.36-.88-1.28-.59-2.27-1.38-2.99-2.39s-1.07-2.07-1.07-3.18h5.54c.02.88.32,1.52.88,1.92s1.28.61,2.16.61c.81,0,1.42-.16,1.82-.49s.61-.76.61-1.28Z"/>
        <path class="cls-1" d="M25.11,173.27c0-.84.3-1.54.91-2.07s1.4-.81,2.37-.81,1.76.27,2.37.81.91,1.23.91,2.07-.3,1.54-.91,2.07-1.4.81-2.37.81-1.76-.27-2.37-.81-.91-1.23-.91-2.07ZM31.4,197.2h-5.94v-19.02h5.94v19.02Z"/>
        <path class="cls-1" d="M34.61,187.55c0-1.92.32-3.62.95-5.1s1.54-2.62,2.72-3.42,2.56-1.2,4.13-1.2c1.98,0,3.53.67,4.64,2l.21-1.65h5.38v18.3c0,1.68-.39,3.13-1.17,4.37-.78,1.24-1.91,2.19-3.38,2.85-1.48.66-3.19.99-5.13.99-1.39,0-2.75-.26-4.05-.79s-2.31-1.21-3-2.06l2.48-3.48c1.1,1.3,2.55,1.95,4.36,1.95,2.62,0,3.94-1.35,3.94-4.04v-.6c-1.14,1.25-2.57,1.88-4.31,1.88-2.32,0-4.2-.89-5.62-2.66s-2.14-4.15-2.14-7.13v-.21ZM40.55,187.92c0,1.56.29,2.79.88,3.7s1.41,1.36,2.46,1.36c1.28,0,2.21-.43,2.79-1.28v-8c-.57-.87-1.49-1.3-2.76-1.3-1.05,0-1.88.47-2.48,1.42s-.9,2.31-.9,4.1Z"/>
        <path class="cls-1" d="M61.7,178.18l.19,2.23c1.31-1.72,3.12-2.58,5.43-2.58,1.98,0,3.46.59,4.44,1.78s1.49,2.96,1.52,5.34v12.25h-5.94v-12.01c0-.96-.19-1.67-.58-2.12s-1.09-.68-2.11-.68c-1.16,0-2.02.46-2.58,1.37v13.43h-5.92v-19.02h5.55Z"/>
        <path class="cls-1" d="M76.77,173.27c0-.84.3-1.54.91-2.07s1.4-.81,2.37-.81,1.76.27,2.37.81.91,1.23.91,2.07-.3,1.54-.91,2.07-1.4.81-2.37.81-1.76-.27-2.37-.81-.91-1.23-.91-2.07ZM83.07,197.2h-5.94v-19.02h5.94v19.02Z"/>
        <path class="cls-1" d="M88.28,197.2v-14.91h-2.76v-4.11h2.76v-1.51c0-2.17.64-3.85,1.92-5.04s3.07-1.79,5.38-1.79c.84,0,1.77.12,2.78.37l.02,4.36c-.36-.11-.85-.16-1.46-.16-1.79,0-2.69.77-2.69,2.32v1.46h3.71v4.11h-3.71v14.91h-5.94Z"/>
        <path class="cls-1" d="M100.22,173.27c0-.84.3-1.54.91-2.07s1.4-.81,2.37-.81,1.76.27,2.37.81.91,1.23.91,2.07-.3,1.54-.91,2.07-1.4.81-2.37.81-1.76-.27-2.37-.81-.91-1.23-.91-2.07ZM106.51,197.2h-5.94v-19.02h5.94v19.02Z"/>
        <path class="cls-1" d="M118.45,192.98c.83,0,1.48-.23,1.93-.68s.68-1.08.67-1.89h5.55c0,2.09-.75,3.8-2.24,5.13s-3.42,2-5.77,2c-2.77,0-4.95-.87-6.54-2.6s-2.39-4.14-2.39-7.21v-.25c0-1.92.35-3.62,1.06-5.09s1.73-2.6,3.07-3.39,2.92-1.19,4.75-1.19c2.47,0,4.44.69,5.89,2.06s2.18,3.23,2.18,5.57h-5.55c0-.98-.24-1.74-.72-2.27s-1.12-.79-1.93-.79c-1.54,0-2.43.98-2.69,2.94-.08.62-.12,1.48-.12,2.57,0,1.91.23,3.23.69,3.97s1.18,1.11,2.18,1.11Z"/>
        <path class="cls-1" d="M140.08,197.2c-.21-.39-.4-.96-.56-1.71-1.09,1.37-2.61,2.06-4.57,2.06-1.79,0-3.32-.54-4.57-1.63s-1.88-2.45-1.88-4.09c0-2.06.76-3.62,2.29-4.68s3.74-1.58,6.64-1.58h1.83v-1.01c0-1.75-.76-2.63-2.27-2.63-1.41,0-2.11.69-2.11,2.08h-5.92c0-1.84.78-3.33,2.35-4.48s3.56-1.72,5.99-1.72,4.34.59,5.75,1.78,2.13,2.81,2.16,4.87v8.42c.02,1.75.29,3.08.81,4.01v.3h-5.92ZM136.37,193.33c.74,0,1.35-.16,1.84-.47s.83-.67,1.05-1.07v-3.04h-1.72c-2.06,0-3.09.93-3.09,2.78,0,.54.18.98.54,1.31s.83.5,1.39.5Z"/>
        <path class="cls-1" d="M154.16,178.18l.19,2.23c1.31-1.72,3.12-2.58,5.43-2.58,1.98,0,3.46.59,4.44,1.78s1.49,2.96,1.52,5.34v12.25h-5.94v-12.01c0-.96-.19-1.67-.58-2.12s-1.09-.68-2.11-.68c-1.16,0-2.02.46-2.58,1.37v13.43h-5.92v-19.02h5.55Z"/>
        <path class="cls-1" d="M176.18,173.45v4.73h3.13v4.11h-3.13v8.7c0,.71.13,1.21.39,1.49s.77.42,1.53.42c.59,0,1.08-.04,1.48-.11v4.24c-1.07.34-2.18.51-3.34.51-2.04,0-3.54-.48-4.52-1.44s-1.46-2.42-1.46-4.38v-9.44h-2.43v-4.11h2.43v-4.73h5.92Z"/>
        <path class="cls-1" d="M196.7,178.18l.19,2.23c1.35-1.72,3.16-2.58,5.43-2.58,2.4,0,4.03.96,4.87,2.87,1.29-1.91,3.15-2.87,5.59-2.87,3.86,0,5.84,2.33,5.94,7v12.38h-5.94v-12.01c0-.97-.16-1.68-.49-2.13s-.93-.67-1.79-.67c-1.17,0-2.04.52-2.62,1.56l.02.25v12.99h-5.94v-11.97c0-1-.16-1.72-.47-2.16s-.92-.67-1.81-.67c-1.14,0-2,.52-2.6,1.56v13.24h-5.92v-19.02h5.55Z"/>
        <path class="cls-1" d="M221.62,187.51c0-1.9.37-3.59,1.11-5.07s1.8-2.62,3.18-3.42,3.01-1.2,4.87-1.2c2.85,0,5.09.88,6.73,2.65s2.46,4.16,2.46,7.2v.21c0,2.96-.82,5.32-2.47,7.06s-3.88,2.61-6.69,2.61-4.88-.81-6.52-2.43-2.53-3.82-2.65-6.6l-.02-1ZM227.54,187.88c0,1.76.28,3.05.83,3.87s1.37,1.23,2.44,1.23c2.11,0,3.19-1.62,3.23-4.87v-.6c0-3.41-1.09-5.12-3.27-5.12-1.98,0-3.05,1.47-3.22,4.41l-.02,1.07Z"/>
        <path class="cls-1" d="M249.73,173.45v4.73h3.13v4.11h-3.13v8.7c0,.71.13,1.21.39,1.49s.77.42,1.53.42c.59,0,1.08-.04,1.48-.11v4.24c-1.07.34-2.18.51-3.34.51-2.04,0-3.54-.48-4.52-1.44s-1.46-2.42-1.46-4.38v-9.44h-2.43v-4.11h2.43v-4.73h5.92Z"/>
        <path class="cls-1" d="M255.4,173.27c0-.84.3-1.54.91-2.07s1.4-.81,2.37-.81,1.76.27,2.37.81.91,1.23.91,2.07-.3,1.54-.91,2.07-1.4.81-2.37.81-1.76-.27-2.37-.81-.91-1.23-.91-2.07ZM261.69,197.2h-5.94v-19.02h5.94v19.02Z"/>
        <path class="cls-1" d="M273.17,190.15l3.01-11.97h6.24l-6.21,19.02h-6.05l-6.21-19.02h6.26l2.95,11.97Z"/>
        <path class="cls-1" d="M294.89,197.2c-.21-.39-.4-.96-.56-1.71-1.09,1.37-2.61,2.06-4.57,2.06-1.79,0-3.32-.54-4.57-1.63s-1.88-2.45-1.88-4.09c0-2.06.76-3.62,2.29-4.68s3.74-1.58,6.64-1.58h1.83v-1.01c0-1.75-.76-2.63-2.27-2.63-1.41,0-2.11.69-2.11,2.08h-5.92c0-1.84.78-3.33,2.35-4.48s3.56-1.72,5.99-1.72,4.34.59,5.75,1.78,2.13,2.81,2.16,4.87v8.42c.02,1.75.29,3.08.81,4.01v.3h-5.92ZM291.18,193.33c.74,0,1.35-.16,1.84-.47s.83-.67,1.05-1.07v-3.04h-1.72c-2.06,0-3.09.93-3.09,2.78,0,.54.18.98.54,1.31s.83.5,1.39.5Z"/>
        <path class="cls-1" d="M310.43,173.45v4.73h3.13v4.11h-3.13v8.7c0,.71.13,1.21.39,1.49s.77.42,1.53.42c.59,0,1.08-.04,1.48-.11v4.24c-1.07.34-2.18.51-3.34.51-2.04,0-3.54-.48-4.52-1.44s-1.46-2.42-1.46-4.38v-9.44h-2.43v-4.11h2.43v-4.73h5.92Z"/>
        <path class="cls-1" d="M314.87,187.51c0-1.9.37-3.59,1.11-5.07s1.8-2.62,3.18-3.42,3.01-1.2,4.87-1.2c2.85,0,5.09.88,6.73,2.65s2.46,4.16,2.46,7.2v.21c0,2.96-.82,5.32-2.47,7.06s-3.88,2.61-6.69,2.61-4.88-.81-6.52-2.43-2.53-3.82-2.65-6.6l-.02-1ZM320.79,187.88c0,1.76.28,3.05.83,3.87s1.37,1.23,2.44,1.23c2.11,0,3.19-1.62,3.23-4.87v-.6c0-3.41-1.09-5.12-3.27-5.12-1.98,0-3.05,1.47-3.22,4.41l-.02,1.07Z"/>
        <path class="cls-1" d="M347.59,183.54l-1.95-.14c-1.86,0-3.06.59-3.59,1.76v12.04h-5.92v-19.02h5.55l.19,2.44c1-1.86,2.38-2.79,4.17-2.79.63,0,1.18.07,1.65.21l-.11,5.5Z"/>
        <path class="cls-1" d="M359.93,191.85c0-.5-.26-.91-.79-1.21s-1.53-.62-3.01-.95-2.7-.76-3.66-1.29-1.69-1.18-2.2-1.94-.76-1.63-.76-2.62c0-1.75.72-3.18,2.16-4.32s3.33-1.7,5.66-1.7c2.51,0,4.52.57,6.05,1.71s2.29,2.63,2.29,4.48h-5.94c0-1.52-.8-2.29-2.41-2.29-.62,0-1.14.17-1.56.52s-.63.78-.63,1.29.26.96.77,1.28,1.34.6,2.47.81,2.12.46,2.98.76c2.86.98,4.29,2.75,4.29,5.29,0,1.73-.77,3.15-2.31,4.24s-3.54,1.63-5.99,1.63c-1.63,0-3.08-.29-4.36-.88-1.28-.59-2.27-1.38-2.99-2.39s-1.07-2.07-1.07-3.18h5.54c.02.88.32,1.52.88,1.92s1.28.61,2.16.61c.81,0,1.42-.16,1.82-.49s.61-.76.61-1.28Z"/>
        <path class="cls-1" d="M372.33,191.45c.94,0,1.72.28,2.34.83s.93,1.27.93,2.14-.31,1.58-.93,2.14-1.4.83-2.34.83-1.73-.28-2.35-.84-.92-1.27-.92-2.13.31-1.56.92-2.13,1.4-.84,2.35-.84Z"/>
      </g>
      <g>
        <path class="cls-2" d="M141.91,90.12c25.13-23.76,42.85-40.63,42.85-54.77,0-9.55-5.3-14.82-13.99-14.82-7.02,0-12.61,4.83-17.54,10.04l-12.39-12.33c9.72-10.39,18.94-15.64,33.06-15.64,19.47,0,32.75,12.42,32.75,31.47,0,16.63-15.53,34.35-31.7,51.07,5.09-.57,11.97-1.13,16.54-1.13h19.88v19.22h-69.46v-13.1Z"/>
        <path class="cls-2" d="M225.12,90.12c25.13-23.76,42.85-40.63,42.85-54.77,0-9.55-5.3-14.82-13.99-14.82-7.02,0-12.61,4.83-17.54,10.04l-12.39-12.33c9.72-10.39,18.94-15.64,33.06-15.64,19.47,0,32.75,12.42,32.75,31.47,0,16.63-15.53,34.35-31.7,51.07,5.09-.57,11.97-1.13,16.54-1.13h19.88v19.22h-69.46v-13.1Z"/>
        <path class="cls-2" d="M306.54,32.04c0-20.27,10.65-32.04,25.3-32.04s25.31,11.77,25.31,32.04-10.65,32.35-25.31,32.35-25.3-12.02-25.3-32.35ZM341.21,32.04c0-14.4-4.23-19.28-9.37-19.28s-9.36,4.88-9.36,19.28,4.22,19.59,9.36,19.59,9.37-5.19,9.37-19.59ZM390.08,0h13.18l-54.72,105.09h-13.18L390.08,0ZM381.31,72.74c0-20.27,10.65-32.04,25.31-32.04s25.31,11.77,25.31,32.04-10.65,32.35-25.31,32.35-25.31-12.02-25.31-32.35ZM415.98,72.74c0-14.4-4.22-19.28-9.36-19.28s-9.36,4.88-9.36,19.28,4.22,19.59,9.36,19.59,9.36-5.19,9.36-19.59Z"/>
      </g>
      <g>
        <path class="cls-3" d="M65.9,28.1c1.84-1.5,9.99-4.18,9.99-9.84,0-3.19-1.59-6.38-5.58-6.38-3.19,0-4.78,2.39-4.78,3.19,0-.8-1.59-3.19-4.78-3.19-3.99,0-5.58,3.19-5.58,6.38,0,5.66,8.16,8.32,10,9.84.28.23.45.23.73,0Z"/>
        <path class="cls-2" d="M96.28,11.35c0-5.98,4.86-10.84,10.84-10.84s10.84,4.86,10.84,10.84-4.85,10.84-10.84,10.84-10.84-4.85-10.84-10.84ZM131.07,81.73c-1.04-13.18-5.54-40.56-6.57-53.74-.16-2.02-1.93-3.53-3.96-3.4-5.63.31-7.8.47-13.42.47s-7.78-.16-13.42-.47c-2.03-.13-3.8,1.38-3.96,3.4-1.04,13.18-5.54,40.56-6.57,53.74-.16,2.02,1.65,3.82,4.04,3.97,2.19.14,3.29.2,5.47.31,1.53,4.98,2.56,10.17,4.75,17.8.15,2.03,2.43,3.76,5.09,3.81h9.21c2.66-.06,4.94-1.78,5.09-3.81,2.19-7.63,3.22-12.82,4.75-17.8,2.18-.11,3.28-.17,5.47-.31,2.39-.16,4.2-1.95,4.04-3.97Z"/>
        <path class="cls-2" d="M60.04,58.8c0-3.03,2.46-5.5,5.5-5.5s5.5,2.46,5.5,5.5-2.46,5.5-5.5,5.5-5.5-2.46-5.5-5.5ZM77.69,94.5c-.53-6.69-2.81-20.57-3.33-27.26-.08-1.02-.98-1.79-2.01-1.72-2.86.16-3.96.24-6.81.24s-3.94-.08-6.8-.24c-1.03-.06-1.93.7-2.01,1.72-.53,6.69-2.81,20.57-3.33,27.26-.08,1.03.84,1.94,2.05,2.02,1.11.07,1.67.1,2.77.16.78,2.53,1.3,5.16,2.41,9.03.08,1.03,1.23,1.91,2.58,1.93h4.67c1.35-.03,2.51-.9,2.58-1.93,1.11-3.87,1.63-6.5,2.41-9.03,1.11-.05,1.66-.08,2.77-.16,1.21-.08,2.13-.99,2.05-2.02Z"/>
        <path class="cls-3" d="M34.8,11.35c0,5.99-4.85,10.84-10.84,10.84s-10.84-4.85-10.84-10.84S17.98.51,23.96.51s10.84,4.85,10.84,10.84ZM47.91,64.43c-1.04-13.19-2.08-23.25-3.11-36.44-.16-2.02-1.93-3.53-3.96-3.4-5.64.31-11.26.47-16.88.47s-11.24-.16-16.88-.47c-2.03-.13-3.8,1.38-3.96,3.4C2.09,41.17,1.05,51.24,0,64.43c-.16,2.03,1.65,3.82,4.04,3.97,2.19.14,3.29.2,5.47.31,1.63,10.19,3.5,24.93,4.75,35.11.15,2.03,2.43,3.75,5.09,3.81h9.21c2.66-.06,4.94-1.78,5.09-3.81,1.25-10.18,3.12-24.93,4.75-35.11,2.18-.11,3.28-.17,5.47-.31,2.38-.15,4.19-1.95,4.03-3.97Z"/>
      </g>
    </g>
  </g>
</svg>