<svg version="1.2" xmlns="http://www.w3.org/2000/svg" viewBox="0 0 798 176" width="798" height="176"><style>tspan{white-space:pre}.a{fill:#11474d}.b{fill:#fefefe}.c{font-size: 46px;line-height: 56px;fill: #ffffff;font-weight: 900;font-family: "Roboto-Black", "Roboto"}</style><path class="a" d="m622.5 87.9c0 48.4 39.2 87.6 87.6 87.6 48.3 0 87.6-39.2 87.6-87.6 0-48.4-39.3-87.6-87.6-87.6-48.4 0-87.6 39.2-87.6 87.6z"/><path class="b" d="m678.2 67.7c4.9 0 8.9-3.9 8.9-8.8 0-4.9-4-8.9-8.9-8.9-4.8 0-8.8 4-8.8 8.9 0 4.9 4 8.8 8.8 8.8z"/><path class="b" d="m746.5 94.9q-0.5-0.9-1-1.8-0.1-0.3-0.3-0.6c-3.2-5.7-7.4-12.3-10-16.3-1.9-3-5.2-4.8-8.8-4.8h-7q-1.6 0-3.1 0.5-1.8 0.5-3.3 1.6-1.5 1.1-2.5 2.7c-0.7 1.2-1.6 2.5-2.6 4q-0.7 1.1-1.4 2.3c-3 4.8-6.3 10.3-8.5 14.6-0.7 1.4-0.7 3-0.2 4.4 0.6 1.4 1.8 2.5 3.3 3 2.3 0.8 4.8-0.1 6.1-2.1l5.9-8.8v12.9q0 0.3 0 0.6l-6.3 30.1c-0.3 1.6 0.1 3.2 1.1 4.4 1 1.3 2.5 2 4.1 2h0.2c2.5 0 4.6-1.7 5.2-4.2l5.5-24.7 5.5 24.7c0.5 2.5 2.6 4.2 5.1 4.2h0.2c1.6 0 3.1-0.7 4.1-2 1-1.2 1.4-2.8 1.1-4.4l-6.2-30.1q-0.1-0.3-0.1-0.6v-12.9l5.9 8.8c1 1.5 2.7 2.4 4.4 2.4q0.9 0 1.7-0.3 0.2 0 0.5-0.1 0-0.1 0.1-0.1c0.9-0.4 1.6-1 2.1-1.8q0.3-0.5 0.6-1c0.6-1.4 0.5-3-0.2-4.4q-0.5-1.1-1.2-2.2z"/><path class="b" d="m722.9 67c4.6 0 8.5-3.8 8.5-8.5 0-4.7-3.9-8.5-8.5-8.5-4.7 0-8.6 3.8-8.6 8.5 0 4.7 3.9 8.5 8.6 8.5z"/><path fill-rule="evenodd" class="b" d="m691.2 137.6c0.3 2.4-1.2 4.6-3.4 5.2q-0.6 0.2-1.3 0.2c-2.3 0-4.3-1.8-4.6-4.1l-3.7-19.1-3.6 19.1c-0.3 2.3-2.3 4.1-4.6 4.1q-0.7 0-1.3-0.2c-2.2-0.6-3.7-2.8-3.4-5.2l3.9-33.5q0 0.1-0.1 0.1c-0.8 0.6-1.7 0.8-2.6 0.8-1.3 0-2.6-0.5-3.6-1.5l-10.4-10.3c-1-1.1-1.5-2.4-1.5-3.7 0.1-1.3 0.7-2.6 1.7-3.4l11.7-11.5q0 0 0.1 0c4.2-3.6 9.3-3.9 13.7-3.9 1.7 0 3.7 0 5.7 0.3 0.8 0.1 1.4 0.2 2 0.2h22.2c0.2 0 3.7 0 3.8 0-1.7 0.9-6.1 6.3-7.6 11.3h-16.6l-0.6 20.3zm-21.8-52.5c-1.4 1.3-3.4 3.2-5 4.7l5 6.7z"/><path class="a" d="m5.2 13.6h615.3c-16.8 20.2-26.8 46.1-26.8 74.3 0 29.4 10.9 56.3 29 76.8h-619.3c-0.9-1.7-1.5-2.6-2.4-4.3v-139.5c0-4 1.9-7.3 4.2-7.3z"/><text style="transform:matrix(1,0,0,1,23.747,43.047)" ><tspan x="0" y="34.5" class="c" dx="0 0 0 0 0 0 0 0 0 0 0 0 0 0 0 0 0 0 0 0 0 0 0 0 0" >19% Job Placement  </tspan><tspan x="0" y="90.5" class="c" dx="0 0 0 0 0 0 0 0 0 0 0 0 0 0 0 0" >Assistance and Internships
</tspan></text></svg>
