<?xml version="1.0" encoding="UTF-8"?>
<svg id="Layer_2" data-name="Layer 2" xmlns="http://www.w3.org/2000/svg" viewBox="0 0 660.35 1057.75">
  <defs>
    <style>
      .cls-1 {
        fill: #4754a4;
      }

      .cls-2 {
        fill: #2e3f50;
      }

      .cls-3 {
        fill: #fff;
      }

      .cls-4 {
        fill: #bab7db;
      }

      .cls-5 {
        fill: #f79439;
      }

      .cls-6 {
        fill: #12bdcd;
      }
    </style>
  </defs>
  <g id="Text_Only" data-name="Text Only">
    <g>
      <path class="cls-6" d="M0,958.64h636.96c12.91,0,23.38,10.48,23.38,23.38v52.34c0,12.91-10.48,23.38-23.38,23.38H0v-99.11h0Z"/>
      <g>
        <path class="cls-3" d="M86.82,1017.29l-4,4.27v9.45h-10.58v-37.8h10.58v15.71l14.63-15.71h11.77l-15.44,16.74,16.25,21.06h-12.42l-10.8-13.72Z"/>
        <path class="cls-3" d="M143.2,1022.74v8.26h-30.35v-37.8h29.65v8.26h-19.06v6.37h16.79v7.99h-16.79v6.91h19.76Z"/>
        <path class="cls-3" d="M169.07,1017.45v13.55h-10.69v-13.72l-14.42-24.08h11.29l8.96,15.01,8.96-15.01h10.37l-14.47,24.25Z"/>
        <path class="cls-3" d="M201.95,993.2h10.69v37.8h-10.69v-37.8Z"/>
        <path class="cls-3" d="M256.22,993.2v37.8h-8.8l-16.69-20.14v20.14h-10.48v-37.8h8.8l16.69,20.14v-20.14h10.48Z"/>
        <path class="cls-3" d="M261.13,1027.6l3.51-7.88c3.35,2.21,8.1,3.73,12.47,3.73s6.16-1.24,6.16-3.08c0-5.99-21.49-1.62-21.49-15.66,0-6.75,5.51-12.26,16.74-12.26,4.91,0,9.99,1.13,13.72,3.29l-3.29,7.94c-3.62-1.94-7.18-2.92-10.48-2.92-4.48,0-6.1,1.51-6.1,3.4,0,5.78,21.44,1.46,21.44,15.39,0,6.59-5.51,12.2-16.74,12.2-6.21,0-12.37-1.67-15.93-4.16Z"/>
        <path class="cls-3" d="M298.72,993.2h10.69v37.8h-10.69v-37.8Z"/>
        <path class="cls-3" d="M342.35,1011.29h9.45v15.66c-4.37,3.13-10.37,4.81-15.88,4.81-12.04,0-20.84-8.15-20.84-19.66s8.8-19.66,21.06-19.66c7.07,0,12.8,2.43,16.52,6.91l-6.8,6.16c-2.59-2.86-5.56-4.21-9.18-4.21-6.48,0-10.8,4.27-10.8,10.8s4.32,10.8,10.69,10.8c2,0,3.89-.38,5.78-1.24v-10.37Z"/>
        <path class="cls-3" d="M394.57,993.2v37.8h-10.69v-14.74h-14.58v14.74h-10.69v-37.8h10.69v14.2h14.58v-14.2h10.69Z"/>
        <path class="cls-3" d="M410.17,1001.68h-11.61v-8.48h33.86v8.48h-11.56v29.32h-10.69v-29.32Z"/>
        <path class="cls-3" d="M433.66,1027.6l3.51-7.88c3.35,2.21,8.1,3.73,12.47,3.73s6.16-1.24,6.16-3.08c0-5.99-21.49-1.62-21.49-15.66,0-6.75,5.51-12.26,16.74-12.26,4.91,0,9.99,1.13,13.72,3.29l-3.29,7.94c-3.62-1.94-7.18-2.92-10.48-2.92-4.48,0-6.1,1.51-6.1,3.4,0,5.78,21.44,1.46,21.44,15.39,0,6.59-5.51,12.2-16.74,12.2-6.21,0-12.37-1.67-15.93-4.16Z"/>
      </g>
      <g>
        <g>
          <path class="cls-6" d="M389.74,543.24c-1.25-2.01-1.37-4.53-.33-6.65l151.71-307.05c1.15-2.34,3.53-3.82,6.14-3.82h38.38c2.38,0,4.57,1.22,5.83,3.24,1.25,2.01,1.37,4.53.32,6.65l-151.69,307.05c-1.15,2.34-3.54,3.82-6.14,3.82h-38.38c-2.37,0-4.57-1.22-5.82-3.24ZM574.61,239.42h-23.09l-144.92,293.35h23.09l144.91-293.35Z"/>
          <path class="cls-6" d="M542.19,237.18L361.25,37.97c-1.82-2.01-2.3-4.9-1.19-7.38,1.09-2.48,3.55-4.08,6.26-4.08h38.38c1.93,0,3.77.81,5.07,2.25l180.93,199.21c1.82,2.01,2.3,4.9,1.2,7.38-1.09,2.48-3.55,4.08-6.27,4.08h-38.38c-1.93,0-3.78-.81-5.07-2.24ZM401.66,40.22h-19.86l168.5,185.5h19.86L401.66,40.22Z"/>
          <path class="cls-5" d="M392.01,528.66h53.71c18.41,0,33.35,14.94,33.35,33.35v8.69h-120.41v-8.69c0-18.41,14.94-33.35,33.35-33.35Z"/>
          <path class="cls-6" d="M354.77,549.67h128.18c19.86,0,35.98,16.12,35.98,35.98v27.08h-200.13v-27.09c0-19.85,16.12-35.97,35.97-35.97Z"/>
          <g>
            <path class="cls-5" d="M325.05,179.2c14.64-19.19,10.95-46.61-8.23-61.24-19.19-14.64-46.6-10.95-61.25,8.23-14.64,19.18-10.95,46.6,8.24,61.24,19.19,14.64,46.6,10.96,61.24-8.23Z"/>
            <path class="cls-5" d="M357.17,145.89l-77.65-59.25,51.46-67.43c16.36-21.44,47.01-25.56,68.45-9.2h0c21.44,16.36,25.56,47,9.2,68.45l-51.45,67.43Z"/>
            <path class="cls-6" d="M370.3,231.88c43.13-63.84,41.58-141.23-5.18-176.92-46.76-35.68-121.81-16.74-172,41.72l177.19,135.2Z"/>
          </g>
          <path class="cls-1" d="M556.85,231.89c0-6.82-5.52-12.34-12.34-12.34s-12.33,5.52-12.33,12.34,5.52,12.34,12.33,12.34,12.34-5.53,12.34-12.34Z"/>
          <path class="cls-3" d="M551.78,231.89c0-4.02-3.26-7.27-7.27-7.27s-7.26,3.25-7.26,7.27,3.25,7.26,7.26,7.26,7.27-3.25,7.27-7.26Z"/>
          <path class="cls-1" d="M593.07,231.89c0-6.82-5.53-12.34-12.34-12.34s-12.34,5.52-12.34,12.34,5.53,12.34,12.34,12.34,12.34-5.53,12.34-12.34Z"/>
          <path class="cls-3" d="M587.99,231.89c0-4.02-3.25-7.27-7.26-7.27s-7.26,3.25-7.26,7.27,3.25,7.26,7.26,7.26,7.26-3.25,7.26-7.26Z"/>
        </g>
        <g>
          <path class="cls-6" d="M362.65,717.04v6.63c0,9.37,7.55,17,16.83,17h4.53v17h-196.45c-18.33,0-33.16-14.98-33.16-33.49v-7.51c0-18.51,14.83-33.49,33.16-33.49h196.45v16.83h-4.53c-9.28,0-16.83,7.63-16.83,17.03Z"/>
          <path class="cls-3" d="M542.34,735.98c.74,7.31,1.69,11.32,1.69,11.32h-186.82v-51.39h186.82s-.97,3.28-1.69,9.91c-.1.75-.14,1.58-.25,2.43-.09,1.38-.18,2.87-.28,4.49-.06.77-.08,1.6-.11,2.43-.02,1.43-.09,2.94-.09,4.52v.66c0,.61,0,1.19.02,1.78,0,1.55.05,3.06.1,4.49.02.85.05,1.65.12,2.43.05,1.6.19,3.11.29,4.52.05.85.14,1.65.19,2.43Z"/>
          <path class="cls-2" d="M555.18,749.17c0,4.69-3.76,8.5-8.42,8.5h-167.28c-18.56,0-33.66-15.25-33.66-34v-6.63c0-17.61,13.28-32.11,30.23-33.86,1.12-.12,2.28-.17,3.43-.17h167.28c4.67,0,8.42,3.81,8.42,8.5s-3.76,8.5-8.42,8.5h-167.28c-9.28,0-16.83,7.63-16.83,17.03v6.63c0,9.37,7.55,17,16.83,17h167.28c4.67,0,8.42,3.81,8.42,8.5Z"/>
          <path class="cls-5" d="M542.34,705.82c-.1.75-.14,1.58-.25,2.43h-152.65c-.68,0-1.21-.53-1.21-1.21s.53-1.22,1.21-1.22h152.9Z"/>
          <path class="cls-5" d="M541.81,712.74c-.06.77-.08,1.6-.11,2.43h-157.39c-.67,0-1.2-.53-1.2-1.21s.53-1.21,1.2-1.21h157.5Z"/>
          <path class="cls-5" d="M541.63,722.11h-160.37c-.68,0-1.2-.56-1.2-1.22s.53-1.22,1.2-1.22h160.35v.66c0,.61,0,1.19.02,1.78Z"/>
          <path class="cls-5" d="M541.85,729.03h-157.54c-.67,0-1.2-.53-1.2-1.21s.53-1.21,1.2-1.21h157.42c.02.85.05,1.65.12,2.43Z"/>
          <path class="cls-5" d="M542.34,735.98h-152.9c-.68,0-1.21-.55-1.21-1.21s.53-1.22,1.21-1.22h152.71c.05.85.14,1.65.19,2.43Z"/>
          <path class="cls-6" d="M452.56,751.2l-9.62-9.71-9.62,9.71s.52-12.14.67-21.71c.16-9.56-.67-16.76-.67-16.76h19.24s.67,5.98.67,16.61-.67,21.85-.67,21.85Z"/>
        </g>
        <path class="cls-3" d="M264.14,157.96c-.78,6.13.99,12.86,5.28,18.19,4.23,5.34,10.9,9.1,18.34,9.83-7.38.92-15.46-1.25-21.77-6.34-6.32-5.01-10.77-12.92-11.64-21.6v-.22c-.29-2.72,1.69-5.14,4.4-5.41,2.72-.27,5.14,1.71,5.41,4.43.04.37.03.76-.01,1.12Z"/>
        <g>
          <path class="cls-5" d="M365.06,797.23v7.49c0,10.59,8.06,19.21,17.96,19.21h4.81v19.21H125.73c-19.54,0-35.37-16.93-35.37-37.83v-8.47c0-20.91,15.83-37.83,35.37-37.83h262.11v19.01h-4.81c-9.9,0-17.96,8.61-17.96,19.23Z"/>
          <path class="cls-3" d="M556.74,818.63c.8,8.26,1.79,12.78,1.79,12.78h-199.28v-58.05h199.28s-1.02,3.71-1.79,11.19c-.1.85-.16,1.78-.26,2.74-.11,1.57-.21,3.24-.31,5.07-.05.88-.07,1.81-.1,2.74-.03,1.62-.1,3.32-.1,5.1v.74c0,.68,0,1.34.02,2,0,1.75.05,3.46.11,5.08.02.96.05,1.86.12,2.74.06,1.81.21,3.51.31,5.1.05.96.16,1.86.21,2.74Z"/>
          <path class="cls-4" d="M570.44,833.52c0,5.29-4,9.6-8.97,9.6h-178.44c-19.81,0-35.91-17.23-35.91-38.41v-7.49c0-19.89,14.15-36.27,32.24-38.24,1.2-.14,2.43-.19,3.67-.19h178.44c4.98,0,8.97,4.31,8.97,9.6s-4,9.6-8.97,9.6h-178.44c-9.9,0-17.96,8.61-17.96,19.23v7.49c0,10.59,8.06,19.21,17.96,19.21h178.44c4.98,0,8.97,4.31,8.97,9.6Z"/>
          <path class="cls-5" d="M556.74,784.55c-.1.85-.16,1.78-.26,2.74h-162.85c-.72,0-1.27-.6-1.27-1.37s.55-1.37,1.27-1.37h163.1Z"/>
          <path class="cls-5" d="M556.17,792.37c-.05.88-.07,1.81-.1,2.74h-167.9c-.72,0-1.27-.6-1.27-1.37s.55-1.38,1.27-1.38h168Z"/>
          <path class="cls-5" d="M555.99,802.96h-171.08c-.72,0-1.27-.63-1.27-1.37s.55-1.37,1.27-1.37h171.06v.74c0,.68,0,1.34.02,2Z"/>
          <path class="cls-5" d="M556.22,810.78h-168.05c-.72,0-1.27-.6-1.27-1.37s.55-1.37,1.27-1.37h167.93c.02.96.05,1.86.12,2.74Z"/>
          <path class="cls-5" d="M556.74,818.63h-163.1c-.72,0-1.27-.63-1.27-1.37s.55-1.37,1.27-1.37h162.9c.05.96.16,1.86.21,2.74Z"/>
          <path class="cls-6" d="M460.97,835.82l-10.27-10.98-10.26,10.98s.56-13.72.73-24.52c.16-10.8-.73-18.93-.73-18.93h20.52s.72,6.76.72,18.76-.72,24.69-.72,24.69Z"/>
        </g>
        <g>
          <path class="cls-5" d="M429.4,644.53v6.19c0,8.76,6.66,15.89,14.85,15.89h3.99v15.88h-216.84c-16.17,0-29.26-14-29.26-31.29v-7.02c0-17.29,13.09-31.3,29.26-31.3h216.84v15.73h-3.99c-8.19,0-14.85,7.13-14.85,15.91Z"/>
          <path class="cls-3" d="M587.96,662.23c.65,6.83,1.48,10.57,1.48,10.57h-164.85v-48.02h164.85s-.84,3.07-1.48,9.26c-.08.7-.13,1.48-.21,2.27-.08,1.29-.17,2.67-.25,4.2-.05.73-.07,1.49-.09,2.27-.02,1.34-.09,2.74-.09,4.22v.61c0,.57,0,1.11.02,1.66,0,1.45.04,2.86.08,4.2.02.8.04,1.55.11,2.27.04,1.5.17,2.91.25,4.22.05.79.13,1.54.18,2.27Z"/>
          <path class="cls-4" d="M599.29,674.55c0,4.38-3.31,7.94-7.42,7.94h-147.61c-16.39,0-29.71-14.25-29.71-31.77v-6.19c0-16.46,11.71-30.01,26.67-31.64,1-.11,2.02-.15,3.04-.15h147.61c4.12,0,7.42,3.56,7.42,7.94s-3.31,7.94-7.42,7.94h-147.61c-8.19,0-14.85,7.13-14.85,15.91v6.19c0,8.76,6.66,15.89,14.85,15.89h147.61c4.12,0,7.42,3.56,7.42,7.94Z"/>
          <path class="cls-5" d="M587.96,634.04c-.08.7-.13,1.48-.21,2.27h-134.71c-.6,0-1.06-.5-1.06-1.14s.46-1.13,1.06-1.13h134.93Z"/>
          <path class="cls-5" d="M587.5,640.51c-.05.73-.07,1.49-.09,2.27h-138.9c-.59,0-1.06-.49-1.06-1.13s.47-1.13,1.06-1.13h138.99Z"/>
          <path class="cls-5" d="M587.34,649.27h-141.52c-.6,0-1.07-.52-1.07-1.13,0-.64.47-1.13,1.07-1.13h141.5v.61c0,.57,0,1.11.02,1.66Z"/>
          <path class="cls-5" d="M587.53,655.74h-139.02c-.59,0-1.06-.5-1.06-1.14s.47-1.13,1.06-1.13h138.92c.02.8.04,1.55.11,2.27Z"/>
          <path class="cls-5" d="M587.96,662.23h-134.93c-.6,0-1.06-.52-1.06-1.14s.46-1.13,1.06-1.13h134.75c.05.79.13,1.54.18,2.27Z"/>
          <path class="cls-6" d="M508.73,676.45l-8.48-9.08-8.48,9.08s.46-11.35.59-20.29c.14-8.93-.59-15.65-.59-15.65h16.97s.6,5.59.6,15.51-.6,20.43-.6,20.43Z"/>
        </g>
        <g>
          <path class="cls-6" d="M104.51,843.13h303.52v119.71H104.51c-26.51,0-48.03-21.52-48.03-48.03v-23.65c0-26.51,21.52-48.03,48.03-48.03Z"/>
          <path class="cls-3" d="M613.4,941.89c.58,6.55,1.08,10.62,1.08,10.62h-223.76v-97.27h223.76s-.67,5.48-1.36,13.98c-.06.72-.12,1.45-.19,2.24-.19,2.42-.36,5.05-.55,7.83-.04.74-.08,1.48-.1,2.24-.14,2.51-.28,5.12-.38,7.83-.04.74-.06,1.48-.09,2.24-.08,2.55-.15,5.19-.16,7.83-.02.74-.02,1.5-.02,2.24-.02.74-.02,1.5-.02,2.24,0,1.87.02,3.73.04,5.59.01.76.01,1.5.04,2.24.07,2.66.16,5.28.26,7.82.02.76.06,1.5.08,2.24.16,2.73.28,5.34.44,7.83.05.76.09,1.52.15,2.24.19,2.84.4,5.48.58,7.83.07.78.13,1.52.19,2.24Z"/>
          <path class="cls-2" d="M616.34,962.84h-205.33c-17.72,0-32.13-15.42-32.13-34.37v-50.96c0-18.96,14.42-34.37,32.13-34.37h205.33c4.04,0,7.32,3.5,7.32,7.82s-3.28,7.83-7.32,7.83h-205.33c-9.65,0-17.5,8.4-17.5,18.72v50.96c0,10.32,7.84,18.72,17.5,18.72h205.33c4.04,0,7.32,3.5,7.32,7.83s-3.28,7.83-7.32,7.83Z"/>
          <path class="cls-5" d="M613.12,869.21c-.06.72-.12,1.45-.19,2.24h-202.46c-.59,0-1.05-.49-1.05-1.12s.46-1.12,1.05-1.12h202.65Z"/>
          <path class="cls-5" d="M612.39,879.28c-.04.74-.08,1.48-.1,2.24h-201.81c-.59,0-1.05-.49-1.05-1.12s.46-1.12,1.05-1.12h201.91Z"/>
          <path class="cls-5" d="M611.91,889.34c-.04.74-.06,1.48-.09,2.24h-201.35c-.59,0-1.05-.49-1.05-1.12s.46-1.12,1.05-1.12h201.44Z"/>
          <path class="cls-5" d="M611.66,899.4c-.02.74-.02,1.5-.02,2.24h-201.17c-.59,0-1.05-.49-1.05-1.12s.46-1.12,1.05-1.12h201.19Z"/>
          <path class="cls-5" d="M611.7,911.7h-201.22c-.59,0-1.05-.49-1.05-1.12s.46-1.12,1.05-1.12h201.19c.01.76.01,1.5.04,2.24Z"/>
          <path class="cls-5" d="M612.03,921.77h-201.56c-.59,0-1.05-.49-1.05-1.12s.46-1.12,1.05-1.12h201.48c.02.76.06,1.5.08,2.24Z"/>
          <path class="cls-5" d="M612.62,931.83h-202.15c-.59,0-1.05-.49-1.05-1.12s.46-1.12,1.05-1.12h202c.05.76.09,1.52.15,2.24Z"/>
          <path class="cls-5" d="M613.4,941.89h-202.92c-.59,0-1.05-.49-1.05-1.12s.46-1.12,1.05-1.12h202.73c.07.78.13,1.52.19,2.24Z"/>
          <path class="cls-6" d="M566.34,940.05l-11.98-12.8-11.97,12.8s.65-16.01.85-28.61c.18-12.61-.85-22.09-.85-22.09h23.95s.85,7.89.85,21.89-.85,28.81-.85,28.81Z"/>
          <path class="cls-2" d="M334.01,919.53H110.99c-8.55,0-15.48-7.41-15.48-16.55h0c0-9.14,6.93-16.55,15.48-16.55h223.02c8.54,0,15.47,7.41,15.47,16.55h0c0,9.14-6.93,16.55-15.47,16.55Z"/>
        </g>
      </g>
    </g>
  </g>
</svg>