<svg version="1.2" xmlns="http://www.w3.org/2000/svg" viewBox="0 0 759 200" width="759" height="200">
	<title>neworking_opportunities</title>
	<style>
		tspan { white-space:pre } 
		.s0 { fill: #87bb77 } 
		.s1 { fill: #fefefe } 
		.t2 { font-size: 48px;fill: #ffffff;font-weight: 900;font-family: "Roboto-Black", "Roboto" } 
	</style>
	<path class="s0" d="m197.2 98.8c0 48.3-39.2 87.5-87.5 87.5-48.4 0-87.6-39.2-87.6-87.5 0-48.4 39.2-87.6 87.6-87.6 48.3 0 87.5 39.2 87.5 87.6z"/>
	<path class="s1" d="m148.7 121.3c-3.4-3.4-5.4-6.4-6.5-9.3-1.2-3.1-1.5-5.9-1.5-8.7q-0.1-1.6-0.6-2.9-0.6-1.3-1.6-2.4l-10.4-10.3c-0.6-0.7-1.5-1-2.5-1-0.8 0-1.7 0.3-2.4 0.9v0.1c-0.7 0.7-1.1 1.6-1.1 2.5 0 0.9 0.4 1.8 1 2.5l5.4 5.4c0.5 0.5 0.5 1.3 0 1.8-0.5 0.5-1.3 0.5-1.8 0l-5.4-5.4v-0.1l-12.2-12.2c-0.7-0.7-1.6-1-2.5-1-0.9 0-1.8 0.3-2.5 1-0.7 0.7-1.1 1.6-1.1 2.5 0 0.9 0.4 1.8 1 2.4l0.1 0.1q0 0 0 0.1l17.6 17.6c0.5 0.5 0.5 1.3 0 1.8-0.5 0.5-1.3 0.5-1.8 0l-17.6-17.7h-0.1l-3.2-3.3c-0.7-0.7-1.6-1-2.5-1-0.9 0-1.8 0.3-2.5 0.9v0.1c-0.7 0.7-1.1 1.6-1.1 2.5 0 0.9 0.4 1.7 1 2.4l21.1 21.1c0.5 0.5 0.5 1.3 0 1.8-0.5 0.5-1.4 0.5-1.8 0l-17.8-17.8c-0.7-0.6-1.6-0.9-2.4-0.9-0.9 0-1.8 0.3-2.5 0.9v0.1c-0.7 0.7-1 1.6-1 2.5 0 0.9 0.3 1.8 1 2.5l17.7 17.7c0.5 0.4 0.5 1.3 0 1.8-0.5 0.5-1.3 0.5-1.8 0l-11.2-11.2q-1-0.9-2.4-0.9c-0.9 0-1.8 0.3-2.5 1-0.7 0.7-1 1.6-1 2.5 0 0.9 0.3 1.8 1 2.5l19.2 19.1q0.9 1 2 1.5h0.1q1.1 0.6 2.5 0.7l0.8 0.1c3.1 0.2 6.1 0.5 12.6 6.8z"/>
	<path class="s1" d="m104.9 132.4c-5.4-5.4-16.4-16.4-16.4-16.4-1.2-1.2-1.8-2.8-1.8-4.3 0-1.6 0.6-3.1 1.8-4.3 0.9-0.9 2.1-1.5 3.3-1.7l-3.1-3.1c-1.2-1.2-1.8-2.8-1.8-4.3 0-1.6 0.6-3.1 1.8-4.3l0.1-0.1c0.9-0.9 2-1.4 3.2-1.6-1.1-1.2-1.6-2.6-1.6-4.1 0-1.6 0.6-3.1 1.8-4.3v-0.1c1.2-1.1 2.7-1.7 4.3-1.7 1.4 0 2.9 0.5 4.1 1.6 0.2-1.2 0.7-2.4 1.7-3.3 1.2-1.2 2.7-1.8 4.3-1.8 1.5 0 3.1 0.6 4.3 1.8l8.8 8.8c0.2-1.2 0.7-2.4 1.6-3.3l0.1-0.1c1.2-1.1 2.7-1.7 4.2-1.7 1.6 0 3.2 0.6 4.3 1.8l10.3 10.2 0.1 0.1q1 1 1.6 2.2 0.2-0.2 0.4-0.5 0.3-0.5 0.6-1 0.3-0.6 0.5-1.3 0.2-0.6 0.3-1.4v-0.8c0.3-3 0.5-6.1 6.9-12.6l-21.2-21.2c-3.3 3.4-6.4 5.4-9.2 6.5-3 1.2-5.8 1.5-8.5 1.5l11.7 11.8c0.5 0.5 0.5 1.3 0 1.8-0.5 0.5-1.3 0.5-1.8 0l-14.4-14.4q-1-1-2.1-1.6h-0.1q-1.1-0.5-2.5-0.7h-0.8c-3.1-0.3-6.1-0.6-12.6-6.9l-21.2 21.2c3.4 3.3 5.4 6.3 6.5 9.2 1.2 3.1 1.5 6 1.5 8.8q0.1 1.5 0.6 2.8 0.6 1.3 1.6 2.4l6.2 6.1c0.5 0.5 0.5 1.3 0 1.8-0.5 0.5-1.3 0.5-1.8 0l-6.1-6-0.1-0.1q-1-1.1-1.7-2.3-0.8 0.8-1.2 1.8h-0.1q-0.5 1.1-0.6 2.5l-0.1 0.8c-0.2 3.1-0.5 6.1-6.8 12.6l21.1 21.2c3.4-3.4 6.4-5.4 9.3-6.5 3-1.2 5.9-1.5 8.7-1.5z"/>
	<path class="s1" d="m88.4 145.5l-27.2-27.2-8.1 8.2 27.2 27.1z"/>
	<path class="s1" d="m62.8 80.3l27.2-27.2-8.1-8.2-27.2 27.2z"/>
	<path class="s1" d="m127.9 54.5l27.2 27.2 8.1-8.1-27.1-27.2z"/>
	<path class="s1" d="m153.8 119.8l-27.2 27.1 8.1 8.2 27.2-27.2z"/>
	<path class="s0" d="m754.6 24.5h-555.4c16.8 20.1 26.9 46 26.9 74.3 0 29.4-11 56.2-29 76.8h559.2c1-1.7 1.5-2.7 2.5-4.3v-139.5c0-4.1-1.9-7.3-4.2-7.3z"/>
	<g>
		<text id="Networking 
" style="transform: matrix(1,0,0,1,459.667,89.212)" >
			<tspan x="-110" y="0" class="t2">19% Networking 
</tspan>
		</text>
		<text id="Opportunities
" style="transform: matrix(1,0,0,1,411.667,145.212)" >
			<tspan x="-60" y="0" class="t2">Opportunities
</tspan>
		</text>
	</g>
</svg>
