<svg version="1.2" xmlns="http://www.w3.org/2000/svg" viewBox="0 0 1207 537" width="1207" height="537"><style>tspan{white-space:pre}.a{fill:#87bb77}.b{fill:#bcd530}.c{fill:#fefefe}.d{fill:#8dc63f}.e{font-size: 48px;line-height: 56px;fill: #ffffff;font-weight: 900;font-family: "Roboto-Black", "Roboto"}</style><path class="a" d="m645.2 292.8c0 48.3-39.2 87.5-87.5 87.5-48.4 0-87.6-39.2-87.6-87.5 0-48.4 39.2-87.6 87.6-87.6 48.3 0 87.5 39.2 87.5 87.6z"/><path class="b" d="m198.5 0.9l198.4 80.8-198.4 80.8-198.5-80.8z"/><path class="c" d="m109 91.4h13.2v-32h-11.7v-10.3c7.1-1.4 11.5-3.2 16.2-6.1h12.3v48.4h11.1v13.4h-41.1z"/><path class="c" d="m158.9 75c0-22.4 12.3-33.1 25.5-33.1 8.8 0 15.2 3.7 19.3 7.8l-8.8 9.9c-1.9-2.2-5.8-4.3-9.3-4.3-6.6 0-11.5 4.9-11.5 19.7 0 15.4 4.8 18.5 8.6 18.5 3.5 0 6.6-2 6.6-8.6 0-5.9-3.3-7.4-6.8-7.4-3 0-6 1.6-8.2 5.9l-0.8-10.6c2.9-4.4 8.7-7 12.3-7 10.5 0 18.7 5.9 18.7 19.1 0 13.3-9.8 21.1-21.5 21.1-11.8 0-24.1-8.6-24.1-31z"/><path fill-rule="evenodd" class="c" d="m209.9 60.4c0-12.7 7.1-20.1 16.4-20.1 9.4 0 16.4 7.4 16.4 20.1 0 12.6-7 20.2-16.4 20.2-9.3 0-16.4-7.6-16.4-20.2zm21.3 0c0-8.6-2.4-10.9-4.9-10.9-2.5 0-4.9 2.3-4.9 10.9 0 8.5 2.4 11.1 4.9 11.1 2.5 0 4.9-2.6 4.9-11.1zm31.4-20.1h9.3l-33.9 65.7h-9.3zm-4.9 45.4c0-12.7 7-20.1 16.4-20.1 9.3 0 16.3 7.4 16.3 20.1 0 12.7-7 20.3-16.3 20.3-9.4 0-16.4-7.6-16.4-20.3zm21.2 0c0-8.6-2.3-10.9-4.8-10.9-2.6 0-4.9 2.3-4.9 10.9 0 8.6 2.3 11.1 4.9 11.1 2.5 0 4.8-2.5 4.8-11.1z"/><path class="d" d="m198.5 162.5v374.4l-198.5-80.8v-374.4z"/><path class="a" d="m396.9 81.7v374.4l-198.4 80.8v-374.4z"/><path class="c" d="m596.7 315.3c-3.4-3.4-5.4-6.4-6.5-9.3-1.2-3.1-1.5-5.9-1.5-8.7q-0.1-1.6-0.6-2.9-0.6-1.3-1.6-2.4l-10.4-10.3c-0.6-0.7-1.5-1-2.5-1-0.8 0-1.7 0.3-2.4 0.9v0.1c-0.7 0.7-1.1 1.6-1.1 2.5 0 0.9 0.4 1.8 1 2.5l5.4 5.4c0.5 0.5 0.5 1.3 0 1.8-0.5 0.5-1.3 0.5-1.8 0l-5.4-5.4v-0.1l-12.2-12.2c-0.7-0.7-1.6-1-2.5-1-0.9 0-1.8 0.3-2.5 1-0.7 0.7-1.1 1.6-1.1 2.5 0 0.9 0.4 1.8 1 2.4l0.1 0.1q0 0 0 0.1l17.6 17.6c0.5 0.5 0.5 1.3 0 1.8-0.5 0.5-1.3 0.5-1.8 0l-17.6-17.7h-0.1l-3.2-3.3c-0.7-0.7-1.6-1-2.5-1-0.9 0-1.8 0.3-2.5 0.9v0.1c-0.7 0.7-1.1 1.6-1.1 2.5 0 0.9 0.4 1.7 1 2.4l21.1 21.1c0.5 0.5 0.5 1.3 0 1.8-0.5 0.5-1.4 0.5-1.8 0l-17.8-17.8c-0.7-0.6-1.6-0.9-2.4-0.9-0.9 0-1.8 0.3-2.5 0.9v0.1c-0.7 0.7-1 1.6-1 2.5 0 0.9 0.3 1.8 1 2.5l17.7 17.7c0.5 0.4 0.5 1.3 0 1.8-0.5 0.5-1.3 0.5-1.8 0l-11.2-11.2c-0.7-0.6-1.5-0.9-2.4-0.9-0.9 0-1.8 0.3-2.5 1-0.7 0.7-1 1.6-1 2.5 0 0.9 0.3 1.8 1 2.5l19.2 19.1q0.9 1 2 1.5h0.1q1.1 0.6 2.5 0.7l0.8 0.1c3.1 0.2 6.1 0.5 12.6 6.8z"/><path class="c" d="m552.9 326.4c-5.4-5.4-16.4-16.4-16.4-16.4-1.2-1.2-1.8-2.8-1.8-4.3 0-1.6 0.6-3.1 1.8-4.3 0.9-0.9 2.1-1.5 3.3-1.7l-3.1-3.1c-1.2-1.2-1.8-2.8-1.8-4.3 0-1.6 0.6-3.1 1.8-4.3l0.1-0.1c0.9-0.9 2-1.4 3.2-1.6-1.1-1.2-1.6-2.6-1.6-4.1 0-1.6 0.6-3.1 1.8-4.3v-0.1c1.2-1.1 2.7-1.7 4.3-1.7 1.4 0 2.9 0.5 4.1 1.6 0.2-1.2 0.7-2.4 1.7-3.3 1.2-1.2 2.7-1.8 4.3-1.8 1.5 0 3.1 0.6 4.3 1.8l8.8 8.8c0.2-1.2 0.7-2.4 1.6-3.3l0.1-0.1c1.2-1.1 2.7-1.7 4.2-1.7 1.6 0 3.2 0.6 4.3 1.8l10.3 10.2 0.1 0.1q1 1 1.6 2.2 0.2-0.2 0.4-0.5 0.3-0.5 0.6-1 0.3-0.6 0.5-1.3 0.2-0.6 0.3-1.4v-0.8c0.3-3 0.5-6.1 6.9-12.6l-21.2-21.2c-3.3 3.4-6.4 5.4-9.2 6.5-3 1.2-5.8 1.5-8.5 1.5l11.7 11.8c0.5 0.5 0.5 1.3 0 1.8-0.5 0.5-1.3 0.5-1.8 0l-14.4-14.4q-1-1-2.1-1.6h-0.1q-1.1-0.5-2.5-0.7h-0.8c-3.1-0.3-6.1-0.6-12.6-6.9l-21.2 21.2c3.4 3.3 5.4 6.3 6.5 9.2 1.2 3.1 1.5 6 1.5 8.8q0.1 1.5 0.6 2.8 0.6 1.3 1.6 2.4l6.2 6.1c0.5 0.5 0.5 1.3 0 1.8-0.5 0.5-1.3 0.5-1.8 0l-6.1-6-0.1-0.1q-1-1.1-1.7-2.3-0.8 0.8-1.2 1.8h-0.1q-0.5 1.1-0.6 2.5l-0.1 0.8c-0.2 3.1-0.5 6.1-6.8 12.6l21.1 21.2c3.4-3.4 6.4-5.4 9.3-6.5 3-1.2 5.9-1.5 8.7-1.5z"/><path class="c" d="m536.4 339.5l-27.2-27.2-8.1 8.2 27.2 27.1z"/><path class="c" d="m510.8 274.3l27.2-27.2-8.1-8.2-27.2 27.2z"/><path class="c" d="m575.9 248.5l27.2 27.2 8.1-8.1-27.1-27.2z"/><path class="c" d="m601.8 313.8l-27.2 27.1 8.1 8.2 27.2-27.2z"/><path class="a" d="m1202.6 218.5h-555.4c16.8 20.1 26.9 46 26.9 74.3 0 29.4-11 56.2-29 76.8h559.2c1-1.7 1.5-2.7 2.5-4.3v-139.5c0-4.1-1.9-7.3-4.2-7.3z"/><text style="transform:matrix(1,0,0,1,719.267,247.212)" ><tspan x="188.4" y="36" class="e" dx="0 0 0 0 0 0 0 0 0 0 0 0" >Networking 
</tspan><tspan x="140.4" y="92" class="e" dx="0 0 0 0 0 0 0 0 0 0 0 0 0 0" >Opportunities
</tspan></text></svg>