<?xml version="1.0" encoding="UTF-8"?>
<svg id="Layer_2" data-name="Layer 2" xmlns="http://www.w3.org/2000/svg" viewBox="0 0 738.56 559.28">
  <defs>
    <style>
      .cls-1, .cls-2 {
        fill: #f16024;
      }

      .cls-1, .cls-3 {
        fill-rule: evenodd;
      }

      .cls-4 {
        fill: #fff;
      }

      .cls-5 {
        fill: #0a484d;
      }

      .cls-3 {
        fill: #154d55;
      }
    </style>
  </defs>
  <g id="Text_Only" data-name="Text Only">
    <g>
      <rect class="cls-2" y="222.07" width="738.56" height="337.21"/>
      <path class="cls-1" d="M374.82,149.58c1.59-4.41,2.35-9.29,2.35-14.06,0-7.78-2.01-15.06-5.75-19.22-2.38-2.65-4.93-4.49-7.74-5.65-2.83-1.17-6.02-1.68-9.62-1.68s-6.81.51-9.65,1.67c-2.82,1.16-5.38,2.99-7.76,5.66-3.74,4.16-5.75,11.45-5.75,19.23,0,4.77.76,9.65,2.35,14.06,1.55,4.31,3.89,8.18,7.07,11.03,3.46,3.1,8,5.03,13.72,5.03s10.25-1.93,13.71-5.03c3.18-2.85,5.52-6.72,7.07-11.03Z"/>
      <path class="cls-1" d="M366.62,175.36h-25.15c-7.72,0-14.86,2.8-20.64,7.51-5.45,4.45-9.69,10.6-12.07,17.73,3.06,2.22,5.91,4.77,8.49,7.61,4.29,4.7,7.87,10.19,10.53,16.24h68.83c1.27,0,2.44-.59,3.31-1.53.93-1.02,1.51-2.46,1.51-4.06v-5.02c0-10.66-3.95-20.32-10.32-27.3-6.3-6.9-14.97-11.18-24.5-11.18Z"/>
      <path class="cls-3" d="M312.53,212.51c-8.66-9.5-20.6-15.38-33.73-15.38h-33.78c-13.13,0-25.07,5.89-33.73,15.38-8.74,9.58-14.15,22.81-14.15,37.41v6.74c0,2.43.89,4.62,2.32,6.2,1.36,1.49,3.22,2.42,5.25,2.42h114.4c2.03,0,3.89-.92,5.25-2.42,1.44-1.57,2.32-3.76,2.32-6.2v-6.74c0-14.6-5.42-27.84-14.15-37.41Z"/>
      <path class="cls-3" d="M281.06,179.21c4.41-3.96,7.65-9.31,9.8-15.26,2.18-6.05,3.23-12.74,3.23-19.26,0-10.7-2.81-20.76-8.01-26.56-3.31-3.69-6.87-6.25-10.8-7.87-3.95-1.63-8.36-2.35-13.34-2.35s-9.42.71-13.38,2.33c-3.94,1.62-7.5,4.18-10.83,7.88-5.2,5.79-8.01,15.86-8.01,26.56,0,6.52,1.05,13.21,3.23,19.26,2.15,5.95,5.39,11.3,9.8,15.26,4.84,4.34,11.19,7.04,19.16,7.04s14.31-2.7,19.15-7.04Z"/>
      <path class="cls-1" d="M215.06,200.6c-2.38-7.13-6.62-13.28-12.07-17.73-5.78-4.71-12.92-7.51-20.64-7.51h-25.15c-9.53,0-18.21,4.28-24.5,11.18-6.37,6.98-10.32,16.64-10.32,27.3v5.02c0,1.6.58,3.04,1.51,4.06.86.94,2.03,1.53,3.31,1.53h68.83c2.66-6.05,6.24-11.54,10.53-16.24,2.59-2.83,5.43-5.39,8.49-7.61Z"/>
      <path class="cls-1" d="M183.49,160.6c3.18-2.85,5.51-6.72,7.07-11.03,1.59-4.41,2.35-9.29,2.35-14.06,0-7.78-2.02-15.06-5.75-19.22-2.38-2.65-4.93-4.49-7.74-5.65-2.83-1.17-6.02-1.68-9.63-1.68s-6.81.51-9.64,1.67c-2.82,1.16-5.37,2.99-7.76,5.66-3.73,4.16-5.75,11.45-5.75,19.22,0,4.77.76,9.65,2.35,14.06,1.56,4.31,3.89,8.17,7.07,11.03,3.46,3.1,8,5.03,13.72,5.03s10.25-1.93,13.71-5.03Z"/>
      <path class="cls-1" d="M153.8,83.91h25.62v-16.27c0-1.77,1.43-3.2,3.2-3.2h9.2l-25.21-38.39-25.21,38.39h9.2c1.77,0,3.2,1.43,3.2,3.2v16.27Z"/>
      <path class="cls-1" d="M249.1,41.59v42.32h25.62v-42.32c0-1.77,1.43-3.2,3.2-3.2h9.2L261.91,0l-25.21,38.39h9.2c1.77,0,3.2,1.43,3.2,3.2Z"/>
      <path class="cls-1" d="M357.21,26.05l-25.21,38.39h9.2c1.77,0,3.2,1.43,3.2,3.2v16.27h25.62v-16.27c0-1.77,1.43-3.2,3.2-3.2h9.2l-25.21-38.39Z"/>
      <path class="cls-5" d="M98.62,305.91h-10.24v27.77h-8.23v-27.77h-10.05v-6.35h28.52v6.35Z"/>
      <path class="cls-5" d="M115.7,324.4l6.8-24.84h9.19l-11.48,34.12h-9l-11.39-34.12h9.12l6.77,24.84Z"/>
      <path class="cls-5" d="M155.33,319.2h-12.94v8.16h15.28v6.33h-23.51v-34.12h23.55v6.35h-15.33v7.2h12.94v6.09Z"/>
      <path class="cls-5" d="M188.29,305.91h-10.24v27.77h-8.23v-27.77h-10.05v-6.35h28.52v6.35Z"/>
      <path class="cls-5" d="M201.88,301.79c0-1.12.41-2.05,1.22-2.77.81-.72,1.87-1.08,3.16-1.08s2.35.36,3.16,1.08c.81.72,1.22,1.64,1.22,2.77s-.41,2.05-1.22,2.77c-.81.72-1.87,1.08-3.16,1.08s-2.35-.36-3.16-1.08c-.81-.72-1.22-1.64-1.22-2.77ZM210.27,333.68h-7.92v-25.36h7.92v25.36Z"/>
      <path class="cls-5" d="M228.41,326.56c0-.67-.35-1.21-1.05-1.62s-2.04-.83-4.01-1.27-3.59-1.01-4.88-1.72c-1.28-.71-2.26-1.57-2.93-2.59-.67-1.02-1.01-2.18-1.01-3.49,0-2.33.96-4.25,2.88-5.75s4.44-2.26,7.55-2.26c3.34,0,6.03.76,8.06,2.27,2.03,1.52,3.05,3.51,3.05,5.98h-7.92c0-2.03-1.07-3.05-3.21-3.05-.83,0-1.52.23-2.09.69s-.84,1.04-.84,1.72.34,1.27,1.03,1.71c.69.44,1.78.8,3.29,1.08,1.51.28,2.83.62,3.97,1.01,3.81,1.31,5.72,3.66,5.72,7.05,0,2.31-1.03,4.2-3.08,5.65-2.05,1.45-4.71,2.18-7.98,2.18-2.17,0-4.11-.39-5.81-1.17-1.7-.78-3.03-1.84-3.98-3.19-.95-1.34-1.43-2.76-1.43-4.24h7.38c.03,1.17.42,2.03,1.17,2.57s1.71.81,2.88.81c1.08,0,1.89-.22,2.43-.66s.81-1.01.81-1.71Z"/>
      <path class="cls-5" d="M275.22,321.19c0,3.94-.89,7.08-2.66,9.43-1.77,2.35-4.17,3.53-7.18,3.53-2.33,0-4.24-.85-5.74-2.55v11.84h-7.9v-35.11h7.38l.23,2.34c1.52-1.88,3.51-2.81,5.98-2.81,3.12,0,5.55,1.15,7.29,3.46s2.6,5.47,2.6,9.5v.38ZM267.32,320.7c0-4.5-1.31-6.75-3.94-6.75-1.88,0-3.13.67-3.75,2.02v9.98c.69,1.41,1.95,2.11,3.8,2.11,2.52,0,3.81-2.17,3.89-6.52v-.84Z"/>
      <path class="cls-5" d="M290.97,334.15c-3.89,0-7.04-1.16-9.45-3.48-2.41-2.32-3.61-5.34-3.61-9.06v-.66c0-2.59.48-4.88,1.44-6.87s2.36-3.52,4.21-4.61c1.84-1.09,4.03-1.63,6.56-1.63,3.56,0,6.38,1.11,8.44,3.32s3.09,5.29,3.09,9.25v3.07h-15.7c.28,1.42.9,2.54,1.85,3.35.95.81,2.19,1.22,3.7,1.22,2.5,0,4.45-.88,5.86-2.62l3.61,4.27c-.98,1.36-2.38,2.44-4.18,3.25s-3.75,1.21-5.82,1.21ZM290.08,313.95c-2.31,0-3.69,1.53-4.12,4.59h7.97v-.61c.03-1.27-.29-2.25-.96-2.94-.67-.7-1.63-1.04-2.88-1.04Z"/>
      <path class="cls-5" d="M320.17,315.47l-2.6-.19c-2.48,0-4.08.78-4.78,2.34v16.05h-7.9v-25.36h7.41l.26,3.26c1.33-2.48,3.18-3.73,5.55-3.73.84,0,1.58.09,2.2.28l-.14,7.34Z"/>
      <path class="cls-5" d="M333.3,328.06c1.11,0,1.97-.3,2.58-.9s.91-1.44.89-2.52h7.41c0,2.78-1,5.06-2.99,6.84s-4.56,2.67-7.7,2.67c-3.69,0-6.59-1.16-8.72-3.47-2.12-2.31-3.19-5.52-3.19-9.61v-.33c0-2.56.47-4.82,1.42-6.79.95-1.96,2.31-3.47,4.09-4.52s3.89-1.58,6.33-1.58c3.3,0,5.91.91,7.85,2.74,1.94,1.83,2.91,4.3,2.91,7.43h-7.41c0-1.31-.32-2.32-.96-3.02-.64-.7-1.5-1.05-2.58-1.05-2.05,0-3.24,1.3-3.59,3.91-.11.83-.16,1.97-.16,3.42,0,2.55.3,4.31.91,5.3s1.58,1.48,2.91,1.48Z"/>
      <path class="cls-5" d="M359.78,334.15c-3.89,0-7.04-1.16-9.45-3.48-2.41-2.32-3.61-5.34-3.61-9.06v-.66c0-2.59.48-4.88,1.44-6.87s2.36-3.52,4.21-4.61c1.84-1.09,4.03-1.63,6.56-1.63,3.56,0,6.38,1.11,8.44,3.32s3.09,5.29,3.09,9.25v3.07h-15.7c.28,1.42.9,2.54,1.85,3.35.95.81,2.19,1.22,3.7,1.22,2.5,0,4.45-.88,5.86-2.62l3.61,4.27c-.98,1.36-2.38,2.44-4.18,3.25s-3.75,1.21-5.82,1.21ZM358.89,313.95c-2.31,0-3.69,1.53-4.12,4.59h7.97v-.61c.03-1.27-.29-2.25-.96-2.94-.67-.7-1.63-1.04-2.88-1.04Z"/>
      <path class="cls-5" d="M373.58,301.79c0-1.12.41-2.05,1.22-2.77.81-.72,1.87-1.08,3.16-1.08s2.35.36,3.16,1.08c.81.72,1.22,1.64,1.22,2.77s-.41,2.05-1.22,2.77c-.81.72-1.87,1.08-3.16,1.08s-2.35-.36-3.16-1.08c-.81-.72-1.22-1.64-1.22-2.77ZM381.97,333.68h-7.92v-25.36h7.92v25.36Z"/>
      <path class="cls-5" d="M396.95,324.29l4.01-15.96h8.32l-8.27,25.36h-8.06l-8.27-25.36h8.34l3.94,15.96Z"/>
      <path class="cls-5" d="M423.6,334.15c-3.89,0-7.04-1.16-9.45-3.48-2.41-2.32-3.61-5.34-3.61-9.06v-.66c0-2.59.48-4.88,1.44-6.87s2.36-3.52,4.21-4.61c1.84-1.09,4.03-1.63,6.56-1.63,3.56,0,6.38,1.11,8.44,3.32s3.09,5.29,3.09,9.25v3.07h-15.7c.28,1.42.9,2.54,1.85,3.35.95.81,2.19,1.22,3.7,1.22,2.5,0,4.45-.88,5.86-2.62l3.61,4.27c-.98,1.36-2.38,2.44-4.18,3.25s-3.75,1.21-5.82,1.21ZM422.71,313.95c-2.31,0-3.69,1.53-4.12,4.59h7.97v-.61c.03-1.27-.29-2.25-.96-2.94-.67-.7-1.63-1.04-2.88-1.04Z"/>
      <path class="cls-5" d="M436.47,320.82c0-4.02.87-7.18,2.6-9.49s4.16-3.47,7.27-3.47c2.27,0,4.17.89,5.72,2.67v-12.84h7.92v36h-7.1l-.4-2.72c-1.63,2.12-3.69,3.19-6.19,3.19-3.02,0-5.41-1.16-7.17-3.47-1.77-2.31-2.65-5.6-2.65-9.87ZM444.37,321.31c0,4.5,1.31,6.75,3.94,6.75,1.75,0,3-.73,3.75-2.2v-9.66c-.72-1.5-1.95-2.25-3.7-2.25-2.44,0-3.76,1.97-3.96,5.91l-.02,1.45Z"/>
      <path class="cls-5" d="M490.7,333.68c-.28-.52-.53-1.27-.75-2.27-1.45,1.83-3.48,2.74-6.09,2.74-2.39,0-4.42-.72-6.09-2.17-1.67-1.45-2.51-3.26-2.51-5.45,0-2.75,1.02-4.83,3.05-6.23,2.03-1.41,4.98-2.11,8.86-2.11h2.44v-1.34c0-2.34-1.01-3.51-3.02-3.51-1.88,0-2.81.93-2.81,2.78h-7.9c0-2.45,1.04-4.44,3.13-5.97s4.75-2.29,7.98-2.29,5.79.79,7.66,2.37,2.84,3.74,2.88,6.49v11.23c.03,2.33.39,4.11,1.08,5.34v.4h-7.9ZM485.76,328.53c.98,0,1.8-.21,2.45-.63.65-.42,1.11-.9,1.39-1.43v-4.05h-2.3c-2.75,0-4.12,1.23-4.12,3.7,0,.72.24,1.3.73,1.75.48.45,1.1.67,1.85.67Z"/>
      <path class="cls-5" d="M515.17,326.56c0-.67-.35-1.21-1.05-1.62s-2.04-.83-4.01-1.27-3.59-1.01-4.88-1.72c-1.28-.71-2.26-1.57-2.93-2.59-.67-1.02-1.01-2.18-1.01-3.49,0-2.33.96-4.25,2.88-5.75s4.44-2.26,7.55-2.26c3.34,0,6.03.76,8.06,2.27,2.03,1.52,3.05,3.51,3.05,5.98h-7.92c0-2.03-1.07-3.05-3.21-3.05-.83,0-1.52.23-2.09.69s-.84,1.04-.84,1.72.34,1.27,1.03,1.71c.69.44,1.78.8,3.29,1.08,1.51.28,2.83.62,3.97,1.01,3.81,1.31,5.72,3.66,5.72,7.05,0,2.31-1.03,4.2-3.08,5.65-2.05,1.45-4.71,2.18-7.98,2.18-2.17,0-4.11-.39-5.81-1.17-1.7-.78-3.03-1.84-3.98-3.19-.95-1.34-1.43-2.76-1.43-4.24h7.38c.03,1.17.42,2.03,1.17,2.57s1.71.81,2.88.81c1.08,0,1.89-.22,2.43-.66s.81-1.01.81-1.71Z"/>
      <path class="cls-5" d="M552.72,333.68c-.28-.52-.53-1.27-.75-2.27-1.45,1.83-3.48,2.74-6.09,2.74-2.39,0-4.42-.72-6.09-2.17-1.67-1.45-2.51-3.26-2.51-5.45,0-2.75,1.02-4.83,3.05-6.23,2.03-1.41,4.98-2.11,8.86-2.11h2.44v-1.34c0-2.34-1.01-3.51-3.02-3.51-1.88,0-2.81.93-2.81,2.78h-7.9c0-2.45,1.04-4.44,3.13-5.97s4.75-2.29,7.98-2.29,5.79.79,7.66,2.37,2.84,3.74,2.88,6.49v11.23c.03,2.33.39,4.11,1.08,5.34v.4h-7.9ZM547.77,328.53c.98,0,1.8-.21,2.45-.63.65-.42,1.11-.9,1.39-1.43v-4.05h-2.3c-2.75,0-4.12,1.23-4.12,3.7,0,.72.24,1.3.73,1.75.48.45,1.1.67,1.85.67Z"/>
      <path class="cls-4" d="M95.01,393.3c0,3.94-.89,7.08-2.66,9.43-1.77,2.35-4.17,3.53-7.18,3.53-2.33,0-4.24-.85-5.74-2.55v11.84h-7.9v-35.11h7.38l.23,2.34c1.52-1.88,3.51-2.81,5.98-2.81,3.12,0,5.55,1.15,7.29,3.46s2.6,5.47,2.6,9.5v.38ZM87.11,392.81c0-4.5-1.31-6.75-3.94-6.75-1.88,0-3.13.67-3.75,2.02v9.98c.69,1.41,1.95,2.11,3.8,2.11,2.52,0,3.81-2.17,3.89-6.52v-.84Z"/>
      <path class="cls-4" d="M112.77,405.8c-.28-.52-.53-1.27-.75-2.27-1.45,1.83-3.48,2.74-6.09,2.74-2.39,0-4.42-.72-6.09-2.17-1.67-1.45-2.51-3.26-2.51-5.45,0-2.75,1.02-4.83,3.05-6.23,2.03-1.41,4.98-2.11,8.86-2.11h2.44v-1.34c0-2.34-1.01-3.51-3.02-3.51-1.88,0-2.81.93-2.81,2.78h-7.9c0-2.45,1.04-4.44,3.13-5.97s4.75-2.29,7.98-2.29,5.79.79,7.66,2.37,2.84,3.74,2.88,6.49v11.23c.03,2.33.39,4.11,1.08,5.34v.4h-7.9ZM107.83,400.64c.98,0,1.8-.21,2.45-.63.65-.42,1.11-.9,1.39-1.43v-4.05h-2.3c-2.75,0-4.12,1.23-4.12,3.7,0,.72.24,1.3.73,1.75.48.45,1.1.67,1.85.67Z"/>
      <path class="cls-4" d="M133.16,374.13v6.3h4.17v5.48h-4.17v11.6c0,.95.17,1.62.52,1.99.34.38,1.02.56,2.04.56.78,0,1.44-.05,1.97-.14v5.65c-1.42.45-2.91.68-4.45.68-2.72,0-4.73-.64-6.02-1.92-1.3-1.28-1.95-3.23-1.95-5.84v-12.59h-3.23v-5.48h3.23v-6.3h7.9Z"/>
      <path class="cls-4" d="M148.16,383.16c1.69-2.12,3.84-3.19,6.47-3.19,2.8,0,4.91.83,6.33,2.48,1.42,1.66,2.15,4.1,2.18,7.34v16.01h-7.92v-15.82c0-1.34-.27-2.33-.82-2.96-.55-.63-1.48-.95-2.79-.95-1.63,0-2.77.52-3.45,1.55v18.19h-7.9v-36h7.9v13.36Z"/>
      <path class="cls-4" d="M189.44,395.39l2.55-14.95h7.57l-5.98,25.36h-6.68l-4.2-15.05-4.22,15.05h-6.68l-5.98-25.36h7.57l2.51,15.3,4.03-15.3h5.51l3.98,14.95Z"/>
      <path class="cls-4" d="M216.67,405.8c-.28-.52-.53-1.27-.75-2.27-1.45,1.83-3.48,2.74-6.09,2.74-2.39,0-4.42-.72-6.09-2.17-1.67-1.45-2.51-3.26-2.51-5.45,0-2.75,1.02-4.83,3.05-6.23,2.03-1.41,4.98-2.11,8.86-2.11h2.44v-1.34c0-2.34-1.01-3.51-3.02-3.51-1.88,0-2.81.93-2.81,2.78h-7.9c0-2.45,1.04-4.44,3.13-5.97s4.75-2.29,7.98-2.29,5.79.79,7.66,2.37,2.84,3.74,2.88,6.49v11.23c.03,2.33.39,4.11,1.08,5.34v.4h-7.9ZM211.72,400.64c.98,0,1.8-.21,2.45-.63.65-.42,1.11-.9,1.39-1.43v-4.05h-2.3c-2.75,0-4.12,1.23-4.12,3.7,0,.72.24,1.3.73,1.75.48.45,1.1.67,1.85.67Z"/>
      <path class="cls-4" d="M237.65,394.73l4.22-14.3h8.46l-10.34,29.6-.45,1.08c-1.47,3.28-4.06,4.92-7.78,4.92-1.03,0-2.12-.16-3.26-.47v-5.63h1.03c1.11,0,1.96-.16,2.54-.48.59-.32,1.02-.9,1.3-1.72l.63-1.69-8.81-25.61h8.44l4.01,14.3Z"/>
      <path class="cls-4" d="M273.53,374.13v6.3h4.17v5.48h-4.17v11.6c0,.95.17,1.62.52,1.99.34.38,1.02.56,2.04.56.78,0,1.44-.05,1.97-.14v5.65c-1.42.45-2.91.68-4.45.68-2.72,0-4.73-.64-6.02-1.92-1.3-1.28-1.95-3.23-1.95-5.84v-12.59h-3.23v-5.48h3.23v-6.3h7.9Z"/>
      <path class="cls-4" d="M279.11,392.88c0-2.53.49-4.79,1.48-6.76s2.4-3.5,4.24-4.56c1.84-1.06,4.01-1.59,6.49-1.59,3.8,0,6.79,1.18,8.98,3.53,2.19,2.35,3.28,5.55,3.28,9.6v.28c0,3.95-1.1,7.09-3.29,9.41-2.2,2.32-5.17,3.48-8.92,3.48s-6.51-1.08-8.7-3.25c-2.19-2.16-3.37-5.1-3.54-8.8l-.02-1.34ZM287.01,393.38c0,2.34.37,4.06,1.1,5.16.73,1.09,1.82,1.64,3.26,1.64,2.81,0,4.25-2.16,4.31-6.49v-.8c0-4.55-1.45-6.82-4.36-6.82-2.64,0-4.07,1.96-4.29,5.88l-.02,1.43Z"/>
      <path class="cls-4" d="M327.51,380.44v26.23c-.02,3-.88,5.31-2.58,6.94-1.7,1.62-4.08,2.44-7.12,2.44-1.31,0-2.55-.13-3.73-.4v-5.98c.91.14,1.65.21,2.23.21,2.19,0,3.28-1.09,3.28-3.26v-26.18h7.92ZM319,373.9c0-1.12.41-2.05,1.22-2.77.81-.72,1.87-1.08,3.16-1.08s2.35.36,3.16,1.08c.81.72,1.22,1.64,1.22,2.77s-.41,2.05-1.22,2.77c-.81.72-1.87,1.08-3.16,1.08s-2.35-.36-3.16-1.08c-.81-.72-1.22-1.64-1.22-2.77Z"/>
      <path class="cls-4" d="M330.97,392.88c0-2.53.49-4.79,1.48-6.76s2.4-3.5,4.24-4.56c1.84-1.06,4.01-1.59,6.49-1.59,3.8,0,6.79,1.18,8.98,3.53,2.19,2.35,3.28,5.55,3.28,9.6v.28c0,3.95-1.1,7.09-3.29,9.41-2.2,2.32-5.17,3.48-8.92,3.48s-6.51-1.08-8.7-3.25c-2.19-2.16-3.37-5.1-3.54-8.8l-.02-1.34ZM338.87,393.38c0,2.34.37,4.06,1.1,5.16.73,1.09,1.82,1.64,3.26,1.64,2.81,0,4.25-2.16,4.31-6.49v-.8c0-4.55-1.45-6.82-4.36-6.82-2.64,0-4.07,1.96-4.29,5.88l-.02,1.43Z"/>
      <path class="cls-4" d="M382.47,393.33c0,4.16-.86,7.35-2.58,9.59-1.72,2.23-4.14,3.35-7.27,3.35-2.58,0-4.66-1.02-6.23-3.07l-.33,2.6h-7.08v-36h7.9v12.68c1.47-1.67,3.37-2.51,5.7-2.51,3.16,0,5.59,1.13,7.31,3.4,1.72,2.27,2.58,5.45,2.58,9.56v.4ZM374.55,392.82c0-2.43-.32-4.17-.97-5.21-.65-1.04-1.64-1.56-2.99-1.56-1.78,0-3.02.68-3.7,2.04v10.06c.67,1.34,1.92,2.01,3.75,2.01s3.04-.9,3.54-2.71c.25-.89.38-2.43.38-4.63Z"/>
      <path class="cls-4" d="M396.9,392.88c0-2.53.49-4.79,1.48-6.76s2.4-3.5,4.24-4.56c1.84-1.06,4.01-1.59,6.49-1.59,3.8,0,6.79,1.18,8.98,3.53,2.19,2.35,3.28,5.55,3.28,9.6v.28c0,3.95-1.1,7.09-3.29,9.41-2.2,2.32-5.17,3.48-8.92,3.48s-6.51-1.08-8.7-3.25c-2.19-2.16-3.37-5.1-3.54-8.8l-.02-1.34ZM404.8,393.38c0,2.34.37,4.06,1.1,5.16.73,1.09,1.82,1.64,3.26,1.64,2.81,0,4.25-2.16,4.31-6.49v-.8c0-4.55-1.45-6.82-4.36-6.82-2.64,0-4.07,1.96-4.29,5.88l-.02,1.43Z"/>
      <path class="cls-4" d="M448.4,393.3c0,3.94-.89,7.08-2.66,9.43-1.77,2.35-4.17,3.53-7.18,3.53-2.33,0-4.24-.85-5.74-2.55v11.84h-7.9v-35.11h7.38l.23,2.34c1.52-1.88,3.51-2.81,5.98-2.81,3.12,0,5.55,1.15,7.29,3.46s2.6,5.47,2.6,9.5v.38ZM440.5,392.81c0-4.5-1.31-6.75-3.94-6.75-1.88,0-3.13.67-3.75,2.02v9.98c.69,1.41,1.95,2.11,3.8,2.11,2.52,0,3.81-2.17,3.89-6.52v-.84Z"/>
      <path class="cls-4" d="M475.42,393.3c0,3.94-.89,7.08-2.66,9.43-1.77,2.35-4.17,3.53-7.18,3.53-2.33,0-4.24-.85-5.74-2.55v11.84h-7.9v-35.11h7.38l.23,2.34c1.52-1.88,3.51-2.81,5.98-2.81,3.12,0,5.55,1.15,7.29,3.46s2.6,5.47,2.6,9.5v.38ZM467.52,392.81c0-4.5-1.31-6.75-3.94-6.75-1.88,0-3.13.67-3.75,2.02v9.98c.69,1.41,1.95,2.11,3.8,2.11,2.52,0,3.81-2.17,3.89-6.52v-.84Z"/>
      <path class="cls-4" d="M477.9,392.88c0-2.53.49-4.79,1.48-6.76s2.4-3.5,4.24-4.56c1.84-1.06,4.01-1.59,6.49-1.59,3.8,0,6.79,1.18,8.98,3.53,2.19,2.35,3.28,5.55,3.28,9.6v.28c0,3.95-1.1,7.09-3.29,9.41-2.2,2.32-5.17,3.48-8.92,3.48s-6.51-1.08-8.7-3.25c-2.19-2.16-3.37-5.1-3.54-8.8l-.02-1.34ZM485.8,393.38c0,2.34.37,4.06,1.1,5.16.73,1.09,1.82,1.64,3.26,1.64,2.81,0,4.25-2.16,4.31-6.49v-.8c0-4.55-1.45-6.82-4.36-6.82-2.64,0-4.07,1.96-4.29,5.88l-.02,1.43Z"/>
      <path class="cls-4" d="M521.19,387.59l-2.6-.19c-2.48,0-4.08.78-4.78,2.34v16.05h-7.9v-25.36h7.41l.26,3.26c1.33-2.48,3.18-3.73,5.55-3.73.84,0,1.58.09,2.2.28l-.14,7.34Z"/>
      <path class="cls-4" d="M534.41,374.13v6.3h4.17v5.48h-4.17v11.6c0,.95.17,1.62.52,1.99.34.38,1.02.56,2.04.56.78,0,1.44-.05,1.97-.14v5.65c-1.42.45-2.91.68-4.45.68-2.72,0-4.73-.64-6.02-1.92-1.3-1.28-1.95-3.23-1.95-5.84v-12.59h-3.23v-5.48h3.23v-6.3h7.9Z"/>
      <path class="cls-4" d="M556.8,403.05c-1.67,2.14-3.93,3.21-6.77,3.21s-4.89-.81-6.32-2.43-2.14-3.94-2.14-6.97v-16.43h7.9v16.48c0,2.17,1.05,3.26,3.16,3.26,1.81,0,3.1-.65,3.87-1.95v-17.79h7.95v25.36h-7.41l-.23-2.74Z"/>
      <path class="cls-4" d="M576.01,380.44l.26,2.98c1.75-2.3,4.16-3.45,7.24-3.45,2.64,0,4.61.79,5.92,2.37,1.3,1.58,1.98,3.95,2.03,7.12v16.34h-7.92v-16.01c0-1.28-.26-2.22-.77-2.82s-1.45-.9-2.81-.9c-1.55,0-2.7.61-3.45,1.83v17.91h-7.9v-25.36h7.41Z"/>
      <path class="cls-4" d="M595.77,373.9c0-1.12.41-2.05,1.22-2.77.81-.72,1.87-1.08,3.16-1.08s2.35.36,3.16,1.08c.81.72,1.22,1.64,1.22,2.77s-.41,2.05-1.22,2.77c-.81.72-1.87,1.08-3.16,1.08s-2.35-.36-3.16-1.08c-.81-.72-1.22-1.64-1.22-2.77ZM604.16,405.8h-7.92v-25.36h7.92v25.36Z"/>
      <path class="cls-4" d="M618.22,374.13v6.3h4.17v5.48h-4.17v11.6c0,.95.17,1.62.52,1.99.34.38,1.02.56,2.04.56.78,0,1.44-.05,1.97-.14v5.65c-1.42.45-2.91.68-4.45.68-2.72,0-4.73-.64-6.02-1.92-1.3-1.28-1.95-3.23-1.95-5.84v-12.59h-3.23v-5.48h3.23v-6.3h7.9Z"/>
      <path class="cls-4" d="M625.44,373.9c0-1.12.41-2.05,1.22-2.77.81-.72,1.87-1.08,3.16-1.08s2.35.36,3.16,1.08c.81.72,1.22,1.64,1.22,2.77s-.41,2.05-1.22,2.77c-.81.72-1.87,1.08-3.16,1.08s-2.35-.36-3.16-1.08c-.81-.72-1.22-1.64-1.22-2.77ZM633.83,405.8h-7.92v-25.36h7.92v25.36Z"/>
      <path class="cls-4" d="M650.97,406.27c-3.89,0-7.04-1.16-9.45-3.48-2.41-2.32-3.61-5.34-3.61-9.06v-.66c0-2.59.48-4.88,1.44-6.87s2.36-3.52,4.21-4.61c1.84-1.09,4.03-1.63,6.56-1.63,3.56,0,6.38,1.11,8.44,3.32s3.09,5.29,3.09,9.25v3.07h-15.7c.28,1.42.9,2.54,1.85,3.35.95.81,2.19,1.22,3.7,1.22,2.5,0,4.45-.88,5.86-2.62l3.61,4.27c-.98,1.36-2.38,2.44-4.18,3.25s-3.75,1.21-5.82,1.21ZM650.08,386.06c-2.31,0-3.69,1.53-4.12,4.59h7.97v-.61c.03-1.27-.29-2.25-.96-2.94-.67-.7-1.63-1.04-2.88-1.04Z"/>
      <path class="cls-4" d="M678.11,398.67c0-.67-.35-1.21-1.05-1.62s-2.04-.83-4.01-1.27-3.59-1.01-4.88-1.72c-1.28-.71-2.26-1.57-2.93-2.59-.67-1.02-1.01-2.18-1.01-3.49,0-2.33.96-4.25,2.88-5.75s4.44-2.26,7.55-2.26c3.34,0,6.03.76,8.06,2.27,2.03,1.52,3.05,3.51,3.05,5.98h-7.92c0-2.03-1.07-3.05-3.21-3.05-.83,0-1.52.23-2.09.69s-.84,1.04-.84,1.72.34,1.27,1.03,1.71c.69.44,1.78.8,3.29,1.08,1.51.28,2.83.62,3.97,1.01,3.81,1.31,5.72,3.66,5.72,7.05,0,2.31-1.03,4.2-3.08,5.65-2.05,1.45-4.71,2.18-7.98,2.18-2.17,0-4.11-.39-5.81-1.17-1.7-.78-3.03-1.84-3.98-3.19-.95-1.34-1.43-2.76-1.43-4.24h7.38c.03,1.17.42,2.03,1.17,2.57s1.71.81,2.88.81c1.08,0,1.89-.22,2.43-.66s.81-1.01.81-1.71Z"/>
      <path class="cls-5" d="M85.75,477.91c-.28-.52-.53-1.27-.75-2.27-1.45,1.83-3.48,2.74-6.09,2.74-2.39,0-4.42-.72-6.09-2.17-1.67-1.45-2.51-3.26-2.51-5.45,0-2.75,1.02-4.83,3.05-6.23,2.03-1.41,4.98-2.11,8.86-2.11h2.44v-1.34c0-2.34-1.01-3.51-3.02-3.51-1.88,0-2.81.93-2.81,2.78h-7.9c0-2.45,1.04-4.44,3.13-5.97s4.75-2.29,7.98-2.29,5.79.79,7.66,2.37,2.84,3.74,2.88,6.49v11.23c.03,2.33.39,4.11,1.08,5.34v.4h-7.9ZM80.8,472.75c.98,0,1.8-.21,2.45-.63.65-.42,1.11-.9,1.39-1.43v-4.05h-2.3c-2.75,0-4.12,1.23-4.12,3.7,0,.72.24,1.3.73,1.75.48.45,1.1.67,1.85.67Z"/>
      <path class="cls-5" d="M104.19,452.55l.26,2.98c1.75-2.3,4.16-3.45,7.24-3.45,2.64,0,4.61.79,5.92,2.37,1.3,1.58,1.98,3.95,2.03,7.12v16.34h-7.92v-16.01c0-1.28-.26-2.22-.77-2.82s-1.45-.9-2.81-.9c-1.55,0-2.7.61-3.45,1.83v17.91h-7.9v-25.36h7.41Z"/>
      <path class="cls-5" d="M123.01,465.04c0-4.02.87-7.18,2.6-9.49s4.16-3.47,7.27-3.47c2.27,0,4.17.89,5.72,2.67v-12.84h7.92v36h-7.1l-.4-2.72c-1.63,2.12-3.69,3.19-6.19,3.19-3.02,0-5.41-1.16-7.17-3.47-1.77-2.31-2.65-5.6-2.65-9.87ZM130.91,465.54c0,4.5,1.31,6.75,3.94,6.75,1.75,0,3-.73,3.75-2.2v-9.66c-.72-1.5-1.95-2.25-3.7-2.25-2.44,0-3.76,1.97-3.96,5.91l-.02,1.45Z"/>
      <path class="cls-4" d="M176.24,470.79c0-.67-.35-1.21-1.05-1.62s-2.04-.83-4.01-1.27-3.59-1.01-4.88-1.72c-1.28-.71-2.26-1.57-2.93-2.59-.67-1.02-1.01-2.18-1.01-3.49,0-2.33.96-4.25,2.88-5.75s4.44-2.26,7.55-2.26c3.34,0,6.03.76,8.06,2.27,2.03,1.52,3.05,3.51,3.05,5.98h-7.92c0-2.03-1.07-3.05-3.21-3.05-.83,0-1.52.23-2.09.69s-.84,1.04-.84,1.72.34,1.27,1.03,1.71c.69.44,1.78.8,3.29,1.08,1.51.28,2.83.62,3.97,1.01,3.81,1.31,5.72,3.66,5.72,7.05,0,2.31-1.03,4.2-3.08,5.65-2.05,1.45-4.71,2.18-7.98,2.18-2.17,0-4.11-.39-5.81-1.17-1.7-.78-3.03-1.84-3.98-3.19-.95-1.34-1.43-2.76-1.43-4.24h7.38c.03,1.17.42,2.03,1.17,2.57s1.71.81,2.88.81c1.08,0,1.89-.22,2.43-.66s.81-1.01.81-1.71Z"/>
      <path class="cls-4" d="M186.55,465c0-2.53.49-4.79,1.48-6.76s2.4-3.5,4.24-4.56c1.84-1.06,4.01-1.59,6.49-1.59,3.8,0,6.79,1.18,8.98,3.53,2.19,2.35,3.28,5.55,3.28,9.6v.28c0,3.95-1.1,7.09-3.29,9.41-2.2,2.32-5.17,3.48-8.92,3.48s-6.51-1.08-8.7-3.25c-2.19-2.16-3.37-5.1-3.54-8.8l-.02-1.34ZM194.45,465.49c0,2.34.37,4.06,1.1,5.16.73,1.09,1.82,1.64,3.26,1.64,2.81,0,4.25-2.16,4.31-6.49v-.8c0-4.55-1.45-6.82-4.36-6.82-2.64,0-4.07,1.96-4.29,5.88l-.02,1.43Z"/>
      <path class="cls-4" d="M225.22,472.29c1.11,0,1.97-.3,2.58-.9s.91-1.44.89-2.52h7.41c0,2.78-1,5.06-2.99,6.84s-4.56,2.67-7.7,2.67c-3.69,0-6.59-1.16-8.72-3.47-2.12-2.31-3.19-5.52-3.19-9.61v-.33c0-2.56.47-4.82,1.42-6.79.95-1.96,2.31-3.47,4.09-4.52s3.89-1.58,6.33-1.58c3.3,0,5.91.91,7.85,2.74,1.94,1.83,2.91,4.3,2.91,7.43h-7.41c0-1.31-.32-2.32-.96-3.02-.64-.7-1.5-1.05-2.58-1.05-2.05,0-3.24,1.3-3.59,3.91-.11.83-.16,1.97-.16,3.42,0,2.55.3,4.31.91,5.3s1.58,1.48,2.91,1.48Z"/>
      <path class="cls-4" d="M239.38,446.01c0-1.12.41-2.05,1.22-2.77.81-.72,1.87-1.08,3.16-1.08s2.35.36,3.16,1.08c.81.72,1.22,1.64,1.22,2.77s-.41,2.05-1.22,2.77c-.81.72-1.87,1.08-3.16,1.08s-2.35-.36-3.16-1.08c-.81-.72-1.22-1.64-1.22-2.77ZM247.77,477.91h-7.92v-25.36h7.92v25.36Z"/>
      <path class="cls-4" d="M251.64,465c0-2.53.49-4.79,1.48-6.76s2.4-3.5,4.24-4.56c1.84-1.06,4.01-1.59,6.49-1.59,3.8,0,6.79,1.18,8.98,3.53,2.19,2.35,3.28,5.55,3.28,9.6v.28c0,3.95-1.1,7.09-3.29,9.41-2.2,2.32-5.17,3.48-8.92,3.48s-6.51-1.08-8.7-3.25c-2.19-2.16-3.37-5.1-3.54-8.8l-.02-1.34ZM259.54,465.49c0,2.34.37,4.06,1.1,5.16.73,1.09,1.82,1.64,3.26,1.64,2.81,0,4.25-2.16,4.31-6.49v-.8c0-4.55-1.45-6.82-4.36-6.82-2.64,0-4.07,1.96-4.29,5.88l-.02,1.43Z"/>
      <path class="cls-4" d="M295.02,466.24h-14.09v-6.09h14.09v6.09Z"/>
      <path class="cls-4" d="M313.44,478.38c-3.89,0-7.04-1.16-9.45-3.48-2.41-2.32-3.61-5.34-3.61-9.06v-.66c0-2.59.48-4.88,1.44-6.87s2.36-3.52,4.21-4.61c1.84-1.09,4.03-1.63,6.56-1.63,3.56,0,6.38,1.11,8.44,3.32s3.09,5.29,3.09,9.25v3.07h-15.7c.28,1.42.9,2.54,1.85,3.35.95.81,2.19,1.22,3.7,1.22,2.5,0,4.45-.88,5.86-2.62l3.61,4.27c-.98,1.36-2.38,2.44-4.18,3.25s-3.75,1.21-5.82,1.21ZM312.55,458.18c-2.31,0-3.69,1.53-4.12,4.59h7.97v-.61c.03-1.27-.29-2.25-.96-2.94-.67-.7-1.63-1.04-2.88-1.04Z"/>
      <path class="cls-4" d="M338.03,472.29c1.11,0,1.97-.3,2.58-.9s.91-1.44.89-2.52h7.41c0,2.78-1,5.06-2.99,6.84s-4.56,2.67-7.7,2.67c-3.69,0-6.59-1.16-8.72-3.47-2.12-2.31-3.19-5.52-3.19-9.61v-.33c0-2.56.47-4.82,1.42-6.79.95-1.96,2.31-3.47,4.09-4.52s3.89-1.58,6.33-1.58c3.3,0,5.91.91,7.85,2.74,1.94,1.83,2.91,4.3,2.91,7.43h-7.41c0-1.31-.32-2.32-.96-3.02-.64-.7-1.5-1.05-2.58-1.05-2.05,0-3.24,1.3-3.59,3.91-.11.83-.16,1.97-.16,3.42,0,2.55.3,4.31.91,5.3s1.58,1.48,2.91,1.48Z"/>
      <path class="cls-4" d="M351.25,465c0-2.53.49-4.79,1.48-6.76s2.4-3.5,4.24-4.56c1.84-1.06,4.01-1.59,6.49-1.59,3.8,0,6.79,1.18,8.98,3.53,2.19,2.35,3.28,5.55,3.28,9.6v.28c0,3.95-1.1,7.09-3.29,9.41-2.2,2.32-5.17,3.48-8.92,3.48s-6.51-1.08-8.7-3.25c-2.19-2.16-3.37-5.1-3.54-8.8l-.02-1.34ZM359.15,465.49c0,2.34.37,4.06,1.1,5.16.73,1.09,1.82,1.64,3.26,1.64,2.81,0,4.25-2.16,4.31-6.49v-.8c0-4.55-1.45-6.82-4.36-6.82-2.64,0-4.07,1.96-4.29,5.88l-.02,1.43Z"/>
      <path class="cls-4" d="M386.45,452.55l.26,2.98c1.75-2.3,4.16-3.45,7.24-3.45,2.64,0,4.61.79,5.92,2.37,1.3,1.58,1.98,3.95,2.03,7.12v16.34h-7.92v-16.01c0-1.28-.26-2.22-.77-2.82s-1.45-.9-2.81-.9c-1.55,0-2.7.61-3.45,1.83v17.91h-7.9v-25.36h7.41Z"/>
      <path class="cls-4" d="M405.27,465c0-2.53.49-4.79,1.48-6.76s2.4-3.5,4.24-4.56c1.84-1.06,4.01-1.59,6.49-1.59,3.8,0,6.79,1.18,8.98,3.53,2.19,2.35,3.28,5.55,3.28,9.6v.28c0,3.95-1.1,7.09-3.29,9.41-2.2,2.32-5.17,3.48-8.92,3.48s-6.51-1.08-8.7-3.25c-2.19-2.16-3.37-5.1-3.54-8.8l-.02-1.34ZM413.17,465.49c0,2.34.37,4.06,1.1,5.16.73,1.09,1.82,1.64,3.26,1.64,2.81,0,4.25-2.16,4.31-6.49v-.8c0-4.55-1.45-6.82-4.36-6.82-2.64,0-4.07,1.96-4.29,5.88l-.02,1.43Z"/>
      <path class="cls-4" d="M440.69,452.55l.26,2.98c1.8-2.3,4.21-3.45,7.24-3.45,3.2,0,5.37,1.27,6.49,3.82,1.72-2.55,4.2-3.82,7.45-3.82,5.14,0,7.78,3.11,7.92,9.33v16.5h-7.92v-16.01c0-1.3-.22-2.24-.66-2.84-.44-.59-1.23-.89-2.39-.89-1.56,0-2.73.7-3.49,2.09l.02.33v17.32h-7.92v-15.96c0-1.33-.21-2.29-.63-2.88s-1.23-.89-2.41-.89c-1.52,0-2.67.7-3.47,2.09v17.65h-7.9v-25.36h7.41Z"/>
      <path class="cls-4" d="M474.51,446.01c0-1.12.41-2.05,1.22-2.77.81-.72,1.87-1.08,3.16-1.08s2.35.36,3.16,1.08c.81.72,1.22,1.64,1.22,2.77s-.41,2.05-1.22,2.77c-.81.72-1.87,1.08-3.16,1.08s-2.35-.36-3.16-1.08c-.81-.72-1.22-1.64-1.22-2.77ZM482.9,477.91h-7.92v-25.36h7.92v25.36Z"/>
      <path class="cls-4" d="M498.48,472.29c1.11,0,1.97-.3,2.58-.9s.91-1.44.89-2.52h7.41c0,2.78-1,5.06-2.99,6.84s-4.56,2.67-7.7,2.67c-3.69,0-6.59-1.16-8.72-3.47-2.12-2.31-3.19-5.52-3.19-9.61v-.33c0-2.56.47-4.82,1.42-6.79.95-1.96,2.31-3.47,4.09-4.52s3.89-1.58,6.33-1.58c3.3,0,5.91.91,7.85,2.74,1.94,1.83,2.91,4.3,2.91,7.43h-7.41c0-1.31-.32-2.32-.96-3.02-.64-.7-1.5-1.05-2.58-1.05-2.05,0-3.24,1.3-3.59,3.91-.11.83-.16,1.97-.16,3.42,0,2.55.3,4.31.91,5.3s1.58,1.48,2.91,1.48Z"/>
      <path class="cls-4" d="M523.72,465.04c0-2.56.42-4.83,1.27-6.8s2.05-3.49,3.63-4.56c1.58-1.07,3.41-1.61,5.51-1.61,2.64,0,4.7.89,6.19,2.67l.28-2.2h7.17v24.4c0,2.23-.52,4.18-1.56,5.82-1.04,1.65-2.54,2.91-4.51,3.8s-4.25,1.32-6.84,1.32c-1.86,0-3.66-.35-5.4-1.05-1.74-.7-3.07-1.62-4-2.74l3.3-4.64c1.47,1.73,3.41,2.6,5.81,2.6,3.5,0,5.25-1.8,5.25-5.39v-.8c-1.52,1.67-3.43,2.51-5.74,2.51-3.09,0-5.59-1.18-7.5-3.55-1.91-2.37-2.86-5.54-2.86-9.5v-.28ZM531.65,465.54c0,2.08.39,3.72,1.17,4.93.78,1.21,1.88,1.82,3.28,1.82,1.7,0,2.94-.57,3.73-1.71v-10.66c-.77-1.16-1.99-1.73-3.68-1.73-1.41,0-2.51.63-3.3,1.89s-1.2,3.08-1.2,5.47Z"/>
      <path class="cls-4" d="M567.6,459.7l-2.6-.19c-2.48,0-4.08.78-4.78,2.34v16.05h-7.9v-25.36h7.41l.26,3.26c1.33-2.48,3.18-3.73,5.55-3.73.84,0,1.58.09,2.2.28l-.14,7.34Z"/>
      <path class="cls-4" d="M568.61,465c0-2.53.49-4.79,1.48-6.76s2.4-3.5,4.24-4.56c1.84-1.06,4.01-1.59,6.49-1.59,3.8,0,6.79,1.18,8.98,3.53,2.19,2.35,3.28,5.55,3.28,9.6v.28c0,3.95-1.1,7.09-3.29,9.41-2.2,2.32-5.17,3.48-8.92,3.48s-6.51-1.08-8.7-3.25c-2.19-2.16-3.37-5.1-3.54-8.8l-.02-1.34ZM576.51,465.49c0,2.34.37,4.06,1.1,5.16.73,1.09,1.82,1.64,3.26,1.64,2.81,0,4.25-2.16,4.31-6.49v-.8c0-4.55-1.45-6.82-4.36-6.82-2.64,0-4.07,1.96-4.29,5.88l-.02,1.43Z"/>
      <path class="cls-4" d="M618.46,467.5l2.55-14.95h7.57l-5.98,25.36h-6.68l-4.2-15.05-4.22,15.05h-6.68l-5.98-25.36h7.57l2.51,15.3,4.03-15.3h5.51l3.98,14.95Z"/>
      <path class="cls-4" d="M640.61,446.25v6.3h4.17v5.48h-4.17v11.6c0,.95.17,1.62.52,1.99.34.38,1.02.56,2.04.56.78,0,1.44-.05,1.97-.14v5.65c-1.42.45-2.91.68-4.45.68-2.72,0-4.73-.64-6.02-1.92-1.3-1.28-1.95-3.23-1.95-5.84v-12.59h-3.23v-5.48h3.23v-6.3h7.9Z"/>
      <path class="cls-4" d="M655.61,455.27c1.69-2.12,3.84-3.19,6.47-3.19,2.8,0,4.91.83,6.33,2.48,1.42,1.66,2.15,4.1,2.18,7.34v16.01h-7.92v-15.82c0-1.34-.27-2.33-.82-2.96-.55-.63-1.48-.95-2.79-.95-1.63,0-2.77.52-3.45,1.55v18.19h-7.9v-36h7.9v13.36Z"/>
      <path class="cls-4" d="M679.87,470.25c1.25,0,2.29.37,3.12,1.11.83.74,1.24,1.69,1.24,2.85s-.41,2.11-1.24,2.85c-.83.74-1.87,1.11-3.12,1.11s-2.31-.38-3.13-1.12-1.23-1.7-1.23-2.84.41-2.09,1.23-2.84,1.86-1.12,3.13-1.12Z"/>
    </g>
  </g>
</svg>